<svg width="21" height="36" viewBox="0 0 21 36" fill="none" xmlns="http://www.w3.org/2000/svg">
<path d="M29.8292 21.8188C29.8292 21.9 29.8292 22.0625 29.7479 22.1438V22.225C29.1792 24.9062 26.9854 26.9375 23.9792 27.1812C22.4354 27.2625 20.9729 26.8562 19.8354 26.125C19.6729 26.0437 19.5104 26.2062 19.5917 26.2875C20.0792 27.0187 20.6479 27.8312 21.4604 28.5625L23.0042 27.9937V30.1875C23.0042 30.5937 22.6792 31 22.1917 31H13.7417C13.2542 31 13.0104 30.5937 13.0104 30.1875V27.9937L14.5542 28.5625C15.3667 27.8312 16.0167 27.0187 16.4229 26.2875C16.5042 26.125 16.3417 26.0437 16.1792 26.125C15.2042 26.775 13.9854 27.1812 12.6854 27.2625H12.0354C8.94795 27.0187 6.83545 24.9875 6.2667 22.3062V22.0625C5.9417 20.4375 5.9417 18.8125 6.2667 17.1875C6.51045 17.1875 6.7542 17.2688 6.99795 17.35C9.11045 13.2875 14.3104 11.0125 16.9104 8.16876C17.1542 7.92501 17.3167 7.68126 17.4792 7.43751C17.7229 7.11251 18.2104 7.11251 18.4542 7.43751C19.9979 9.55001 23.0854 11.2563 25.6854 13.3688C26.9854 14.5063 28.2042 15.725 28.9354 17.1063C29.1792 17.025 29.4229 16.9438 29.6667 16.9438C30.1542 18.65 30.1542 20.275 29.8292 21.8188Z" fill="#CC104A"/>
<path d="M25.4417 17.4312V26.9375C26.5792 26.6125 27.473 26.0437 28.2042 25.2312V17.4312H25.4417ZM9.7605 17.4312H8.1355V25.475C8.623 25.9625 9.19175 26.2875 9.7605 26.6125V17.4312ZM10.7355 17.4312V26.9375C11.1417 27.0187 11.6292 27.1 12.0355 27.1812H12.6855V17.4312H10.7355ZM14.798 28.3187C14.7167 28.4 14.6355 28.4812 14.6355 28.5625V31H16.748V28.3187H14.798ZM17.723 28.3187H20.323V31H17.723V28.3187ZM23.4917 27.1V17.4312H21.623V26.9375C21.8667 27.0187 22.1917 27.1 22.4355 27.1H23.4917Z" fill="#DF3260"/>
<path d="M23.9794 24.9875C22.4356 25.15 20.9732 24.6625 19.8357 23.9312C19.6732 23.85 19.5107 24.0125 19.6732 24.0937C20.4044 25.2312 21.3794 26.3687 22.7607 27.425C23.3294 27.8312 23.0857 28.8062 22.2732 28.8062H13.7419C13.0107 28.8062 12.6857 27.8312 13.2544 27.425C14.7169 26.45 15.6919 25.2312 16.3419 24.0937C16.4232 23.9312 16.2607 23.85 16.0982 23.9312C15.1232 24.5812 13.9044 24.9875 12.6044 24.9875H11.9544C7.8919 24.6625 5.4544 21.25 6.1044 17.2687C7.0794 11.9062 13.6607 9.30625 16.7482 5.975C16.9919 5.73125 17.1544 5.4875 17.3169 5.24375C17.5607 4.91875 18.0482 4.91875 18.2919 5.24375C19.8356 7.35625 22.9232 9.0625 25.5231 11.175C27.4732 12.8 29.0981 14.6687 29.5856 17.1875C30.5606 21.25 28.0419 24.6625 23.9794 24.9875Z" fill="#FC6589"/>
<path d="M13.7417 28.3187C13.498 28.3187 13.3355 27.9937 13.5792 27.8312C14.8792 26.8562 16.0167 25.7187 16.8292 24.4187C17.1542 23.85 16.5042 23.2 15.9355 23.6062C14.8792 24.3375 13.5792 24.6625 12.1167 24.5812C8.37923 24.3375 6.10423 21.1687 6.75423 17.4312C7.64798 12.2312 14.148 9.79374 17.3167 6.46249C17.5605 6.21874 17.723 5.97499 17.9667 5.73124C17.9667 5.64999 18.048 5.64999 18.048 5.64999C18.048 5.64999 18.1292 5.64999 18.1292 5.73124C19.7542 7.84374 22.923 9.71249 25.4417 11.7437C27.798 13.6937 28.9355 15.4 29.3417 17.4312C29.9917 21.1687 27.7167 24.3375 23.9792 24.5812C22.598 24.6625 21.298 24.3375 20.1605 23.6062C19.5917 23.2 18.9417 23.85 19.2667 24.5C20.0792 25.8812 21.2167 27.0187 22.5167 27.9937C22.6792 28.075 22.598 28.2375 22.598 28.3187C22.598 28.4 22.5167 28.4812 22.3542 28.4812H13.7417V28.3187Z" fill="#F45170"/>
<path d="M29.3418 17.2687C29.0168 15.2375 27.798 13.45 25.4418 11.5812C24.548 10.85 23.573 10.1187 22.598 9.38749L21.8668 8.89999C22.0293 9.63124 22.1105 10.4437 22.1918 11.2562C22.5168 17.9187 16.5855 23.6062 10.248 24.0125C10.8168 24.2562 11.4668 24.4187 12.1168 24.4187H12.6855C13.823 24.4187 14.9605 24.0937 15.9355 23.4437C16.0168 23.3625 16.1793 23.3625 16.2605 23.3625C16.5043 23.3625 16.6668 23.525 16.8293 23.6875C16.9105 23.85 16.9105 24.0937 16.8293 24.3375C16.0168 25.7187 14.8793 26.8562 13.5793 27.75C13.4168 27.8312 13.498 27.9937 13.498 28.075C13.498 28.1562 13.5793 28.2375 13.7418 28.2375H22.273C22.4355 28.2375 22.5168 28.075 22.5168 28.075C22.5168 27.9937 22.598 27.9125 22.4355 27.75C21.1355 26.775 19.998 25.6375 19.1855 24.2562C19.1043 24.0937 19.023 23.85 19.1855 23.6062C19.2668 23.4437 19.5105 23.2812 19.7543 23.2812C19.9168 23.2812 19.998 23.2812 20.0793 23.3625C21.0543 24.0125 22.1918 24.4187 23.4105 24.4187H23.898C25.6855 24.2562 27.148 23.525 28.2043 22.225C29.2605 20.925 29.6668 19.1375 29.3418 17.2687Z" fill="#DF3260"/>
<path opacity="0.7" d="M8.05415 18.8125C8.70415 19.0563 8.86665 17.8375 9.51665 16.4563C10.1666 15.075 10.8979 14.1 10.3291 13.8563C9.67915 13.6125 8.70415 14.5063 8.05415 15.8875C7.40415 17.1875 7.40415 18.4875 8.05415 18.8125Z" fill="white"/>
<path opacity="0.7" d="M11.6569 13.3186C12.0068 13.0376 12.1083 12.583 11.8836 12.303C11.6588 12.0231 11.193 12.0239 10.8431 12.3048C10.4931 12.5857 10.3917 13.0404 10.6164 13.3203C10.8411 13.6003 11.307 13.5995 11.6569 13.3186Z" fill="white"/>
<path d="M23.4104 17.4313C23.3292 17.4313 23.2479 17.5938 23.4104 17.675C23.9792 18 24.3854 18.325 24.3854 18.325C24.3854 18.325 23.8979 18.1625 23.3292 17.8375C23.2479 17.7563 23.0854 17.8375 23.0854 18C23.3292 19.2188 23.5729 20.3563 23.4917 20.3563C23.4104 20.3563 23.0854 19.3 22.7604 18.0813C22.7604 18 22.5979 17.9188 22.5167 18.0813C22.1917 18.65 21.8667 19.0563 21.8667 19.0563C21.8667 19.0563 22.1104 18.5688 22.3542 18C22.4354 17.9188 22.3542 17.7563 22.1917 17.7563C20.9729 18 19.8354 18.2438 19.8354 18.1625C19.8354 18.0813 20.8917 17.7563 22.1104 17.4313C22.1917 17.4313 22.2729 17.2688 22.1104 17.1875C21.5417 16.8625 21.1354 16.5375 21.1354 16.5375C21.1354 16.5375 21.6229 16.7 22.1917 17.025C22.2729 17.1063 22.4354 17.025 22.4354 16.8625C22.1917 15.6438 21.9479 14.5063 22.0292 14.5063C22.1104 14.5063 22.4354 15.5625 22.7604 16.7813C22.7604 16.8625 22.9229 16.9438 23.0042 16.7813C23.3292 16.2125 23.6542 15.8063 23.6542 15.8063C23.6542 15.8063 23.4917 16.2938 23.1667 16.8625C23.0854 16.9438 23.1667 17.1063 23.3292 17.1063C24.5479 16.8625 25.6854 16.6188 25.6854 16.7C25.6854 16.7813 24.5479 17.1063 23.4104 17.4313Z" fill="white"/>
</svg>
