<svg width="25" height="24" viewBox="0 0 25 24" fill="none" xmlns="http://www.w3.org/2000/svg">
<path opacity="0.2" d="M21.5 12.0001C21.5013 13.2623 21.2365 14.5105 20.7228 15.6634C20.2091 16.8164 19.4581 17.848 18.5188 18.691C17.954 17.5802 17.0927 16.6473 16.0304 15.9959C14.9681 15.3444 13.7462 14.9998 12.5 15.0001C13.2417 15.0001 13.9667 14.7802 14.5834 14.3681C15.2001 13.956 15.6807 13.3704 15.9645 12.6851C16.2484 11.9999 16.3226 11.2459 16.1779 10.5185C16.0333 9.79107 15.6761 9.12288 15.1517 8.59843C14.6272 8.07399 13.959 7.71683 13.2316 7.57214C12.5042 7.42744 11.7502 7.50171 11.0649 7.78554C10.3797 8.06937 9.79405 8.55001 9.38199 9.1667C8.96994 9.78338 8.75 10.5084 8.75 11.2501C8.75 12.2446 9.14509 13.1985 9.84835 13.9017C10.5516 14.605 11.5054 15.0001 12.5 15.0001C11.2538 14.9998 10.0319 15.3444 8.96958 15.9959C7.90725 16.6473 7.04601 17.5802 6.48125 18.691C5.36586 17.6878 4.51896 16.4216 4.01756 15.0076C3.51615 13.5937 3.37615 12.0769 3.61028 10.595C3.84442 9.1132 4.44526 7.71341 5.35817 6.52294C6.27108 5.33246 7.4671 4.38908 8.83747 3.77857C10.2078 3.16807 11.7091 2.9098 13.2047 3.02727C14.7003 3.14473 16.1428 3.6342 17.4011 4.45116C18.6593 5.26812 19.6934 6.38665 20.4093 7.70505C21.1251 9.02344 21.5001 10.4999 21.5 12.0001Z" fill="#828282"/>
<path d="M12.5 2.25C10.5716 2.25 8.68657 2.82183 7.08319 3.89317C5.47982 4.96451 4.23013 6.48726 3.49218 8.26884C2.75422 10.0504 2.56114 12.0108 2.93735 13.9021C3.31355 15.7934 4.24215 17.5307 5.60571 18.8943C6.96928 20.2579 8.70656 21.1865 10.5979 21.5627C12.4892 21.9389 14.4496 21.7458 16.2312 21.0078C18.0127 20.2699 19.5355 19.0202 20.6068 17.4168C21.6782 15.8134 22.25 13.9284 22.25 12C22.2473 9.41498 21.2192 6.93661 19.3913 5.10872C17.5634 3.28084 15.085 2.25273 12.5 2.25ZM7.445 18.5156C7.98757 17.6671 8.73501 16.9688 9.61843 16.4851C10.5019 16.0013 11.4928 15.7478 12.5 15.7478C13.5072 15.7478 14.4982 16.0013 15.3816 16.4851C16.265 16.9688 17.0124 17.6671 17.555 18.5156C16.1097 19.6397 14.331 20.2499 12.5 20.2499C10.669 20.2499 8.89032 19.6397 7.445 18.5156ZM9.5 11.25C9.5 10.6567 9.67595 10.0766 10.0056 9.58329C10.3352 9.08994 10.8038 8.70542 11.352 8.47836C11.9001 8.2513 12.5033 8.19189 13.0853 8.30764C13.6672 8.4234 14.2018 8.70912 14.6213 9.12868C15.0409 9.54824 15.3266 10.0828 15.4424 10.6647C15.5581 11.2467 15.4987 11.8499 15.2716 12.3981C15.0446 12.9462 14.6601 13.4148 14.1667 13.7444C13.6734 14.0741 13.0933 14.25 12.5 14.25C11.7044 14.25 10.9413 13.9339 10.3787 13.3713C9.81607 12.8087 9.5 12.0456 9.5 11.25ZM18.665 17.4759C17.8285 16.2638 16.6524 15.3261 15.2844 14.7806C16.0192 14.2019 16.5554 13.4085 16.8184 12.5108C17.0815 11.6132 17.0582 10.6559 16.752 9.77207C16.4457 8.88825 15.8716 8.12183 15.1096 7.5794C14.3475 7.03696 13.4354 6.74548 12.5 6.74548C11.5646 6.74548 10.6525 7.03696 9.89044 7.5794C9.12839 8.12183 8.55432 8.88825 8.24805 9.77207C7.94179 10.6559 7.91855 11.6132 8.18157 12.5108C8.44459 13.4085 8.9808 14.2019 9.71563 14.7806C8.34765 15.3261 7.17147 16.2638 6.335 17.4759C5.27804 16.2873 4.5872 14.8185 4.34567 13.2464C4.10415 11.6743 4.32224 10.0658 4.97368 8.61478C5.62512 7.16372 6.68213 5.93192 8.01745 5.06769C9.35276 4.20346 10.9094 3.74367 12.5 3.74367C14.0906 3.74367 15.6473 4.20346 16.9826 5.06769C18.3179 5.93192 19.3749 7.16372 20.0263 8.61478C20.6778 10.0658 20.8959 11.6743 20.6543 13.2464C20.4128 14.8185 19.722 16.2873 18.665 17.4759Z" fill="#828282"/>
</svg>
