<svg width="25" height="24" viewBox="0 0 25 24" fill="none" xmlns="http://www.w3.org/2000/svg">
<path opacity="0.2" d="M9.5 3.75L12.6425 12H5.75L9.5 3.75ZM19.25 12H12.6425L15.5 19.5L19.25 12Z" fill="#828282"/>
<path d="M23 12.0001C23 12.199 22.921 12.3898 22.7803 12.5304C22.6397 12.6711 22.4489 12.7501 22.25 12.7501H19.7131L16.1713 19.8357C16.1089 19.9603 16.0131 20.0651 15.8945 20.1383C15.7759 20.2115 15.6393 20.2502 15.5 20.2501H15.4625C15.317 20.2429 15.1768 20.1935 15.0589 20.1079C14.941 20.0223 14.8506 19.9043 14.7987 19.7682L9.43906 5.69632L6.4325 12.3104C6.37294 12.4414 6.27691 12.5526 6.15589 12.6306C6.03487 12.7085 5.89396 12.75 5.75 12.7501H2.75C2.55109 12.7501 2.36032 12.6711 2.21967 12.5304C2.07902 12.3898 2 12.199 2 12.0001C2 11.8012 2.07902 11.6104 2.21967 11.4697C2.36032 11.3291 2.55109 11.2501 2.75 11.2501H5.26719L8.8175 3.43976C8.87871 3.30498 8.97843 3.19133 9.1041 3.11312C9.22978 3.03491 9.37579 2.99563 9.52375 3.00024C9.6717 3.00485 9.81498 3.05314 9.93554 3.13903C10.0561 3.22492 10.1486 3.34456 10.2013 3.48289L15.5928 17.6391L18.5788 11.6663C18.6408 11.5414 18.7366 11.4362 18.8551 11.3627C18.9737 11.2891 19.1105 11.2501 19.25 11.2501H22.25C22.4489 11.2501 22.6397 11.3291 22.7803 11.4697C22.921 11.6104 23 11.8012 23 12.0001Z" fill="#828282"/>
</svg>
