<svg width="18" height="20" viewBox="0 0 18 20" fill="none" xmlns="http://www.w3.org/2000/svg">
<path fill-rule="evenodd" clip-rule="evenodd" d="M8.99997 0.178589C7.0248 0.178589 5.35626 0.741625 4.18312 1.92429C3.01105 3.10589 2.45447 4.78409 2.45447 6.77002C2.45447 7.55659 2.3395 8.00165 2.21702 8.27295C2.09979 8.53262 1.94847 8.69745 1.7292 8.89957C1.70186 8.92479 1.67122 8.95229 1.638 8.9821C1.42729 9.1712 1.11272 9.45352 0.877889 9.83456C0.58186 10.3149 0.428589 10.8979 0.428589 11.6671C0.428589 12.7155 1.00893 13.4829 1.73145 14.0031C2.435 14.5096 3.34132 14.8392 4.22825 15.0619C6.0128 15.5099 8.0162 15.5963 8.99997 15.5963C9.98373 15.5963 11.9872 15.51 13.7717 15.0619C14.6587 14.8392 15.565 14.5096 16.2686 14.0031C16.9912 13.483 17.5714 12.7155 17.5714 11.6671C17.5714 10.8979 17.4182 10.3149 17.1222 9.83453C16.8873 9.45347 16.5727 9.17116 16.362 8.98207C16.3287 8.95226 16.2982 8.92476 16.2707 8.89956C16.0514 8.69742 15.9002 8.5326 15.7829 8.27295C15.6604 8.00165 15.5454 7.5566 15.5454 6.77002C15.5454 4.78409 14.9889 3.10589 13.8169 1.92429C12.6437 0.741625 10.9751 0.178589 8.99997 0.178589ZM4.24019 6.77002C4.24019 5.10886 4.70109 3.93777 5.45092 3.18186C6.19967 2.42702 7.35746 1.9643 8.99997 1.9643C10.6425 1.9643 11.8003 2.42702 12.549 3.18186C13.2989 3.93777 13.7597 5.10886 13.7597 6.77002C13.7597 7.72319 13.898 8.4377 14.1554 9.00776C14.418 9.58946 14.7733 9.94777 15.0604 10.2125C15.1097 10.258 15.1544 10.2987 15.195 10.3358C15.4069 10.5291 15.5113 10.6245 15.6019 10.7714C15.6857 10.9074 15.7857 11.1465 15.7857 11.6671C15.7857 11.9661 15.6446 12.252 15.2253 12.5538C14.787 12.8693 14.1312 13.1304 13.3369 13.3299C11.7587 13.7262 9.92287 13.8105 8.99997 13.8105C8.07707 13.8105 6.24123 13.7261 4.66317 13.3299C3.8688 13.1304 3.21299 12.8693 2.77473 12.5538C2.35545 12.252 2.2143 11.9661 2.2143 11.6671C2.2143 11.1465 2.31427 10.9075 2.39809 10.7714C2.48867 10.6245 2.59316 10.5291 2.80493 10.3358C2.84563 10.2987 2.89029 10.2579 2.93957 10.2125C3.22677 9.94775 3.58193 9.58943 3.84455 9.00773C4.10192 8.43769 4.24019 7.72317 4.24019 6.77002ZM6.73579 16.6884C6.44135 16.6884 6.16582 16.8337 5.99935 17.0766C5.83286 17.3194 5.79683 17.6287 5.90302 17.9034C6.13957 18.5152 6.54552 19.0129 7.10576 19.3483C7.65645 19.6779 8.30625 19.8214 8.99965 19.8214C9.69305 19.8214 10.3428 19.6779 10.8935 19.3483C11.4538 19.0129 11.8597 18.5152 12.0963 17.9034C12.2025 17.6287 12.1664 17.3194 11.9999 17.0766C11.8335 16.8337 11.558 16.6884 11.2635 16.6884H6.73579Z" fill="#321C1C"/>
</svg>
