<svg width="49" height="46" viewBox="0 0 49 46" fill="none" xmlns="http://www.w3.org/2000/svg">
<rect width="49" height="46" rx="8" fill="#FF8811"/>
<path d="M17.5766 27.712C19.0233 27.712 19.7466 27.194 19.7466 26.158C19.7466 25.402 19.5693 24.926 19.2146 24.73C18.8693 24.5247 18.0853 24.422 16.8626 24.422L16.8066 27.684C17.124 27.7027 17.3806 27.712 17.5766 27.712ZM17.4926 23.274C18.2113 23.2553 18.72 23.162 19.0186 22.994C19.3173 22.826 19.4666 22.476 19.4666 21.944C19.4666 21.4027 19.294 21.0433 18.9486 20.866C18.6033 20.6887 18.0806 20.6 17.3806 20.6H16.8766C16.858 21.776 16.8486 22.6627 16.8486 23.26L17.4926 23.274ZM17.5066 29.014H14.0486L13.9226 28.244C14.408 28.048 14.8 27.9127 15.0986 27.838C15.0986 27.81 15.0566 25.3413 14.9726 20.432C14.8233 20.3947 14.436 20.2733 13.8106 20.068L13.9226 19.214H17.8006C18.9113 19.214 19.7746 19.4287 20.3906 19.858C21.0066 20.2873 21.3146 20.908 21.3146 21.72C21.3146 22.112 21.2073 22.5367 20.9926 22.994C20.7873 23.4513 20.5493 23.722 20.2786 23.806C20.6893 24.03 21.0113 24.3427 21.2446 24.744C21.478 25.1453 21.5946 25.6073 21.5946 26.13C21.5946 26.9887 21.2446 27.684 20.5446 28.216C19.8446 28.748 18.832 29.014 17.5066 29.014ZM25.555 21.832C25.7323 21.832 25.8443 21.8367 25.891 21.846C25.891 22.3033 25.8117 22.728 25.653 23.12C25.6157 25.136 25.5923 26.648 25.583 27.656L26.675 27.782C26.675 28.1647 26.5677 28.5707 26.353 29H22.867L22.741 28.23C23.3197 28.0153 23.7397 27.8753 24.001 27.81L23.847 23.274C23.2963 23.218 22.8903 23.148 22.629 23.064C22.629 22.8307 22.6617 22.4947 22.727 22.056C23.2777 21.9067 24.2203 21.832 25.555 21.832ZM25.555 19.186C25.639 19.606 25.681 19.928 25.681 20.152C25.681 20.3667 25.6623 20.6093 25.625 20.88C25.2517 20.964 24.9343 21.006 24.673 21.006C24.421 21.006 24.113 20.992 23.749 20.964C23.665 20.544 23.623 20.2267 23.623 20.012C23.623 19.788 23.6417 19.5407 23.679 19.27C24.0523 19.186 24.365 19.144 24.617 19.144C24.8783 19.144 25.191 19.158 25.555 19.186ZM32.5916 26.578C32.2836 26.774 31.957 26.9187 31.6116 27.012C31.2663 27.096 30.9303 27.138 30.6036 27.138C30.2863 27.138 30.0063 27.1053 29.7636 27.04C29.661 27.2827 29.563 27.4647 29.4696 27.586C29.5443 27.698 30.3283 27.754 31.8216 27.754C32.755 27.754 33.413 27.8987 33.7956 28.188C33.973 28.3093 34.127 28.5007 34.2576 28.762C34.3976 29.0233 34.4676 29.3593 34.4676 29.77C34.4676 30.19 34.2623 30.61 33.8516 31.03C33.441 31.45 32.9276 31.7813 32.3116 32.024C31.6956 32.2667 31.0843 32.388 30.4776 32.388C29.4696 32.388 28.653 32.1873 28.0276 31.786C27.4023 31.394 27.0896 30.904 27.0896 30.316C27.0896 30.204 27.253 29.9287 27.5796 29.49C27.9063 29.0607 28.121 28.8133 28.2236 28.748C28.1303 28.7013 27.967 28.5473 27.7336 28.286C27.5003 28.0153 27.3696 27.824 27.3416 27.712C27.463 27.376 27.8363 26.956 28.4616 26.452C27.7336 26.0133 27.3696 25.276 27.3696 24.24C27.3696 23.4187 27.6496 22.7933 28.2096 22.364C28.779 21.9347 29.5256 21.72 30.4496 21.72C31.383 21.72 32.0876 21.846 32.5636 22.098C33.357 21.958 33.917 21.888 34.2436 21.888C34.5796 21.888 34.799 21.8927 34.9016 21.902C34.9016 22.126 34.8456 22.3827 34.7336 22.672C34.631 22.952 34.533 23.148 34.4396 23.26L33.2356 22.98C33.469 23.316 33.5856 23.75 33.5856 24.282C33.5856 24.814 33.497 25.2807 33.3196 25.682C33.1423 26.074 32.8996 26.3727 32.5916 26.578ZM32.5216 30.582C32.587 30.4047 32.6196 30.1993 32.6196 29.966C32.6196 29.7327 32.517 29.56 32.3116 29.448C32.1063 29.3453 31.8636 29.294 31.5836 29.294C30.4916 29.294 29.7683 29.2847 29.4136 29.266C29.339 29.4247 29.2456 29.6487 29.1336 29.938C29.0216 30.2367 28.9656 30.414 28.9656 30.47C28.9656 30.526 29.003 30.6053 29.0776 30.708C29.1523 30.82 29.311 30.9367 29.5536 31.058C29.8056 31.1793 30.109 31.24 30.4636 31.24C30.8276 31.24 31.2523 31.156 31.7376 30.988C32.223 30.82 32.4843 30.6847 32.5216 30.582ZM31.3876 23.148C31.173 22.896 30.8696 22.77 30.4776 22.77C30.0856 22.77 29.7776 22.896 29.5536 23.148C29.339 23.4 29.2316 23.7687 29.2316 24.254C29.2316 24.73 29.3436 25.1033 29.5676 25.374C29.7916 25.6447 30.095 25.78 30.4776 25.78C31.3083 25.78 31.7236 25.2667 31.7236 24.24C31.7236 23.764 31.6116 23.4 31.3876 23.148Z" fill="white"/>
</svg>
