<svg width="49" height="46" viewBox="0 0 49 46" fill="none" xmlns="http://www.w3.org/2000/svg">
<rect width="49" height="46" rx="8" fill="#FF8811"/>
<path d="M19.8621 22.862C20.7721 23.212 21.4161 24.234 21.4161 25.368C21.4161 26.922 20.2261 28 18.6721 28H14.9621V18.34H18.3361C19.7921 18.34 20.9261 19.39 20.9261 20.818C20.9261 21.686 20.4921 22.484 19.8621 22.862ZM17.7901 20.3H17.1041V22.106H17.7901C18.2941 22.106 18.7001 21.728 18.7001 21.21C18.7001 20.678 18.3081 20.3 17.7901 20.3ZM18.1541 26.04C18.7421 26.04 19.1901 25.578 19.1901 25.004C19.1901 24.416 18.7421 23.954 18.1541 23.954H17.1041V26.04H18.1541ZM23.4469 20.034C22.7189 20.034 22.1589 19.488 22.1589 18.774C22.1589 18.046 22.7189 17.514 23.4469 17.514C24.1889 17.514 24.7349 18.046 24.7349 18.774C24.7349 19.488 24.1889 20.034 23.4469 20.034ZM22.4249 28V20.86H24.4689V28H22.4249ZM31.1176 20.86H33.1616V27.23C33.1616 29.4 31.6916 30.828 29.1576 30.828C28.0236 30.828 26.9316 30.548 26.1896 30.058V28.056C26.9176 28.616 28.0936 28.952 29.0736 28.952C30.4736 28.952 31.1176 28.28 31.1176 27.216V27.076C30.5716 27.594 29.8296 27.902 28.9616 27.902C27.0016 27.902 25.5316 26.362 25.5316 24.29C25.5316 22.246 27.0016 20.692 28.9616 20.692C29.8296 20.692 30.5716 21 31.1176 21.532V20.86ZM29.3816 26.054C30.3756 26.054 31.1176 25.298 31.1176 24.29C31.1176 23.296 30.3756 22.554 29.3816 22.554C28.3736 22.554 27.6316 23.296 27.6316 24.29C27.6316 25.298 28.3736 26.054 29.3816 26.054Z" fill="white"/>
</svg>
