<svg width="36" height="36" viewBox="0 0 36 36" fill="none" xmlns="http://www.w3.org/2000/svg">
<path d="M18 2.40002C12.6 2.40002 8.30005 6.70003 8.30005 12.1V17.8C8.30005 18.4 11.6 20.2 18 20.2C24.7 20.2 27.7001 18.4 27.7001 17.8V12.1C27.7001 6.70003 23.4 2.40002 18 2.40002Z" fill="#F45170"/>
<path d="M22.7 3.59998C22.7 3.59998 26.5 8.79998 24.3 10.7C19.7 14.6 8.50002 10.7 8.50002 10.7C8.40002 11.2 8.40002 11.6 8.40002 12.1V17.8C8.40002 18.4 11.7 20.2 18.1 20.2C24.8 20.2 27.8 18.4 27.8 17.8V12.1C27.7 8.39998 25.7 5.29998 22.7 3.59998Z" fill="#E93565"/>
<path d="M30.2 32.5C22 34 13.9 34 5.70004 32.5C4.00004 32.2 2.70004 30.7 2.40004 28.9C1.80004 25.5 1.90004 23.2 2.40004 19.8C2.70004 17.9 4.00004 16.5 5.70004 16.2C13.9 14.7 22 14.7 30.2 16.2C31.9 16.5 33.2 18 33.5 19.8C34.1 23.2 34.1 25.5 33.5 28.9C33.3 30.7 31.9 32.2 30.2 32.5Z" fill="#497BFE"/>
<path d="M29.1 15.9C27.8 15.7 26.5 15.5 25.2 15.4V33.2C26.5 33.1 27.8 32.9 29.1 32.7V15.9ZM14.4 15.1C12.6 15.2 10.9 15.4 9.09998 15.6V33C10.9 33.2 12.6 33.4 14.4 33.5V15.1ZM20.1 15.1C18.9 15.1 17.7 15.1 16.5 15.1V33.6C17.7 33.6 18.9 33.6 20.1 33.6V15.1Z" fill="#5094FF"/>
<path d="M30.1 28.9C22 30.2 13.9 30.2 5.8 28.9C4.1 28.6 2.8 27.3 2.5 25.6C2 22.5 2 20.6 2.5 17.5C2.8 15.8 4.1 14.5 5.8 14.2C13.9 12.9 22 12.9 30.1 14.2C31.8 14.5 33.1 15.8 33.4 17.5C34 20.6 34 22.5 33.4 25.6C33.1 27.3 31.8 28.6 30.1 28.9Z" fill="#95DBF9"/>
<path d="M6.00002 28.1C4.70002 27.9 3.60002 26.8 3.40002 25.5C2.90002 22.5 2.90002 20.7 3.40002 17.7C3.60002 16.3 4.60002 15.2 6.00002 15C14 13.7 22 13.7 30 15C31.3 15.2 32.4 16.3 32.6 17.6C33.1 20.6 33.1 22.4 32.6 25.4C32.4 26.8 31.3 27.8 30 28C22.3 29.3 14.3 29.4 6.00002 28.1Z" fill="#57B3FE"/>
<path opacity="0.7" d="M5.10003 16.8C5.20003 17.2 6.30002 16.7 7.70002 16.3C9.00002 16 10.2 16 10.1 15.6C10 15.2 8.80002 15.1 7.40003 15.4C6.00003 15.7 5.00003 16.4 5.10003 16.8ZM11.7 15C11.3 15 10.9 15.1 10.8 15.3C10.7 15.5 11 15.7 11.4 15.7C11.8 15.7 12.2 15.6 12.3 15.4C12.3 15.2 12.1 15 11.7 15Z" fill="white"/>
<path opacity="0.7" d="M22.9229 27.9965C25.6785 27.8182 27.9008 27.495 27.8865 27.2745C27.8723 27.0541 25.6268 27.0199 22.8712 27.1982C20.1156 27.3765 17.8933 27.6998 17.9075 27.9202C17.9218 28.1407 20.1672 28.1748 22.9229 27.9965Z" fill="white"/>
<path d="M29.2999 19.2V25.4C29.2999 25.9 28.9 26.4 28.2999 26.4H28.2C27.8 26.4 27.5 26.2 27.4 26L23.9 21V25.7C23.9 26.7 22.4 26.7 22.4 25.7V19.5C22.4 19 22.8 18.5 23.4 18.5H23.5C23.7 18.5 24 18.6 24.2999 18.9L27.7999 23.9V19.2C27.7999 19 27.9 18.8 28 18.7C28.2999 18.4 28.8 18.4 29.1 18.7C29.2 18.8 29.2999 18.9 29.2999 19.2ZM15.7 19L14.2 23.8L12.8 19C12.6 18.2 11.4 18.2 11.1 19L9.59995 23.8L8.19995 19C7.99995 18.4 7.29995 18.3 6.89995 18.6C6.69995 18.8 6.69995 19.1 6.69995 19.4L8.69995 25.7C8.79995 26.1 9.19995 26.4 9.59995 26.4C9.99995 26.4 10.4 26.2 10.5 25.7L11.9 21.3L13.3 25.7C13.4 26.1 13.8 26.4 14.2 26.4C14.6 26.4 14.9 26.2 15.1 25.7L17.1 19.4C17.2 19 17.1 18.8 16.9 18.6C16.7 18.2 15.9 18.3 15.7 19ZM20.2 19.2V25.6C20.2 26.1 19.8 26.4 19.4 26.4C18.9 26.4 18.6 26.1 18.6 25.6V19.2C18.7 18.1 20.2 18.1 20.2 19.2Z" fill="#497BFE"/>
<path d="M29.3 18.2V24.4C29.3 24.9 28.9 25.4 28.3 25.4H28.2C27.8 25.4 27.5 25.2 27.4 25L23.9 20V24.7C23.9 25.2 23.5 25.5 23.1 25.5C22.7 25.5 22.3 25.2 22.3 24.7V18.5C22.3 18.2 22.4 18 22.6 17.8C22.8 17.6 23 17.5 23.3 17.5H23.4C23.6 17.5 23.9 17.6 24.2 17.9L27.7 22.9V18.2C27.7 18 27.8 17.8 27.9 17.7C28.2 17.4 28.7 17.4 29 17.7C29.2 17.8 29.3 18 29.3 18.2ZM15.7 18L14.2 22.8L12.8 18C12.7 17.6 12.3 17.4 12 17.4C11.6 17.4 11.3 17.6 11.2 18L9.70001 22.8L8.20001 18C8.10001 17.6 7.60001 17.3 7.20001 17.4C6.80001 17.5 6.50001 17.8 6.70001 18.4L8.70001 24.7C8.80001 25.1 9.20001 25.4 9.60001 25.4C10 25.4 10.4 25.1 10.5 24.7L11.9 20.3L13.3 24.7C13.4 25.1 13.8 25.4 14.2 25.4C14.6 25.4 14.9 25.2 15.1 24.7L17.1 18.4C17.3 17.9 17 17.5 16.6 17.4C16.3 17.3 15.9 17.5 15.7 18ZM20.2 18.2V24.6C20.2 25.1 19.8 25.4 19.4 25.4C18.9 25.4 18.6 25.1 18.6 24.6V18.2C18.7 17.1 20.2 17.2 20.2 18.2Z" fill="white"/>
<path opacity="0.5" d="M6.89995 18.4C6.99995 18.6 7.29995 18.6 7.59995 18.4C7.79995 18.2 7.99995 18 7.79995 17.8C7.69995 17.6 7.29995 17.5 7.09995 17.7C6.89995 17.8 6.79995 18.2 6.89995 18.4Z" fill="#F3F1FC"/>
<path d="M7.09998 18C7.09998 18.1 7.19998 18 7.29998 18C7.39998 17.9 7.39998 17.9 7.39998 17.8C7.39998 17.7 7.29998 17.7 7.19998 17.8C7.09998 17.8 7.09998 17.9 7.09998 18Z" fill="white"/>
<path opacity="0.5" d="M11.4 18.4C11.5 18.6 11.8 18.6 12.1 18.4C12.4 18.2 12.5 18 12.4 17.8C12.3 17.6 11.9 17.5 11.7 17.7C11.4 17.9 11.3 18.2 11.4 18.4Z" fill="#F3F1FC"/>
<path d="M11.6 18C11.6 18.1 11.7 18 11.8 18C11.9 17.9 11.9 17.9 11.9 17.8C11.9 17.7 11.8 17.7 11.7 17.8C11.6 17.8 11.6 17.9 11.6 18Z" fill="white"/>
<path opacity="0.5" d="M16 18.4C16.1 18.6 16.4 18.6 16.7 18.4C17 18.2 17.1 18 17 17.8C16.9 17.6 16.5 17.5 16.3 17.7C15.9 17.9 15.8 18.2 16 18.4Z" fill="#F3F1FC"/>
<path d="M16.2 18C16.2 18.1 16.3 18 16.4 18C16.5 17.9 16.5 17.9 16.5 17.8C16.5 17.7 16.4 17.7 16.3 17.8C16.2 17.9 16.1 18 16.2 18Z" fill="white"/>
<path opacity="0.5" d="M18.9 18.4C19 18.6 19.3 18.6 19.6 18.4C19.9 18.2 20 18 19.9 17.8C19.8 17.6 19.4 17.5 19.2 17.7C18.9 17.9 18.8 18.2 18.9 18.4Z" fill="#F3F1FC"/>
<path d="M19.1 18C19.1 18.1 19.2 18 19.3 18C19.4 17.9 19.4 17.9 19.4 17.8C19.4 17.7 19.3 17.7 19.2 17.8C19.1 17.9 19.1 18 19.1 18Z" fill="white"/>
<path opacity="0.5" d="M28 18.4C28.1 18.6 28.4 18.6 28.7 18.4C29 18.2 29.1 18 29 17.8C28.9 17.6 28.5 17.5 28.3 17.7C28 17.8 27.9 18.2 28 18.4Z" fill="#F3F1FC"/>
<path d="M28.2 18C28.2 18.1 28.3 18 28.4 18C28.5 17.9 28.5 17.9 28.5 17.8C28.5 17.7 28.3999 17.7 28.2999 17.8C28.1999 17.8 28.2 17.9 28.2 18Z" fill="white"/>
<path opacity="0.5" d="M22.7 18.6C22.9 18.9 23.2 18.8 23.5 18.6C23.8 18.4 24 18.1 23.9 17.9C23.7 17.6 23.3 17.6 23 17.8C22.7 18 22.6 18.4 22.7 18.6Z" fill="#F3F1FC"/>
<path d="M23 18.1C23 18.2 23.1 18.1 23.2 18.1C23.3 18 23.4 18 23.3 17.9C23.2 17.8 23.1 17.8 23 17.9C23 17.9 22.9 18.1 23 18.1Z" fill="white"/>
<path opacity="0.25" d="M11.9 7.89998C12.5 9.29998 14.4 8.99998 16.6 8.09998C18.8 7.19998 20.3 5.99998 19.8 4.59998C19.3 3.19998 17 2.89998 14.8 3.79998C12.7 4.69998 11.3 6.49998 11.9 7.89998Z" fill="white"/>
<path opacity="0.7" d="M14.3 5.40002C14.4 5.80002 15 5.70002 15.5 5.50002C16.1 5.30002 16.5 4.90002 16.3 4.60002C16.2 4.20002 15.6 4.10002 15 4.40002C14.5 4.60002 14.1 5.10002 14.3 5.40002Z" fill="white"/>
<path d="M20.5 13.1C20.4 13.2 20.4 13.4 20.6 13.4C21.4 13.5 22.1 13.7 22.1 13.7C22.1 13.8 21.4 13.7 20.6 13.6C20.4 13.6 20.3 13.8 20.4 13.9C21.4 15.2 22.2 16.5 22.1 16.5C22 16.7 21 15.5 20 14.3C19.9 14.2 19.7 14.2 19.7 14.4C19.6 15.2 19.4 15.9 19.4 15.9C19.3 15.9 19.4 15.2 19.5 14.4C19.5 14.2 19.3 14.1 19.2 14.2C17.9 15.1 16.6 16 16.6 15.9C16.5 15.8 17.7 14.8 18.9 13.8C19 13.7 19 13.5 18.8 13.5C18 13.4 17.3 13.2 17.3 13.2C17.3 13.1 18 13.2 18.8 13.3C19 13.3 19.1 13.1 19 13C18 11.7 17.2 10.4 17.3 10.4C17.4 10.3 18.4 11.5 19.4 12.7C19.5 12.8 19.7 12.8 19.7 12.6C19.8 11.8 20 11.1 20 11.1C20.1 11.1 20 11.8 19.9 12.6C19.9 12.8 20.1 12.9 20.2 12.8C21.5 11.9 22.8 11 22.8 11.1C22.9 11 21.7 12 20.5 13.1Z" fill="white"/>
</svg>
