<svg width="20" height="20" viewBox="0 0 20 20" fill="none" xmlns="http://www.w3.org/2000/svg">
<g clip-path="url(#clip0_175_863)">
<path fill-rule="evenodd" clip-rule="evenodd" d="M15.9078 5.18581C14.8408 4.52612 13.5544 5.15259 13.2968 6.31469C13.1426 7.01036 13.0004 7.90258 12.9417 8.92858H1.07179C0.48006 8.92858 0.000366211 9.40828 0.000366211 10C0.000366211 10.5917 0.48006 11.0714 1.07179 11.0714H12.9516C13.0153 12.0304 13.1506 12.8663 13.2968 13.5256C13.5544 14.6877 14.8408 15.3141 15.9078 14.6544C17.5401 13.6453 18.9294 12.0546 19.6869 10.9387C20.1061 10.3214 20.1061 9.51885 19.6869 8.90153C18.9294 7.78563 17.5401 6.19493 15.9078 5.18581Z" fill="#321C1C"/>
</g>
<defs>
<clipPath id="clip0_175_863">
<rect width="20" height="20" fill="white"/>
</clipPath>
</defs>
</svg>
