<svg width="40" height="40" viewBox="0 0 40 40" fill="none" xmlns="http://www.w3.org/2000/svg">
<path d="M29.5375 6.81566C30.3 6.44691 30.8282 5.66879 30.8282 4.76566C30.8282 4.16229 30.5885 3.58364 30.1618 3.15699C29.7352 2.73035 29.1565 2.49066 28.5532 2.49066C27.9498 2.49066 27.3712 2.73035 26.9445 3.15699C26.5179 3.58364 26.2782 4.16229 26.2782 4.76566C26.2782 5.68129 26.8188 6.46566 27.5969 6.82816C26.6969 11.7032 25.3157 15.3313 20.175 16.1063C20.175 16.1063 21.5594 23.0282 28.0344 23.0282C34.5094 23.0282 35.1657 16.175 35.1657 16.175C29.9125 16.4438 29.4688 9.84066 29.5375 6.81566Z" fill="#F19534"/>
<path d="M10.8563 6.81566C10.0938 6.44691 9.56568 5.66879 9.56568 4.76566C9.56568 4.16229 9.80536 3.58364 10.232 3.15699C10.6587 2.73035 11.2373 2.49066 11.8407 2.49066C12.444 2.49066 13.0227 2.73035 13.4493 3.15699C13.876 3.58364 14.1157 4.16229 14.1157 4.76566C14.1157 5.68129 13.5751 6.46566 12.7969 6.82816C13.6969 11.7032 15.0782 15.3313 20.2188 16.1063C20.2188 16.1063 18.8344 23.0282 12.3594 23.0282C5.88443 23.0282 5.2313 16.1782 5.2313 16.1782C10.4813 16.4438 10.9251 9.84066 10.8563 6.81566Z" fill="#F19534"/>
<path d="M27.9468 23.0282C27.975 23.0282 28.0031 23.0313 28.0312 23.0313C29.8156 23.0313 31.1562 22.5094 32.1625 21.7563L27.9468 23.0282Z" fill="#FFB74A"/>
<path d="M37.2625 5.26879C36.2219 5.12817 35.2281 6.11879 35.0469 7.47504C34.9344 8.32192 35.1625 9.11254 35.6031 9.62192L34.8531 12.7313C34.8531 12.7313 33.7062 20.0782 27.9125 21.5282C23.2812 22.6875 21.6031 14.2094 21.1969 11.5907C22.0781 11.1532 22.6875 10.2469 22.6875 9.19379C22.6875 7.71567 21.4906 6.51879 20.0125 6.51879C18.5344 6.51879 17.3375 7.71567 17.3375 9.19379C17.3375 10.2532 17.9562 11.1688 18.8531 11.6C18.5312 14.1844 17.1125 22.3813 12.1125 21.525C7.03748 20.6532 4.82186 12.1063 4.30936 9.78129C4.91873 9.28129 5.25936 8.40004 5.13436 7.45317C4.95311 6.09379 3.87811 5.11879 2.73436 5.27192C1.59061 5.42504 0.812485 6.65004 0.993735 8.00629C1.12499 8.99379 1.73123 9.77817 2.49061 10.075L6.46561 34.7719C6.46561 34.7719 9.93436 37.5125 20.0125 37.5125C30.0906 37.5125 33.5594 34.7719 33.5594 34.7719L37.5437 10.0094C38.1875 9.67192 38.6937 8.91254 38.8187 7.98129C39.0031 6.62192 38.3062 5.40942 37.2625 5.26879Z" fill="#FFB74A"/>
<path d="M20.1375 31.222C21.8185 31.222 23.1812 29.5976 23.1812 27.5939C23.1812 25.5901 21.8185 23.9658 20.1375 23.9658C18.4564 23.9658 17.0937 25.5901 17.0937 27.5939C17.0937 29.5976 18.4564 31.222 20.1375 31.222Z" fill="#1B3A4B"/>
<path d="M20.1376 24.8626C20.2563 24.9939 20.3626 25.2345 20.1376 25.7032C19.9126 26.172 18.7001 26.8064 18.4782 26.9345C18.2563 27.0657 18.1094 27.0064 18.0407 26.9532C17.7126 26.6907 17.8376 26.097 18.0501 25.7345C18.5063 24.9501 19.4719 24.1407 20.1376 24.8626Z" fill="#006466"/>
<path d="M19.9125 28.947C19.5687 29.1126 18.4406 29.6157 18.8125 30.2126C19.0312 30.5657 19.4844 30.7157 19.9 30.7345C20.3156 30.7532 20.725 30.622 21.0937 30.4313C22.8437 29.5251 22.9844 27.1438 22.6437 26.9626C22.2937 26.7751 22.0562 27.2595 21.875 27.4657C21.3239 28.0829 20.6571 28.5862 19.9125 28.947Z" fill="#144552"/>
<path d="M36.9031 24.6251C37.3906 21.9283 35.5781 21.2533 35.5781 21.2533C35.5781 21.2533 34.4093 21.0408 33.8593 24.0751C33.3093 27.1064 34.4781 27.3189 34.4781 27.3189C34.4781 27.3189 36.4124 27.322 36.9031 24.6251Z" fill="#1B3A4B"/>
<path d="M36.0968 22.175C36.5218 22.7437 36.0187 23.5844 35.2031 24.1437C34.9625 24.3094 34.6437 24.2469 34.5968 24.1094C34.4656 23.7156 34.5218 23.2687 34.6968 22.8906C35.2156 21.7562 35.8812 21.8875 36.0968 22.175Z" fill="#006466"/>
<path d="M3.04999 24.7063C2.55937 22.0125 4.37499 21.3344 4.37499 21.3344C4.37499 21.3344 5.54374 21.1219 6.09374 24.1563C6.64374 27.1875 5.47499 27.4 5.47499 27.4C5.47499 27.4 3.53749 27.4031 3.04999 24.7063Z" fill="#1B3A4B"/>
<path d="M4.93115 22.25C5.3499 22.5625 5.17803 22.9719 4.8624 23.2563C4.50303 23.5844 4.22803 23.9438 3.92178 24.3157C3.8749 24.3719 3.82178 24.4344 3.74678 24.45C3.60303 24.4813 3.4874 24.3344 3.44053 24.1938C3.30615 23.8 3.33115 23.3375 3.53115 22.975C4.0999 21.9407 4.76865 22.1282 4.93115 22.25Z" fill="#006466"/>
<path d="M31.2469 27.2376C31.0313 28.4657 30.0469 29.3188 29.0438 29.1438C28.0407 28.9688 27.9032 27.922 28.1188 26.6938C28.3344 25.4657 28.8188 24.5251 29.8188 24.7001C30.8219 24.8751 31.4625 26.0126 31.2469 27.2376Z" fill="#4D194D"/>
<path d="M9.50931 27.2376C9.72494 28.4657 10.7093 29.3188 11.7124 29.1438C12.7156 28.9688 12.8531 27.922 12.6374 26.6938C12.4218 25.4657 11.9374 24.5251 10.9374 24.7001C9.93744 24.8751 9.29681 26.0126 9.50931 27.2376Z" fill="#4D194D"/>
<path d="M10.9625 26.4188C10.7344 26.6751 10.1781 27.1907 9.98124 26.797C9.71249 26.2595 10.0844 25.447 10.5094 25.1782C10.9344 24.9095 11.2812 25.122 11.3406 25.3626C11.4125 25.6688 11.1656 26.1876 10.9625 26.4188Z" fill="#FFA8A4" fill-opacity="0.1"/>
<path d="M28.7437 27.2032C28.4344 27.1563 28.4 26.0907 29.2312 25.2532C29.6281 24.8532 30.1969 25.3282 30.0531 25.9688C29.9156 26.5782 29.3094 27.2907 28.7437 27.2032Z" fill="#FFA8A4" fill-opacity="0.1"/>
<path d="M34.1093 30.6907C32.2375 31.6282 27.9437 34.125 20.0156 34.125C12.0875 34.125 7.7937 31.6282 5.92183 30.6907C5.92183 30.6907 5.24995 31.05 5.24995 31.425V34.3032C5.24995 34.6875 5.45308 35.0407 5.78433 35.2375C7.24683 36.1 11.7031 38.1375 20.0187 38.1375C28.3343 38.1375 32.7906 36.1 34.2531 35.2375C34.4157 35.1417 34.5505 35.0051 34.6442 34.8412C34.7379 34.6774 34.7873 34.4919 34.7875 34.3032V31.425C34.7812 31.05 34.1093 30.6907 34.1093 30.6907Z" fill="#FFB74A"/>
<path d="M12.375 34.6376C13.25 34.8095 13.5157 34.8845 13.4563 35.372C13.3344 36.3314 11.3438 36.1032 10.1657 35.7938C7.7313 35.1532 7.23755 34.4782 7.23755 33.8751C7.23755 33.322 7.66255 33.2563 8.3188 33.4876C9.10317 33.7657 10.3157 34.2345 12.375 34.6376Z" fill="#FFF59D"/>
<path d="M34.1094 31.3219C34.1094 31.3219 28.9313 34.2531 20.0157 34.2531C11.1 34.2531 5.92192 31.3219 5.92192 31.3219" stroke="#F19534" stroke-width="1.6" stroke-miterlimit="10" stroke-linecap="round"/>
<path d="M8.42813 15.4908C10.0906 14.3033 10.9844 12.1751 11.0625 8.78763C11.0688 8.48138 11.1563 8.39076 11.3219 8.37201C11.5875 8.34388 11.6313 8.58451 11.6281 8.75638C11.5531 12.4126 11.0875 14.697 9.24376 15.9845C9.15313 16.047 8.50626 16.4408 8.23126 16.1689C7.90313 15.8501 8.32188 15.5658 8.42813 15.4908Z" fill="#FFB74A"/>
<path d="M9.94996 4.85636C9.89684 4.29073 10.0281 3.27198 11.5125 2.80948C11.9468 2.67511 12.2156 2.88761 12.2656 3.05323C12.3906 3.46573 12.0281 3.62823 11.8625 3.68136C10.7218 4.05011 10.6656 4.61886 10.4312 4.98136C10.1968 5.34386 9.96871 5.02823 9.94996 4.85636Z" fill="#FFB74A"/>
<path d="M24.4437 14.7406C25.9468 13.4062 26.9437 11.9156 27.5999 8.52187C27.6593 8.22187 27.7468 8.14062 27.9093 8.14687C28.1749 8.15312 28.1874 8.4 28.1593 8.56875C27.6031 12.1875 27.0749 13.2187 25.2218 15.2719C25.0124 15.5031 24.5031 15.7125 24.2156 15.4719C23.9562 15.2562 24.2562 14.9094 24.4437 14.7406Z" fill="#FFB74A"/>
<path d="M26.6562 4.88443C26.6031 4.31881 26.7343 3.30006 28.2187 2.83756C28.6531 2.70318 28.9218 2.91568 28.9718 3.08131C29.0968 3.49381 28.7343 3.65631 28.5687 3.70943C27.4281 4.07818 27.3718 4.64693 27.1375 5.00943C26.9062 5.37193 26.675 5.05631 26.6562 4.88443Z" fill="#FFB74A"/>
<path d="M9.87187 22.3813C6.24062 20.7344 5.17187 16.4375 4.60312 14.5719C4.52812 14.325 4.56562 14.0907 4.8125 14.0157C5.05937 13.9407 5.20625 14.1 5.28437 14.3469C5.69687 15.7 7.3 20.2188 10.6094 21.5032C10.85 21.5969 11.225 21.825 11.0219 22.2157C10.8875 22.4688 10.4562 22.6469 9.87187 22.3813Z" fill="#FFF59D"/>
<path d="M3.96254 7.69694C3.78754 7.33444 3.71567 6.99069 2.76254 6.59382C2.52192 6.49382 2.36254 6.27194 2.42817 6.02194C2.49379 5.77194 2.74379 5.58444 3.10629 5.64694C4.28442 5.85007 4.54067 7.04694 4.59067 7.46257C4.63754 7.86257 4.14067 8.05944 3.96254 7.69694Z" fill="#FFF59D"/>
<path d="M30.2718 22.3813C33.9031 20.7344 34.9718 16.4375 35.5406 14.5719C35.6156 14.325 35.5781 14.0907 35.3312 14.0157C35.0843 13.9407 34.9374 14.1 34.8593 14.3469C34.4468 15.7 32.8437 20.2188 29.5343 21.5032C29.2937 21.5969 28.9187 21.825 29.1218 22.2157C29.2562 22.4688 29.6874 22.6469 30.2718 22.3813Z" fill="#FFF59D"/>
<path d="M36.1813 7.69694C36.3563 7.33444 36.4281 6.99069 37.3813 6.59382C37.6219 6.49382 37.7813 6.27194 37.7156 6.02194C37.65 5.77194 37.4 5.58444 37.0375 5.64694C35.8594 5.85007 35.6031 7.04694 35.5531 7.46257C35.5063 7.86257 36.0063 8.05944 36.1813 7.69694Z" fill="#FFF59D"/>
<path d="M18.5563 9.23452C18.7469 8.8439 19.0813 8.30952 20.1719 8.08452C20.5906 7.99702 20.7125 7.81577 20.675 7.54077C20.6 6.9689 19.8875 7.00952 19.5031 7.10015C18.2219 7.40015 17.9375 8.53765 17.8844 8.98765C17.8313 9.41577 18.3688 9.62515 18.5563 9.23452Z" fill="#FFF59D"/>
</svg>
