<svg width="52" height="52" viewBox="0 0 52 52" fill="none" xmlns="http://www.w3.org/2000/svg">
<circle cx="26" cy="26" r="25.5" fill="#FF8811" stroke="#321C1C"/>
<path d="M30.8 17L32.905 13.49C32.9646 13.3909 32.9967 13.2777 32.9982 13.162C32.9998 13.0464 32.9705 12.9324 32.9136 12.8318C32.8567 12.7311 32.774 12.6473 32.6741 12.589C32.5742 12.5308 32.4607 12.5 32.345 12.5H19.655C19.5393 12.5 19.4258 12.5308 19.3259 12.589C19.226 12.6473 19.1433 12.7311 19.0864 12.8318C19.0295 12.9324 19.0003 13.0464 19.0018 13.162C19.0033 13.2777 19.0355 13.3909 19.095 13.49L21.2 17L21.5 17.5H30.5L30.8 17Z" fill="#543424"/>
<path d="M23.6905 17L22.535 12.763C22.4946 12.6146 22.4889 12.459 22.5184 12.308C22.5479 12.1571 22.6118 12.0151 22.7052 11.8929C22.7985 11.7707 22.9188 11.6717 23.0567 11.6035C23.1945 11.5354 23.3462 11.5 23.5 11.5H28.5C28.6538 11.5 28.8055 11.5354 28.9433 11.6035C29.0812 11.6717 29.2015 11.7707 29.2948 11.8929C29.3882 12.0151 29.4521 12.1571 29.4816 12.308C29.5111 12.459 29.5054 12.6146 29.465 12.763L28.3095 17L26 18L23.6905 17ZM31.5 19C35.925 21.7 38.5 26.97 38.5 30.91C38.5 36.205 32.905 40.5 26 40.5C19.095 40.5 13.5 36.205 13.5 30.91C13.5 26.97 16.075 21.7 20.5 19V18.5H31.5V19Z" fill="#6D4732"/>
<path d="M31.5 17H20.5C19.9477 17 19.5 17.4477 19.5 18C19.5 18.5523 19.9477 19 20.5 19H31.5C32.0523 19 32.5 18.5523 32.5 18C32.5 17.4477 32.0523 17 31.5 17Z" fill="#E2AC4D"/>
<path d="M32.4751 27.5C32.4531 27.4324 32.4134 27.372 32.3601 27.325C31.6451 26.655 29.9401 25.06 29.4651 24.615C29.385 24.5405 29.2795 24.4993 29.1701 24.5H22.8351C22.7221 24.5011 22.6135 24.5438 22.5301 24.62L19.6401 27.315C19.5853 27.3648 19.5455 27.4289 19.5251 27.5C19.4998 27.5748 19.4948 27.6549 19.5106 27.7322C19.5264 27.8095 19.5625 27.8812 19.6151 27.94C20.6751 29.11 24.3201 32.985 25.5751 34.315C25.6293 34.3738 25.6953 34.4205 25.7686 34.4524C25.842 34.4842 25.9212 34.5004 26.0012 34.5C26.0811 34.4995 26.1601 34.4824 26.2331 34.4497C26.3061 34.417 26.3715 34.3694 26.4251 34.31L32.3851 27.945C32.4388 27.8858 32.4755 27.8132 32.4913 27.7349C32.5072 27.6566 32.5015 27.5754 32.4751 27.5Z" fill="#60DCDD"/>
<path d="M32.385 27.945L26.425 34.31C26.3712 34.3694 26.3056 34.417 26.2325 34.4497C26.1593 34.4824 26.0801 34.4995 26 34.5L29 27.5H32.475C32.5015 27.5754 32.5071 27.6566 32.4913 27.7349C32.4754 27.8132 32.4387 27.8858 32.385 27.945Z" fill="#53C5C6"/>
<path d="M23 24.5H29V27.5H23V24.5Z" fill="#78EDFD"/>
<path d="M26.0001 34.5C25.9202 34.5005 25.8412 34.4843 25.768 34.4524C25.6948 34.4206 25.6291 34.3738 25.5751 34.315C24.3201 32.985 20.6751 29.11 19.6151 27.94C19.5625 27.8812 19.5264 27.8095 19.5106 27.7322C19.4948 27.6549 19.4998 27.5747 19.5251 27.5H23.0001L26.0001 34.5Z" fill="#53C5C6"/>
</svg>
