<svg width="50" height="50" viewBox="0 0 50 50" fill="none" xmlns="http://www.w3.org/2000/svg">
<g clip-path="url(#clip0_123_41)">
<path d="M25 50.0001C38.8071 50.0001 50 38.8072 50 25.0001C50 11.193 38.8071 0.00012207 25 0.00012207C11.1929 0.00012207 -2.47955e-05 11.193 -2.47955e-05 25.0001C-2.47955e-05 38.8072 11.1929 50.0001 25 50.0001Z" fill="#644E4E"/>
<path d="M24.9999 46.6268C36.9441 46.6268 46.6268 36.9441 46.6268 24.9999C46.6268 13.0557 36.9441 3.37305 24.9999 3.37305C13.0557 3.37305 3.37306 13.0557 3.37306 24.9999C3.37306 36.9441 13.0557 46.6268 24.9999 46.6268Z" fill="#321C1C"/>
<path d="M40.0753 23.0213L37.9396 17.5377L29.2713 14.7676H24.9999H20.7286L12.0602 17.5377L9.92456 23.0213L24.9999 41.2751L40.0753 23.0213Z" fill="#5F3D3D"/>
<path d="M37.9396 15.6532L29.2713 12.8831H24.9999H20.7286L12.0602 15.6532L9.92456 21.1368L24.9999 39.3906L40.0753 21.1368L37.9396 15.6532Z" fill="#FEDE3A"/>
<path d="M24.9999 39.3907L18.9698 25L9.92456 21.137L24.9999 39.3907Z" fill="#E7AD27"/>
<path d="M25 39.3907L31.0302 25L40.0754 21.137L25 39.3907Z" fill="#E7AD27"/>
<path d="M25 24.9999H31.0302L29.2714 19.4094H25V24.9999Z" fill="#FFC733"/>
<path d="M25 24.9999H18.9698L20.7286 19.4094H25V24.9999Z" fill="#FFC733"/>
<path d="M20.7286 19.4096L12.0602 15.6533L9.92456 21.137L18.9698 25.0001L20.7286 19.4096Z" fill="#FFE36C"/>
<path d="M29.2712 19.4096L37.9396 15.6533L40.0753 21.137L31.03 25.0001L29.2712 19.4096Z" fill="#FFE36C"/>
<path d="M33.4485 15.3141L33.7876 16.4133C33.8944 16.7588 34.1645 17.0289 34.51 17.1357L35.6093 17.4749C35.7035 17.5063 35.7035 17.6382 35.6093 17.6633L34.51 18.0025C34.1645 18.1093 33.8944 18.3794 33.7876 18.7249L33.4485 19.8241C33.417 19.9183 33.2851 19.9183 33.26 19.8241L32.9208 18.7249C32.814 18.3794 32.5439 18.1093 32.1985 18.0025L31.0992 17.6633C31.005 17.6319 31.005 17.5 31.0992 17.4749L32.1985 17.1357C32.5439 17.0289 32.814 16.7588 32.9208 16.4133L33.26 15.3141C33.2851 15.2199 33.4233 15.2199 33.4485 15.3141ZM19.8366 20.7977L20.4711 22.8518C20.6658 23.4925 21.1683 23.995 21.8153 24.1897L23.8693 24.8241C24.0452 24.8807 24.0452 25.1256 23.8693 25.1759L21.8153 25.8103C21.1683 26.005 20.6658 26.5075 20.4711 27.1545L19.8366 29.2085C19.7801 29.3844 19.5351 29.3844 19.4849 29.2085L18.8505 27.1545C18.6557 26.5075 18.1532 26.005 17.5062 25.8103L15.4522 25.1759C15.2763 25.1194 15.2763 24.8744 15.4522 24.8241L17.5062 24.1897C18.1532 23.995 18.6557 23.4925 18.8505 22.8455L19.4849 20.7915C19.5351 20.6219 19.7864 20.6219 19.8366 20.7977Z" fill="white"/>
</g>
<defs>
<clipPath id="clip0_123_41">
<rect width="50" height="50" fill="white"/>
</clipPath>
</defs>
</svg>
