<svg width="50" height="50" viewBox="0 0 50 50" fill="none" xmlns="http://www.w3.org/2000/svg">
<path d="M15.9723 45L11.5278 45.1389C10.6945 45.1389 10 44.5833 9.58336 43.6111C7.63892 38.1944 3.05559 25.5556 2.9167 25.4167C2.77781 24.8611 2.77781 24.3056 2.9167 23.75H7.36114L15.9723 45Z" fill="#36712D"/>
<path d="M38.4722 4.86111L7.36107 23.75H2.91663C3.05551 23.0556 3.47218 22.5 4.02774 22.0833C29.5833 7.22223 33.1944 5.13889 33.1944 5.13889C33.4722 5 33.75 4.86111 34.0277 4.86111H38.4722Z" fill="#4B9534"/>
<path d="M45.9722 27.9167L16.8056 44.8611C15.8334 45.4167 14.5834 44.8611 14.0278 43.4722L7.50003 25.4167C7.08336 24.1667 7.50003 22.6389 8.47225 21.9444L37.6389 4.99999C38.6111 4.44443 39.8611 4.99999 40.4167 6.24999L47.0834 24.4444C47.5 25.8333 47.0834 27.3611 45.9722 27.9167Z" fill="#7FCC62"/>
<path d="M14.7222 43.3334L8.05552 25.1389C7.63886 24.1667 8.05552 22.9167 8.74997 22.5L38.0555 5.69446C38.75 5.27779 39.4444 5.83335 39.7222 6.66668L46.3889 24.8611C46.8055 25.8333 46.3889 27.0833 45.6944 27.5L16.3889 44.1667C15.6944 44.5833 15 44.0278 14.7222 43.3334Z" fill="#6EB954"/>
<path d="M41.9445 21.25C40.5556 22.3611 40 24.4444 40.4167 26.3889C40.5556 26.8055 40.2778 27.2222 40 27.3611L20.2778 38.75C20 38.8889 19.5834 38.75 19.4445 38.4722C18.6111 36.8055 16.9445 35.9722 15.4167 36.5278C15.1389 36.6667 14.7222 36.3889 14.7222 36.1111L12.3611 29.7222C12.2222 29.3055 12.3611 28.8889 12.6389 28.6111C14.0278 27.5 14.5833 25.4167 14.1667 23.4722C14.0278 23.0555 14.3056 22.6389 14.5834 22.5L34.1667 11.1111C34.4445 10.9722 34.8611 11.1111 35 11.3889C35.8334 13.0555 37.5 13.8889 39.0278 13.3333C39.3056 13.1944 39.7222 13.4722 39.8611 13.75L42.2222 20.1389C42.2222 20.5555 42.0834 20.9722 41.9445 21.25Z" fill="#4B9534"/>
<path d="M35.4166 17.0834C35.5555 16.9445 35.8333 16.9445 36.1111 17.0834L37.9166 17.9167C38.3333 18.0556 38.6111 18.75 38.4722 19.3056L37.7778 21.5278C37.6389 21.8056 37.5 21.9445 37.3611 22.0834C37.2222 22.2222 36.9444 22.2222 36.6666 22.0834L34.8611 21.25C34.4444 21.1111 34.1666 20.4167 34.3055 19.8611L35 17.6389C35.1389 17.3611 35.2778 17.2222 35.4166 17.0834ZM25 19.0278C27.6389 17.5 30.5555 19.0278 31.8055 22.3611C33.0555 25.6945 31.9444 29.5834 29.3055 30.9722C26.6666 32.5 23.75 30.9722 22.5 27.6389C21.3889 24.3056 22.5 20.4167 25 19.0278Z" fill="#6EB954"/>
<path d="M17.0833 27.6389C17.2222 27.5 17.5 27.5 17.7778 27.6389L19.5833 28.4722C20 28.6111 20.2778 29.3056 20.1389 29.8611L19.4444 32.2222C19.3056 32.5 19.1667 32.6389 19.0278 32.7778C18.8889 32.9167 18.6111 32.9167 18.4722 32.7778L16.5278 31.9445C16.1111 31.8056 15.8333 31.1111 15.9722 30.5556L16.6667 28.3333C16.8056 28.0556 16.9444 27.7778 17.0833 27.6389Z" fill="#6EB954"/>
<path d="M29.7223 25.4166C29.3056 24.3055 28.4723 24.1667 27.3611 24.4444L26.5278 22.2222C26.9445 22.0833 27.3611 21.9444 27.6389 21.8055H27.7778L27.9167 21.5278V21.25C27.9167 21.1111 27.7778 20.9722 27.6389 20.9722C27.2223 20.9722 26.8056 21.1111 26.25 21.3889L25.9723 20.8333L25.8334 20.6944H25.6945L25.5556 20.8333V21.1111L25.8334 21.8055C24.8611 22.5 24.4445 23.6111 24.8611 24.7222C25.2778 25.8333 26.1111 25.8333 27.2223 25.6944L28.0556 27.9167C27.6389 28.1944 27.0834 28.1944 26.6667 28.3333H26.5278L26.3889 28.6111V28.8889L26.5278 29.0278H26.8056C27.3611 29.0278 27.9167 28.8889 28.4723 28.6111L28.75 29.3055L28.8889 29.4444H29.0278L29.1667 29.3055V29.0278L28.8889 28.3333C29.7223 27.5 30.1389 26.3889 29.7223 25.4166ZM25.5556 24.1666C25.4167 23.6111 25.5556 23.0555 26.1111 22.5L26.8056 24.5833C26.25 24.7222 25.6945 24.7222 25.5556 24.1666ZM28.3334 27.3611L27.6389 25.2778C28.1945 25.1389 28.75 25.1389 29.0278 25.6944C29.3056 26.3889 29.0278 26.9444 28.3334 27.3611Z" fill="white"/>
<path opacity="0.3" d="M15.8333 17.6389L13.4722 19.0278L9.02778 19.1667L11.3889 17.7778L15.8333 17.6389ZM24.7222 12.5L18.8889 15.8334L14.4444 15.9722L20.2778 12.6389L24.7222 12.5ZM30.6944 9.16669L27.6389 10.8334L23.1944 10.9722L26.25 9.30558L30.6944 9.16669ZM11.1111 35.4167L6.66667 35.5556L4.86111 30.5556L9.30556 30.4167L11.1111 35.4167ZM13.3333 41.3889L8.75 41.5278L7.77778 38.75L12.2222 38.6111L13.3333 41.3889Z" fill="white"/>
<path d="M12.2222 26.8055C13.0556 27.6389 13.75 28.3333 13.75 28.4722C13.6111 28.4722 12.9167 27.9167 11.9445 27.2222C11.8056 27.0833 11.5278 27.2222 11.5278 27.3611C11.5278 29.7222 11.5278 31.8055 11.3889 31.9444C11.25 31.9444 10.9722 29.8611 10.8334 27.5C10.8334 27.2222 10.5556 27.2222 10.4167 27.3611L8.88891 28.8889C8.88891 28.75 9.44446 28.0555 10.1389 27.2222C10.2778 27.0833 10.1389 26.8055 10 26.8055C7.63891 26.8055 5.55558 26.8055 5.41669 26.6667C5.41669 26.5278 7.63891 26.25 9.86113 26.1111C10.1389 26.1111 10.2778 25.8333 10 25.6944L8.47224 24.1666C8.61113 24.1666 9.30558 24.7222 10.2778 25.4166C10.4167 25.5555 10.6945 25.4167 10.6945 25.2778C10.6945 22.9167 10.6945 20.8333 10.8334 20.6944C10.9722 20.6944 11.25 22.7778 11.3889 25.1389C11.3889 25.4167 11.6667 25.5555 11.8056 25.2778C12.6389 24.4444 13.3334 23.75 13.4722 23.75C13.4722 23.8889 12.9167 24.5833 12.2222 25.4166C12.0834 25.5555 12.2222 25.8333 12.3611 25.8333C14.7222 25.8333 16.8056 25.8333 16.9445 25.9722C16.9445 26.1111 14.8611 26.3889 12.5 26.5278C12.2222 26.3889 12.0834 26.6666 12.2222 26.8055Z" fill="white"/>
</svg>
