<svg width="351" height="409" viewBox="0 0 351 409" fill="none" xmlns="http://www.w3.org/2000/svg">
<rect width="351" height="409" rx="10" fill="#FF8811"/>
<circle cx="31" cy="6" r="3" fill="#FBBE89"/>
<circle cx="67" cy="6" r="3" fill="#F17100"/>
<circle cx="103" cy="6" r="3" fill="#FBBE89"/>
<circle cx="139" cy="6" r="3" fill="#F17100"/>
<circle cx="175" cy="6" r="3" fill="#FBBE89"/>
<circle cx="211" cy="6" r="3" fill="#F17100"/>
<circle cx="247" cy="6" r="3" fill="#FBBE89"/>
<circle cx="283" cy="6" r="3" fill="#F17100"/>
<circle cx="319" cy="6" r="3" fill="#FBBE89"/>
<circle cx="31" cy="403" r="3" fill="#FBBE89"/>
<circle cx="67" cy="403" r="3" fill="#F17100"/>
<circle cx="103" cy="403" r="3" fill="#FBBE89"/>
<circle cx="139" cy="403" r="3" fill="#F17100"/>
<circle cx="175" cy="403" r="3" fill="#FBBE89"/>
<circle cx="211" cy="403" r="3" fill="#F17100"/>
<circle cx="247" cy="403" r="3" fill="#FBBE89"/>
<circle cx="283" cy="403" r="3" fill="#F17100"/>
<circle cx="319" cy="403" r="3" fill="#FBBE89"/>
<circle cx="6" cy="36" r="3" fill="#F17100"/>
<circle cx="6" cy="72" r="3" fill="#FBBE89"/>
<circle cx="6" cy="108" r="3" fill="#F17100"/>
<circle cx="6" cy="144" r="3" fill="#FBBE89"/>
<circle cx="6" cy="180" r="3" fill="#F17100"/>
<circle cx="6" cy="216" r="3" fill="#FBBE89"/>
<circle cx="6" cy="252" r="3" fill="#F17100"/>
<circle cx="6" cy="288" r="3" fill="#FBBE89"/>
<circle cx="6" cy="324" r="3" fill="#F17100"/>
<circle cx="6" cy="360" r="3" fill="#FBBE89"/>
<circle cx="345" cy="36" r="3" fill="#F17100"/>
<circle cx="345" cy="72" r="3" fill="#FBBE89"/>
<circle cx="345" cy="108" r="3" fill="#F17100"/>
<circle cx="345" cy="144" r="3" fill="#FBBE89"/>
<circle cx="345" cy="180" r="3" fill="#F17100"/>
<circle cx="345" cy="216" r="3" fill="#FBBE89"/>
<circle cx="345" cy="252" r="3" fill="#F17100"/>
<circle cx="345" cy="288" r="3" fill="#FBBE89"/>
<circle cx="345" cy="324" r="3" fill="#F17100"/>
<circle cx="345" cy="360" r="3" fill="#FBBE89"/>
</svg>
