<svg width="20" height="20" viewBox="0 0 20 20" fill="none" xmlns="http://www.w3.org/2000/svg">
<g clip-path="url(#clip0_44_21)">
<path fill-rule="evenodd" clip-rule="evenodd" d="M10.0992 0.357147C9.60609 0.357147 9.20635 0.756893 9.20635 1.25L9.20633 7.39412H5.58426C5.27482 7.39412 4.98745 7.55435 4.82476 7.81758C4.66208 8.0808 4.64728 8.40949 4.78568 8.68628C5.77529 10.6655 7.72185 12.6121 9.70116 13.6017C9.95253 13.7274 10.2484 13.7274 10.4998 13.6017C12.4789 12.6121 14.4255 10.6655 15.415 8.68628C15.5535 8.40949 15.5387 8.0808 15.376 7.81758C15.2133 7.55435 14.9259 7.39412 14.6165 7.39412H10.992L10.9921 1.25C10.9921 0.756893 10.5923 0.357147 10.0992 0.357147ZM2.84941 14.1103C2.77196 13.4243 2.15308 12.9309 1.46708 13.0084C0.781073 13.0858 0.287739 13.7047 0.36518 14.3907C0.507222 15.649 1.07136 16.822 1.96561 17.7186C2.85985 18.615 4.03143 19.1821 5.28935 19.3274L5.29341 19.3279C6.79196 19.4959 8.37219 19.6441 10.0002 19.6441C11.6281 19.6441 13.2097 19.4959 14.707 19.3279L14.711 19.3274C15.9689 19.1821 17.1405 18.615 18.0347 17.7186C18.9289 16.822 19.493 15.649 19.6352 14.3907C19.7126 13.7047 19.2192 13.0858 18.5332 13.0084C17.8472 12.9309 17.2283 13.4243 17.1509 14.1103C17.0723 14.807 16.7599 15.4566 16.2647 15.953C15.7699 16.449 15.1219 16.7629 14.426 16.8437C12.9533 17.009 11.4841 17.1441 10.0002 17.1441C8.51628 17.1441 7.04855 17.009 5.57422 16.8437C4.87838 16.7629 4.23035 16.449 3.73561 15.953C3.24043 15.4566 2.92805 14.807 2.84941 14.1103Z" fill="#321C1C"/>
</g>
<defs>
<clipPath id="clip0_44_21">
<rect width="20" height="20" fill="white"/>
</clipPath>
</defs>
</svg>
