<svg width="24" height="24" viewBox="0 0 24 24" fill="none" xmlns="http://www.w3.org/2000/svg">
<path d="M22.4667 4.40003L19.1333 6.80003C18.7333 6.2667 17.6667 6.2667 16.2 6.80003C15.7333 7.00003 15.1333 7.20003 14.6 7.4667C13.3333 8.0667 11.9333 8.8667 10.5333 9.93336C10.2 10.1334 9.93332 10.4 9.59999 10.6667C9.06666 11.0667 8.53332 11.5334 8.13332 11.9334C5.86666 14 4.39999 16.0667 4.93332 17.0667C4.93332 17.1334 4.99999 17.1334 4.99999 17.2L4.26666 17.7334L1.66666 19.6C0.466657 17.9334 4.13332 13.2 9.93332 9.00003C15.6 4.80003 21.2 2.73336 22.4667 4.40003Z" fill="#F45170"/>
<path d="M16.2667 6.80001C15.7334 7.00001 15.1334 7.20001 14.6 7.46668C12.9334 8.26668 11.2 9.40001 9.60003 10.6C9.0667 11 8.60003 11.4667 8.13337 11.8667C5.8667 13.9333 4.40003 16 4.93337 17C4.93337 17.0667 5.00003 17.0667 5.00003 17.1333L4.2667 17.6667C4.13337 17.6 4.0667 17.5333 4.00003 17.4C3.20003 16.2667 5.6667 13.0667 9.60003 10.2C12.1334 8.40001 14.6 7.13334 16.2667 6.80001C16.2 6.80001 16.2 6.80001 16.2667 6.80001ZM22.4667 4.40001C21.9334 3.66668 20.4667 3.66668 18.4667 4.26668C19.9334 3.93334 20.9334 4.06668 21.4 4.66668C21.4667 4.80001 21.5334 4.86668 21.6 5.00001L22.4667 4.40001Z" fill="#DF3260"/>
<path d="M19.4666 16C17.5999 19.4667 13.6666 21.1334 9.93323 20.2C9.93323 20.2 9.93323 20.2 9.86656 20.2C5.39989 19.0667 2.73323 14.5334 3.73323 10.2C4.39989 7.20003 6.59989 4.73337 9.86656 3.8667C16.9999 1.93337 22.9332 9.53337 19.4666 16Z" fill="#57B3FE"/>
<path d="M7.33335 14.8667C7.33335 14.8667 7.46668 15.1334 8.53335 15.2667H8.93335C9.66668 15.4 8.46668 15.3334 8.86668 15.4667H8.80002C9.20002 15.4667 9.40002 15.5334 9.33335 15.5334C8.86668 15.5334 8.46668 15.6 7.93335 15.5334C8.73335 15.6667 8.53335 15.6 10 15.6667H9.33335C9.93335 15.6667 10.2667 15.6667 10.4 15.7334C9.86668 15.6667 9.40002 15.8 8.66668 15.7334C7.86668 15.8 8.40002 15.8667 8.66668 15.8667H12.9333C13.0667 15.8 12.7334 15.6667 13.0667 15.6667C12.3334 15.6 12.3334 15.5334 12.4 15.4667C12.2 15.4667 11.0667 15.4667 11.2 15.4667C13.6 15.4667 12.2 15.3334 13.9333 15.3334C12.8 15.4 13.6667 15.2 12.0667 15.2667C12.2667 15.2 12.9333 15.2667 13.5333 15.2C12.6 15.0667 14.1334 14.9334 13.8 14.8C13.4667 14.8 13 14.8 12.5333 14.8L14.0667 14.7334C13.9334 14.7334 12.2667 14.7334 13.3334 14.6667C13.0667 14.6667 12.6667 14.6667 12.6 14.6667C14.1333 14.4 11.3333 14.0667 14.2 13.8C13.6 13.8667 13.5333 13.8 13.5333 13.8C13.4 13.8 12.7334 13.8 12.3334 13.8L13.5333 13.6667C12.3333 13.6667 13.2667 13.4 12.2 13.4L9.60002 13.4667C8.26668 13.4 8.53335 13.6 6.80002 13.6C8.33335 13.6667 4.60002 13.7334 6.73335 13.8667C6.40002 13.8667 6.20002 13.8667 5.80002 13.8667C6.53335 13.8667 6.66668 13.9334 6.33335 14H6.13335C6.33335 14.1334 5.60002 14.2 5.13335 14.4H6.00002C5.86668 14.4667 5.60002 14.4667 5.40002 14.4667C6.66668 14.5334 5.46668 14.4 6.86668 14.4C5.13335 14.4667 6.86668 14.6667 4.93335 14.6667C4.93335 14.7334 5.93335 14.6667 5.86668 14.7334H5.33335H8.73335C8.60002 14.8 7.93335 14.8 7.53335 14.8C7.60002 14.8 5.60002 14.8 5.53335 14.7334C4.86668 14.7334 7.53335 14.8 7.33335 14.8667Z" fill="#5094FF"/>
<path d="M20.4 12C20.4 16.6667 16.6 20.4667 11.9333 20.4667C9.39998 20.4667 7.13331 19.3333 5.59998 17.6C6.46664 17.8667 7.33331 18.0667 8.26664 18.0667C15.7333 18.0667 19.4 9.33333 14.6666 4C18.1333 5.13333 20.4 8.4 20.4 12Z" fill="#5094FF"/>
<path opacity="0.5" d="M19.9332 14.9334C18.1332 19.6667 12.6665 21.8667 8.13318 19.6C12.9998 20.7334 17.7332 17.4667 18.5332 12.6667C19.0665 9.13336 17.5332 5.86669 14.7998 4.13336C19.3332 5.60003 21.4665 10.6667 19.9332 14.9334Z" fill="#497BFE"/>
<path opacity="0.5" d="M20.4665 12.5333C20.3999 13.3333 20.2665 14.2 19.9332 14.9333H16.5999C16.3332 14.8667 15.7999 14.8667 16.5999 14.8C17.2665 14.8667 17.7999 14.8 18.3332 14.8C18.1999 14.6667 17.5999 14.6667 17.3332 14.6667H17.9332C16.4665 14.6 16.6665 14.6667 15.8665 14.5333C16.3999 14.6 16.7999 14.4667 17.2665 14.5333C17.3332 14.4667 16.8665 14.4667 16.7999 14.4667C16.4665 14.3333 17.5999 14.4 16.9332 14.2667H16.5332C15.4665 14.1333 16.1332 13.9333 15.6665 13.8L15.3999 13.8667C15.3999 13.8667 14.7999 13.8 15.3332 13.7333C15.3332 13.7333 15.4665 13.7333 15.5332 13.8C15.7332 13.8 16.5999 13.8 16.7332 13.7333H16.0665H16.5999C16.5999 13.6667 15.5999 13.7333 15.6665 13.6667C17.5999 13.6 15.9332 13.4 17.5999 13.4C16.1999 13.3333 17.3999 13.5333 16.1332 13.4667C16.3332 13.4667 16.5999 13.4667 16.7332 13.4H15.8665C16.3332 13.2667 17.0665 13.2 16.8665 13H17.0665C17.3999 12.9333 17.2665 12.9333 16.5332 12.8667C16.9332 12.8667 17.1332 12.8667 17.4665 12.8667C15.3332 12.8 19.0665 12.6667 17.5332 12.6C19.1332 12.6 19.3999 12.5333 20.4665 12.5333Z" fill="#566DF9"/>
<path d="M1.53333 19.5334C2.73333 21.2 8.39999 19.1334 14.2 15C19.9333 10.8 23.6667 6.06669 22.4667 4.40002L19.1333 6.80002C19.9333 7.93336 17.4667 11.1334 13.5333 14C9.59999 16.8667 5.73333 18.2 4.93333 17.0667L1.53333 19.5334Z" fill="#F45170"/>
<path d="M4.86663 17.1334L4.1333 17.6667C4.66663 17.9334 5.59997 17.8667 6.7333 17.4667C5.86663 17.6667 5.19997 17.5334 4.86663 17.1334ZM22.4666 4.40002L21.6 5.00002C22.6 8.33336 11.9333 17.6 4.5333 19.9334C6.99997 19.4 10.5333 17.6 14.2 15C19.9333 10.8667 23.6666 6.06669 22.4666 4.40002Z" fill="#DF3260"/>
<path opacity="0.3" d="M9.59992 8.13338C8.39992 8.93338 7.39992 9.33338 6.66659 8.66672C5.93326 8.00005 6.13326 6.53338 7.53326 5.53338C8.86659 4.53338 10.7333 4.66672 11.2666 5.60005C11.7333 6.46672 10.7333 7.33338 9.59992 8.13338Z" fill="white"/>
<path opacity="0.7" d="M8.39994 6.59997C7.93327 6.86664 7.53327 6.86664 7.33327 6.66664C7.19994 6.39997 7.39994 5.99997 7.86661 5.73331C8.33327 5.46664 8.79994 5.46664 8.93327 5.66664C9.06661 5.93331 8.86661 6.33331 8.39994 6.59997ZM20.1333 5.53331C19.8666 5.13331 19.1999 5.13331 19.3999 4.93331C19.5999 4.79997 20.6666 4.53331 20.9333 4.93331C21.1999 5.33331 20.6666 6.26664 20.4666 6.39997C20.2666 6.53331 20.3999 5.93331 20.1333 5.53331Z" fill="white"/>
<path d="M9.46654 11.2667L7.9332 11.3333C8.39987 11.3333 6.86654 11.3333 7.1332 11.3333C7.46654 11.4667 5.9332 11.6 6.86654 11.7333C6.3332 11.8 5.59987 11.7333 5.39987 11.8C6.9332 11.7333 6.19987 11.9333 7.1332 11.9333C5.66654 12 6.86654 12.1333 4.5332 12.0667C4.39987 12.1333 5.5332 12.1333 5.7332 12.0667C5.66654 12.1333 5.66654 12.2 6.39987 12.2667C6.06654 12.2667 6.3332 12.4 6.19987 12.4667H3.5332C3.5332 11.7333 3.5332 11 3.7332 10.1333C5.1332 10.0667 6.99987 10.0667 7.9332 10.0667L7.7332 9.99999C8.86654 9.99999 7.7332 10.1333 8.9332 10.1333L7.7332 10.2667C8.1332 10.2667 8.79987 10.2667 8.9332 10.2667C8.9332 10.2667 8.99987 10.3333 9.59987 10.2667C6.7332 10.5333 9.5332 10.8667 7.99987 11.1333C8.1332 11.1333 8.46654 11.1333 8.7332 11.1333C7.66654 11.2667 9.3332 11.2667 9.46654 11.2667ZM18.1999 9.19999L17.9332 9.13332C17.5332 9.33332 18.0665 9.53332 17.2665 9.66665H16.9332C16.3332 9.79999 17.2665 9.79999 16.9999 9.93332H17.0665C16.7332 9.93332 16.5999 9.99999 16.5999 10.0667C16.9999 9.99999 17.3332 10.1333 17.7332 10.0667C17.1332 10.2 17.2665 10.1333 16.0665 10.2H16.5999C16.1332 10.2 15.8665 10.2667 15.7332 10.3333C16.1999 10.2667 16.5332 10.4 17.1332 10.3333C17.7332 10.4 17.3332 10.4667 17.1332 10.5333H11.4665C11.3999 10.4 11.5999 10.2667 11.3332 10.2667C11.9332 10.2 11.9332 10.1333 11.8665 10.0667C12.0665 10.0667 12.9332 10.0667 12.8665 9.99999C10.9332 9.99999 12.0665 9.86665 10.6665 9.79999C11.5999 9.86665 10.8665 9.59999 12.1999 9.66665C12.0665 9.59999 11.4665 9.66665 11.0665 9.59999C11.7999 9.46665 10.5999 9.33332 10.8665 9.13332C11.1332 9.13332 11.4665 9.13332 11.8665 9.13332L12.6665 9.06665C12.7999 9.06665 14.1332 9.06665 13.2665 8.99999C13.4665 8.99999 13.7999 8.99999 13.8665 8.99999C12.6665 8.66665 14.8665 8.33332 12.5999 7.99999C13.0665 8.06665 13.1332 7.99999 13.1332 7.99999C13.2665 7.99999 13.7332 7.99999 14.0665 7.99999L13.1332 7.86665C14.0665 7.86665 13.1999 7.73332 14.0665 7.73332L13.9332 7.79998C14.9999 7.73332 15.1999 7.86665 16.5332 7.86665C15.3332 7.93332 18.3332 8.06665 16.5999 8.13332C16.8665 8.13332 17.0665 8.13332 17.3332 8.13332C16.7332 8.13332 16.5999 8.19999 16.8665 8.26665H16.9999C16.8665 8.46665 17.3999 8.53332 17.7999 8.73332H17.1332C17.1999 8.79999 17.4665 8.79998 17.5999 8.79998C16.5999 8.86665 17.5332 8.66665 16.3999 8.73332C17.7999 8.79999 16.3999 8.99999 17.9999 9.06665C17.9999 9.13332 17.1999 9.06665 17.1999 9.13332H17.5999H17.0665C17.1332 9.19999 17.6665 9.19999 18.0665 9.19999C17.9999 9.19999 18.1332 9.19999 18.1999 9.13332C18.7332 9.06665 18.0665 9.19999 18.1999 9.19999ZM15.4665 4.53332C14.8665 4.46665 15.1999 4.53332 15.1999 4.53332C15.0665 4.53332 14.4665 4.53332 13.9999 4.53332L15.1332 4.66665C13.9332 4.66665 15.0665 4.79999 13.9332 4.79999L14.1332 4.73332C12.7999 4.79999 12.5999 4.66665 10.8665 4.66665C12.3999 4.59999 8.66654 4.53332 10.7999 4.39999C10.4665 4.39999 10.2665 4.39999 9.86654 4.39999C10.5999 4.39999 10.7332 4.33332 10.3999 4.26665H10.1999C10.3999 4.13332 9.66654 4.06665 9.19987 3.86665H10.0665C9.99987 3.99999 9.7332 3.99999 9.5332 3.99999C10.7999 3.93332 9.59987 4.06665 10.9999 4.06665C9.66654 3.99999 10.3999 3.86665 9.86654 3.79999C11.3999 3.39999 13.1332 3.39999 14.7332 3.99999C14.5999 4.19999 13.5332 4.39999 15.4665 4.53332Z" fill="#5094FF"/>
<path opacity="0.5" d="M16.6666 17.6C17.7333 17.6667 17.9333 17.6667 18.2666 17.6667C18.2666 17.6667 18.2666 17.7333 18.2 17.7333C17.9333 17.7333 17.6666 17.8 17.3333 17.7333C17.2666 17.7333 17.4666 17.8 17.8666 17.8H17.8C18.1333 17.9333 17 17.8667 17.7333 18H17.9333C17.2 18.6667 16.4 19.2667 15.5333 19.6667C14.7333 19.6667 14.0666 19.7333 13.2666 19.6667L13.4666 19.7333C12.3333 19.7333 13.4666 19.6 12.2666 19.6L13.4666 19.4667C13.0666 19.4667 12.4 19.4667 12.2666 19.4667C12.2 19.4 11.7333 19.4667 11.6 19.4667C14.4666 19.2 11.6666 18.8667 13.2 18.6C13.1333 18.6 12.8666 18.6 12.6 18.6C13.3333 18.5333 11.8666 18.5333 11.7333 18.5333L13.2666 18.4667C12.8 18.4667 12.3333 18.4667 12 18.4667C11.6666 18.3333 13.2 18.2 12.2666 18.0667C12.8 18 13.5333 18.0667 13.7333 18C12.2666 18.0667 12.8666 17.8667 12.1333 17.8667C13.4 17.8 12.4 17.6667 14.6 17.7333C14.7333 17.6667 13.6 17.6667 13.4 17.6667C13.4666 17.6 13.5333 17.5333 12.7333 17.4667C13.0666 17.4667 12.8 17.3333 12.9333 17.2667H18C18.2666 17.3333 18.8 17.3333 18 17.4C17.2666 17.3333 16.8 17.4 16.2666 17.4C16.4666 17.4667 16.7333 17.4667 17.3333 17.4667L16.6666 17.6Z" fill="#566DF9"/>
<path opacity="0.5" d="M4.79994 19.1334C4.79994 18.8 4.13328 18.9334 3.26661 18.9334C2.39994 18.8667 1.73328 18.6667 1.73328 19C1.73328 19.3334 2.33328 19.7334 3.19994 19.7334C4.06661 19.8 4.79994 19.4667 4.79994 19.1334Z" fill="white"/>
<path d="M11.9999 11.6C11.9333 11.5333 11.7999 11.6666 11.7999 11.7333C12.0666 13 12.0666 13.1333 11.5999 11.8C11.5999 11.6666 11.3999 11.6666 11.3999 11.8C9.93327 14.1333 9.79993 14.1333 11.1333 11.6666C11.1999 11.6 11.0666 11.4666 10.9999 11.4666C9.6666 11.8 9.6666 11.7333 10.9333 11.2666C11.0666 11.2666 11.0666 11.0666 10.9333 11.0666C8.59993 9.59997 8.59993 9.46664 11.0666 10.8C11.1333 10.8666 11.2666 10.7333 11.2666 10.6666C10.9333 9.33331 11.0666 9.39997 11.4666 10.6C11.4666 10.7333 11.6666 10.7333 11.6666 10.6C13.1333 8.26664 13.2666 8.19997 11.9333 10.7333C11.8666 10.8 11.9999 10.9333 12.0666 10.9333C13.3999 10.6 13.3999 10.7333 12.1333 11.1333C11.9999 11.1333 11.9999 11.3333 12.1333 11.3333C14.5333 12.7333 14.4666 12.8666 11.9999 11.6Z" fill="white"/>
</svg>
