<svg width="36" height="36" viewBox="0 0 36 36" fill="none" xmlns="http://www.w3.org/2000/svg">
<path d="M33.5 20.5C32.4 25 26.7 18 28.4 16.4C30.1 14.9 33.4 12.7 33.4 12.7C33.4 12.7 34.6 16 33.5 20.5ZM2.50001 20.5C3.70001 25 9.20001 18 7.60001 16.4C5.90001 14.9 2.60001 12.7 2.60001 12.7C2.60001 12.7 1.40001 16.5 2.50001 20.5Z" fill="#D0CEF2"/>
<path d="M33.8 19.7C33.8 27.1 26.7 33.1 18 33.1C15.5 33.1 13.1 32.6 11 31.7L7.99999 33.5C6.39999 34.4 4.39999 33.1 4.79999 31.2L5.59999 27.2C3.39999 24.9 2.29999 22.9 2.29999 19.7C2.19999 12.3 9.29999 6.29999 18 6.29999C26.7 6.29999 33.8 12.3 33.8 19.7Z" fill="#D0CEF2"/>
<path d="M17.5 4.70001C16 4.70001 14.5 5.00001 13.2 5.30001V32.5C14.6 32.9 16 33.1 17.5 33.2V4.70001ZM21.9 6.70001V32.7C24.3 32.2 26.5 31.2 28.4 29.8V9.60001C26.5 8.30001 24.3 7.30001 21.9 6.70001Z" fill="#DEDFFB"/>
<path d="M33.7999 15.6C33.7999 23 26.7 29 18 29C9.29995 29 2.19995 23 2.19995 15.6C2.19995 8.20001 9.29995 2.20001 18 2.20001C26.7 2.20001 33.7999 8.20001 33.7999 15.6Z" fill="#F3F1FC"/>
<path d="M33.7999 15.6C33.7999 23 26.7 29 18 29C9.89995 29 2.19995 23.5 2.19995 15.6C2.19995 8.20001 9.29995 2.20001 18 2.20001C26.5 2.20001 33.7999 8.00001 33.7999 15.6Z" fill="#F3F1FC"/>
<path d="M11.8 27.2L7.10004 30C6.00004 30.5 4.80004 29.6 5.00004 28.4L5.80004 24.1C6.70004 23.8 6.90004 23.7 7.80004 23.3L11.8 26.1C12.1 26.5 12.1 27 11.8 27.2Z" fill="#E9E7FC"/>
<path opacity="0.9" d="M7.19996 8.79998C7.69996 9.59998 8.99996 8.39998 10.9 7.39998C12.8 6.39998 14.5 5.99998 14 5.09998C13.5 4.29998 11.7 4.39998 9.79996 5.39998C7.79996 6.39998 6.69996 7.89998 7.19996 8.79998Z" fill="white"/>
<path opacity="0.9" d="M16.3582 5.06784C16.9424 4.90132 17.3056 4.37881 17.1693 3.90079C17.0331 3.42277 16.449 3.17026 15.8648 3.33678C15.2805 3.50331 14.9173 4.02582 15.0536 4.50383C15.1898 4.98185 15.7739 5.23437 16.3582 5.06784Z" fill="white"/>
<path d="M14.4 22.3C17.6 23 21.0001 23.3 24.2001 22.5C30.1 21 33.8 14.7 31.6 8.70001C33 10.7 33.8 13.1 33.8 15.6C33.8 23 26.7 29 18 29C13.1 29 8.70005 27.1 5.80005 24.1C6.20005 21.1 10.4 21.4 14.4 22.3Z" fill="#E9E7FC"/>
</svg>
