<svg width="36" height="36" viewBox="0 0 36 36" fill="none" xmlns="http://www.w3.org/2000/svg">
<path d="M35.9961 20.1095C35.1595 22.3064 33.2026 24.2072 30.3792 24.8015C29.6854 24.9613 28.5374 25.0709 27.6498 24.982C27.2888 24.9369 26.8941 24.824 26.6234 24.5308C26.2305 24.0855 25.3549 24.0395 24.8753 24.339C24.4158 24.6016 23.3859 19.6134 23.3525 19.5004C23.3525 19.5004 23.7361 19.7035 24.2775 19.6471C24.8188 19.602 25.5293 19.2861 26.161 18.2373C27.9943 15.1945 30.4099 13.4325 34.1578 13.4325C34.293 13.4325 34.3494 13.6129 34.2367 13.6919C33.4761 14.1756 32.7563 14.8404 32.5673 15.722C32.5098 16.0708 32.4863 17.5684 31.902 18.5193C31.7214 18.8125 31.4958 19.0606 31.2139 19.2636C31.259 19.241 31.7214 19.0719 32.4321 19.3426C32.7846 19.4836 33.0695 19.6717 33.402 19.9404C34.1578 20.6057 34.9811 20.4366 35.5112 20.1998C35.6578 20.1434 35.7706 20.0643 35.8722 20.008C35.9398 19.9741 36.0187 20.0417 35.9961 20.1095Z" fill="#687C99"/>
<path d="M35.9913 20.1136C35.1807 22.2896 33.2216 24.2015 30.3819 24.8026C29.3814 25.0133 28.2094 25.0499 27.6534 24.9814C27.288 24.9363 26.8885 24.8228 26.6273 24.5305C26.2013 24.0548 25.3307 24.0548 24.8767 24.3362C24.7912 24.389 24.6823 24.2476 24.5626 23.9832L27.1528 22.9571C28.5089 22.1036 30.2436 23.3141 31.7065 22.8048C33.1359 22.3069 33.5927 20.4295 32.4279 19.3409C32.676 19.4305 33.036 19.6311 33.3981 19.9457C34.136 20.5838 35.0471 20.5189 35.8685 20.0125C35.9369 19.969 36.0193 20.0374 35.9913 20.1136ZM27.6036 21.2936C26.4096 21.3791 25.099 21.1879 24.2626 20.3328C25.354 20.3188 26.4609 20.3032 27.515 20.0172C28.5707 19.7311 29.5844 19.1419 30.1549 18.209C31.0608 16.7302 30.7909 14.3035 32.5601 13.5527C33.0576 13.475 33.5893 13.433 34.1583 13.433C34.2982 13.433 34.3526 13.6164 34.2345 13.6895C33.4295 14.1902 32.631 14.9745 32.5445 15.9267C32.4339 17.2154 32.2408 18.5356 31.2121 19.2585C30.3814 19.6718 29.5081 20.1123 29.0868 20.2644L27.6036 21.2936Z" fill="#4C5C75"/>
<path d="M33.8087 13.9865C33.5699 14.1701 33.3664 14.3581 33.1961 14.5492C31.2465 14.6488 29.3155 15.4572 28.0127 16.9482C29.3217 15.136 31.5351 14.1251 33.8087 13.9865Z" fill="#31445B"/>
<path d="M32.7219 15.2629C32.6551 15.409 32.6038 15.5645 32.5727 15.7277C31.1035 15.8195 29.6358 16.3434 28.4309 17.2653C29.5892 16.1879 31.1097 15.479 32.7219 15.2629ZM32.4452 16.8005C32.4234 16.9482 32.3985 17.0912 32.3705 17.2296C31.147 17.0695 29.8162 17.2995 28.7232 17.7395C29.8303 17.1283 31.1068 16.795 32.4452 16.8005ZM32.1389 18.0334C32.072 18.209 31.9928 18.3723 31.8979 18.5231C30.8905 18.3801 29.8441 18.4127 28.8211 18.6273C29.8628 18.2308 30.9931 18.0256 32.1389 18.0334Z" fill="#31445B"/>
<path d="M29.7588 20.3689C28.6197 21.9706 27.3227 23.2112 25.9467 24.1812C25.5631 24.1023 25.146 24.17 24.8753 24.3391C24.4158 24.6017 23.3859 19.6134 23.3525 19.5004C23.3525 19.5004 23.7361 19.7035 24.2775 19.6472C26.2626 20.5381 28.5859 20.2449 29.5672 20.0644C29.7104 20.0357 29.8691 20.1851 29.7588 20.3689Z" fill="#111D33"/>
<path d="M29.4601 20.5317C22.5634 30.171 10.2687 26.9745 7.04583 27.3787C5.85803 27.5279 4.70288 27.4269 4.70288 27.4269L6.34938 25.2487L6.03216 9.07041C14.3172 8.13447 20.0106 16.7911 22.7018 19.0377C24.8597 20.8365 28.078 20.454 29.272 20.2317C29.3808 20.2099 29.4694 20.2846 29.4912 20.3763C29.5036 20.4276 29.4943 20.482 29.4601 20.5317Z" fill="#4C5C75"/>
<path d="M29.4601 20.5318C22.5634 30.171 10.2687 26.9745 7.04583 27.3787C5.85803 27.528 4.70288 27.427 4.70288 27.427L6.34938 25.2488L8.69849 20.7401C14.5725 25.7142 23.4717 25.8259 29.4912 20.3763C29.5036 20.4276 29.4943 20.4821 29.4601 20.5318Z" fill="#31445B"/>
<path d="M5.97007 26.2329C4.68122 25.8349 2.53261 25.7588 1.89517 26.2329C1.62465 26.0293 1.46452 25.0529 1.37435 24.2149C1.22187 22.7811 1.294 22.6319 1.2764 20.4634C1.2764 20.4634 2.02266 18.8558 4.8056 18.8558C7.58615 18.8558 5.96191 26.1201 5.97007 26.2329Z" fill="#DF3260"/>
<path d="M5.96999 26.2329C4.68114 25.8349 2.53253 25.7587 1.89509 26.2329C1.62457 26.0292 1.46444 25.0529 1.37427 24.2149L1.73029 24.075C1.98838 24.7326 2.72841 25.1368 3.4327 25.0886C5.67591 24.9352 6.48155 21.4961 4.54121 19.1667C5.08069 19.3145 5.60618 19.5352 6.08971 19.8228C6.93857 21.8222 5.96999 26.2329 5.96999 26.2329Z" fill="#CC104A"/>
<path d="M10.1288 19.2302C9.31568 23.5927 7.08312 26.8856 4.75261 27.4251C4.62668 27.4546 4.54116 27.2945 4.63601 27.209C4.77281 27.0846 4.9003 26.954 5.02002 26.8172C6.67112 24.9344 6.7473 21.9369 4.92829 19.7775C4.80081 19.6266 4.5847 19.5847 4.41057 19.6764C1.76445 21.0881 1.59654 23.8259 1.81421 25.5952C1.83908 25.8004 1.86862 25.9932 1.90127 26.1688C1.92459 26.2979 1.76134 26.3725 1.67895 26.273C0.219072 24.5286 -0.41214 21.1363 0.28282 17.3987C1.23119 12.3008 4.20379 8.58354 6.92142 9.08882C9.64217 9.5941 11.0772 14.1323 10.1288 19.2302Z" fill="#FE90A9"/>
<path d="M5.93896 26.3554C5.63424 26.5591 5.32641 26.7146 5.02013 26.8172C6.67123 24.9344 6.74741 21.937 4.9284 19.7775C4.80092 19.6267 4.58482 19.5847 4.41069 19.6764C1.76457 21.0881 1.59666 23.8259 1.81432 25.5952C1.62775 25.3464 1.45051 25.0619 1.28106 24.7417C0.340457 22.9584 0.230069 20.233 0.741566 17.4843C1.57334 13.0129 4.06865 9.50861 6.42093 9.50861C8.00687 9.50861 8.97807 11.0651 9.45572 12.5776C10.9733 17.3773 8.84795 24.4038 5.93896 26.3554Z" fill="#FA5F7F"/>
<path d="M33.4339 14.3052C32.9986 14.7172 32.6006 15.266 32.5446 15.9267C32.4109 17.469 32.1559 18.5946 31.2122 19.2585L31.2091 19.26C31.2091 19.26 30.2918 19.899 29.0869 20.2644C29.0869 20.2644 31.3832 19.386 31.8683 17.7815C32.3534 16.1786 31.6273 16.0293 33.4339 14.3052Z" fill="#1D2943"/>
<path d="M35.458 21.2128C35.3803 21.3449 35.2932 21.4849 35.1953 21.6263C34.2811 21.4242 33.4074 21.0837 32.6145 20.6266C33.5349 20.9796 34.5004 21.177 35.458 21.2128ZM34.4397 22.5716C34.3138 22.7037 34.1816 22.8359 34.0386 22.9665C33.0747 22.5529 32.1807 22.0088 31.3909 21.3558C32.3486 21.9202 33.3825 22.3306 34.4397 22.5716ZM32.5709 24.0097C32.4217 24.0905 32.2662 24.1683 32.103 24.2413C31.3769 23.5744 30.7473 22.8141 30.2342 21.9932C30.9183 22.7815 31.7096 23.4609 32.5709 24.0097ZM30.3819 24.8026C30.2342 24.8337 30.0834 24.8617 29.9295 24.885C29.4973 24.1045 29.163 23.279 28.936 22.4332C29.3169 23.2883 29.8067 24.0859 30.3819 24.8026Z" fill="#31445B"/>
<path d="M35.9914 20.1135C35.1807 22.2895 33.2216 24.2015 30.382 24.8025C29.3815 25.0133 28.2094 25.0499 27.6534 24.9813C31.3332 24.9449 33.8887 23.2671 35.5094 20.2022C35.6524 20.1384 35.7753 20.07 35.8685 20.0125C35.9369 19.969 36.0193 20.0374 35.9914 20.1135Z" fill="#1D2943"/>
<path d="M6.07981 17.5737C6.23968 16.8646 5.97371 16.2006 5.48576 16.0906C4.9978 15.9805 4.47264 16.4663 4.31278 17.1754C4.15291 17.8845 4.41888 18.5486 4.90684 18.6586C5.39479 18.7686 5.91995 18.2829 6.07981 17.5737Z" fill="#FE90A9"/>
<path d="M5.8101 17.5133C5.93051 16.9792 5.73009 16.479 5.36246 16.3961C4.99482 16.3133 4.59918 16.6791 4.47877 17.2132C4.35836 17.7474 4.55877 18.2475 4.92641 18.3304C5.29404 18.4133 5.68968 18.0475 5.8101 17.5133Z" fill="#E93565"/>
<path d="M5.6219 17.485C5.69957 17.1405 5.56993 16.8178 5.33233 16.7642C5.09473 16.7106 4.83916 16.9465 4.76149 17.2911C4.68382 17.6356 4.81346 17.9583 5.05105 18.0119C5.28865 18.0655 5.54423 17.8296 5.6219 17.485Z" fill="#CC104A"/>
<path d="M5.13947 18.0184C4.82501 18.0447 4.68402 17.6367 4.76256 17.2911C4.87025 16.8173 5.23196 16.6621 5.44655 16.8154C4.97754 16.8397 4.74812 17.745 5.13947 18.0184Z" fill="#FA5F7F"/>
<path d="M9.35395 17.0427C8.90711 17.4451 8.34975 17.0921 7.90128 16.9027C5.94422 16.0759 5.91292 16.103 5.90104 15.9166C5.89332 15.7807 6.03556 15.6908 6.16029 15.6342C6.92628 15.2875 7.7283 15.0177 8.54731 14.8314C9.3324 14.6503 9.58483 14.9209 9.6546 15.6662C9.70122 16.1508 9.73021 16.7075 9.35395 17.0427ZM9.11466 14.1656C8.86922 14.4447 7.73735 14.7933 5.92255 15.5702C5.8225 15.613 5.71012 15.5248 5.73739 15.4194C5.79151 15.2103 5.96446 15.0762 6.13287 14.9493C6.99368 14.2965 7.355 14.0072 7.74523 13.7995C8.12117 13.6015 8.92447 13.3466 9.16957 13.6648C9.28105 13.8079 9.23447 14.0292 9.11466 14.1656ZM8.99874 18.8129C8.67876 18.7583 7.90082 18.0764 6.49141 17.0829C6.41371 17.0282 6.42783 16.9042 6.51868 16.8762C6.74272 16.8071 6.88361 16.8918 7.80854 17.2501C8.36893 17.4682 8.97475 17.7079 9.31325 18.24C9.38741 18.3548 9.44443 18.4972 9.39634 18.6242C9.34102 18.7727 9.15512 18.8394 8.99874 18.8129ZM8.79405 12.8722C8.71472 13.0591 8.49962 13.1367 8.30921 13.2072C8.01608 13.2917 7.33783 13.6269 6.71012 14.1434C6.60257 14.2315 6.47387 14.2915 6.37337 14.3832C6.08446 14.6425 5.89002 15.0593 5.75807 14.9315C5.72104 14.8927 5.73691 14.8275 5.75807 14.7781C6.31435 13.3739 7.56245 12.4067 8.10646 12.2904C8.60195 12.1787 8.9262 12.5628 8.79405 12.8722ZM8.44883 20.7587C8.26213 20.6789 8.18508 20.4636 8.11501 20.273C8.03126 19.9797 7.69765 19.3006 7.18266 18.6717C7.09477 18.5639 7.03512 18.4351 6.94368 18.3344C6.68503 18.0448 6.26869 17.8494 6.39686 17.7177C6.43573 17.6808 6.50091 17.6968 6.55022 17.7181C7.95312 18.2778 8.91735 19.5282 9.03229 20.0725C9.14282 20.5682 8.75791 20.8916 8.44883 20.7587ZM6.16334 21.4421C6.17369 21.1787 6.08291 20.5311 5.82968 19.8757C5.78658 19.7635 5.77235 19.6417 5.72443 19.5343C5.59014 19.2268 5.30099 18.954 5.44174 18.8805C5.48362 18.8606 5.53281 18.8914 5.56757 18.9221C6.56859 19.7601 7.02307 21.047 6.97064 21.5249C6.95505 21.6835 6.88259 21.8441 6.75221 21.9373C6.50876 22.1065 6.18435 22.0432 6.16334 21.4421ZM1.45663 17.8263C1.72951 17.8492 1.83978 17.6251 2.40186 17.2782C2.70213 17.0948 3.02261 16.9455 3.35699 16.8223C3.47327 16.7792 3.57566 16.71 3.69183 16.6733C3.86935 16.6159 4.07136 16.5945 4.25568 16.5597C4.43495 16.5251 4.44539 16.3987 4.26876 16.3845C2.87364 16.2372 1.58661 16.7733 1.27532 17.1074C0.97966 17.4174 1.14582 17.801 1.45663 17.8263Z" fill="#FE90A9"/>
<path d="M8.07039 12.001C7.6614 12.2506 7.28698 12.3354 6.66026 12.8266C6.30618 13.1019 6.01185 13.5978 5.80994 14.0533C5.77313 14.1363 5.65022 14.105 5.65492 14.0143C5.67132 13.6973 5.76619 13.3328 5.88446 13.1126C6.14026 12.6368 6.69197 11.6943 7.14999 11.4102C7.95268 10.9155 8.54204 11.7114 8.07039 12.001ZM8.27519 21.822C8.4703 23.0792 7.44025 23.2115 7.3283 22.4753C7.14146 21.2443 7.37779 20.2768 6.1157 18.4913C6.04593 18.3923 6.12494 18.2738 6.21413 18.341C6.52777 18.5756 6.85955 18.9323 7.0367 19.2159C7.33748 19.7009 7.61769 20.2001 7.87497 20.7165C8.04712 21.0673 8.21439 21.438 8.27519 21.822Z" fill="#FE90A9"/>
<path d="M7.56293 11.0554C6.87278 11.0984 6.43277 11.6043 6.1209 12.215C6.03801 12.3773 5.87933 12.9644 5.69572 12.9641C5.5719 12.9639 5.76648 12.4795 5.78741 12.3589C5.80838 12.2366 5.85556 12.1215 5.90271 12.0078C6.18676 11.3212 6.54464 10.5212 7.34035 10.3702C8.01308 10.2403 8.04039 11.0258 7.56293 11.0554Z" fill="#FE90A9"/>
<path d="M7.04273 10.1246C6.89927 10.4308 5.81224 10.8203 5.64971 12.2312C5.6466 12.2639 5.64349 12.2996 5.62483 12.3276C5.60618 12.3556 5.56731 12.3727 5.53777 12.3572C5.50979 12.34 5.50357 12.3027 5.50046 12.2701C5.44915 11.4648 5.73367 10.6439 6.27315 10.0453C6.77508 9.48759 7.15221 9.88954 7.04273 10.1246ZM1.64024 16.2865C1.98757 16.4103 3.68214 16.0191 5.22006 15.7846C5.29862 15.7726 5.38029 15.6508 5.35607 15.5789C5.30818 15.4367 5.17402 15.4027 5.03035 15.3709C4.33165 15.2134 2.29629 14.6543 1.52771 15.7473C1.35545 15.9903 1.4428 16.2159 1.64024 16.2865Z" fill="#FE90A9"/>
<path d="M2.05737 14.6362C2.18037 14.8015 2.48155 14.7775 2.73554 14.7591C3.24866 14.6882 4.45778 14.756 5.16853 15.2252C5.27482 15.2942 5.38257 15.1888 5.31745 15.075C4.99929 14.4658 4.4004 14.0093 3.54407 13.7917C2.98197 13.6446 2.555 13.7641 2.25398 14.029C2.04871 14.2131 1.94319 14.4838 2.05737 14.6362Z" fill="#FE90A9"/>
<path d="M2.97963 13.4277C3.31349 13.5085 3.66741 13.5268 3.96425 13.599C4.58281 13.7492 4.894 13.8946 5.25179 14.513C5.28288 14.5668 5.37422 14.4992 5.36749 14.4289C5.34394 14.1828 5.25924 13.921 5.16009 13.7779C4.90106 13.4043 4.40546 12.7788 3.97434 12.6254C3.71314 12.5334 3.3579 12.5415 3.06235 12.7265C2.74696 12.9215 2.60949 13.3368 2.97963 13.4277Z" fill="#FE90A9"/>
<path d="M3.52608 12.373C3.58906 12.3659 3.78831 12.3376 3.91193 12.3673C4.32713 12.4669 4.6207 12.6066 4.93851 13.1039C5.01174 13.2185 5.15889 13.6566 5.29961 13.6072C5.39191 13.5749 5.22848 13.238 5.20809 13.1461C5.18753 13.0525 5.14678 12.9698 5.10577 12.8876C4.80853 12.2899 4.47822 11.7429 3.73586 11.6935C2.98951 11.6417 2.9737 12.435 3.52608 12.373Z" fill="#FE90A9"/>
<path d="M4.02868 11.4403C4.17495 11.6927 5.13052 11.8972 5.30797 13.0145C5.31147 13.0397 5.31507 13.0674 5.33002 13.0855C5.34491 13.1036 5.37432 13.1087 5.39553 13.0901C5.41544 13.0708 5.41867 13.0403 5.4198 13.0141C5.43311 12.0834 4.8471 11.2814 4.46876 11.1338C4.36358 11.0927 4.23417 11.0874 4.13267 11.1461C4.02892 11.2061 3.97154 11.3412 4.02868 11.4403ZM5.26235 11.4352C5.22914 11.4351 5.20326 11.4076 5.18175 11.3823C4.85204 10.9943 4.75173 10.9035 4.74978 10.7676C4.74607 10.509 5.20699 10.2227 5.47486 10.1417C5.69307 10.0756 5.74322 10.2485 5.61999 10.3875C5.23213 10.8249 5.43307 11.4356 5.26235 11.4352Z" fill="#FE90A9"/>
<path d="M3.83747 17.1242C3.27296 18.3601 1.89826 19.1544 1.41204 19.1803C1.29247 19.1866 1.16495 19.1506 1.09283 19.0646C0.954666 18.9033 1.02229 18.4398 1.17461 18.2639C1.35499 18.0579 1.67431 18.0309 1.9213 17.9774C2.73954 17.7988 3.0582 17.3598 3.33567 17.1686C3.42906 17.1055 3.96568 16.8452 3.83747 17.1242Z" fill="#FE90A9"/>
<path d="M3.56572 18.2819C3.25147 18.9201 1.98961 20.1577 1.35492 20.7011C0.649203 21.2925 0.490801 20.0878 1.31139 19.5925C1.4964 19.4822 1.70628 19.4246 1.9084 19.3484C2.54855 19.1072 3.2241 18.6229 3.5595 17.985C3.5937 17.9228 3.62232 17.757 3.69009 17.7829C3.83163 17.8368 3.62945 18.1529 3.56572 18.2819Z" fill="#FE90A9"/>
<path d="M3.61756 19.696C3.49318 19.9401 3.27241 20.1142 3.07185 20.2945C1.96245 21.2878 1.70164 22.2772 1.48294 22.5986C1.38033 22.7494 1.21662 23.0346 1.06473 22.9344C0.744858 22.7234 1.01963 22.1695 1.05384 21.7886C1.09233 21.3509 1.20296 21.2555 1.56534 21.0066C2.87067 20.1135 3.19776 19.2251 3.45587 19.071C3.56004 19.0103 3.71239 19.0119 3.78391 19.1083C3.90518 19.2731 3.69685 19.5436 3.61756 19.696Z" fill="#FE90A9"/>
<path d="M4.93435 20.726C4.87498 21.8852 4.16694 22.946 3.05937 23.4234C2.47443 23.6784 2.11623 23.4223 2.29756 22.8078C2.61161 21.7521 3.28013 20.8644 4.25338 20.3466C4.6768 20.1225 4.95585 20.2474 4.93435 20.726Z" fill="#F45170"/>
<path d="M8.95149 25.8956C8.96278 25.9745 8.9402 26.0648 8.89504 26.1325C8.86117 26.1663 8.83859 26.2001 8.81601 26.2452C8.81601 26.2825 8.81985 26.7151 8.79343 26.7415C8.72885 26.8061 8.37765 26.6283 8.17318 26.6965C8.13931 26.7078 8.10558 26.7189 8.06042 26.7302C8.00397 26.7528 7.93623 26.7528 7.86863 26.7415C7.84605 26.7302 7.83489 26.7302 7.82361 26.7189C7.80103 26.6965 7.80103 26.6739 7.80103 26.64C7.80103 26.561 7.80103 26.4708 7.81232 26.3806C7.81232 26.3468 7.82361 26.3129 7.83489 26.2903C7.85734 26.2677 7.89121 26.2564 7.92494 26.2452C8.01526 26.2227 8.10558 26.1888 8.20691 26.1663C8.22949 26.155 8.26336 26.1438 8.28594 26.1212C8.31981 26.0874 8.30852 26.0422 8.31981 25.9971C8.36497 25.8393 8.91762 25.6588 8.95149 25.8956ZM15.6664 25.2471C15.602 25.2748 15.5201 25.2763 15.4522 25.2535C15.4157 25.2324 15.3818 25.221 15.3384 25.2122C15.3066 25.2207 14.94 25.3232 14.9115 25.3068C14.8419 25.2668 14.9124 24.9276 14.8076 24.7695C14.7177 24.6338 14.7073 24.5998 14.6996 24.5211C14.7097 24.4712 14.7009 24.4591 14.7703 24.4403C14.8368 24.4224 15.0076 24.3752 15.0751 24.3889C15.1491 24.4311 15.2444 24.6886 15.3221 24.7333C15.3587 24.7543 15.3945 24.7344 15.4354 24.7336C15.5798 24.7358 15.8598 25.164 15.6664 25.2471ZM16.9396 26.1353C16.9508 26.2142 16.9283 26.3045 16.8831 26.3723C16.8492 26.406 16.8267 26.4399 16.8041 26.4849C16.8041 26.5222 16.8079 26.9548 16.7815 26.9812C16.7169 27.0458 16.3657 26.868 16.1612 26.9362C15.9857 26.9947 15.9454 26.996 15.8567 26.9812C15.8049 26.9553 15.7891 26.9614 15.7891 26.8797C15.7891 26.8014 15.7879 26.6001 15.823 26.53C15.8912 26.4614 16.2019 26.433 16.274 26.361C16.3079 26.3271 16.2966 26.2819 16.3079 26.2368C16.353 26.079 16.9057 25.8985 16.9396 26.1353ZM21.5136 24.7865C21.4961 24.8642 21.443 24.9407 21.3767 24.988C21.3331 25.0075 21.3 25.0312 21.2629 25.0653C21.2497 25.1002 21.0998 25.506 21.0657 25.5213C20.9824 25.5588 20.7172 25.2679 20.5018 25.2591C20.3169 25.2515 20.2787 25.2385 20.2011 25.1931C20.1618 25.1506 20.1449 25.1506 20.1738 25.0743C20.2016 25.001 20.2719 24.8124 20.3296 24.7593C20.4177 24.7193 20.7183 24.8031 20.8113 24.7613C20.8549 24.7416 20.8604 24.6954 20.887 24.6572C20.9852 24.5257 21.5659 24.553 21.5136 24.7865ZM12.6754 24.1338C12.6867 24.2127 12.6641 24.3031 12.619 24.3708C12.5851 24.4045 12.5625 24.4384 12.5399 24.4834V24.585C12.5399 24.6184 12.541 24.9562 12.5174 24.9798C12.4528 25.0443 12.1016 24.8665 11.8971 24.9347C11.7216 24.9932 11.6812 24.9946 11.5926 24.9798C11.5408 24.9539 11.525 24.96 11.525 24.8783C11.525 24.7999 11.5238 24.5987 11.5588 24.5286C11.6271 24.4599 11.9378 24.4316 12.0099 24.3595C12.0437 24.3256 12.0324 24.2805 12.0437 24.2353C12.0889 24.0775 12.6415 23.897 12.6754 24.1338ZM9.32988 25.3365C9.2513 25.5528 8.85565 25.2411 8.92993 24.8326C8.96772 24.6814 9.07486 24.6393 9.22641 24.6696C9.30426 24.6696 9.32479 24.7247 9.30039 24.7732C9.30039 24.8474 9.30039 24.9067 9.31523 24.9809C9.32988 25.0994 9.37438 25.2179 9.32988 25.3365ZM11.607 23.9498C11.5284 24.1661 11.1327 23.8544 11.207 23.4458C11.2448 23.2947 11.3519 23.2525 11.5035 23.2829C11.5813 23.2829 11.6019 23.338 11.5775 23.3865C11.5775 23.4607 11.5775 23.52 11.5923 23.5942C11.607 23.7127 11.6515 23.8311 11.607 23.9498ZM14.5678 27.2559C14.3425 27.2086 14.5951 26.7729 15.0102 26.7888C15.1655 26.8049 15.2221 26.9053 15.2135 27.0593C15.2246 27.1362 15.173 27.1645 15.1214 27.1472C15.048 27.1576 14.9892 27.166 14.9179 27.1912C14.8026 27.2224 14.6916 27.2832 14.5678 27.2559ZM25.6138 23.4503C25.4554 23.2834 25.9109 23.0685 26.2433 23.3174C26.3619 23.4188 26.3514 23.5336 26.2569 23.6555C26.2221 23.7252 26.1636 23.7189 26.1311 23.6754C26.0647 23.6423 26.0116 23.6158 25.9386 23.596C25.826 23.5562 25.7002 23.5431 25.6138 23.4503ZM19.6131 26.4858C19.3878 26.4385 19.6404 26.0028 20.0555 26.0187C20.2108 26.0348 20.2674 26.1352 20.2588 26.2892C20.2698 26.3661 20.2183 26.3944 20.1667 26.3771C19.8414 26.4234 19.7692 26.5202 19.6131 26.4858ZM10.5625 26.4595C10.4836 26.4934 10.382 26.5047 10.3256 26.5723C10.2693 26.6287 10.2693 26.7189 10.213 26.7754C10.1565 26.8204 10.0775 26.8317 9.99859 26.8317C9.37126 26.8317 9.58545 26.2462 9.54741 26.1325C9.51354 26.0083 9.33318 25.9407 9.33318 25.8167C9.33318 25.8054 9.33318 25.7941 9.34447 25.7828C9.69922 25.7321 9.66906 25.7508 9.90841 25.8506C10.1674 25.9281 10.1811 26.0874 10.213 26.0874C10.2354 26.0987 10.258 26.0874 10.2806 26.0761C10.3707 26.0309 10.4724 25.9858 10.5625 25.9407C10.6188 25.9182 10.6866 25.8843 10.743 25.9182C10.8761 25.9626 10.8609 26.322 10.5625 26.4595ZM17.1873 25.34C17.1173 25.3587 17.0311 25.3557 16.9757 25.4053C16.9219 25.4455 16.9109 25.5208 16.857 25.5611C16.8044 25.5918 16.737 25.5916 16.6711 25.582C16.3471 25.5346 16.2815 25.3339 16.3686 25.0186C16.3727 24.9903 16.3849 24.9728 16.3796 24.9433C16.3664 24.8355 16.2241 24.7571 16.2392 24.6535C16.2405 24.6441 16.2419 24.6346 16.2527 24.6266C16.5551 24.6274 16.5277 24.6395 16.7153 24.7519C16.8052 24.7938 16.8738 24.8519 16.918 24.9449C16.9247 24.9651 16.9313 24.9853 16.9408 24.9867C16.9581 24.9989 16.9783 24.9922 16.9986 24.9855C17.0794 24.9588 17.1697 24.9335 17.2505 24.9069C17.3002 24.8949 17.3609 24.8749 17.4039 24.91C17.5111 24.9641 17.4519 25.2619 17.1873 25.34ZM24.036 24.8807C23.9661 24.8993 23.8798 24.8964 23.8245 24.9459C23.7706 24.9862 23.7596 25.0615 23.7057 25.1017C23.6111 25.157 23.3574 25.1227 23.2497 24.9967C23.1559 24.8921 23.18 24.6947 23.2173 24.5592C23.2215 24.531 23.2336 24.5135 23.2283 24.484C23.2152 24.3761 23.0728 24.2977 23.0879 24.1942C23.0893 24.1847 23.0907 24.1753 23.1015 24.1673C23.4038 24.1681 23.3764 24.1801 23.5641 24.2925C23.654 24.3344 23.7225 24.3926 23.7667 24.4855C23.7734 24.5058 23.7801 24.526 23.7895 24.5274C23.8069 24.5395 23.8271 24.5329 23.8473 24.5262C23.9281 24.4995 24.0184 24.4741 24.0992 24.4476C24.149 24.4356 24.2097 24.4155 24.2527 24.4507C24.3599 24.5048 24.3006 24.8026 24.036 24.8807ZM14.1943 24.7125C14.181 24.7973 14.1366 24.8894 14.1638 24.9731C14.1942 25.1052 14.3723 25.1289 14.2097 25.388C13.8762 25.9193 13.4909 25.4258 13.3778 25.3984C13.2546 25.3611 13.1015 25.4779 12.9964 25.4119C12.9868 25.4059 12.9773 25.3999 12.9737 25.3843C13.121 25.053 13.123 25.0897 13.3309 24.9427C13.5342 24.7646 13.6764 24.8377 13.6933 24.8107C13.7148 24.7977 13.7172 24.7725 13.7197 24.7474C13.7294 24.647 13.7451 24.537 13.7549 24.4366C13.7657 24.3769 13.7731 24.3016 13.8318 24.2718C13.9417 24.1814 14.2362 24.3882 14.1943 24.7125ZM22.7399 24.8413C22.7277 24.9196 22.6866 25.0045 22.7118 25.0818C22.7398 25.2037 22.9041 25.2256 22.7541 25.4647C22.4464 25.955 22.0994 25.5016 21.9864 25.4743C21.8727 25.4398 21.7314 25.5476 21.6345 25.4867C21.6257 25.4812 21.6168 25.4757 21.6136 25.4613C21.7495 25.1555 21.7513 25.1894 21.9431 25.0538C22.0247 24.9823 22.1131 24.9394 22.2257 24.9362C22.2489 24.9385 22.272 24.9408 22.2776 24.9319C22.2974 24.9199 22.2997 24.8967 22.3019 24.8736C22.3109 24.7809 22.3254 24.6793 22.3345 24.5868C22.3444 24.5317 22.3512 24.4621 22.4054 24.4346C22.5068 24.3512 22.7785 24.5421 22.7399 24.8413ZM10.9652 24.9369C10.9652 24.9821 10.9426 25.0271 10.92 25.0723C10.8831 25.146 10.8526 25.1511 10.7734 25.1511C10.3801 25.1209 10.3999 25.171 10.2433 25.2753C10.1417 25.3204 10.0178 25.2528 9.99521 25.1511C9.97263 25.061 10.0404 24.9595 10.0178 24.8692C9.99521 24.7451 9.84844 24.6549 9.88231 24.5309C9.8936 24.4857 9.93876 24.452 9.97263 24.4181C10.108 24.3052 10.3448 24.0345 10.5591 24.0797C10.8298 24.1474 10.593 24.4744 10.7282 24.6437C10.796 24.7451 10.9539 24.8129 10.9652 24.9369ZM13.9116 26.85C13.9116 26.8952 13.889 26.9402 13.8664 26.9854C13.8295 27.0591 13.799 27.0643 13.7198 27.0643C13.3265 27.034 13.3463 27.0841 13.1897 27.1884C13.0881 27.2335 12.9642 27.1659 12.9416 27.0643C12.919 26.9741 12.9868 26.8726 12.9642 26.7823C12.9416 26.6582 12.7948 26.5681 12.8287 26.444C12.84 26.3988 12.8852 26.3651 12.919 26.3312C13.0544 26.2183 13.2912 25.9477 13.5056 25.9928C13.7762 26.0606 13.5394 26.3876 13.6746 26.5568C13.7424 26.6582 13.9003 26.726 13.9116 26.85ZM20.6121 25.9611C20.6987 26.0488 20.8121 26.1433 20.764 26.2608C20.7515 26.2886 20.724 26.3205 20.7112 26.3491C20.7037 26.436 20.8419 26.4634 20.9646 26.4271C21.0783 26.3859 21.145 26.3064 21.247 26.2712C21.3632 26.2325 21.4773 26.2622 21.5655 26.1974C21.5908 26.1776 21.6053 26.1416 21.6208 26.1184C21.6626 26.0142 21.7739 25.8297 21.6947 25.7391C21.5658 25.6221 21.3875 25.8295 21.1923 25.8058C21.0734 25.798 20.9388 25.7207 20.7908 25.7578C20.7465 25.7682 20.5857 25.8507 20.5899 25.8958C20.5922 25.9211 20.5938 25.938 20.6121 25.9611ZM10.321 22.9658C10.2033 23.1423 10.1726 23.1582 10.2532 23.3605C10.2871 23.4056 10.3097 23.462 10.2984 23.5185C10.2532 23.7214 10.1067 23.5072 10.0277 23.4846C9.90364 23.462 9.77959 23.6312 9.74572 23.7327C9.72314 23.7779 9.71185 23.8343 9.68927 23.8795C9.64425 23.9471 9.57665 24.0034 9.48633 24.0147C9.47504 24.0147 9.45246 24.026 9.44117 24.0147C9.4073 24.0034 9.39601 23.9584 9.39601 23.9245C9.33677 23.3854 9.65868 23.7217 9.59923 23.18C9.59923 22.9063 9.64259 22.8649 9.84733 22.7966C10.1547 22.7282 10.2409 22.6697 10.321 22.7177C10.3887 22.7627 10.3774 22.8868 10.321 22.9658ZM15.6003 26.0187C15.4049 26.1011 15.3705 26.0975 15.3263 26.3108C15.3297 26.367 15.3175 26.4265 15.2769 26.4674C15.1274 26.6118 15.1232 26.3524 15.0697 26.29C14.9786 26.2028 14.7818 26.2756 14.6976 26.3416C14.6539 26.3668 14.6134 26.4077 14.5696 26.4329C14.4948 26.4645 14.4073 26.4743 14.3257 26.4339C14.3163 26.4277 14.2912 26.4247 14.288 26.409C14.266 26.3809 14.2814 26.3371 14.3001 26.3089C14.545 25.8318 14.6291 26.2883 14.8799 25.7997C15.0309 25.5712 15.09 25.5607 15.2983 25.6165C15.5925 25.7289 15.6967 25.7275 15.7371 25.8117C15.7688 25.8866 15.691 25.9839 15.6003 26.0187ZM19.7487 24.9165C19.6584 25.1277 19.6287 25.1508 19.7547 25.3504C19.7997 25.3917 19.835 25.4473 19.8341 25.5097C19.8262 25.7349 19.6277 25.5357 19.539 25.5273C19.4023 25.5278 19.3037 25.7327 19.2877 25.8475C19.2726 25.9001 19.2717 25.9625 19.2566 26.0151C19.222 26.096 19.1611 26.1694 19.0671 26.1993C19.0551 26.2016 19.0333 26.2181 19.019 26.2083C18.9807 26.203 18.9597 26.1572 18.953 26.1212C18.7832 25.5586 19.1928 25.8531 19.0222 25.2878C18.968 24.9965 19.0056 24.9436 19.2106 24.8301C19.5245 24.6963 19.6048 24.6169 19.6996 24.6522C19.7807 24.6867 19.7932 24.8211 19.7487 24.9165ZM25.4084 24.1075C25.1789 24.1199 25.1451 24.1036 25.0219 24.3049C25.0048 24.3635 24.9705 24.4197 24.9142 24.4466C24.7088 24.5391 24.7995 24.2729 24.7678 24.1897C24.7069 24.0674 24.4795 24.0696 24.3695 24.106C24.3156 24.1157 24.2593 24.1426 24.2055 24.1523C24.1176 24.1571 24.0248 24.135 23.9564 24.0639C23.949 24.0541 23.9246 24.0419 23.927 24.0247C23.9149 23.988 23.9466 23.949 23.976 23.927C24.4005 23.5301 24.3191 24.0266 24.7539 23.6202C24.9911 23.4427 25.0552 23.453 25.2476 23.5866C25.5066 23.809 25.6133 23.8457 25.6236 23.9464C25.6286 24.0344 25.5136 24.1052 25.4084 24.1075ZM12.1318 25.8995C12.0141 26.0759 11.9834 26.0919 12.064 26.2942C12.0979 26.3392 12.1205 26.3957 12.1092 26.4521C12.064 26.6551 11.9175 26.4408 11.8385 26.4183C11.7145 26.3957 11.5904 26.5649 11.5565 26.6664C11.534 26.7115 11.5227 26.768 11.5001 26.8131C11.4551 26.8807 11.3875 26.937 11.2971 26.9483C11.2859 26.9483 11.2633 26.9596 11.252 26.9483C11.2181 26.937 11.2068 26.892 11.2068 26.8581C11.1653 26.4805 11.2889 26.5637 11.3762 26.4183C11.4817 26.2492 11.3364 25.962 11.4776 25.8204C11.5227 25.7753 11.5904 25.7528 11.6581 25.7303C11.9655 25.6619 12.0517 25.6033 12.1318 25.6514C12.1995 25.6964 12.1882 25.8204 12.1318 25.8995ZM18.0517 25.5572C18.0629 25.5685 18.0629 25.5911 18.0629 25.6024C18.0517 25.6588 18.0517 25.7039 18.0404 25.749C18.0404 25.7828 18.0404 25.8279 18.0742 25.8279C18.0968 25.8392 18.1081 25.8167 18.1306 25.8054C18.2573 25.628 18.3298 25.4454 18.5141 25.3993C18.5479 25.3881 18.5705 25.3881 18.593 25.3993C18.6569 25.4419 18.6497 25.6021 18.6043 25.6475C18.593 25.67 18.5705 25.6926 18.5366 25.7039C18.4238 25.8167 18.2813 25.9344 18.3223 26.0986C18.3562 26.234 18.5479 26.3017 18.5592 26.437C18.5592 26.4934 18.5366 26.5385 18.5141 26.5949C18.3925 26.8381 18.215 26.7245 18.0291 26.6626C17.9238 26.5924 17.8455 26.6339 17.781 26.7415C17.6369 27.1017 17.3208 26.9153 17.3524 26.6626C17.3524 26.5497 17.4546 26.4523 17.3298 26.234C17.2847 26.1776 17.2283 26.1325 17.2283 26.0648C17.2283 25.9667 17.3063 25.8115 17.3862 25.7715C17.4764 25.7151 17.5892 25.7603 17.6907 25.7377C17.8035 25.7264 17.9614 25.6813 17.984 25.5685C18.0065 25.546 18.0404 25.5347 18.0517 25.5572ZM18.5253 25.0384C18.5366 25.1624 18.4013 25.1511 18.3337 25.1173C18.2434 25.0835 18.1532 25.1624 18.0743 25.2076C18.0517 25.2189 18.0178 25.2302 17.9953 25.2189C17.9614 25.2189 17.9388 25.185 17.9275 25.1511C17.8829 25.0618 17.8491 24.9479 17.9388 24.903C17.9953 24.8466 18.063 24.8016 18.1419 24.779C18.1758 24.7677 18.2208 24.7677 18.2546 24.7451C18.3111 24.7227 18.3563 24.6437 18.4126 24.6437C18.4689 24.6437 18.514 24.6888 18.5253 24.734C18.5681 24.8193 18.5042 24.954 18.5253 25.0384ZM27.1208 22.8455C27.1644 22.9621 27.0309 22.9869 26.9567 22.9721C26.8607 22.9634 26.7945 23.0633 26.7303 23.1277C26.7115 23.1445 26.6819 23.1643 26.6571 23.1594C26.6244 23.1683 26.5937 23.1416 26.5739 23.1119C26.5061 23.0363 26.4439 22.9372 26.5192 22.8697C26.5588 22.8004 26.6122 22.7391 26.6824 22.6965C26.7121 22.6766 26.7555 22.6648 26.7822 22.634C26.8308 22.5975 26.8534 22.5094 26.9078 22.4945C26.9621 22.4797 27.0176 22.5113 27.0404 22.5519C27.1042 22.6229 27.0781 22.7697 27.1208 22.8455Z" fill="#4C5C75"/>
<path d="M14.0162 13.8756C13.9765 13.8178 13.908 13.7728 13.8384 13.7558C13.7964 13.7542 13.7616 13.7457 13.7202 13.73L13.6596 13.6642C13.6397 13.6426 13.4391 13.4233 13.4098 13.422C13.3295 13.4187 13.2081 13.7432 13.035 13.8209C12.8866 13.8876 12.8596 13.9108 12.811 13.9733C12.793 14.0209 12.7791 14.0264 12.8277 14.0793C12.8744 14.13 12.9936 14.261 13.058 14.2855C13.1431 14.2893 13.3612 14.1225 13.4508 14.1262C13.4929 14.1279 13.5125 14.1639 13.5467 14.1864C13.67 14.2617 14.1353 14.0492 14.0162 13.8756ZM15.5669 13.8043C15.6186 13.7436 15.6477 13.6552 15.6457 13.5738C15.635 13.5272 15.634 13.4865 15.639 13.4364C15.6589 13.4048 15.8931 13.0411 15.8849 13.0047C15.8647 12.9156 15.4728 12.8784 15.3364 12.7116C15.2191 12.5683 15.1856 12.5457 15.1029 12.5109C15.0453 12.5052 15.0352 12.4916 14.9916 12.5606C14.9497 12.6269 14.8413 12.7964 14.8335 12.8744C14.8545 12.9689 15.1021 13.1588 15.1246 13.2582C15.1352 13.3049 15.1015 13.3371 15.0869 13.3813C15.0409 13.5388 15.4118 13.9865 15.5669 13.8043ZM18.7144 17.3869C18.7411 17.3119 18.737 17.2188 18.7062 17.1435C18.6798 17.1037 18.6644 17.066 18.6512 17.0174L18.6715 16.9178C18.6781 16.8851 18.7464 16.5543 18.728 16.5264C18.6776 16.4503 18.298 16.5546 18.1112 16.4471C17.9508 16.3548 17.9115 16.3454 17.8217 16.3423C17.7658 16.3574 17.7515 16.3482 17.7352 16.4283C17.7196 16.5051 17.6783 16.7021 17.6987 16.7777C17.7519 16.8586 18.0508 16.9483 18.107 17.0333C18.1335 17.0732 18.1134 17.1152 18.1155 17.1617C18.1283 17.3253 18.634 17.6123 18.7144 17.3869ZM10.8928 13.22C10.9445 13.1593 10.9736 13.0709 10.9716 12.9895C10.9609 12.9429 10.9599 12.9022 10.9649 12.8521C10.9848 12.8205 11.219 12.4568 11.2108 12.4203C11.1906 12.3312 10.7987 12.2941 10.6623 12.1272C10.545 11.984 10.5115 11.9613 10.4288 11.9266C10.3712 11.9208 10.3611 11.9072 10.3175 11.9763C10.2756 12.0425 10.1672 12.2121 10.1594 12.2901C10.1804 12.3845 10.4281 12.5744 10.4505 12.6738C10.4611 12.7205 10.4274 12.7527 10.4128 12.7969C10.3668 12.9544 10.7377 13.4021 10.8928 13.22ZM10.0162 11.5991C10.2035 11.7327 10.3528 11.2518 10.0601 10.9573C9.94326 10.8542 9.83113 10.8802 9.72345 10.9911C9.65931 11.0352 9.67366 11.0923 9.72123 11.1184C9.76327 11.1795 9.79689 11.2284 9.8267 11.2979C9.88177 11.4038 9.91226 11.5266 10.0162 11.5991ZM14.1597 11.5905C13.9973 11.53 13.9868 11.7935 14.0145 11.8755C14.1562 12.2081 14.4311 12.4064 14.6008 12.1015C14.6511 12.0423 14.6226 11.9909 14.5698 11.978C14.3194 11.7651 14.3101 11.6447 14.1597 11.5905ZM22.506 19.5102C22.283 19.5667 22.5534 19.9917 22.9674 19.9587C23.1216 19.9363 23.1743 19.8339 23.1593 19.68C23.1671 19.6026 23.1143 19.5766 23.0636 19.596C22.9898 19.5886 22.9308 19.5826 22.8585 19.5605C22.742 19.534 22.6286 19.4778 22.506 19.5102ZM18.0146 14.9354C17.8522 14.8749 17.8418 15.1384 17.8694 15.2204C18.0111 15.553 18.286 15.7513 18.4557 15.4464C18.5061 15.3872 18.4775 15.3358 18.4247 15.3229C18.3682 15.2748 18.323 15.2364 18.2761 15.177C18.1953 15.0891 18.1339 14.9784 18.0146 14.9354ZM10.3479 10.1254C10.2993 10.0547 10.2194 9.99088 10.2077 9.90358C10.178 9.77145 10.3282 9.67288 10.0697 9.50968C9.85957 9.37698 9.6648 9.36349 9.50762 9.55482C9.35086 9.74563 9.37174 9.81359 9.31496 9.85994C9.22002 9.94686 9.03142 9.90773 8.9652 10.0126C8.95917 10.0222 8.95314 10.0317 8.95666 10.0473C9.22951 10.2796 9.21404 10.2476 9.46967 10.2911C9.73006 10.3638 9.82666 10.2365 9.85361 10.2535C9.87861 10.2559 9.89168 10.2775 9.90474 10.2991C9.95689 10.3854 10.0187 10.4779 10.0709 10.5641C10.1065 10.6132 10.1457 10.678 10.2115 10.6795C10.3478 10.713 10.5267 10.401 10.3479 10.1254ZM15.3518 14.6091C15.3026 14.5559 15.2281 14.5124 15.2077 14.4409C15.1644 14.3279 15.2834 14.2351 15.0445 14.1289C14.7494 13.9977 14.584 14.1262 14.4879 14.4437C14.4763 14.4698 14.4773 14.4911 14.457 14.5132C14.3883 14.5974 14.2261 14.5877 14.1836 14.6833C14.1797 14.692 14.1758 14.7007 14.1807 14.7133C14.4368 14.874 14.42 14.8492 14.6387 14.8543C14.7371 14.8669 14.8261 14.8544 14.9131 14.7994C14.9295 14.7858 14.946 14.7723 14.9547 14.7762C14.9759 14.7751 14.9894 14.7916 15.0029 14.808C15.057 14.8737 15.1199 14.9434 15.174 15.009C15.2096 15.0457 15.2503 15.095 15.3054 15.0883C15.4232 15.0996 15.5347 14.8174 15.3518 14.6091ZM20.5997 18.5866C20.6572 18.5425 20.7074 18.4724 20.7804 18.4587C20.8452 18.4406 20.9116 18.4778 20.9763 18.4596C21.0778 18.4183 21.2054 18.1965 21.1712 18.0342C21.1456 17.8961 20.9744 17.7948 20.8443 17.7419C20.8194 17.7279 20.7982 17.7269 20.778 17.7047C20.7006 17.6285 20.7253 17.4679 20.634 17.4167C20.6257 17.412 20.6174 17.4074 20.6044 17.411C20.4185 17.654 20.4465 17.6407 20.4216 17.854C20.3999 17.9508 20.4042 18.0405 20.4509 18.1323C20.4628 18.1499 20.4748 18.1675 20.4701 18.1758C20.4692 18.197 20.4515 18.2089 20.4339 18.2209C20.3635 18.2686 20.2883 18.3248 20.218 18.3726C20.1781 18.4047 20.1253 18.4406 20.1269 18.4961C20.1047 18.6124 20.3753 18.7494 20.5997 18.5866ZM12.486 13.5416C12.5201 13.4628 12.5316 13.3613 12.5994 13.305C12.656 13.2488 12.7462 13.2491 12.8028 13.1929C12.8479 13.1366 12.8595 13.0576 12.8597 12.9787C12.8614 12.3514 12.2753 12.5641 12.1618 12.5257C12.0377 12.4915 11.9706 12.311 11.8465 12.3107C11.8352 12.3107 11.824 12.3106 11.8126 12.3219C11.7603 12.6807 11.7816 12.6508 11.8788 12.886C11.9557 13.1451 12.1149 13.1593 12.1148 13.1911C12.126 13.2136 12.1147 13.2362 12.1033 13.2587C12.0579 13.3488 12.0125 13.4503 11.9672 13.5403C11.9445 13.5966 11.9105 13.6642 11.9442 13.7207C11.9883 13.854 12.3477 13.8396 12.486 13.5416ZM19.7805 17.9953C19.812 17.9226 19.8227 17.8288 19.8852 17.7769C19.9374 17.7251 20.0206 17.7253 20.0729 17.6735C20.1145 17.6215 20.1252 17.5486 20.1254 17.4758C20.1263 17.1176 19.9197 17.0145 19.5646 17.058C19.5333 17.0579 19.5125 17.0683 19.4814 17.0578C19.3668 17.0263 19.3049 16.8597 19.1905 16.8594C19.18 16.8593 19.1696 16.8593 19.1592 16.8697C19.1109 17.2008 19.1305 17.1732 19.2203 17.3902C19.2511 17.4942 19.303 17.5777 19.3964 17.6405C19.4172 17.6509 19.438 17.6614 19.438 17.6718C19.4484 17.6926 19.4379 17.7134 19.4274 17.7342C19.3855 17.8173 19.3436 17.9109 19.3018 17.994C19.2809 18.046 19.2494 18.1084 19.2805 18.1606C19.3212 18.2835 19.6529 18.2702 19.7805 17.9953ZM13.3882 11.5833C13.417 11.5377 13.4375 11.4018 13.4107 11.3576C13.3881 11.3299 13.369 11.3179 13.3404 11.2998C12.9917 11.1154 13.0351 11.0836 12.9585 10.9118C12.8966 10.8195 12.7557 10.8105 12.6824 10.8843C12.6151 10.9485 12.6182 11.0705 12.5509 11.1348C12.4656 11.2276 12.2934 11.2255 12.2558 11.3485C12.2412 11.3927 12.2614 11.4453 12.2719 11.4921C12.3261 11.6598 12.3818 12.0151 12.5872 12.0914C12.8522 12.1786 12.8266 11.7757 13.0312 11.7048C13.1427 11.6552 13.3124 11.6822 13.3882 11.5833ZM18.5792 15.9124C18.6993 15.8845 18.8456 15.8652 18.8677 15.7401C18.872 15.7099 18.8657 15.6682 18.8702 15.6373C18.9102 15.5598 19.0417 15.6104 19.126 15.7066C19.2002 15.8022 19.2142 15.905 19.2816 15.9892C19.3593 16.0839 19.4716 16.1197 19.5115 16.2216C19.5224 16.2519 19.5154 16.2901 19.5161 16.3179C19.4958 16.4284 19.4914 16.6438 19.3761 16.6781C19.2046 16.7083 19.1646 16.4377 18.9869 16.3535C18.8822 16.2966 18.7272 16.2901 18.6217 16.1797C18.5899 16.1473 18.4979 15.9917 18.5256 15.9558C18.5411 15.9356 18.5514 15.9222 18.5792 15.9124ZM14.3723 13.1879C14.2511 13.0139 14.22 12.9986 14.2964 12.7946C14.3294 12.7489 14.3508 12.692 14.3383 12.6358C14.289 12.4339 14.1469 12.651 14.0684 12.6752C13.9448 12.7003 13.8173 12.5337 13.7813 12.4329C13.7578 12.3882 13.7454 12.332 13.7219 12.2873C13.6755 12.2207 13.6067 12.1658 13.5162 12.1563C13.5049 12.1565 13.4821 12.1457 13.471 12.1572C13.4374 12.1692 13.427 12.2144 13.4277 12.2483C13.3796 12.7885 13.6945 12.4457 13.6462 12.9884C13.6519 13.2622 13.6962 13.3027 13.9022 13.3667C14.2109 13.4288 14.2983 13.4856 14.3774 13.4359C14.4442 13.3895 14.4303 13.2657 14.3723 13.1879ZM17.2915 16.3347C17.3279 16.1078 17.3151 16.0725 17.5282 15.971C17.5883 15.9601 17.6478 15.9319 17.6804 15.8787C17.7939 15.6841 17.5197 15.7465 17.4403 15.7063C17.325 15.6329 17.3509 15.407 17.3987 15.3013C17.414 15.2488 17.4466 15.1956 17.4619 15.1431C17.4758 15.0562 17.4635 14.9616 17.4 14.8861C17.3911 14.8778 17.3814 14.8522 17.3641 14.8529C17.3289 14.8369 17.2868 14.8644 17.2618 14.8913C16.9508 15.161 17.1103 15.1859 17.0727 15.3658C17.0322 15.5778 16.7051 15.6993 16.7133 15.9158C16.7158 15.9849 16.7531 16.0526 16.7904 16.1204C16.9844 16.4012 17.0098 16.5112 17.1089 16.532C17.1959 16.5461 17.2782 16.4391 17.2915 16.3347ZM22.184 19.0352C21.9576 18.9962 21.9221 19.0086 21.823 18.7943C21.8128 18.7341 21.7852 18.6743 21.7324 18.6411C21.539 18.5255 21.5984 18.8004 21.5573 18.8794C21.4826 18.9938 21.257 18.9653 21.1519 18.9164C21.0995 18.9005 21.0467 18.8673 20.9943 18.8514C20.9076 18.8365 20.8129 18.8477 20.7367 18.9104C20.7283 18.9193 20.7026 18.9286 20.703 18.9459C20.6867 18.981 20.7137 19.0234 20.7403 19.0486C21.1203 19.4969 21.0956 18.993 21.4775 19.4434C21.6927 19.6471 21.7575 19.6443 21.9642 19.5339C22.2471 19.343 22.3574 19.3188 22.3793 19.22C22.3943 19.1332 22.2883 19.0496 22.184 19.0352ZM11.3757 11.4368C11.3705 11.2248 11.353 11.1949 11.5292 11.0669C11.5819 11.0469 11.6311 11.0112 11.6517 10.9575C11.7219 10.7618 11.4836 10.8647 11.4047 10.8416C11.2878 10.7944 11.2732 10.5851 11.2988 10.4813C11.3038 10.431 11.3244 10.3773 11.3294 10.327C11.3274 10.2458 11.3003 10.1621 11.23 10.1044C11.2204 10.0983 11.2074 10.0767 11.1918 10.0802C11.1571 10.0717 11.1236 10.1037 11.1055 10.1324C10.7713 10.5519 11.222 10.4407 10.8799 10.8703C10.7337 11.1018 10.7482 11.16 10.8849 11.327C11.1083 11.5489 11.1499 11.6445 11.2433 11.6466C11.3246 11.6447 11.3813 11.5338 11.3757 11.4368ZM16.1474 14.8412C16.1886 14.7338 16.0791 14.6113 15.9898 14.5416C15.916 14.4683 15.7965 14.4462 15.7504 14.3504C15.7041 14.2739 15.721 14.101 15.7734 14.0181C15.8095 13.9609 15.8813 13.9528 15.9496 13.9292C16.0299 13.8866 16.1031 13.8128 16.1418 13.7305C16.1623 13.6768 16.1673 13.6266 16.1975 13.5789C16.3037 13.3526 16.674 13.3513 16.602 13.741C16.5992 13.866 16.643 13.9433 16.7697 13.9402C16.8421 13.9581 17.0318 13.9845 17.0788 14.0421C17.1748 14.1237 17.1565 14.3204 17.0975 14.414C17.0157 14.5224 16.8174 14.4772 16.7165 14.5736C16.5901 14.6945 16.6585 14.8958 16.687 15.0218C16.7096 15.0494 16.7166 15.0805 16.7141 15.1056C16.7246 15.1523 16.6945 15.2 16.6705 15.2381C16.5533 15.4238 16.4161 15.1999 16.4049 15.0038C16.3994 14.9069 16.4034 14.8161 16.3979 14.7192C16.3848 14.6976 16.3873 14.6725 16.3622 14.67C16.3336 14.6519 16.3095 14.6901 16.2915 14.7187C16.2769 14.7629 16.2528 14.801 16.2322 14.8547C16.2262 14.8643 16.2142 14.8833 16.1986 14.8868C16.177 14.8999 16.1545 14.8723 16.1474 14.8412ZM16.3221 15.5785C16.3979 15.4796 16.2774 15.4169 16.2022 15.4094C16.1078 15.3897 16.0737 15.2749 16.0311 15.1946C16.018 15.173 15.9954 15.1453 15.9703 15.1428C15.9416 15.1248 15.9045 15.1413 15.8768 15.1639C15.79 15.2165 15.7016 15.2932 15.7539 15.3797C15.7715 15.4576 15.8048 15.5319 15.8594 15.5931C15.882 15.6207 15.9201 15.6447 15.9367 15.6819C15.9724 15.731 15.9684 15.822 16.016 15.852C16.0636 15.8821 16.1259 15.868 16.1596 15.8359C16.2414 15.7865 16.2592 15.6385 16.3221 15.5785ZM8.89392 9.39504C8.91088 9.28726 8.77522 9.29001 8.70616 9.31605C8.61442 9.34077 8.52799 9.26712 8.45128 9.22352C8.42925 9.21247 8.39595 9.20083 8.37288 9.20951C8.33906 9.20773 8.31496 9.23613 8.30213 9.26513C8.24977 9.34651 8.21621 9.43942 8.30202 9.48246C8.3558 9.53474 8.42138 9.57763 8.49912 9.6015C8.53243 9.61314 8.57738 9.6155 8.61017 9.63701C8.66551 9.65958 8.70698 9.73099 8.76321 9.73395C8.81944 9.73691 8.86661 9.69983 8.87995 9.66097C8.92738 9.58746 8.86859 9.46859 8.89392 9.39504Z" fill="#687C99"/>
<path d="M15.1135 20.8503C15.0644 20.7565 14.919 20.7656 14.8784 20.8667C14.6713 21.3935 14.4814 21.8262 14.4384 21.8193C14.4083 21.8038 14.5355 21.3504 14.7123 20.808C14.7441 20.6947 14.6289 20.601 14.5314 20.6501C13.4861 21.1081 12.5187 21.503 12.496 21.4456C12.4646 21.376 13.3741 20.875 14.3881 20.3474C14.4854 20.2983 14.4781 20.1572 14.3747 20.1192C13.8394 19.9048 13.4077 19.7285 13.4154 19.6867C13.4318 19.657 13.8839 19.7827 14.4395 19.9465C14.5449 19.9741 14.6411 19.871 14.5939 19.7666C14.1421 18.7366 13.7538 17.7815 13.8151 17.7481C13.8902 17.7601 14.3798 18.6453 14.8968 19.621C14.946 19.715 15.0913 19.7058 15.132 19.6047C15.3498 19.0796 15.5398 18.6469 15.5719 18.652C15.613 18.6694 15.4856 19.1227 15.3088 19.6651C15.2789 19.768 15.3816 19.8704 15.4897 19.823C16.535 19.3651 17.4918 18.9684 17.5251 19.0275C17.5565 19.0971 16.647 19.5981 15.633 20.1257C15.5358 20.1748 15.5429 20.3159 15.6464 20.3539C17.0075 20.9057 16.8449 20.928 15.5816 20.5266C15.4763 20.499 15.38 20.6022 15.4164 20.7048C15.8683 21.7348 16.2673 22.6917 16.206 22.725C16.1202 22.7113 15.6198 21.8244 15.1135 20.8503Z" fill="white"/>
</svg>
