<svg width="375" height="66" viewBox="0 0 375 66" fill="none" xmlns="http://www.w3.org/2000/svg">
<mask id="path-1-inside-1_97_233" fill="white">
<path fill-rule="evenodd" clip-rule="evenodd" d="M187 41C206.33 41 222 25.33 222 6V6C222 2.8506 224.367 0 227.517 0H367C371.418 0 375 3.58172 375 8V58C375 62.4183 371.418 66 367 66H8C3.58172 66 0 62.4183 0 58V8C0 3.58172 3.58172 0 8 0H146.483C149.633 0 152 2.8506 152 6V6C152 25.33 167.67 41 187 41Z"/>
</mask>
<path fill-rule="evenodd" clip-rule="evenodd" d="M187 41C206.33 41 222 25.33 222 6V6C222 2.8506 224.367 0 227.517 0H367C371.418 0 375 3.58172 375 8V58C375 62.4183 371.418 66 367 66H8C3.58172 66 0 62.4183 0 58V8C0 3.58172 3.58172 0 8 0H146.483C149.633 0 152 2.8506 152 6V6C152 25.33 167.67 41 187 41Z" fill="white"/>
<path d="M221 6C221 24.7777 205.778 40 187 40V42C206.882 42 223 25.8823 223 6H221ZM227.517 1H367V-1H227.517V1ZM374 8V58H376V8H374ZM367 65H8V67H367V65ZM1 58V8H-1V58H1ZM8 1H146.483V-1H8V1ZM187 40C168.222 40 153 24.7777 153 6H151C151 25.8823 167.118 42 187 42V40ZM146.483 1C148.975 1 151 3.29106 151 6H153C153 2.41014 150.29 -1 146.483 -1V1ZM1 8C1 4.13401 4.13401 1 8 1V-1C3.02944 -1 -1 3.02944 -1 8H1ZM8 65C4.13401 65 1 61.866 1 58H-1C-1 62.9706 3.02944 67 8 67V65ZM374 58C374 61.866 370.866 65 367 65V67C371.971 67 376 62.9706 376 58H374ZM367 1C370.866 1 374 4.13401 374 8H376C376 3.02944 371.971 -1 367 -1V1ZM223 6C223 3.29106 225.025 1 227.517 1V-1C223.71 -1 221 2.41014 221 6H223Z" fill="#828282" fill-opacity="0.1" mask="url(#path-1-inside-1_97_233)"/>
</svg>
