<svg width="179" height="161" viewBox="0 0 179 161" fill="none" xmlns="http://www.w3.org/2000/svg">
<path d="M154.441 159.529L13.2646 159.529C13.2646 159.529 1.97052 159.529 1.97052 148.235L1.97052 12.7059C1.97052 12.7059 1.97052 1.41174 13.2646 1.41174L154.441 1.41174C154.441 1.41174 165.735 1.41174 165.735 12.7059L165.735 148.235C165.735 148.235 165.735 159.529 154.441 159.529Z" fill="#E4E4E4" stroke="#381F32" stroke-width="2.11765" stroke-linecap="round" stroke-linejoin="round"/>
<path d="M165.735 24L1.97052 24V12.7059C1.97052 9.7105 3.16043 6.83779 5.27849 4.71973C7.39655 2.60168 10.2693 1.41176 13.2646 1.41176L154.441 1.41176C157.436 1.41176 160.309 2.60168 162.427 4.71973C164.545 6.83779 165.735 9.7105 165.735 12.7059V24Z" fill="#F4646F" stroke="#381F32" stroke-width="2.11765" stroke-linecap="round" stroke-linejoin="round"/>
<path d="M154.441 159.529L24.5588 159.529C24.5588 159.529 13.2647 159.529 13.2647 148.235L13.2647 12.7059C13.2647 12.7059 13.2647 1.41174 24.5588 1.41174L154.441 1.41174C154.441 1.41174 165.735 1.41174 165.735 12.7059L165.735 148.235C165.735 148.235 165.735 159.529 154.441 159.529Z" fill="white" stroke="#381F32" stroke-width="2.11765" stroke-linecap="round" stroke-linejoin="round"/>
<path d="M143.147 46.5883H35.8529C34.3552 46.5883 32.9188 47.1832 31.8598 48.2422C30.8008 49.3013 30.2058 50.7376 30.2058 52.2353V131.294C30.2058 132.792 30.8008 134.228 31.8598 135.287C32.9188 136.346 34.3552 136.941 35.8529 136.941H55.6176V148.235L72.5588 136.941H143.147C144.645 136.941 146.081 136.346 147.14 135.287C148.199 134.228 148.794 132.792 148.794 131.294V52.2353C148.794 50.7376 148.199 49.3013 147.14 48.2422C146.081 47.1832 144.645 46.5883 143.147 46.5883Z" fill="#E4E4E4" stroke="#E4E4E4" stroke-width="2.11765" stroke-linecap="round" stroke-linejoin="round"/>
<path d="M165.735 24L13.2647 24V12.7059C13.2647 9.7105 14.4546 6.83779 16.5726 4.71973C18.6907 2.60168 21.5634 1.41176 24.5588 1.41176L154.441 1.41176C157.436 1.41176 160.309 2.60168 162.427 4.71973C164.545 6.83779 165.735 9.7105 165.735 12.7059V24Z" fill="#F4646F" stroke="#381F32" stroke-width="2.11765" stroke-linecap="round" stroke-linejoin="round"/>
<path d="M25.9706 12.7059H28.7941" stroke="#381F32" stroke-width="2.11765" stroke-linecap="round" stroke-linejoin="round"/>
<path d="M48.5588 12.7059H51.3823" stroke="#381F32" stroke-width="2.11765" stroke-linecap="round" stroke-linejoin="round"/>
<path d="M37.2646 12.7059H40.0882" stroke="#381F32" stroke-width="2.11765" stroke-linecap="round" stroke-linejoin="round"/>
<path d="M47.147 117.176L47.147 43.7647C47.147 43.7647 47.147 38.1176 52.7941 38.1176L171.382 38.1176C171.382 38.1176 177.029 38.1176 177.029 43.7647V117.176C177.029 117.176 177.029 122.824 171.382 122.824L52.7941 122.824C52.7941 122.824 47.147 122.824 47.147 117.176Z" fill="#F97316" stroke="#381F32" stroke-width="2.11765" stroke-linecap="round" stroke-linejoin="round"/>
<path d="M58.4412 60.7059L47.147 55.0588V43.7647C47.147 42.267 47.742 40.8306 48.801 39.7716C49.86 38.7126 51.2964 38.1176 52.7941 38.1176H58.4412V60.7059Z" fill="#F97316" stroke="#381F32" stroke-width="2.11765" stroke-linecap="round" stroke-linejoin="round"/>
<path d="M52.7941 117.176L52.7941 43.7647C52.7941 43.7647 52.7941 38.1176 58.4412 38.1176L171.382 38.1176C171.382 38.1176 177.029 38.1176 177.029 43.7647V117.176C177.029 117.176 177.029 122.824 171.382 122.824L58.4412 122.824C58.4412 122.824 52.7941 122.824 52.7941 117.176Z" fill="#F99C21" stroke="#381F32" stroke-width="2.11765" stroke-linecap="round" stroke-linejoin="round"/>
<path d="M162.912 111.529H145.971C145.971 111.529 143.147 111.529 143.147 108.706V100.235C143.147 100.235 143.147 97.4118 145.971 97.4118H162.912C162.912 97.4118 165.735 97.4118 165.735 100.235V108.706C165.735 108.706 165.735 111.529 162.912 111.529Z" fill="#F97316" stroke="#F97316" stroke-width="2.11765" stroke-linecap="round" stroke-linejoin="round"/>
<path d="M161.5 101.647H147.382" stroke="#FBE8C2" stroke-width="2.11765" stroke-linecap="round" stroke-linejoin="round"/>
<path d="M154.441 107.294H161.5" stroke="#FBE8C2" stroke-width="2.11765" stroke-linecap="round" stroke-linejoin="round"/>
<path d="M52.7941 57.8823L112.575 85.0555C113.309 85.3891 114.106 85.5617 114.912 85.5617C115.718 85.5617 116.515 85.3891 117.249 85.0555L177.029 57.8823V43.7647C177.029 42.267 176.434 40.8306 175.375 39.7716C174.316 38.7126 172.88 38.1176 171.382 38.1176H58.4412C56.9435 38.1176 55.5071 38.7126 54.4481 39.7716C53.3891 40.8306 52.7941 42.267 52.7941 43.7647V57.8823Z" fill="#F99C21" stroke="#381F32" stroke-width="2.11765" stroke-linecap="round" stroke-linejoin="round"/>
<path d="M66.9118 117.176C66.9118 123.167 69.2916 128.913 73.5277 133.149C77.7639 137.385 83.5093 139.765 89.5 139.765C95.4908 139.765 101.236 137.385 105.472 133.149C109.708 128.913 112.088 123.167 112.088 117.176C112.088 111.186 109.708 105.44 105.472 101.204C101.236 96.968 95.4908 94.5882 89.5 94.5882C83.5093 94.5882 77.7639 96.968 73.5277 101.204C69.2916 105.44 66.9118 111.186 66.9118 117.176Z" fill="#FBE8C2" stroke="#381F32" stroke-width="2.11765" stroke-linecap="round" stroke-linejoin="round"/>
<path d="M100.794 125.647C100.794 126.396 101.092 127.114 101.621 127.644C102.151 128.173 102.869 128.471 103.618 128.471C104.366 128.471 105.085 128.173 105.614 127.644C106.144 127.114 106.441 126.396 106.441 125.647C106.441 124.898 106.144 124.18 105.614 123.651C105.085 123.121 104.366 122.824 103.618 122.824C102.869 122.824 102.151 123.121 101.621 123.651C101.092 124.18 100.794 124.898 100.794 125.647Z" fill="#F89C70"/>
<path d="M72.5588 125.647C72.5588 126.396 72.8563 127.114 73.3858 127.644C73.9153 128.173 74.6335 128.471 75.3824 128.471C76.1312 128.471 76.8494 128.173 77.3789 127.644C77.9084 127.114 78.2059 126.396 78.2059 125.647C78.2059 124.898 77.9084 124.18 77.3789 123.651C76.8494 123.121 76.1312 122.824 75.3824 122.824C74.6335 122.824 73.9153 123.121 73.3858 123.651C72.8563 124.18 72.5588 124.898 72.5588 125.647Z" fill="#F89C70"/>
<path d="M94.5196 127.216C94.5196 128.547 93.9907 129.824 93.0494 130.765C92.108 131.706 90.8312 132.235 89.5 132.235C88.1687 132.235 86.8919 131.706 85.9506 130.765C85.0092 129.824 84.4803 128.547 84.4803 127.216" stroke="#381F32" stroke-width="2.11765" stroke-linecap="round" stroke-linejoin="round"/>
<path d="M66.9118 117.176C66.9118 111.186 69.2916 105.44 73.5277 101.204C77.7639 96.968 83.5093 94.5882 89.5 94.5882C89.5 100.579 87.1202 106.324 82.8841 110.561C78.648 114.797 72.9026 117.176 66.9118 117.176Z" fill="#381F32" stroke="#381F32" stroke-width="2.11765" stroke-linecap="round" stroke-linejoin="round"/>
<path d="M112.088 117.176C112.088 111.186 109.708 105.44 105.472 101.204C101.236 96.968 95.4908 94.5882 89.5 94.5882C89.5 100.579 91.8798 106.324 96.1159 110.561C100.352 114.797 106.097 117.176 112.088 117.176Z" fill="#381F32" stroke="#381F32" stroke-width="2.11765" stroke-linecap="round" stroke-linejoin="round"/>
<path d="M98.2842 117.176V119.686" stroke="#381F32" stroke-width="2.11765" stroke-linecap="round" stroke-linejoin="round"/>
<path d="M80.7157 117.176V119.686" stroke="#381F32" stroke-width="2.11765" stroke-linecap="round" stroke-linejoin="round"/>
</svg>
