<svg width="24" height="24" viewBox="0 0 24 24" fill="none" xmlns="http://www.w3.org/2000/svg">
<path d="M21.5333 16.2667C21.3333 18.6 19.4667 20.4 17.2 20.6667C13.6667 21.0667 10.2667 21.0667 6.73334 20.6667C4.46667 20.4 2.6 18.6 2.4 16.2667C2.13334 12.8667 2.13334 9.40002 2.46667 6.00002C2.66667 3.73335 4.46667 1.86668 6.8 1.60002C10.3333 1.20002 13.7333 1.20002 17.2667 1.60002C19.5333 1.86668 21.3333 3.73335 21.5333 6.00002C21.8667 9.40002 21.8667 12.8667 21.5333 16.2667Z" fill="#57B3FE"/>
<path d="M21.5333 18C21.3333 20.3333 19.4667 22.1333 17.2 22.4C13.6667 22.8 10.2667 22.8 6.73334 22.4C4.46667 22.1333 2.66667 20.2667 2.46667 18C2.46667 17.8 2.4 17.5333 2.4 17.3333C2.13334 14.1333 2.13334 10.9333 2.46667 7.79999C2.66667 5.39999 4.46667 3.59999 6.8 3.33333C10.3333 2.93333 13.7333 2.93333 17.2667 3.33333C19.5333 3.59999 21.4 5.39999 21.6 7.73333C21.6 8.06666 21.6667 8.33332 21.6667 8.59999C21.8667 11.7333 21.8667 14.8667 21.5333 18Z" fill="#57B3FE"/>
<path d="M7.2 3.33335C7.06667 3.33335 6.93334 3.33335 6.8 3.33335C4.46667 3.60001 2.66667 5.40001 2.46667 7.73335C2.13334 10.9333 2.13334 14.1333 2.4 17.2667C2.4 17.4667 2.46667 17.7333 2.46667 17.9333C2.66667 20.2667 4.53334 22.0667 6.8 22.3333C6.93334 22.3333 7.06667 22.3333 7.2 22.3333V3.33335ZM12.1333 3.06668C11.0667 3.06668 10 3.06668 8.93334 3.13335V22.5333C10 22.6 11.0667 22.6 12.1333 22.6V3.06668ZM21.5333 7.73335C21.3333 5.46668 19.6 3.73335 17.4 3.40001V22.3333C19.6 22 21.3333 20.2 21.5333 18C21.9333 14.4 21.8667 10.8667 21.5333 7.73335Z" fill="#497BFE"/>
<path d="M21.5332 16.2667C21.3332 18.6 19.4666 20.4 17.1999 20.6667C13.6666 21.0667 10.2666 21.0667 6.73324 20.6667C4.46657 20.4 2.5999 18.6 2.3999 16.2667C2.06657 13.4 2.06657 9.73335 2.3999 6.00002C2.66657 3.73335 4.46657 1.86668 6.7999 1.60002C10.3332 1.20002 13.7332 1.20002 17.2666 1.60002C19.5332 1.86668 21.3332 3.73335 21.5332 6.00002C21.8666 9.13335 21.9332 12.6667 21.5332 16.2667Z" fill="#57B3FE"/>
<path d="M21.5332 5.99999C21.3332 3.79999 19.6666 2.06666 17.5332 1.66666C18.6666 3.39999 19.3999 5.46666 19.4666 7.66666C19.7332 13.4667 14.3332 18.4 8.73324 18.4C6.33324 18.4 4.1999 17.6 2.3999 16.2667C2.66657 18.5333 4.46657 20.4 6.73324 20.6C10.2666 21 13.6666 21 17.1999 20.6C19.4666 20.3333 21.3332 18.5333 21.5332 16.2C21.9332 12.6667 21.8666 9.13332 21.5332 5.99999Z" fill="#5094FF"/>
<path opacity="0.5" d="M5.66664 4.53335C4.59998 5.53335 4.19998 6.86669 3.73331 6.40002C3.33331 5.93335 3.53331 4.53335 4.53331 3.53335C5.59998 2.53335 7.06664 2.33335 7.46664 2.80002C7.93331 3.26669 6.66664 3.53335 5.66664 4.53335Z" fill="white"/>
<path d="M8.53333 9.33332V16.3333C8.53333 17.0666 7.93333 17.6 7.26667 17.6C6.53333 17.6 6 17 6 16.3333V9.33332C6 8.59998 6.6 8.06665 7.26667 8.06665C7.93333 8.06665 8.53333 8.66665 8.53333 9.33332Z" fill="#497BFE"/>
<path d="M8.53333 6.60001V15.5333C8.53333 16.2667 8 16.8 7.26667 16.8C6.6 16.8 6 16.2667 6 15.5333V6.60001C6 5.93334 6.53333 5.33334 7.2 5.33334C7.93333 5.33334 8.53333 5.93334 8.53333 6.60001Z" fill="#F3F1FC"/>
<path d="M7.73314 6.60003V15.5334C7.73314 15.8 7.53314 16 7.26647 16C6.9998 16 6.7998 15.8 6.7998 15.5334V6.60003C6.7998 6.33336 6.9998 6.13336 7.26647 6.13336C7.53314 6.13336 7.73314 6.33336 7.73314 6.60003Z" fill="#DEDFFB"/>
<path d="M13.2666 9.33332V16.3333C13.2666 17.0666 12.6666 17.6 11.9999 17.6C11.2666 17.6 10.7333 17 10.7333 16.3333V9.33332C10.7333 8.59998 11.3333 8.06665 11.9999 8.06665C12.7333 8.06665 13.2666 8.66665 13.2666 9.33332Z" fill="#497BFE"/>
<path d="M13.2666 6.60001V15.5333C13.2666 16.2667 12.6666 16.8 11.9999 16.8C11.2666 16.8 10.7333 16.2 10.7333 15.5333V6.60001C10.7333 5.93334 11.2666 5.33334 11.9999 5.33334C12.7333 5.33334 13.2666 5.93334 13.2666 6.60001Z" fill="#F3F1FC"/>
<path d="M12.4667 6.60003V15.5334C12.4667 15.8 12.2667 16 12 16C11.7333 16 11.5333 15.8 11.5333 15.5334V6.60003C11.5333 6.33336 11.7333 6.13336 12 6.13336C12.2667 6.13336 12.4667 6.33336 12.4667 6.60003Z" fill="#DEDFFB"/>
<path d="M18.0665 9.33335V16.3333C18.0665 17.0667 17.4665 17.6 16.7999 17.6C16.0665 17.6 15.5332 17 15.5332 16.3333V9.33335C15.5332 8.60001 16.1332 8.06668 16.7999 8.06668C17.4665 8.06668 18.0665 8.66668 18.0665 9.33335Z" fill="#497BFE"/>
<path d="M18.0665 6.60001V15.5333C18.0665 16.2667 17.4665 16.8 16.7999 16.8C16.0665 16.8 15.5332 16.2 15.5332 15.5333V6.60001C15.5332 5.86668 16.1332 5.33334 16.7999 5.33334C17.4665 5.33334 18.0665 5.93334 18.0665 6.60001Z" fill="#F3F1FC"/>
<path d="M17.2666 6.60003V15.5334C17.2666 15.8 17.0666 16 16.7999 16C16.5333 16 16.3333 15.8 16.3333 15.5334V6.60003C16.3333 6.33336 16.5333 6.13336 16.7999 6.13336C17.0666 6.13336 17.2666 6.33336 17.2666 6.60003Z" fill="#DEDFFB"/>
</svg>
