<svg width="24" height="24" viewBox="0 0 24 24" fill="none" xmlns="http://www.w3.org/2000/svg">
<g clip-path="url(#clip0_176_999)">
<path d="M21.5333 10.3333L21.4 12.2L21.0667 17.8C21 18.7333 20.4 19.6 19.5333 19.9333C12.6667 22.6 12.8667 22.6 12.6 22.6666C12.2667 22.7333 11.8667 22.7333 11.4667 22.6666C11.1333 22.6 11.4 22.6666 4.53333 19.9333C3.66666 19.6 3.06666 18.7333 2.99999 17.8L2.66666 12.2L2.53333 10.3333L12 13.3333L21.5333 10.3333Z" fill="#F45170"/>
<path d="M12.5332 14.5333V22.6C12.1999 22.6667 11.7999 22.6667 11.3999 22.6V14.5333C11.7999 14.7333 12.1999 14.7333 12.5332 14.5333Z" fill="#FA5F7F"/>
<path d="M2.46667 10.3333L2.60001 12.2L11.4667 16C11.8 16.1333 12.2 16.1333 12.6 16L21.4667 12.2L21.6 10.3333L12 13.3333L2.46667 10.3333Z" fill="#CC104A"/>
<path opacity="0.5" d="M11.4667 14.5333V15.9333C11.8 16.0667 12.2 16.0667 12.6 15.9333V14.5333C12.2 14.7333 11.8 14.7333 11.4667 14.5333Z" fill="#93073A"/>
<path d="M21.9999 10.6667L12.5999 14.6667C12.4665 14.7333 12.2665 14.8 12.0665 14.8C11.8665 14.8 11.7332 14.7333 11.5332 14.6667L1.99987 10.6667C1.3332 10.4 1.19987 8.46667 1.46653 7.2C1.5332 6.93333 1.59987 6.73333 1.66653 6.53333C1.79987 6.33333 1.86653 6.2 1.99987 6.13333H21.9999C22.1332 6.2 22.1999 6.26667 22.2665 6.4C22.3999 6.6 22.4665 6.86666 22.5332 7.13333C22.7999 8.46666 22.5999 10.4 21.9999 10.6667Z" fill="#E93565"/>
<path d="M22.5332 7.19999C22.3999 6.79999 21.7999 6.99999 21.7999 6.99999L12.9999 10.7333C12.7332 10.8667 12.5332 11.1333 12.5332 11.4667V14.6667C12.3999 14.7333 12.1999 14.8 11.9999 14.8C11.7999 14.8 11.6666 14.7333 11.4666 14.6667V11.4C11.4666 11.0667 11.2666 10.8 10.9999 10.6667L2.13324 6.93332C1.93324 6.86666 1.53324 6.79999 1.3999 7.13333C1.46657 6.86666 1.53324 6.66666 1.5999 6.46666C1.73324 6.33332 1.86657 6.19999 1.9999 6.13333L11.3999 2.13333C11.7332 1.99999 12.1332 1.99999 12.5332 2.13333L21.9332 6.13333C22.0666 6.19999 22.1332 6.26666 22.1999 6.39999C22.3999 6.59999 22.4666 6.86666 22.5332 7.19999Z" fill="#FA5F7F"/>
<path d="M12.2666 10.3333L21.0666 6.66665C21.1999 6.59999 21.1999 6.39999 21.0666 6.33332L12.2666 2.73332C12.0666 2.66665 11.8666 2.66665 11.6666 2.73332L2.93325 6.33332C2.79992 6.39999 2.79992 6.59999 2.93325 6.66665L11.6666 10.2667C11.8666 10.4 12.1333 10.4 12.2666 10.3333Z" fill="#E93565"/>
<path d="M16.6666 9.13332L15.8666 9.46666C15.7333 9.33332 15.5999 9.26666 15.1999 9.06666L16.1333 8.66666C16.3333 8.86666 16.5333 8.99999 16.6666 9.13332ZM8.13325 9.53332L7.33325 9.13332C7.46659 8.93332 7.66659 8.79999 7.86659 8.66666L8.79992 9.06666C8.46659 9.26666 8.26659 9.39999 8.13325 9.53332Z" fill="#DF3260"/>
<path d="M11.9999 6.46667C12.9332 6.93334 14.9332 8.00001 16.1332 8.73334L15.1999 9.13334C14.2666 8.60001 12.9999 8.00001 11.9999 7.60001C10.7999 8.13334 9.73324 8.60001 8.79991 9.13334L7.86658 8.73334C8.93324 8.06668 10.8666 7.00001 11.9999 6.46667Z" fill="#CC104A"/>
<path d="M8.79996 4.79999C7.33329 5.59999 5.93329 6.33332 4.66663 7.06665C3.93329 7.53332 3.46663 8.33332 3.53329 9.19999L4.33329 19.6667C4.39996 20.2 4.66663 20.7333 5.06663 21C6.06663 21.7333 7.73329 22.7333 8.53329 22.0667L7.66663 21.4667L7.46663 8.93332L12 6.39999V4.79999H8.79996Z" fill="#FFD475"/>
<path opacity="0.5" d="M7.86655 10.7333L7.93321 21L7.46655 20.2C7.06655 10.4667 6.79988 9.93333 7.33321 9.13333L8.13321 9.46666C7.86655 9.8 7.86655 10.2667 7.86655 10.7333Z" fill="#93073A"/>
<path d="M6.73326 10.3333L7.19993 21.4C7.19993 21.9333 7.73326 22.4 8.2666 22.2667C8.53326 22.2 8.79993 22 8.99993 21.7333L8.13326 21.3333C7.99993 21.2667 7.93326 21.1333 7.93326 21L7.59993 10.2C7.59993 9.66667 7.8666 9.06667 8.33326 8.8C9.4666 8.13333 10.5999 7.6 11.9333 7V6C10.6666 6.6 8.99993 7.53333 7.79993 8.26667C7.13326 8.66667 6.6666 9.46667 6.73326 10.3333Z" fill="#F3A250"/>
<path d="M15.2 4.79999C16.6667 5.53332 18.0667 6.33332 19.3333 7.06665C20.0667 7.53332 20.5333 8.33332 20.4667 9.19999L19.6667 19.6667C19.6 20.2 19.3333 20.7333 18.9333 21C17.9333 21.7333 16.2667 22.7333 15.4667 22.0667L16.3333 21.4667L16.5333 8.93332L12 6.39999V4.79999H15.2Z" fill="#FFD475"/>
<path opacity="0.5" d="M16.1334 10.7333L16.0667 21.0666L16.6 20.2C16.8667 10.4666 17.2 9.99998 16.6667 9.19998L15.8667 9.53331C16.1334 9.79998 16.1334 10.2666 16.1334 10.7333Z" fill="#93073A"/>
<path d="M17.2667 10.3333L16.8 21.4C16.8 21.9333 16.2667 22.4 15.7333 22.2667C15.4667 22.2 15.2 22 15 21.7333L15.8666 21.4C16 21.3333 16.0667 21.2667 16.0667 21.1333L16.4 10.3333C16.4 9.8 16.1333 9.2 15.6667 8.93333C15.3333 8.73333 14.9333 8.53333 14.6 8.33333C13.8666 7.93333 13.0667 7.6 12.3333 7.26667C12.2 7.2 12.1333 7.2 12.0667 7.13333V6C12.4 6.2 12.7333 6.33333 13.0667 6.53333C14.1333 7.06667 15.0666 7.6 16.2 8.26667C16.2666 8.33333 16.3333 8.4 16.4 8.4C16.9333 8.86667 17.3333 9.6 17.2667 10.3333Z" fill="#F3A250"/>
<path d="M10.9333 5.13334C10.9333 5.20001 10.8667 5.33334 10.8667 5.40001C10.5333 6.40001 10.0667 6.93334 8.99999 6.66668C8.33332 6.46668 5.66665 7.06668 5.46665 7.00001C4.86665 6.73334 4.66665 6.06668 4.73332 5.33334C4.73332 4.40001 5.13332 3.33334 5.46665 2.66668C5.79999 2.00001 6.33332 1.46668 6.93332 1.33334C6.99999 1.33334 7.13332 1.33334 7.19999 1.33334C8.13332 1.33334 9.73332 2.86668 10.2667 3.53334L10.3333 3.60001C10.6667 4.00001 10.8667 4.40001 10.9333 4.73334C10.9333 4.93334 10.9333 5.06668 10.9333 5.13334Z" fill="#FFD475"/>
<path d="M10.9333 5.13334C10.9333 5.20001 10.8666 5.33334 10.8666 5.40001C10.7333 5.00001 10.3333 4.40001 10.1999 4.26668C9.59994 3.53334 8.06661 2.06668 7.13328 2.06668C5.79994 2.06668 4.93328 4.00001 4.73328 5.33334C4.73328 4.40001 5.13328 3.33334 5.46661 2.66668C5.73328 2.06668 6.39994 1.46668 6.93328 1.33334C6.99994 1.33334 7.13328 1.33334 7.19994 1.33334C8.13328 1.33334 9.73328 2.86668 10.2666 3.53334L10.3333 3.60001C10.7333 4.13334 10.8666 4.46668 10.9333 4.73334C10.9333 4.93334 10.9333 5.06668 10.9333 5.13334Z" fill="#FFDE9B"/>
<path opacity="0.5" d="M11.6667 7.19998C11.4667 7.26665 11.2 7.39998 11 7.46665C10.2 7.39998 10.0667 7.39998 9.8667 7.26665C9.93337 7.26665 10 7.19998 10 7.13331C10.2667 6.86665 10.1334 6.59998 9.93337 6.33331H10.8L10.9334 6.46665L11.6667 7.19998Z" fill="#DD8536"/>
<path d="M4.73328 5.93333C4.73328 6.33333 4.73328 7.6 6.19994 7.8C6.73328 7.86666 7.79994 7.86666 8.39994 7.86666C9.26661 7.8 10.5333 7.66666 10.5333 6.8C10.5333 6.66666 10.4666 6.46666 10.3999 6.33333C10.2666 6.06666 9.79994 5.66666 9.73328 5.66666C8.66661 4.86666 6.99994 4.2 6.26661 4.13333C5.33328 4.13333 4.73328 5 4.73328 5.93333Z" fill="#FFB961"/>
<path d="M7.73321 7.59999C13.4665 7.59999 7.79988 4.46666 6.26654 4.39999C5.53321 4.39999 4.99988 5.06666 4.99988 5.93333C4.99988 7.66666 5.99988 7.59999 7.73321 7.59999Z" fill="#F3A250"/>
<path d="M10.0665 7.20002C10.1332 7.13335 10.1332 7.20002 10.0665 7.20002V7.20002Z" fill="#F3A250"/>
<path d="M4.99988 5.93333C4.99988 6.26666 5.06654 6.73333 5.26654 6.99999C5.33321 6.26666 5.86654 5.59999 6.53321 5.59999C7.19988 5.59999 8.93321 6.26666 9.99988 7.19999C9.99988 7.19999 9.99988 7.19999 10.0665 7.13333C10.9332 6.26666 7.46654 4.46666 6.19988 4.39999C5.53321 4.46666 4.99988 5.06666 4.99988 5.93333Z" fill="#DD8536"/>
<path d="M13.0665 5.13335C13.3332 6.20002 13.8665 7.00001 14.9999 6.60001C15.6665 6.40001 18.3332 7.00001 18.5332 6.93335C18.9999 6.73335 19.1999 6.26668 19.2665 5.73335C19.3999 4.26668 18.3332 0.933348 16.3999 1.40002C15.7332 1.60002 14.4665 2.60002 13.6665 3.60001L13.5999 3.66668C13.1999 4.20001 12.9332 4.73335 13.0665 5.13335Z" fill="#FFD475"/>
<path d="M19.2666 5.33332C18.9999 3.79999 17.9999 1.73332 16.4666 2.06666C15.4666 2.39999 13.3999 4.26666 13.1333 5.33332C12.9999 4.93332 12.8666 4.53332 13.5999 3.59999L13.6666 3.53332C14.4666 2.53332 15.7333 1.59999 16.3999 1.33332C18.2666 0.933323 19.2666 3.99999 19.2666 5.33332Z" fill="#FFDE9B"/>
<path opacity="0.5" d="M19.5333 7.19998C18.9999 8.33331 17.7333 8.39998 16.3999 8.39998C16.0666 8.39998 15.7999 8.39998 15.4666 8.39998C14.9333 8.39998 14.7333 8.33331 14.5333 8.26665C13.7999 7.86665 12.9999 7.53331 12.2666 7.19998L12.9333 6.46665L13.0666 6.33331H17.9999C18.4666 6.59998 19.3333 7.06665 19.5333 7.19998Z" fill="#DD8536"/>
<path d="M13.4666 6.86668C13.4666 7.73335 14.7332 7.86668 15.5999 7.93335C17.7999 8.00001 19.2666 8.06668 19.2666 6.00001C19.2666 5.06668 18.6666 4.20001 17.7332 4.20001C16.5999 4.20001 13.4666 5.66668 13.4666 6.86668Z" fill="#FFB961"/>
<path d="M16.2665 7.59999C10.5332 7.59999 16.2665 4.46666 17.7332 4.39999C18.4665 4.39999 18.9999 5.06666 18.9999 5.93333C18.9999 7.66666 17.9332 7.59999 16.2665 7.59999Z" fill="#F3A250"/>
<path d="M19 5.93333C19 6.26666 18.9333 6.66666 18.7333 6.99999C18.6666 6.19999 18.1333 5.59999 17.4666 5.59999C16.8 5.59999 15.0666 6.26666 14 7.19999C14 7.19999 14 7.19999 13.9333 7.13333C13.0666 6.26666 16.5333 4.46666 17.8 4.39999C18.4666 4.46666 19 5.06666 19 5.93333Z" fill="#DD8536"/>
<g opacity="0.1">
<path d="M14.3333 6.00001C14.1333 6.13334 13.8666 6.46667 13.8 6.73334C13.8 6.86667 13.8 7.00001 13.9333 7.13334C13.9333 7.13334 13.9333 7.20001 14 7.20001C14.0666 7.26667 14.0666 7.26667 14.1333 7.33334C14 7.46667 13.8 7.46667 13 7.53334C12.6666 7.33334 12.3333 7.20001 12 7.06667C11.8666 7.13334 11.8 7.13334 11.7333 7.20001C11.5333 7.26667 11.2666 7.40001 11.0666 7.46667C10.2666 7.40001 10.1333 7.40001 9.93329 7.26667C10.2 7.13334 10.4 6.80001 9.99996 6.33334C9.86663 6.20001 9.79996 6.06667 9.66663 6.00001C9.66663 5.86667 9.99996 4.06667 9.99996 4.00001C10.0666 3.80001 10.1333 3.66667 10.2666 3.60001L10.3333 3.66667C10.7333 4.20001 11 4.73334 10.8666 5.13334C10.7333 5.60001 10.6 6.06667 10.2666 6.33334C10.3333 6.46667 10.4 6.60001 10.4 6.73334C10.5333 6.66667 10.7333 6.53334 10.9333 6.46667C11.3333 6.33334 11.6666 6.13334 12 6.00001C12.5333 6.26667 13 6.53334 13.5333 6.80001C13.5333 6.66667 13.6 6.53334 13.6666 6.40001C13.4 6.06667 13.2 5.66667 13.0666 5.20001C12.9333 4.80001 13.2 4.26667 13.6666 3.73334C13.6666 3.73334 13.6666 3.66667 13.7333 3.66667C13.8666 3.66667 13.9333 3.80001 14 4.00001C14 4.13334 14.3333 5.93334 14.3333 6.00001Z" fill="#111D33"/>
</g>
<path d="M9.86659 6.60001C9.79993 6.86668 9.99993 7.06668 10.1999 7.06668C11.7333 7.26668 12.1333 7.26668 13.7333 7.06668C13.9999 7.06668 14.1333 6.80001 14.0666 6.60001L13.7333 5.00001C13.7333 4.80001 13.5333 4.73335 13.3333 4.73335C12.4666 4.93335 11.3333 4.93335 10.4666 4.73335C10.2666 4.66668 10.1333 4.80001 10.0666 5.00001L9.86659 6.60001Z" fill="#FFB961"/>
<path d="M10.0667 5.53334C10 5.73334 10.2 6 10.4 6C11.7333 6.2 12.2667 6.2 13.6 6C13.8 6 14 5.8 13.9333 5.53334L13.6667 4.06667C13.6667 3.93334 13.4667 3.8 13.3333 3.86667C12.6 4.06667 11.4667 4.06667 10.7333 3.86667C10.6 3.8 10.4 3.93334 10.4 4.06667L10.0667 5.53334Z" fill="#FFD475"/>
</g>
<defs>
<clipPath id="clip0_176_999">
<rect width="24" height="24" fill="white"/>
</clipPath>
</defs>
</svg>
