<svg width="14" height="14" viewBox="0 0 14 14" fill="none" xmlns="http://www.w3.org/2000/svg">
<path d="M11.8782 4.77244V4.9795L12.0246 5.12594L13.219 6.32071C13.3991 6.50097 13.5002 6.74531 13.5002 7.00006C13.5002 7.25482 13.3991 7.49916 13.219 7.67942L12.0246 8.87419L11.8782 9.02063V9.22769V10.9167C11.8779 11.1715 11.7766 11.4158 11.5964 11.596C11.4162 11.7762 11.1719 11.8775 10.917 11.8778H9.22737H9.02022L8.87376 12.0243L7.67956 13.2189C7.67948 13.219 7.6794 13.2191 7.67932 13.2191C7.49902 13.399 7.25476 13.5 7.00009 13.5C6.74534 13.5 6.501 13.3989 6.32068 13.2189C6.32067 13.2189 6.32065 13.2189 6.32063 13.2189L5.12643 12.0243L4.97997 11.8778H4.77282H3.08314C2.82831 11.8775 2.584 11.7762 2.40381 11.596C2.22366 11.4158 2.12231 11.1716 2.12197 10.9169C2.12197 10.9168 2.12197 10.9167 2.12197 10.9167L2.12197 9.22769V9.02063L1.97557 8.87419L0.781154 7.67942C0.7811 7.67936 0.781046 7.67931 0.780993 7.67925C0.601062 7.49902 0.5 7.25475 0.5 7.00006C0.5 6.74538 0.601062 6.50111 0.780993 6.32088C0.781046 6.32082 0.7811 6.32077 0.781154 6.32071L1.97557 5.12594L2.12197 4.9795V4.77244L2.12197 3.08347C2.12197 3.08341 2.12197 3.08334 2.12197 3.08328C2.12231 2.82852 2.22366 2.58429 2.40381 2.40414C2.58396 2.22399 2.82819 2.12264 3.08295 2.1223C3.08301 2.1223 3.08308 2.1223 3.08314 2.1223L4.77282 2.1223H4.97997L5.12643 1.9758L6.32074 0.781124C6.32078 0.781085 6.32082 0.781045 6.32086 0.781006C6.5011 0.601048 6.74539 0.499969 7.00009 0.499969C7.25485 0.499969 7.49919 0.601092 7.67945 0.781124L8.87376 1.9758L9.02022 2.1223H9.22737L10.917 2.1223C10.9171 2.1223 10.9172 2.1223 10.9172 2.1223C11.172 2.12264 11.4162 2.22399 11.5964 2.40414L11.9358 2.06473L11.5964 2.40414C11.7766 2.58433 11.8779 2.82864 11.8782 3.08347V4.77244Z" fill="#22C55E" stroke="white"/>
<path d="M6.45233 8.82564C6.35641 8.82575 6.26142 8.8069 6.17281 8.77018C6.0842 8.73346 6.00373 8.67959 5.93601 8.61166L4.84055 7.51621C4.70566 7.37885 4.63047 7.19378 4.63134 7.00126C4.63221 6.80874 4.70908 6.62435 4.84521 6.48822C4.98134 6.35209 5.16573 6.27522 5.35825 6.27435C5.55077 6.27348 5.73584 6.34867 5.8732 6.48357L6.45233 7.0627L8.12691 5.38812C8.26427 5.25322 8.44934 5.17803 8.64186 5.1789C8.83438 5.17977 9.01877 5.25664 9.1549 5.39277C9.29103 5.5289 9.3679 5.71329 9.36877 5.90581C9.36964 6.09833 9.29445 6.2834 9.15956 6.42076L6.96865 8.61166C6.90093 8.67959 6.82045 8.73346 6.73184 8.77018C6.64324 8.8069 6.54824 8.82575 6.45233 8.82564Z" fill="white"/>
</svg>
