<svg width="36" height="36" viewBox="0 0 36 36" fill="none" xmlns="http://www.w3.org/2000/svg">
<path d="M9.00005 3.20001C9.00005 3.20001 5.50005 5.30001 5.10005 7.30001C4.70005 9.30001 8.20005 7.10001 8.40005 6.20001C8.60005 5.30001 10.2001 5.20001 10.0001 4.80001C9.90005 4.40001 9.00005 3.20001 9.00005 3.20001Z" fill="#DD8536"/>
<path d="M32.1 26.9L30.6 27C30.2 19.7 29.4 12.9 28.3 6.79999C22.3 5.89999 15.9 5.29999 9.20002 4.79999L8.90002 3.49999L10 2.29999L30 5.09999C31.8 10.9 32.4 18.2 32.7 24.8L32.1 26.9Z" fill="#F3A250"/>
<path d="M6.5 7.50002L9.2 4.90002C16.4 5.10002 23 5.50002 28.3 6.50002C28.7 6.60002 29 6.90002 29 7.30002C29.9 13.9 30.4 20.5 30.6 27.1L28.5 29.2L26.1 9.50002C20.2 9.50002 13.5 8.70002 6.5 7.50002Z" fill="#E9E7FC"/>
<path d="M28.8 31.5C28.8 31.8 28.7 32.1 28.6 32.4C28.2 33 27.7 33.6 27.2 34C27.1 26 26.4 18.2 25.6 10.3L26.8 8.90002C26.9 9.00002 26.9 9.00003 27 9.10003C26.9 9.70003 28.5 15.9 28.8 31.5Z" fill="#F3A250"/>
<path d="M5.30005 7.19999C12.7 8.19999 20.4 8.69999 26.4 8.69999C26.5 8.69999 26.6 8.69999 26.8 8.79999L25.6 10.1L25.5 10.2C18 10.2 10.5 9.29999 2.80005 8.09999C3.40005 6.19999 4.70005 4.39999 6.60005 2.79999C7.30005 2.29999 8.10005 1.99999 8.90005 1.99999C19.9 1.79999 30 3.69999 30.7001 4.09999C30.7001 4.09999 30.8 4.09999 30.8 4.19999C30.7 4.29999 29.8001 5.29999 29.7001 5.29999C23 3.99999 16.1 3.39999 8.90005 3.49999C7.30005 4.59999 6.10005 5.79999 5.30005 7.19999Z" fill="#FFD475"/>
<path d="M27.1999 34C19.7999 34.1 12.1999 33.1 4.39995 31.3C4.09995 31.2 3.89995 31 3.79995 30.7C2.79995 23.6 2.49995 16 2.79995 8.20001C10.2999 9.40001 17.7999 10.1 25.1999 10.1C25.2999 10.1 25.4999 10.2 25.5999 10.2C25.6999 10.3 25.6999 10.4 25.7999 10.5C26.5999 18.3 27.0999 26.1 27.1999 34Z" fill="#FFB961"/>
<path d="M8.09995 30.1C7.39995 30 6.69995 29.8 5.99995 29.7C5.69995 29.6 5.49995 29.4 5.39995 29.1C4.69995 23.6 4.39995 17.5 4.49995 11.2C4.49995 10.8 4.89995 10.5 5.29995 10.5C5.99995 10.6 6.69995 10.7 7.39995 10.8C7.69995 10.8 7.99995 11.1 7.99995 11.5C7.99995 14.4 8.09995 22.9 8.79995 29.4C8.99995 29.8 8.59995 30.2 8.09995 30.1ZM24.5 31.9C20.4 31.8 16 31.4 11.4 30.6C11.1 30.5 10.9 30.3 10.8 30C9.99995 23.8 9.89995 15 9.89995 11.6C9.89995 11.2 10.3 10.9 10.7 10.9C15.1 11.4 19.3 11.6 23.5 11.7C23.9 11.7 24.2 12 24.2 12.3C24.8 18.6 25.1999 24.9 25.2999 31.1C25.1999 31.6 24.9 31.9 24.5 31.9Z" fill="#DF3260"/>
<path d="M33.2 25.1C32.9 25.8 32.5 26.5 32 27C31.9 19.6 31.3 12.4 29.7 5.4C29.8 5.3 30.8999 4.2 30.7999 4.3L30.9 4.5C32.6999 9.2 33.6 24 33.2 25.1Z" fill="#FFB961"/>
<path d="M9.69998 18.1L8.59998 17L14.7 10.5L15.7 11.4L9.69998 18.1Z" fill="#FFB961"/>
<path d="M18.7301 10.2894L17.6838 11.3643L24.8497 18.3393L25.8959 17.2645L18.7301 10.2894Z" fill="#FFB961"/>
<path d="M25.2563 25.2281L19.0635 32.0317L20.1728 33.0414L26.3655 26.2378L25.2563 25.2281Z" fill="#FFB961"/>
<path d="M10.0019 23.3971L8.85168 24.36L15.9125 32.7947L17.0627 31.8319L10.0019 23.3971Z" fill="#FFB961"/>
<path d="M22.2 18.7L22.5 23.6C22.5 23.8 22.4 24 22.2 24.1L18.1 26.8C17.9 26.9 17.7 26.9 17.5 26.8L13.1 24.6C12.9 24.5 12.8 24.3 12.8 24.1L12.5 19.2C12.5 19 12.6 18.8 12.8 18.7L16.9 16C17.1 15.9 17.3 15.9 17.5 16L21.9 18.2C22.1 18.3 22.2 18.5 22.2 18.7Z" fill="#B70646"/>
<path d="M21.4 19.2L21.6 23.7C21.6 23.9 21.5 24.1 21.4 24.2L17.7 26.6C17.5 26.7 17.3 26.7 17.2 26.6L13.2 24.6C13 24.5 12.9 24.3 12.9 24.1L12.7 19.6C12.7 19.4 12.8 19.2 12.9 19.1L16.7 16.7C16.9 16.6 17.1 16.6 17.2 16.7L21.2 18.7C21.3 18.9 21.4 19 21.4 19.2Z" fill="#FFB961"/>
<path d="M17.3 26L13.5 24.1L13.3 19.8L16.9 17.4L20.7 19.4L21 23.7L17.3 26Z" fill="#6EB954"/>
<path d="M17.2 23.8L19.1 22.7L21 23.7L17.2999 26L17.2 23.8Z" fill="#4B9534"/>
<path d="M15.2 20.7L15.3 22.9L13.5 24.1L13.3 19.8L15.2 20.7Z" fill="#4B9534"/>
<path d="M17 19.7L18.9 20.5L20.7 19.4L16.9 17.4L17 19.7Z" fill="#4B9534"/>
<path d="M15.1 22.8C15 20.7 14.9 20.7 15.1 20.5C16.9 19.3 16.9 19.3 17.1 19.4C19 20.4 19 20.3 19 20.6C19.1 22.7 19.2 22.7 19 22.9C17.2 24.1 17.2 24.1 17 24L15.2 23.1C15.2 23 15.1 22.9 15.1 22.8Z" fill="#36712D"/>
<path d="M19.7 20.5C19.6 20.6 19.6 20.7 19.7 20.8C20.2 21.1 20.7 21.4 20.7 21.4C20.6 21.4 20.2 21.2 19.6 20.9C19.5 20.9 19.3 20.9 19.4 21.1C19.7 22.3 20 23.5 19.9 23.5C19.8 23.5 19.4 22.4 19 21.2C19 21.1 18.8 21.1 18.7 21.2C18.4 21.7 18.1 22.2 18.1 22.2C18.1 22.1 18.3 21.7 18.5 21.1C18.6 21 18.5 20.9 18.3 20.9C17.1 21.2 16 21.5 15.9 21.4C15.9 21.3 17 20.9 18.2 20.5C18.3 20.4 18.3 20.3 18.2 20.2C17.7 19.9 17.3 19.7 17.2 19.6C17.3 19.6 17.7 19.8 18.3 20C18.4 20.1 18.5 20 18.5 19.8C18.2 18.6 17.9 17.4 18 17.4C18.1 17.4 18.5 18.5 18.9 19.7C18.9 19.8 19.1 19.8 19.2 19.7C19.5 19.2 19.8 18.7 19.8 18.7C19.8 18.8 19.6 19.2 19.4 19.8C19.3 19.9 19.4 20 19.6 20C20.8 19.7 21.9 19.4 22 19.5C21.9 19.7 20.9 20.1 19.7 20.5Z" fill="white"/>
<path d="M26.7999 7.70001C20.9 7.40001 13.6 7.10001 9.19995 6.40001C14.3 6.10001 21.9999 6.40001 26.7999 7.70001Z" fill="#D0CEF2"/>
<path d="M29.5 27.1C29.3 19.4 28.5 14.1 28 8.79999C29.4 13.9 30.2 21.7 29.5 27.1Z" fill="#D0CEF2"/>
</svg>
