<svg width="36" height="36" viewBox="0 0 36 36" fill="none" xmlns="http://www.w3.org/2000/svg">
<path d="M24 30C27.7279 30 30.75 26.9779 30.75 23.25C30.75 19.5221 27.7279 16.5 24 16.5C20.2721 16.5 17.25 19.5221 17.25 23.25C17.25 26.9779 20.2721 30 24 30Z" fill="#3BAFFF"/>
<path d="M21.75 21.75C21.75 21.1533 21.9871 20.581 22.409 20.159C22.831 19.7371 23.4033 19.5 24 19.5C26.25 19.5 26.94 22.5 25.5 22.5C25.3011 22.5 25.1103 22.421 24.9697 22.2803C24.829 22.1397 24.75 21.9489 24.75 21.75C24.75 21.6017 24.706 21.4567 24.6236 21.3333C24.5412 21.21 24.4241 21.1139 24.287 21.0571C24.15 21.0003 23.9992 20.9855 23.8537 21.0144C23.7082 21.0433 23.5746 21.1148 23.4697 21.2197C23.3648 21.3246 23.2933 21.4582 23.2644 21.6037C23.2355 21.7492 23.2503 21.9 23.3071 22.037C23.3639 22.1741 23.46 22.2912 23.5833 22.3736C23.7067 22.456 23.8517 22.5 24 22.5C24.1989 22.5 24.3897 22.579 24.5303 22.7197C24.671 22.8603 24.75 23.0511 24.75 23.25C24.75 24.6825 21.75 24 21.75 21.75Z" fill="#FAF7F5"/>
<path d="M23.9999 27C21.7499 27 21.0599 24 22.4999 24C22.6988 24 22.8896 24.079 23.0302 24.2197C23.1709 24.3603 23.2499 24.5511 23.2499 24.75C23.2499 24.8983 23.2939 25.0433 23.3763 25.1667C23.4587 25.29 23.5758 25.3861 23.7129 25.4429C23.8499 25.4997 24.0007 25.5145 24.1462 25.4856C24.2917 25.4567 24.4253 25.3852 24.5302 25.2803C24.6351 25.1754 24.7065 25.0418 24.7355 24.8963C24.7644 24.7508 24.7496 24.6 24.6928 24.463C24.636 24.3259 24.5399 24.2088 24.4166 24.1264C24.2932 24.044 24.1482 24 23.9999 24C23.801 24 23.6102 23.921 23.4696 23.7803C23.3289 23.6397 23.2499 23.4489 23.2499 23.25C23.2499 21.8175 26.2499 22.5 26.2499 24.75C26.2499 25.3467 26.0128 25.919 25.5909 26.341C25.1689 26.7629 24.5966 27 23.9999 27ZM23.9999 21C23.801 21 23.6102 20.921 23.4696 20.7803C23.3289 20.6397 23.2499 20.4489 23.2499 20.25V19.5C23.2499 19.3011 23.3289 19.1103 23.4696 18.9697C23.6102 18.829 23.801 18.75 23.9999 18.75C24.1988 18.75 24.3896 18.829 24.5302 18.9697C24.6709 19.1103 24.7499 19.3011 24.7499 19.5V20.25C24.7499 20.4489 24.6709 20.6397 24.5302 20.7803C24.3896 20.921 24.1988 21 23.9999 21Z" fill="#FAF7F5"/>
<path d="M24 27.75C23.8011 27.75 23.6103 27.671 23.4697 27.5303C23.329 27.3897 23.25 27.1989 23.25 27V26.25C23.25 26.0511 23.329 25.8603 23.4697 25.7197C23.6103 25.579 23.8011 25.5 24 25.5C24.1989 25.5 24.3897 25.579 24.5303 25.7197C24.671 25.8603 24.75 26.0511 24.75 26.25V27C24.75 27.1989 24.671 27.3897 24.5303 27.5303C24.3897 27.671 24.1989 27.75 24 27.75Z" fill="#FAF7F5"/>
<path d="M19.5 24C19.9142 24 20.25 23.6642 20.25 23.25C20.25 22.8358 19.9142 22.5 19.5 22.5C19.0858 22.5 18.75 22.8358 18.75 23.25C18.75 23.6642 19.0858 24 19.5 24Z" fill="#FAF7F5"/>
<path d="M28.5 24C28.9142 24 29.25 23.6642 29.25 23.25C29.25 22.8358 28.9142 22.5 28.5 22.5C28.0858 22.5 27.75 22.8358 27.75 23.25C27.75 23.6642 28.0858 24 28.5 24Z" fill="#FAF7F5"/>
<path d="M24.75 2.25H3.75C2.50736 2.25 1.5 3.25736 1.5 4.5V16.5C1.5 17.7426 2.50736 18.75 3.75 18.75H24.75C25.9926 18.75 27 17.7426 27 16.5V4.5C27 3.25736 25.9926 2.25 24.75 2.25Z" fill="#FAF7F5"/>
<path d="M31.2299 14.6325C31.1611 14.5461 31.0742 14.4759 30.9751 14.4269C30.8761 14.378 30.7675 14.3516 30.6571 14.3495C30.5467 14.3474 30.4371 14.3697 30.3363 14.4148C30.2355 14.46 30.146 14.5268 30.074 14.6106C30.002 14.6944 29.9494 14.793 29.92 14.8995C29.8906 15.0059 29.885 15.1176 29.9037 15.2264C29.9225 15.3353 29.965 15.4386 30.0283 15.5292C30.0916 15.6197 30.1741 15.6951 30.2699 15.75C31.4885 16.7718 32.4387 18.0761 33.0376 19.5493C33.6366 21.0226 33.866 22.6199 33.706 24.2022C33.546 25.7844 33.0014 27.3035 32.1197 28.627C31.238 29.9505 30.0459 31.0382 28.6474 31.7953C27.2489 32.5525 25.6865 32.956 24.0962 32.9708C22.506 32.9856 20.9363 32.6112 19.5239 31.8802C18.1116 31.1493 16.8995 30.0839 15.9933 28.777C15.0871 27.4702 14.5143 25.9615 14.3249 24.3825L14.4674 24.5325C14.6086 24.6737 14.8002 24.7531 14.9999 24.7531C15.1996 24.7531 15.3912 24.6737 15.5324 24.5325C15.6736 24.3913 15.753 24.1997 15.753 24C15.753 23.8003 15.6736 23.6087 15.5324 23.4675L14.0324 21.9675C13.9269 21.8634 13.793 21.7929 13.6475 21.7649C13.502 21.7369 13.3515 21.7526 13.2149 21.81C13.0199 21.885 13.0874 21.8475 11.4674 23.4675C11.3975 23.5374 11.342 23.6205 11.3041 23.7118C11.2663 23.8032 11.2468 23.9011 11.2468 24C11.2468 24.0989 11.2663 24.1968 11.3041 24.2882C11.342 24.3796 11.3975 24.4626 11.4674 24.5325C11.6086 24.6737 11.8002 24.7531 11.9999 24.7531C12.0988 24.7531 12.1967 24.7336 12.2881 24.6957C12.3794 24.6579 12.4625 24.6024 12.5324 24.5325L12.8024 24.2625C12.9675 26.1047 13.5843 27.8777 14.5981 29.4246C15.612 30.9715 16.9915 32.2447 18.6147 33.1312C20.238 34.0178 22.0547 34.4905 23.9042 34.5075C25.7536 34.5245 27.5788 34.0852 29.218 33.2286C30.8572 32.372 32.2599 31.1244 33.302 29.5963C34.344 28.0683 34.9932 26.3069 35.1922 24.4681C35.3911 22.6292 35.1336 20.7697 34.4425 19.0542C33.7514 17.3386 32.648 15.8199 31.2299 14.6325Z" fill="#321C1C"/>
<path d="M27.75 16.5V4.5C27.75 3.70435 27.4339 2.94129 26.8713 2.37868C26.3087 1.81607 25.5456 1.5 24.75 1.5H3.75C2.95435 1.5 2.19129 1.81607 1.62868 2.37868C1.06607 2.94129 0.75 3.70435 0.75 4.5V16.5C0.75 17.2956 1.06607 18.0587 1.62868 18.6213C2.19129 19.1839 2.95435 19.5 3.75 19.5H24.75C25.5456 19.5 26.3087 19.1839 26.8713 18.6213C27.4339 18.0587 27.75 17.2956 27.75 16.5ZM2.25 16.5V4.5C2.25 4.10218 2.40804 3.72064 2.68934 3.43934C2.97064 3.15804 3.35218 3 3.75 3H24.75C25.1478 3 25.5294 3.15804 25.8107 3.43934C26.092 3.72064 26.25 4.10218 26.25 4.5V16.5C26.25 16.8978 26.092 17.2794 25.8107 17.5607C25.5294 17.842 25.1478 18 24.75 18H3.75C3.35218 18 2.97064 17.842 2.68934 17.5607C2.40804 17.2794 2.25 16.8978 2.25 16.5Z" fill="#321C1C"/>
<path d="M10.5 4.5H4.5C4.08579 4.5 3.75 4.83579 3.75 5.25V8.25C3.75 8.66421 4.08579 9 4.5 9H10.5C10.9142 9 11.25 8.66421 11.25 8.25V5.25C11.25 4.83579 10.9142 4.5 10.5 4.5Z" fill="#828282"/>
<path d="M24 7.5C23.8011 7.5 23.6103 7.42098 23.4697 7.28033C23.329 7.13968 23.25 6.94891 23.25 6.75V5.25C23.25 5.05109 23.329 4.86032 23.4697 4.71967C23.6103 4.57902 23.8011 4.5 24 4.5C24.1989 4.5 24.3897 4.57902 24.5303 4.71967C24.671 4.86032 24.75 5.05109 24.75 5.25V6.75C24.75 6.94891 24.671 7.13968 24.5303 7.28033C24.3897 7.42098 24.1989 7.5 24 7.5ZM21 7.5C20.8011 7.5 20.6103 7.42098 20.4697 7.28033C20.329 7.13968 20.25 6.94891 20.25 6.75V5.25C20.25 5.05109 20.329 4.86032 20.4697 4.71967C20.6103 4.57902 20.8011 4.5 21 4.5C21.1989 4.5 21.3897 4.57902 21.5303 4.71967C21.671 4.86032 21.75 5.05109 21.75 5.25V6.75C21.75 6.94891 21.671 7.13968 21.5303 7.28033C21.3897 7.42098 21.1989 7.5 21 7.5ZM18 7.5C17.8011 7.5 17.6103 7.42098 17.4697 7.28033C17.329 7.13968 17.25 6.94891 17.25 6.75V5.25C17.25 5.05109 17.329 4.86032 17.4697 4.71967C17.6103 4.57902 17.8011 4.5 18 4.5C18.1989 4.5 18.3897 4.57902 18.5303 4.71967C18.671 4.86032 18.75 5.05109 18.75 5.25V6.75C18.75 6.94891 18.671 7.13968 18.5303 7.28033C18.3897 7.42098 18.1989 7.5 18 7.5ZM12 16.5H4.5C4.30109 16.5 4.11032 16.421 3.96967 16.2803C3.82902 16.1397 3.75 15.9489 3.75 15.75C3.75 15.5511 3.82902 15.3603 3.96967 15.2197C4.11032 15.079 4.30109 15 4.5 15H12C12.1989 15 12.3897 15.079 12.5303 15.2197C12.671 15.3603 12.75 15.5511 12.75 15.75C12.75 15.9489 12.671 16.1397 12.5303 16.2803C12.3897 16.421 12.1989 16.5 12 16.5ZM6 13.5H4.5C4.30109 13.5 4.11032 13.421 3.96967 13.2803C3.82902 13.1397 3.75 12.9489 3.75 12.75C3.75 12.5511 3.82902 12.3603 3.96967 12.2197C4.11032 12.079 4.30109 12 4.5 12H6C6.19891 12 6.38968 12.079 6.53033 12.2197C6.67098 12.3603 6.75 12.5511 6.75 12.75C6.75 12.9489 6.67098 13.1397 6.53033 13.2803C6.38968 13.421 6.19891 13.5 6 13.5ZM10.5 13.5H9C8.80109 13.5 8.61032 13.421 8.46967 13.2803C8.32902 13.1397 8.25 12.9489 8.25 12.75C8.25 12.5511 8.32902 12.3603 8.46967 12.2197C8.61032 12.079 8.80109 12 9 12H10.5C10.6989 12 10.8897 12.079 11.0303 12.2197C11.171 12.3603 11.25 12.5511 11.25 12.75C11.25 12.9489 11.171 13.1397 11.0303 13.2803C10.8897 13.421 10.6989 13.5 10.5 13.5ZM15 13.5H13.5C13.3011 13.5 13.1103 13.421 12.9697 13.2803C12.829 13.1397 12.75 12.9489 12.75 12.75C12.75 12.5511 12.829 12.3603 12.9697 12.2197C13.1103 12.079 13.3011 12 13.5 12H15C15.1989 12 15.3897 12.079 15.5303 12.2197C15.671 12.3603 15.75 12.5511 15.75 12.75C15.75 12.9489 15.671 13.1397 15.5303 13.2803C15.3897 13.421 15.1989 13.5 15 13.5ZM21 12.585C20.6775 12.2918 20.2767 12.0987 19.8464 12.029C19.4162 11.9593 18.9749 12.016 18.5763 12.1924C18.1777 12.3687 17.8389 12.6571 17.6011 13.0224C17.3632 13.3876 17.2366 13.8141 17.2366 14.25C17.2366 14.6859 17.3632 15.1124 17.6011 15.4776C17.8389 15.8429 18.1777 16.1313 18.5763 16.3076C18.9749 16.484 19.4162 16.5407 19.8464 16.471C20.2767 16.4013 20.6775 16.2082 21 15.915C21.3225 16.2082 21.7233 16.4013 22.1536 16.471C22.5838 16.5407 23.0251 16.484 23.4237 16.3076C23.8223 16.1313 24.1611 15.8429 24.3989 15.4776C24.6368 15.1124 24.7634 14.6859 24.7634 14.25C24.7634 13.8141 24.6368 13.3876 24.3989 13.0224C24.1611 12.6571 23.8223 12.3687 23.4237 12.1924C23.0251 12.016 22.5838 11.9593 22.1536 12.029C21.7233 12.0987 21.3225 12.2918 21 12.585Z" fill="#828282"/>
</svg>
