<svg width="25" height="24" viewBox="0 0 25 24" fill="none" xmlns="http://www.w3.org/2000/svg">
<path opacity="0.2" d="M20.75 10.9398V20.2501H14.75V14.2501H10.25V20.2501H4.25V10.9398L11.9694 3.21948C12.039 3.14974 12.1217 3.09443 12.2128 3.05668C12.3038 3.01894 12.4014 2.99951 12.5 2.99951C12.5986 2.99951 12.6962 3.01894 12.7872 3.05668C12.8783 3.09443 12.961 3.14974 13.0306 3.21948L20.75 10.9398Z" fill="#FF8811"/>
<path d="M23 19.5H21.5V12.75L21.7194 12.9694C21.8604 13.1101 22.0515 13.1891 22.2507 13.1889C22.4499 13.1887 22.6408 13.1094 22.7816 12.9684C22.9223 12.8275 23.0013 12.6363 23.0011 12.4371C23.0009 12.2379 22.9216 12.047 22.7806 11.9062L13.5603 2.68875C13.279 2.40766 12.8977 2.24976 12.5 2.24976C12.1023 2.24976 11.721 2.40766 11.4397 2.68875L2.21938 11.9062C2.07877 12.047 1.99983 12.2378 1.99991 12.4367C2 12.6357 2.07911 12.8264 2.21984 12.967C2.36057 13.1076 2.5514 13.1866 2.75033 13.1865C2.94927 13.1864 3.14002 13.1073 3.28062 12.9666L3.5 12.75V19.5H2C1.80109 19.5 1.61032 19.579 1.46967 19.7197C1.32902 19.8603 1.25 20.0511 1.25 20.25C1.25 20.4489 1.32902 20.6397 1.46967 20.7803C1.61032 20.921 1.80109 21 2 21H23C23.1989 21 23.3897 20.921 23.5303 20.7803C23.671 20.6397 23.75 20.4489 23.75 20.25C23.75 20.0511 23.671 19.8603 23.5303 19.7197C23.3897 19.579 23.1989 19.5 23 19.5ZM5 11.25L12.5 3.75L20 11.25V19.5H15.5V14.25C15.5 14.0511 15.421 13.8603 15.2803 13.7197C15.1397 13.579 14.9489 13.5 14.75 13.5H10.25C10.0511 13.5 9.86032 13.579 9.71967 13.7197C9.57902 13.8603 9.5 14.0511 9.5 14.25V19.5H5V11.25ZM14 19.5H11V15H14V19.5Z" fill="#FF8811"/>
</svg>
