<svg width="22" height="22" viewBox="0 0 22 22" fill="none" xmlns="http://www.w3.org/2000/svg">
<path d="M17.8439 12.1611L13.0161 11.4889C14.1772 10.6334 14.9717 9.47226 15.4606 8.37226C14.2994 7.70004 14.9717 5.98893 16.255 6.17226C16.9272 6.23337 17.355 6.84448 17.2939 7.5167C17.2328 8.00559 16.8661 8.37226 16.3772 8.49448C16.5606 9.65559 16.9883 11 17.8439 12.1611Z" fill="#F3A250"/>
<path opacity="0.6" d="M14.2385 10.2668C13.8719 10.6945 13.4441 11.1223 12.9552 11.489L17.783 12.1612C17.5996 11.9779 17.4774 11.7334 17.3552 11.489C16.0719 11.489 15.033 11.0001 14.2385 10.2668ZM15.4608 8.37231C15.033 8.12786 14.7885 7.70009 14.9108 7.15009C15.033 6.47786 15.583 6.05009 16.2552 6.1112C16.9274 6.17231 17.3552 6.78342 17.2941 7.45564C17.233 7.94453 16.8663 8.3112 16.3774 8.43342C16.0108 8.55564 15.7052 8.49453 15.4608 8.37231Z" fill="#EF7B56"/>
<path d="M4.15588 12.1612L8.98366 11.489C7.82255 10.6334 7.02811 9.47231 6.53922 8.37231C6.96699 8.12786 7.21144 7.70009 7.08922 7.15009C6.967 6.47786 6.41699 6.05009 5.74477 6.1112C5.07255 6.17231 4.64477 6.78342 4.70588 7.45564C4.76699 7.94453 5.13366 8.3112 5.62255 8.43342C5.43922 9.65564 5.01144 11.0001 4.15588 12.1612Z" fill="#F3A250"/>
<path opacity="0.6" d="M7.76063 10.2668C8.1273 10.6945 8.55508 11.1223 9.04396 11.489L4.21619 12.1612C4.39952 11.9779 4.52174 11.7334 4.64396 11.489C5.9273 11.489 6.96619 11.0001 7.76063 10.2668ZM6.53841 8.37231C6.96619 8.12786 7.21063 7.70009 7.08841 7.15009C6.96619 6.47786 6.41619 6.05009 5.74396 6.1112C5.07174 6.17231 4.64396 6.78342 4.70508 7.45564C4.76619 7.94453 5.13285 8.3112 5.62174 8.43342C5.98841 8.55564 6.29396 8.49453 6.53841 8.37231Z" fill="#EF7B56"/>
<path d="M1.2221 8.06675C1.52765 9.77786 2.93321 12.8334 2.93321 14.9112V17.0501H19.1277V14.9112C19.1277 12.8334 20.5332 9.77786 20.8388 8.06675C20.8999 7.76119 20.5332 7.63897 20.411 7.63897C19.9221 7.63897 19.4943 8.06675 19.4943 8.55564C19.4943 8.80008 19.6165 9.28897 19.9832 9.53342C18.6999 13.0779 12.0388 12.7723 11.4277 4.15564H10.7554C10.7554 4.21675 10.7554 4.21675 10.7554 4.27786C10.0832 12.8334 3.4221 13.0779 2.19987 9.53342C2.56654 9.28897 2.68876 8.8612 2.68876 8.55564C2.68876 8.06675 2.26098 7.63897 1.7721 7.63897C1.52765 7.57786 1.16098 7.76119 1.2221 8.06675Z" fill="#FFB961"/>
<path d="M19.9219 9.47229C18.8219 13.9334 11.8552 13.689 11.183 4.09451L11.3663 4.21674C11.9775 12.7723 18.6386 13.0167 19.9219 9.47229ZM2.07746 9.47229C3.17746 13.9334 10.1441 13.689 10.8163 4.09451L10.633 4.21674C10.0219 12.7723 3.36079 13.0167 2.07746 9.47229ZM1.28301 8.25007C1.28301 8.18896 1.28301 8.12785 1.2219 8.06674C1.16079 7.76118 1.52746 7.63896 1.64968 7.63896C2.26079 7.63896 2.68857 8.18896 2.56635 8.80007C2.50524 8.31118 1.52746 7.82229 1.28301 8.25007ZM20.7775 8.06674C20.7775 8.12785 20.7775 8.18896 20.7163 8.25007C20.4719 7.82229 19.5552 8.00562 19.3719 8.73896C19.2497 8.12785 19.6775 7.57785 20.2886 7.57785C20.4719 7.57785 20.8386 7.76118 20.7775 8.06674Z" fill="#FFDE9B"/>
<path d="M12.5887 4.2778C12.772 5.19447 12.1609 6.05002 11.3054 6.23336C10.3887 6.41669 9.53315 5.80558 9.41093 4.88891C9.22759 3.97225 9.8387 3.11669 10.6943 2.93336C11.5498 2.81114 12.4665 3.42225 12.5887 4.2778Z" fill="#FFB961"/>
<path d="M12.65 4.64445C12.65 5.37778 12.1 6.05001 11.3056 6.23334C9.83892 6.53889 8.86114 4.88889 9.59447 3.72778C9.53336 5.43889 11.7945 6.05001 12.65 4.64445Z" fill="#F3A250"/>
<path d="M19.0663 17.0501C19.0663 18.1501 15.4608 19.0056 10.9997 19.0056C6.53854 19.0056 2.93298 18.1501 2.93298 17.0501C2.93298 15.9501 6.53854 15.0945 10.9997 15.0945C15.4608 15.0945 19.0663 15.9501 19.0663 17.0501Z" fill="#FFB961"/>
<path d="M4.88892 16.6222V18.3333C5.56114 18.5167 6.35558 18.7 7.21114 18.7611V17.1111L4.88892 16.6222ZM14.9111 17.1722V18.7611C16.0111 18.6389 16.9278 18.3944 17.6 18.15V16.5611L14.9111 17.1722ZM8.86114 17.4778V18.9444C9.90003 19.0055 10.8167 19.0055 11.7945 19.0055V17.4778H8.86114Z" fill="#FFDE9B"/>
<path d="M19.0663 15.2167V15.7667C19.0663 16.8667 15.4608 17.7223 10.9997 17.7223C6.53854 17.7223 2.93298 16.8667 2.93298 15.7667V15.2167C2.93298 16.3167 6.53854 17.1723 10.9997 17.1723C15.4608 17.1723 19.0663 16.3167 19.0663 15.2167Z" fill="#F9A83D"/>
<path d="M12.0392 4.33895C11.917 4.46117 11.6115 4.15562 11.2448 3.97229C10.8781 3.78895 10.4503 3.78895 10.4503 3.60562C10.3892 3.42229 10.9392 3.11673 11.4892 3.36117C12.1003 3.66673 12.2226 4.27784 12.0392 4.33895Z" fill="#FFDE9B"/>
<path opacity="0.6" d="M16.8054 7.08885C16.6832 7.14996 16.4999 6.96663 16.2554 6.84441C16.011 6.72219 15.7665 6.72219 15.7054 6.59996C15.7054 6.47774 16.0721 6.2333 16.4388 6.41663C16.8054 6.59996 16.9277 7.02774 16.8054 7.08885ZM6.59988 7.08885C6.47766 7.14996 6.29432 6.96663 6.04988 6.84441C5.80543 6.72219 5.56099 6.72219 5.49988 6.59996C5.49988 6.47774 5.86654 6.2333 6.23321 6.41663C6.59988 6.59996 6.7221 7.02774 6.59988 7.08885Z" fill="white"/>
<path d="M13.6888 12.2223V14.9723C13.6888 15.0945 13.6277 15.2168 13.5054 15.2779L11.1221 16.6223C10.9999 16.6834 10.8777 16.6834 10.8165 16.6223L8.43321 15.2779C8.31099 15.2168 8.24988 15.0945 8.24988 14.9723V12.2223C8.24988 12.1001 8.31099 11.9779 8.43321 11.9168L10.8165 10.5723C10.9388 10.5112 11.061 10.5112 11.1221 10.5723L13.5054 11.9168C13.6277 11.9779 13.6888 12.1001 13.6888 12.2223Z" fill="#F3A250"/>
<path d="M10.9998 16.1945L8.73865 14.9111V12.2833L10.9998 10.9389L13.2609 12.2833V14.9111L10.9998 16.1945Z" fill="#6EB954"/>
<path d="M10.9999 14.85L12.161 14.2389L13.261 14.9111L10.9999 16.1944V14.85Z" fill="#4B9534"/>
<path d="M9.83865 12.9557V14.239L8.73865 14.9112V12.2834L9.83865 12.9557Z" fill="#4B9534"/>
<path d="M10.9999 12.3445L12.161 12.9556L13.261 12.2833L10.9999 10.9389V12.3445Z" fill="#4B9534"/>
<path d="M9.7776 14.1777C9.7776 12.8944 9.71649 12.8944 9.89982 12.7722C11.0609 12.1 10.9998 12.1 11.122 12.1611C12.222 12.8333 12.222 12.8333 12.222 12.9555C12.222 14.3 12.2832 14.2389 12.0998 14.3611C10.9387 15.0333 10.9998 15.0333 10.8776 14.9722C9.7776 14.3 9.7776 14.3611 9.7776 14.1777Z" fill="#36712D"/>
<path d="M12.4052 12.8944C12.3441 12.9556 12.4052 12.9556 12.4052 13.0167C12.5885 13.0778 12.7719 13.1389 12.833 13.1389C12.833 13.1389 12.6497 13.1389 12.4052 13.0778C12.3441 13.0778 12.3441 13.1389 12.3441 13.1389C12.5885 13.5667 12.7719 13.9333 12.7108 13.9333C12.6497 13.9333 12.4663 13.5667 12.2219 13.2C12.2219 13.1389 12.1608 13.2 12.0997 13.2C12.0385 13.4445 11.9774 13.5667 11.9774 13.6278C11.9774 13.6278 11.9774 13.4445 12.0385 13.2C12.0385 13.1389 11.9774 13.1389 11.9774 13.1389C11.5497 13.3833 11.183 13.5667 11.183 13.5056C11.183 13.4445 11.5497 13.2611 11.9163 13.0167C11.9774 12.9556 11.9163 12.9556 11.9163 12.8944C11.733 12.8333 11.5497 12.7722 11.5497 12.7722C11.6108 12.7722 11.733 12.8333 11.9774 12.8333C12.0385 12.8333 12.0385 12.7722 12.0385 12.7722C11.7941 12.3444 11.6108 11.9778 11.6719 11.9778C11.6719 11.9778 11.9163 12.3444 12.1608 12.7111C12.1608 12.7722 12.2219 12.7722 12.283 12.7111C12.3441 12.4667 12.4052 12.3444 12.4052 12.2833C12.4052 12.2833 12.4052 12.4667 12.3441 12.7111C12.3441 12.7722 12.4052 12.7722 12.4052 12.7722C12.833 12.5278 13.1997 12.3444 13.1997 12.4056C13.1385 12.4056 12.833 12.65 12.4052 12.8944Z" fill="white"/>
</svg>
