<svg width="24" height="16" viewBox="0 0 24 16" fill="none" xmlns="http://www.w3.org/2000/svg">
<path fill-rule="evenodd" clip-rule="evenodd" d="M5.88286 6.28567H21.442C22.3888 6.28567 23.1562 7.05318 23.1562 7.99995C23.1562 8.94673 22.3888 9.71424 21.442 9.71424H5.88322C6.75826 10.6325 7.7832 11.4274 8.78966 11.9306C9.63648 12.354 9.97972 13.3837 9.5563 14.2306C9.13289 15.0774 8.10317 15.4206 7.25635 14.9972C4.73894 13.7386 2.28427 11.2838 1.02558 8.76632C0.784273 8.2837 0.784281 7.71564 1.0256 7.23303C2.2843 4.71572 4.73896 2.26107 7.25635 1.00237C8.10317 0.578963 9.13289 0.922197 9.5563 1.76902C9.97972 2.61584 9.63648 3.64556 8.78966 4.06897C7.78306 4.57227 6.75799 5.36732 5.88286 6.28567Z" fill="#321C1C"/>
</svg>
