<svg width="36" height="36" viewBox="0 0 36 36" fill="none" xmlns="http://www.w3.org/2000/svg">
<path d="M28.5 24.4V16.1L25.2 15.7L7.5 15V22.7C7.5 29 12.6 34 18.8 34C24.2 34 28.5 29.7 28.5 24.4Z" fill="#748BFD"/>
<path d="M28.4 16.2V24.5C28.4 29.8 24.1 34.1 18.8 34.1C15.9 34.1 13.2 33 11.2 31.2C15.2 33.5 20.3 33.4 23.7 30C25.4 28.3 25.5 24.9 25.5 23.2V16.1L28.4 16.2Z" fill="#656FEA"/>
<path d="M28 16.6C26 17.5 21.7 17.2 21.7 17.2L9 15.9C9 15.9 7.5 15.8 7.5 15C7.5 13.7 11.7 13.6 12.9 13.7L26.1 15.1C26.1 15.1 29.7 15.8 28 16.6Z" fill="#B0C7FF"/>
<path d="M27.4999 15C28.1999 15.3 28.5999 15.8 28.3999 16.2L28.2999 16.3C27.9999 17 26.1999 17.5 24.4999 17.3C10.0999 16 9.79995 16.3 8.49995 15.8C7.79995 15.5 7.39995 15.1 7.59995 14.6L7.69995 14.5C8.09995 13.8 9.79995 13.3 11.4999 13.5C25.9999 14.7 26.2999 14.5 27.4999 15Z" fill="#B0C7FF"/>
<path d="M25.1 17.1C24.5 17.1 25.1 17.1 10.2 15.9C9.49997 15.8 8.09997 15.6 7.79997 15C7.69997 14.8 7.79997 14.7 7.89997 14.6C8.09997 14.2 9.29997 13.7 10.9 13.7C11.1 13.7 11.3 13.7 11.5 13.7C26.1 15 26.3 14.7 27.4 15.2C27.8 15.4 28.4 15.7 28.2 16.1L28.1 16.2C27.9 16.7 26.7 17.1 25.1 17.1Z" fill="#8FABFE"/>
<path d="M11.8 15.5C11.7 15.5 10.8 15.5 10 15.3C9.60002 15.2 9.40002 15 9.40002 14.8C9.40002 14.1 11.9 13.9 13.2 14.3C14.3 14.7 14 15.5 11.8 15.5ZM26.1 16.6C24.2 17.3 20.9 16.3 22.8 15.7C23.7 15.4 25.3 15.4 26.1 15.7C26.8 15.9 26.9 16.3 26.1 16.6Z" fill="#566DF9"/>
<path d="M26.1 11.4V16.5C25.3 16.8 23.7 16.8 22.8 16.5V11.2C22.8 6.1 16.9 3.7 14.3 6.3C13.7 6.9 13.3 7.8 13.3 8.8V15.3C12.4 15.6 10.9 15.6 10 15.3V8.7C10 5.6 12 2.7 16.1 2.1C18.8 1.9 21.4 3 23.3 4.8C25 6.5 26.1 8.8 26.1 11.4Z" fill="#31445B"/>
<path d="M16.6 5.3C14.8 5.4 13.3 6.9 13.3 8.9V15.4C13.1 15.5 12.9 15.5 12.6 15.5V8.8C12.6 6.9 14.2 5.1 16.6 5.3Z" fill="#31445B"/>
<path opacity="0.4" d="M20.3 4.6C19.2 3.9 18 3.5 16.7 3.6C13.7 4 11.9 6.2 11.6 8.9C11.6 9.8 11.5 10.8 11.4 11.7C11.3 10.8 11.2 9.8 11.2 8.9C11.2 4.1 17.1 1.3 20.3 4.6Z" fill="white"/>
<path d="M21.2 25.1C21.3 27.7 19.3 29.7 16.7 29.6C14.1 29.5 11.9 27.2 11.8 24.6C11.7 22 13.7 20 16.3 20.2C18.9 20.3 21.1 22.5 21.2 25.1Z" fill="#D0CEF2"/>
<path d="M16.4 20.2L16.5 21.2H15.8V20.2H16.4Z" fill="#E9E7FC"/>
<path d="M16.9 28.6V29.6H16.2V28.6H16.9Z" fill="#E9E7FC"/>
<path d="M20.7 25.1C20.8 27.7 18.8 29.7 16.2 29.6C13.6 29.5 11.4 27.2 11.3 24.6C11.2 22 13.2 20 15.8 20.2C18.4 20.3 20.6 22.5 20.7 25.1Z" fill="#F8F9FE"/>
<path d="M16.5 29.6C14.1 29.7 11.4 27.5 11.3 24.6C11.2 21.7 13.7 19.8 16.1 20.2C13.6 20.2 11.8 22.1 11.9 24.7C12 27.1 14.1 29.3 16.5 29.6Z" fill="white"/>
<path d="M17 25.5V26.9C17 27.4 16.6 27.7 16.1 27.7C15.6 27.6 15.2 27.1 15.2 26.6V25.2C13.8 24.1 14.5 21.9 16.2 22.2C17.9 22.5 18.4 24.8 17 25.5Z" fill="#9EA9C9"/>
<path d="M16.8 25.1L16.5001 25.2L16.4001 26.9C16.4001 27.1 16.3001 27.2 16.1001 27.2H16.0001C15.7001 27.1 15.5001 26.9 15.5001 26.6L15.6001 25L15.4001 24.9C14.4001 24.1 14.7001 22.5 16.0001 22.7C17.3001 22.8 17.8 24.6 16.8 25.1Z" fill="#4C5C75"/>
<path d="M16.8 25.1L16.5 25.2C16.4 26.7 16.5 27 16.3 27.1C16.2 27 16 26.8 16 26.6L16.1 25L15.9 24.9C15.1 24.2 15.2 22.9 16.1 22.7C17.3 22.8 17.8 24.6 16.8 25.1Z" fill="#1D2943"/>
<g opacity="0.3">
<path d="M13.5 18.4C11.6 18.8 10.4 20.1 9.60002 21.6C9.40002 21.9 8.90002 21.6 8.80002 21.2C8.40002 20.1 8.50002 18.9 8.70002 17.7C8.80002 17.4 9.00002 17.2 9.30002 17.2C10.6 17.1 11.9 17.2 13.2 17.5C13.7 17.6 13.8 18.3 13.5 18.4Z" fill="white"/>
</g>
<path d="M13.3 12.8V15.3C12.4 15.6 10.9 15.6 10 15.3V12.3C11.1 13.4 12.4 13.4 13.3 12.8Z" fill="#1D2943"/>
<path d="M26.1 14.2V16.5C25.3001 16.8 23.7 16.8 22.8 16.5V14.7C23.9 15.1 25.2 15 26.1 14.2Z" fill="#1D2943"/>
<path d="M25.9 20.9C25.8 21 25.8 21.1 25.9 21.2C26.4 21.5 26.8 21.8 26.8 21.8C26.7 21.8 26.3 21.6 25.8 21.3C25.7 21.3 25.6 21.3 25.6 21.5C25.9 22.7 26.2 23.8 26.1 23.8C26.0001 23.8 25.6001 22.7 25.2001 21.6C25.2001 21.5 25 21.5 25 21.6C24.7 22.1 24.4 22.5 24.4 22.5C24.4 22.4 24.6 22 24.8 21.5C24.9 21.4 24.8001 21.3 24.6 21.3C23.4 21.6 22.3 21.9 22.3 21.8C22.3 21.7 23.4 21.3 24.5 21C24.6 20.9 24.6 20.8 24.5 20.7C24 20.4 23.6 20.2 23.6 20.1C23.7 20.1 24.1 20.3 24.6 20.5C24.7 20.6 24.8 20.5 24.8 20.3C24.5 19.1 24.2 18 24.3 18C24.4 18 24.8001 19.1 25.1 20.2C25.1 20.3 25.3 20.3 25.4 20.2C25.7 19.7 26 19.3 26 19.3C26 19.4 25.8001 19.8 25.6 20.3C25.5001 20.4 25.6 20.5 25.8 20.5C27 20.2 28.1 19.9 28.1 20C28.1 20.1 27.1 20.5 25.9 20.9Z" fill="white"/>
</svg>
