<svg width="181" height="180" viewBox="0 0 181 180" fill="none" xmlns="http://www.w3.org/2000/svg">
<path d="M15.4524 3.83423L154.429 3.83423C154.429 3.83423 165.548 3.83423 165.548 14.9524V151.15C165.548 151.15 165.548 162.268 154.429 162.268H15.4524C15.4524 162.268 4.33423 162.268 4.33423 151.15L4.33423 14.9524C4.33423 14.9524 4.33423 3.83423 15.4524 3.83423Z" fill="#E4E4E4" stroke="black" stroke-width="2.10938" stroke-linecap="round" stroke-linejoin="round"/>
<path d="M15.4524 3.83423L154.429 3.83423C157.378 3.83423 160.206 5.0056 162.291 7.09066C164.376 9.17572 165.548 12.0037 165.548 14.9524V20.5115L4.33423 20.5115L4.33423 14.9524C4.33423 12.0037 5.5056 9.17572 7.59066 7.09066C9.67572 5.0056 12.5037 3.83423 15.4524 3.83423Z" fill="#199A4A" stroke="black" stroke-width="2.10938" stroke-linecap="round" stroke-linejoin="round"/>
<path d="M26.5706 3.83423L154.429 3.83423C154.429 3.83423 165.548 3.83423 165.548 14.9524V151.15C165.548 151.15 165.548 162.268 154.429 162.268H26.5706C26.5706 162.268 15.4524 162.268 15.4524 151.15L15.4524 14.9524C15.4524 14.9524 15.4524 3.83423 26.5706 3.83423Z" fill="white" stroke="black" stroke-width="2.10938" stroke-linecap="round" stroke-linejoin="round"/>
<path d="M26.5706 3.83423L154.429 3.83423C157.378 3.83423 160.206 5.0056 162.291 7.09066C164.376 9.17572 165.548 12.0037 165.548 14.9524V20.5115L15.4524 20.5115V14.9524C15.4524 12.0037 16.6238 9.17572 18.7088 7.09066C20.7939 5.0056 23.6218 3.83423 26.5706 3.83423Z" fill="#199A4A" stroke="black" stroke-width="2.10938" stroke-linecap="round" stroke-linejoin="round"/>
<path d="M26.5706 12.1729H29.3501" stroke="black" stroke-width="2.10938" stroke-linecap="round" stroke-linejoin="round"/>
<path d="M43.2478 12.1729H46.0273" stroke="black" stroke-width="2.10938" stroke-linecap="round" stroke-linejoin="round"/>
<path d="M34.9092 12.1729H37.6887" stroke="black" stroke-width="2.10938" stroke-linecap="round" stroke-linejoin="round"/>
<path d="M29.3501 106.677H151.65C151.65 106.677 154.429 106.677 154.429 109.457V148.37C154.429 148.37 154.429 151.15 151.65 151.15H29.3501C29.3501 151.15 26.5706 151.15 26.5706 148.37V109.457C26.5706 109.457 26.5706 106.677 29.3501 106.677Z" fill="#E4E4E4" stroke="#E4E4E4" stroke-width="2.10938" stroke-linecap="round" stroke-linejoin="round"/>
<path d="M34.9092 117.795H57.1455" stroke="white" stroke-width="2.10938" stroke-linecap="round" stroke-linejoin="round"/>
<path d="M34.9092 126.134H134.973" stroke="white" stroke-width="2.10938" stroke-linecap="round" stroke-linejoin="round"/>
<path d="M34.9092 142.811H126.634" stroke="white" stroke-width="2.10938" stroke-linecap="round" stroke-linejoin="round"/>
<path d="M34.9092 134.473H134.973" stroke="white" stroke-width="2.10938" stroke-linecap="round" stroke-linejoin="round"/>
<path d="M29.3501 53.866C29.3501 59.7634 31.6928 65.4193 35.863 69.5894C40.0331 73.7595 45.689 76.1023 51.5864 76.1023C57.4839 76.1023 63.1398 73.7595 67.3099 69.5894C71.48 65.4193 73.8228 59.7634 73.8228 53.866C73.8228 47.9685 71.48 42.3126 67.3099 38.1425C63.1398 33.9724 57.4839 31.6296 51.5864 31.6296C45.689 31.6296 40.0331 33.9724 35.863 38.1425C31.6928 42.3126 29.3501 47.9685 29.3501 53.866Z" fill="#6FDAFB" stroke="black" stroke-width="2.10938" stroke-linecap="round" stroke-linejoin="round"/>
<path d="M37.6887 53.588C37.6887 55.4131 38.0482 57.2203 38.7466 58.9064C39.445 60.5926 40.4687 62.1247 41.7593 63.4152C43.0498 64.7057 44.5819 65.7294 46.268 66.4278C47.9542 67.1262 49.7614 67.4857 51.5864 67.4857C53.4115 67.4857 55.2187 67.1262 56.9049 66.4278C58.591 65.7294 60.1231 64.7057 61.4136 63.4152C62.7041 62.1247 63.7278 60.5926 64.4262 58.9064C65.1247 57.2203 65.4841 55.4131 65.4841 53.588C65.4841 51.7629 65.1247 49.9557 64.4262 48.2696C63.7278 46.5834 62.7041 45.0514 61.4136 43.7609C60.1231 42.4703 58.591 41.4466 56.9049 40.7482C55.2187 40.0498 53.4115 39.6903 51.5864 39.6903C49.7614 39.6903 47.9542 40.0498 46.268 40.7482C44.5819 41.4466 43.0498 42.4703 41.7593 43.7609C40.4687 45.0514 39.445 46.5834 38.7466 48.2696C38.0482 49.9557 37.6887 51.7629 37.6887 53.588Z" fill="#FEFCE2" stroke="black" stroke-width="2.10938" stroke-linecap="round" stroke-linejoin="round"/>
<path d="M51.5864 76.1023C55.4282 76.1037 59.2041 75.1041 62.542 73.2019C61.2591 71.5118 59.6026 70.1415 57.702 69.198C55.8014 68.2546 53.7083 67.7637 51.5864 67.7637C49.4645 67.7637 47.3714 68.2546 45.4708 69.198C43.5702 70.1415 41.9137 71.5118 40.6307 73.2019C43.9686 75.1041 47.7445 76.1037 51.5864 76.1023Z" fill="#E62234" stroke="black" stroke-width="2.10938" stroke-linecap="round" stroke-linejoin="round"/>
<path d="M48.4429 59.5442C48.4429 60.3779 48.7741 61.1775 49.3636 61.767C49.9531 62.3565 50.7527 62.6877 51.5864 62.6877C52.4201 62.6877 53.2197 62.3565 53.8092 61.767C54.3987 61.1775 54.7299 60.3779 54.7299 59.5442" stroke="black" stroke-width="2.10938" stroke-linecap="round" stroke-linejoin="round"/>
<path d="M51.5864 39.6903C47.9005 39.6903 44.3656 41.1545 41.7593 43.7609C39.1529 46.3672 37.6887 49.9021 37.6887 53.588C39.9535 49.2849 44.0362 50.3291 46.0273 44.6996C48.0185 50.3291 63.2193 49.2849 65.4841 53.588C65.4841 49.9021 64.0199 46.3672 61.4136 43.7609C58.8073 41.1545 55.2723 39.6903 51.5864 39.6903Z" fill="black" stroke="black" stroke-width="2.10938" stroke-linecap="round" stroke-linejoin="round"/>
<path d="M57.5427 54.2498V55.2424" stroke="black" stroke-width="2.10938" stroke-linecap="round" stroke-linejoin="round"/>
<path d="M45.6301 55.2424V54.2498" stroke="black" stroke-width="2.10938" stroke-linecap="round" stroke-linejoin="round"/>
<path d="M57.7081 59.3786C57.7081 59.9052 57.9173 60.4102 58.2896 60.7825C58.662 61.1549 59.167 61.3641 59.6936 61.3641C60.2201 61.3641 60.7251 61.1549 61.0975 60.7825C61.4698 60.4102 61.679 59.9052 61.679 59.3786C61.679 58.8521 61.4698 58.3471 61.0975 57.9747C60.7251 57.6024 60.2201 57.3932 59.6936 57.3932C59.167 57.3932 58.662 57.6024 58.2896 57.9747C57.9173 58.3471 57.7081 58.8521 57.7081 59.3786Z" fill="#F89C70"/>
<path d="M41.4939 59.3786C41.4939 59.9052 41.7031 60.4102 42.0754 60.7825C42.4478 61.1549 42.9528 61.3641 43.4793 61.3641C44.0059 61.3641 44.5109 61.1549 44.8832 60.7825C45.2556 60.4102 45.4647 59.9052 45.4647 59.3786C45.4647 58.8521 45.2556 58.3471 44.8832 57.9747C44.5109 57.6024 44.0059 57.3932 43.4793 57.3932C42.9528 57.3932 42.4478 57.6024 42.0754 57.9747C41.7031 58.3471 41.4939 58.8521 41.4939 59.3786Z" fill="#F89C70"/>
<path d="M90.5 56.6455H146.091C146.091 56.6455 151.65 56.6455 151.65 62.2046V67.7637C151.65 67.7637 151.65 73.3228 146.091 73.3228H90.5C90.5 73.3228 84.9409 73.3228 84.9409 67.7637V62.2046C84.9409 62.2046 84.9409 56.6455 90.5 56.6455Z" fill="#E4E4E4" stroke="black" stroke-width="2.10938" stroke-linecap="round" stroke-linejoin="round"/>
<path d="M96.0591 62.2046V67.7637" stroke="black" stroke-width="2.10938" stroke-linecap="round" stroke-linejoin="round"/>
<path d="M93.652 63.5944L98.4661 66.3739" stroke="black" stroke-width="2.10938" stroke-linecap="round" stroke-linejoin="round"/>
<path d="M93.652 66.3739L98.4661 63.5944" stroke="black" stroke-width="2.10938" stroke-linecap="round" stroke-linejoin="round"/>
<path d="M118.295 62.2046V67.7637" stroke="black" stroke-width="2.10938" stroke-linecap="round" stroke-linejoin="round"/>
<path d="M115.888 63.5944L120.702 66.3739" stroke="black" stroke-width="2.10938" stroke-linecap="round" stroke-linejoin="round"/>
<path d="M115.888 66.3739L120.702 63.5944" stroke="black" stroke-width="2.10938" stroke-linecap="round" stroke-linejoin="round"/>
<path d="M140.532 62.2046V67.7637" stroke="black" stroke-width="2.10938" stroke-linecap="round" stroke-linejoin="round"/>
<path d="M138.125 63.5944L142.939 66.3739" stroke="black" stroke-width="2.10938" stroke-linecap="round" stroke-linejoin="round"/>
<path d="M138.125 66.3739L142.939 63.5944" stroke="black" stroke-width="2.10938" stroke-linecap="round" stroke-linejoin="round"/>
<path d="M129.414 62.2046V67.7637" stroke="black" stroke-width="2.10938" stroke-linecap="round" stroke-linejoin="round"/>
<path d="M127.006 63.5944L131.821 66.3739" stroke="black" stroke-width="2.10938" stroke-linecap="round" stroke-linejoin="round"/>
<path d="M127.006 66.3739L131.821 63.5944" stroke="black" stroke-width="2.10938" stroke-linecap="round" stroke-linejoin="round"/>
<path d="M107.177 62.2046V67.7637" stroke="black" stroke-width="2.10938" stroke-linecap="round" stroke-linejoin="round"/>
<path d="M104.77 63.5944L109.584 66.3739" stroke="black" stroke-width="2.10938" stroke-linecap="round" stroke-linejoin="round"/>
<path d="M104.77 66.3739L109.584 63.5944" stroke="black" stroke-width="2.10938" stroke-linecap="round" stroke-linejoin="round"/>
<path d="M90.5 34.4092H146.091C146.091 34.4092 151.65 34.4092 151.65 39.9683V45.5273C151.65 45.5273 151.65 51.0864 146.091 51.0864H90.5C90.5 51.0864 84.9409 51.0864 84.9409 45.5273V39.9683C84.9409 39.9683 84.9409 34.4092 90.5 34.4092Z" fill="#E4E4E4" stroke="black" stroke-width="2.10938" stroke-linecap="round" stroke-linejoin="round"/>
<path d="M93.2795 45.5273H98.8386" stroke="black" stroke-width="2.10938" stroke-linecap="round" stroke-linejoin="round"/>
<path d="M151.65 87.2205C151.65 87.9505 151.506 88.6734 151.227 89.3478C150.947 90.0223 150.538 90.6351 150.022 91.1513C149.505 91.6675 148.893 92.077 148.218 92.3564C147.544 92.6358 146.821 92.7795 146.091 92.7795H90.5C89.77 92.7795 89.0471 92.6358 88.3726 92.3564C87.6982 92.077 87.0853 91.6675 86.5691 91.1513C86.0529 90.6351 85.6434 90.0223 85.3641 89.3478C85.0847 88.6734 84.9409 87.9505 84.9409 87.2205C84.9409 85.7461 85.5266 84.3321 86.5691 83.2896C87.6117 82.2471 89.0256 81.6614 90.5 81.6614H146.091C147.565 81.6614 148.979 82.2471 150.022 83.2896C151.064 84.3321 151.65 85.7461 151.65 87.2205Z" fill="#F87D30" stroke="black" stroke-width="2.10938" stroke-linecap="round" stroke-linejoin="round"/>
<path d="M109.957 87.2205H126.634" stroke="white" stroke-width="2.10938" stroke-linecap="round" stroke-linejoin="round"/>
<path d="M29.3501 126.134H90.5C90.5 126.134 96.0591 126.134 96.0591 131.693V170.607C96.0591 170.607 96.0591 176.166 90.5 176.166H29.3501C29.3501 176.166 23.791 176.166 23.791 170.607V131.693C23.791 131.693 23.791 126.134 29.3501 126.134Z" fill="#F87D30" stroke="black" stroke-width="2.10938" stroke-linecap="round" stroke-linejoin="round"/>
<path d="M40.4683 126.134H90.5C90.5 126.134 96.0591 126.134 96.0591 131.693V170.607C96.0591 170.607 96.0591 176.166 90.5 176.166H40.4683C40.4683 176.166 34.9092 176.166 34.9092 170.607V131.693C34.9092 131.693 34.9092 126.134 40.4683 126.134Z" fill="#F6C944" stroke="black" stroke-width="2.10938" stroke-linecap="round" stroke-linejoin="round"/>
<path d="M32.1296 115.016V126.134H43.2478V115.016C43.2478 110.593 45.0049 106.351 48.1325 103.223C51.26 100.096 55.502 98.3386 59.925 98.3386C64.3481 98.3386 68.5901 100.096 71.7176 103.223C74.8452 106.351 76.6023 110.593 76.6023 115.016V126.134H87.7205V115.016C87.7205 107.644 84.792 100.574 79.5794 95.3615C74.3667 90.1489 67.2968 87.2205 59.925 87.2205C52.5532 87.2205 45.4834 90.1489 40.2707 95.3615C35.0581 100.574 32.1296 107.644 32.1296 115.016Z" fill="white" stroke="black" stroke-width="2.10938" stroke-linecap="round" stroke-linejoin="round"/>
<path d="M32.1296 120.575H43.2478V126.134H32.1296V120.575Z" fill="#C8D4FA" stroke="black" stroke-width="2.10938" stroke-linecap="round" stroke-linejoin="round"/>
<path d="M76.6023 120.575H87.7205V126.134H76.6023V120.575Z" fill="#C8D4FA" stroke="black" stroke-width="2.10938" stroke-linecap="round" stroke-linejoin="round"/>
<path d="M32.1296 115.016V126.134H43.2478V115.016C43.2478 110.593 45.0049 106.351 48.1325 103.223C51.26 100.096 55.502 98.3386 59.925 98.3386C64.3481 98.3386 68.5901 100.096 71.7176 103.223C74.8452 106.351 76.6023 110.593 76.6023 115.016V126.134H87.7205V115.016C87.7205 107.644 84.792 100.574 79.5794 95.3615C74.3667 90.1489 67.2968 87.2205 59.925 87.2205C52.5532 87.2205 45.4834 90.1489 40.2707 95.3615C35.0581 100.574 32.1296 107.644 32.1296 115.016Z" fill="#E4E4E4" stroke="black" stroke-width="2.10938" stroke-linecap="round" stroke-linejoin="round"/>
<path d="M61.3148 87.2907C60.8513 87.2677 60.3943 87.2205 59.925 87.2205C52.5532 87.2205 45.4834 90.1489 40.2707 95.3615C35.0581 100.574 32.1296 107.644 32.1296 115.016V126.134H34.9092V115.016C34.9126 107.889 37.6557 101.036 42.5708 95.8758C47.4858 90.7151 54.1967 87.6414 61.3148 87.2907Z" fill="#E4E4E4" stroke="#E4E4E4" stroke-width="2.10938" stroke-linecap="round" stroke-linejoin="round"/>
<path d="M62.7046 98.3386C62.2353 98.3386 61.7742 98.3709 61.3148 98.4089C65.4813 98.7555 69.3654 100.655 72.197 103.731C75.0286 106.807 76.601 110.835 76.6023 115.016V126.134H79.3818V115.016C79.3818 110.593 77.6248 106.351 74.4972 103.223C71.3696 100.096 67.1277 98.3386 62.7046 98.3386Z" fill="#E4E4E4" stroke="#E4E4E4" stroke-width="2.10938" stroke-linecap="round" stroke-linejoin="round"/>
<path d="M32.1296 120.575H43.2478V126.134H32.1296V120.575Z" fill="#6FDAFB" stroke="black" stroke-width="2.10938" stroke-linecap="round" stroke-linejoin="round"/>
<path d="M32.1296 120.575H34.9092V126.134H32.1296V120.575Z" fill="#4B9BD8" stroke="#4B9BD8" stroke-width="2.10938" stroke-linecap="round" stroke-linejoin="round"/>
<path d="M76.6023 120.575H87.7205V126.134H76.6023V120.575Z" fill="#6FDAFB" stroke="black" stroke-width="2.10938" stroke-linecap="round" stroke-linejoin="round"/>
<path d="M76.6023 120.575H79.3818V126.134H76.6023V120.575Z" fill="#4B9BD8" stroke="#4B9BD8" stroke-width="2.10938" stroke-linecap="round" stroke-linejoin="round"/>
<path d="M32.1296 115.016V126.134H43.2478V115.016C43.2478 110.593 45.0049 106.351 48.1325 103.223C51.26 100.096 55.502 98.3386 59.925 98.3386C64.3481 98.3386 68.5901 100.096 71.7176 103.223C74.8452 106.351 76.6023 110.593 76.6023 115.016V126.134H87.7205V115.016C87.7205 107.644 84.792 100.574 79.5794 95.3615C74.3667 90.1489 67.2969 87.2205 59.925 87.2205C52.5532 87.2205 45.4834 90.1489 40.2707 95.3615C35.0581 100.574 32.1296 107.644 32.1296 115.016Z" stroke="black" stroke-width="2.10938" stroke-linecap="round" stroke-linejoin="round"/>
<path d="M32.1296 120.575H43.2478V126.134H32.1296V120.575Z" stroke="black" stroke-width="2.10938" stroke-linecap="round" stroke-linejoin="round"/>
<path d="M76.6023 120.575H87.7205V126.134H76.6023V120.575Z" stroke="black" stroke-width="2.10938" stroke-linecap="round" stroke-linejoin="round"/>
<path d="M71.0432 145.591C71.048 144.566 70.7693 143.56 70.2381 142.683C69.7068 141.807 68.9436 141.094 68.0328 140.625C67.122 140.155 66.099 139.946 65.0769 140.021C64.0548 140.096 63.0733 140.452 62.241 141.05C61.4086 141.648 60.7577 142.464 60.3602 143.409C59.9627 144.354 59.8341 145.39 59.9886 146.403C60.1431 147.416 60.5746 148.367 61.2356 149.15C61.8965 149.933 62.7611 150.519 63.7339 150.841L59.925 162.268H71.0432L67.2344 150.841C68.3405 150.477 69.3037 149.774 69.9875 148.832C70.6712 147.889 71.0406 146.755 71.0432 145.591Z" fill="#F87D30" stroke="#F87D30" stroke-width="2.10938" stroke-linecap="round" stroke-linejoin="round"/>
<path d="M148.87 101.118H171.107C171.107 101.118 176.666 101.118 176.666 106.677V128.914C176.666 128.914 176.666 134.473 171.107 134.473H148.87C148.87 134.473 143.311 134.473 143.311 128.914V106.677C143.311 106.677 143.311 101.118 148.87 101.118Z" fill="white" stroke="black" stroke-width="2.10938" stroke-linecap="round" stroke-linejoin="round"/>
<path d="M148.87 106.677H171.107V128.914H148.87V106.677Z" fill="#199A4A" stroke="#199A4A" stroke-width="2.10938" stroke-linecap="round" stroke-linejoin="round"/>
<path d="M153.735 117.795L159.294 123.354L166.298 114.015" stroke="black" stroke-width="2.10938" stroke-linecap="round" stroke-linejoin="round"/>
</svg>
