<svg width="147" height="17" viewBox="0 0 147 17" fill="none" xmlns="http://www.w3.org/2000/svg">
<path d="M12.3534 13.5H7.67344L7.39344 10.32H3.69344L2.27344 13.5H0.333437L6.23344 0.799999H10.9734L12.3534 13.5ZM4.35344 8.86H7.25344L6.79344 3.42L4.35344 8.86ZM14.3736 2.86C15.2003 2.74 15.9469 2.49333 16.6136 2.12C17.2936 1.74667 17.8336 1.30667 18.2336 0.799999H21.2936L18.5736 13.5H14.2536L16.2336 4.2H14.0736L14.3736 2.86Z" fill="#FF8811"/>
<path d="M20.8828 13.5L23.5828 0.799999H28.9628C29.7895 0.799999 30.5095 0.886666 31.1228 1.06C31.7495 1.22 32.2628 1.49333 32.6628 1.88C33.0761 2.26667 33.3828 2.77333 33.5828 3.4C33.7961 4.02667 33.9028 4.79333 33.9028 5.7C33.9028 6.67333 33.7761 7.62667 33.5228 8.56C33.2828 9.49333 32.8761 10.3267 32.3028 11.06C31.7295 11.7933 30.9761 12.3867 30.0428 12.84C29.1228 13.28 27.9828 13.5 26.6228 13.5H20.8828ZM26.3628 12.1C26.8028 12.1 27.1895 11.92 27.5228 11.56C27.8695 11.1867 28.1628 10.72 28.4028 10.16C28.6561 9.58667 28.8628 8.96 29.0228 8.28C29.1961 7.58667 29.3295 6.92 29.4228 6.28C29.5295 5.64 29.6028 5.06667 29.6428 4.56C29.6961 4.05333 29.7228 3.69333 29.7228 3.48C29.7228 3.06667 29.6361 2.74667 29.4628 2.52C29.3028 2.28 29.0161 2.16 28.6028 2.16H27.6428L25.5028 12.1H26.3628ZM35.745 4.9H39.005L39.305 6.4H39.445C39.7517 5.92 40.145 5.51333 40.625 5.18C41.105 4.84667 41.7383 4.68 42.525 4.68C42.5783 4.68 42.6583 4.68667 42.765 4.7C42.885 4.7 43.0117 4.72 43.145 4.76C43.2917 4.78667 43.4383 4.83333 43.585 4.9C43.745 4.95333 43.8983 5.03333 44.045 5.14L43.165 9.26H40.985C40.9583 8.43333 40.885 7.86 40.765 7.54C40.645 7.20667 40.4517 7.04 40.185 7.04C40.0517 7.04 39.905 7.07333 39.745 7.14C39.5983 7.19333 39.445 7.32 39.285 7.52L38.005 13.5H33.925L35.745 4.9ZM48.153 9.48C48.0996 9.77333 48.0596 10.0533 48.033 10.32C48.0196 10.5867 48.013 10.8267 48.013 11.04C48.013 11.16 48.0196 11.2933 48.033 11.44C48.0463 11.5867 48.073 11.7267 48.113 11.86C48.1663 11.98 48.233 12.0867 48.313 12.18C48.4063 12.26 48.533 12.3 48.693 12.3C48.813 12.3 48.9463 12.26 49.093 12.18C49.253 12.1 49.4063 11.9867 49.553 11.84C49.713 11.6933 49.8596 11.5133 49.993 11.3C50.1396 11.0867 50.253 10.8467 50.333 10.58H53.613L53.093 12.72C52.8263 12.8933 52.5196 13.04 52.173 13.16C51.8263 13.28 51.4596 13.38 51.073 13.46C50.6863 13.5267 50.293 13.5733 49.893 13.6C49.493 13.64 49.113 13.66 48.753 13.66C48.0863 13.66 47.4663 13.6 46.893 13.48C46.3196 13.36 45.8196 13.1533 45.393 12.86C44.9663 12.5667 44.6263 12.18 44.373 11.7C44.133 11.2067 44.013 10.6 44.013 9.88C44.013 9.22667 44.113 8.58667 44.313 7.96C44.5263 7.33333 44.873 6.78 45.353 6.3C45.8463 5.80667 46.4996 5.41333 47.313 5.12C48.1396 4.82667 49.1663 4.68 50.393 4.68C51.7263 4.68 52.7263 4.88667 53.393 5.3C54.073 5.71333 54.413 6.36 54.413 7.24C54.413 7.6 54.3596 7.99333 54.253 8.42C54.1463 8.83333 53.9863 9.18667 53.773 9.48H48.153ZM50.813 7.1C50.813 6.68667 50.7463 6.40667 50.613 6.26C50.4796 6.11333 50.3196 6.04 50.133 6.04C49.9196 6.04 49.7196 6.11333 49.533 6.26C49.3596 6.39333 49.1996 6.58 49.053 6.82C48.9063 7.04667 48.773 7.31333 48.653 7.62C48.533 7.91333 48.433 8.22667 48.353 8.56H50.633C50.6596 8.4 50.6863 8.23333 50.713 8.06C50.7396 7.91333 50.7596 7.75333 50.773 7.58C50.7996 7.40667 50.813 7.24667 50.813 7.1ZM66.1305 4.9L64.2905 13.5H61.0505L60.6905 12.22H60.5305C60.4505 12.34 60.3238 12.4867 60.1505 12.66C59.9905 12.82 59.7838 12.98 59.5305 13.14C59.2771 13.2867 58.9771 13.4067 58.6305 13.5C58.2838 13.6067 57.8838 13.66 57.4305 13.66C56.9638 13.66 56.5638 13.5933 56.2305 13.46C55.9105 13.3133 55.6505 13.12 55.4505 12.88C55.2505 12.64 55.1038 12.3533 55.0105 12.02C54.9171 11.6733 54.8705 11.3 54.8705 10.9C54.8705 10.7267 54.8838 10.4533 54.9105 10.08C54.9371 9.69333 54.9971 9.27333 55.0905 8.82C55.1971 8.35333 55.3438 7.88 55.5305 7.4C55.7305 6.90667 55.9905 6.46 56.3105 6.06C56.6305 5.66 57.0305 5.33333 57.5105 5.08C57.9905 4.81333 58.5705 4.68 59.2505 4.68C59.4905 4.68 59.7371 4.7 59.9905 4.74C60.2571 4.78 60.5105 4.85333 60.7505 4.96C60.9905 5.06667 61.2038 5.22 61.3905 5.42C61.5771 5.62 61.7171 5.88 61.8105 6.2H61.9705L62.6505 4.9H66.1305ZM60.6105 6.64C60.2905 6.64 60.0238 6.82 59.8105 7.18C59.5971 7.52667 59.4238 7.93333 59.2905 8.4C59.1571 8.86667 59.0571 9.33333 58.9905 9.8C58.9371 10.2667 58.9105 10.6133 58.9105 10.84C58.9105 11.1067 58.9505 11.3333 59.0305 11.52C59.1105 11.6933 59.2638 11.78 59.4905 11.78C59.7571 11.78 60.0038 11.68 60.2305 11.48C60.4571 11.28 60.6238 11.1067 60.7305 10.96L61.5105 7.32C61.4038 7.17333 61.2771 7.02667 61.1305 6.88C60.9838 6.72 60.8105 6.64 60.6105 6.64ZM71.653 6.18C71.933 5.91333 72.2463 5.66667 72.593 5.44C72.8996 5.25333 73.2663 5.08 73.693 4.92C74.1196 4.76 74.5996 4.68 75.133 4.68C75.773 4.68 76.2463 4.82667 76.553 5.12C76.873 5.41333 77.053 5.77333 77.093 6.2H77.213C77.5196 5.92 77.853 5.66667 78.213 5.44C78.5196 5.25333 78.8796 5.08 79.293 4.92C79.7063 4.76 80.1463 4.68 80.613 4.68C81.3063 4.68 81.8663 4.87333 82.293 5.26C82.733 5.63333 82.953 6.12 82.953 6.72C82.953 7.02667 82.8996 7.43333 82.793 7.94C82.6863 8.44667 82.5663 9 82.433 9.6L81.593 13.5H77.653L78.733 8.28C78.773 8.08 78.813 7.88667 78.853 7.7C78.893 7.51333 78.913 7.36 78.913 7.24C78.913 7.05333 78.8596 6.9 78.753 6.78C78.6463 6.64667 78.493 6.58 78.293 6.58C78.0396 6.58 77.7996 6.67333 77.573 6.86C77.3596 7.03333 77.193 7.18 77.073 7.3L75.773 13.5H72.033L73.133 8.28C73.1596 8.10667 73.193 7.93333 73.233 7.76C73.273 7.57333 73.293 7.40667 73.293 7.26C73.293 7.06 73.2396 6.9 73.133 6.78C73.0396 6.64667 72.893 6.58 72.693 6.58C72.453 6.58 72.2196 6.66667 71.993 6.84C71.7796 7.01333 71.613 7.16 71.493 7.28L70.173 13.5H66.093L67.913 4.9H71.173L71.533 6.18H71.653ZM87.3995 13.5H83.3195L86.1595 0.059999H90.2595L87.3995 13.5ZM95.6789 4.68C97.2656 4.68 98.4189 4.96 99.1389 5.52C99.8989 6.10667 100.279 7.08 100.279 8.44C100.279 9.28 100.139 10.04 99.8589 10.72C99.5789 11.3867 99.1856 11.94 98.6789 12.38C97.6656 13.2333 96.1989 13.66 94.2789 13.66C92.6389 13.66 91.4656 13.3467 90.7589 12.72C89.9989 12.0667 89.6189 11.0867 89.6189 9.78C89.6189 8.91333 89.7922 8.12667 90.1389 7.42C90.4989 6.71333 91.0122 6.12667 91.6789 5.66C92.6522 5.00667 93.9856 4.68 95.6789 4.68ZM94.3189 12.3C94.6522 12.3 94.9389 12.1133 95.1789 11.74C95.4322 11.3667 95.6322 10.9133 95.7789 10.38C95.9256 9.83333 96.0322 9.27333 96.0989 8.7C96.1789 8.11333 96.2189 7.60667 96.2189 7.18C96.2189 6.80667 96.1789 6.52667 96.0989 6.34C96.0322 6.14 95.8789 6.04 95.6389 6.04C95.2789 6.04 94.9656 6.23333 94.6989 6.62C94.4456 7.00667 94.2389 7.46667 94.0789 8C93.9189 8.53333 93.7989 9.08 93.7189 9.64C93.6522 10.2 93.6189 10.6533 93.6189 11C93.6189 11.8667 93.8522 12.3 94.3189 12.3ZM105.972 10.14C105.905 10.4467 105.852 10.72 105.812 10.96C105.772 11.2 105.752 11.3867 105.752 11.52C105.752 11.7867 105.845 11.9533 106.032 12.02C106.232 12.0867 106.598 12.12 107.132 12.12L106.832 13.5C106.738 13.5267 106.592 13.5467 106.392 13.56C106.205 13.5733 105.992 13.5867 105.752 13.6C105.525 13.6267 105.285 13.64 105.032 13.64C104.792 13.6533 104.578 13.66 104.392 13.66C104.058 13.66 103.732 13.6333 103.412 13.58C103.092 13.54 102.805 13.4533 102.552 13.32C102.298 13.1733 102.092 12.9667 101.932 12.7C101.785 12.4333 101.712 12.0733 101.712 11.62C101.712 11.46 101.718 11.26 101.732 11.02C101.758 10.78 101.805 10.5133 101.872 10.22L102.712 6.24H101.152L101.432 4.9C101.925 4.79333 102.358 4.67333 102.732 4.54C103.105 4.40667 103.445 4.24 103.752 4.04C104.072 3.84 104.372 3.59333 104.652 3.3C104.945 3.00667 105.258 2.64667 105.592 2.22H107.652L107.072 4.9H108.052C108.558 4.9 108.998 4.84 109.372 4.72C109.745 4.6 110.085 4.42667 110.392 4.2C110.698 3.97333 110.992 3.69333 111.272 3.36C111.565 3.02667 111.878 2.64667 112.212 2.22H114.272L113.692 4.9H115.252L114.992 6.24H113.412L112.592 10.14C112.525 10.4467 112.472 10.72 112.432 10.96C112.392 11.2 112.372 11.3867 112.372 11.52C112.372 11.7867 112.465 11.9533 112.652 12.02C112.852 12.0867 113.218 12.12 113.752 12.12L113.452 13.5C113.358 13.5267 113.212 13.5467 113.012 13.56C112.825 13.5733 112.612 13.5867 112.372 13.6C112.145 13.6267 111.905 13.64 111.652 13.64C111.412 13.6533 111.198 13.66 111.012 13.66C110.678 13.66 110.352 13.6333 110.032 13.58C109.712 13.54 109.425 13.4533 109.172 13.32C108.918 13.1733 108.712 12.9667 108.552 12.7C108.405 12.4333 108.332 12.0733 108.332 11.62C108.332 11.46 108.338 11.26 108.352 11.02C108.378 10.78 108.425 10.5133 108.492 10.22L109.332 6.24H106.792L105.972 10.14ZM119.149 9.48C119.096 9.77333 119.056 10.0533 119.029 10.32C119.016 10.5867 119.009 10.8267 119.009 11.04C119.009 11.16 119.016 11.2933 119.029 11.44C119.042 11.5867 119.069 11.7267 119.109 11.86C119.162 11.98 119.229 12.0867 119.309 12.18C119.402 12.26 119.529 12.3 119.689 12.3C119.809 12.3 119.942 12.26 120.089 12.18C120.249 12.1 120.402 11.9867 120.549 11.84C120.709 11.6933 120.856 11.5133 120.989 11.3C121.136 11.0867 121.249 10.8467 121.329 10.58H124.609L124.089 12.72C123.822 12.8933 123.516 13.04 123.169 13.16C122.822 13.28 122.456 13.38 122.069 13.46C121.682 13.5267 121.289 13.5733 120.889 13.6C120.489 13.64 120.109 13.66 119.749 13.66C119.082 13.66 118.462 13.6 117.889 13.48C117.316 13.36 116.816 13.1533 116.389 12.86C115.962 12.5667 115.622 12.18 115.369 11.7C115.129 11.2067 115.009 10.6 115.009 9.88C115.009 9.22667 115.109 8.58667 115.309 7.96C115.522 7.33333 115.869 6.78 116.349 6.3C116.842 5.80667 117.496 5.41333 118.309 5.12C119.136 4.82667 120.162 4.68 121.389 4.68C122.722 4.68 123.722 4.88667 124.389 5.3C125.069 5.71333 125.409 6.36 125.409 7.24C125.409 7.6 125.356 7.99333 125.249 8.42C125.142 8.83333 124.982 9.18667 124.769 9.48H119.149ZM121.809 7.1C121.809 6.68667 121.742 6.40667 121.609 6.26C121.476 6.11333 121.316 6.04 121.129 6.04C120.916 6.04 120.716 6.11333 120.529 6.26C120.356 6.39333 120.196 6.58 120.049 6.82C119.902 7.04667 119.769 7.31333 119.649 7.62C119.529 7.91333 119.429 8.22667 119.349 8.56H121.629C121.656 8.4 121.682 8.23333 121.709 8.06C121.736 7.91333 121.756 7.75333 121.769 7.58C121.796 7.40667 121.809 7.24667 121.809 7.1ZM127.347 4.9H130.607L130.907 6.4H131.047C131.353 5.92 131.747 5.51333 132.227 5.18C132.707 4.84667 133.34 4.68 134.127 4.68C134.18 4.68 134.26 4.68667 134.367 4.7C134.487 4.7 134.613 4.72 134.747 4.76C134.893 4.78667 135.04 4.83333 135.187 4.9C135.347 4.95333 135.5 5.03333 135.647 5.14L134.767 9.26H132.587C132.56 8.43333 132.487 7.86 132.367 7.54C132.247 7.20667 132.053 7.04 131.787 7.04C131.653 7.04 131.507 7.07333 131.347 7.14C131.2 7.19333 131.047 7.32 130.887 7.52L129.607 13.5H125.527L127.347 4.9ZM140.415 4.9L141.015 10.78L144.175 4.9H146.295L141.475 13.5C140.995 14.34 140.508 14.9867 140.015 15.44C139.521 15.8933 138.981 16.2267 138.395 16.44C137.821 16.6533 137.181 16.7733 136.475 16.8C135.781 16.84 134.988 16.86 134.095 16.86L134.395 15.48C134.835 15.48 135.241 15.4733 135.615 15.46C136.001 15.4467 136.308 15.4067 136.535 15.34C136.841 15.26 137.061 15.1133 137.195 14.9C137.328 14.7 137.395 14.4 137.395 14C137.395 13.7333 137.368 13.4267 137.315 13.08C137.275 12.7333 137.228 12.3667 137.175 11.98L136.195 4.9H140.415Z" fill="#321C1C"/>
</svg>
