<svg width="122" height="17" viewBox="0 0 122 17" fill="none" xmlns="http://www.w3.org/2000/svg">
<path d="M0.308813 13L4.42081 1.08H7.23681L11.3488 13H8.98081L8.13281 10.44H3.52481L2.66081 13H0.308813ZM4.14881 8.52H7.50881L5.52481 2.584H6.13281L4.14881 8.52ZM14.2914 13V2.936H11.9874V1.08H16.4674V13H14.2914Z" fill="#FF8811"/>
<path d="M19.2086 13V1.08H23.1126C24.3499 1.08 25.4219 1.33067 26.3286 1.832C27.2459 2.32267 27.9552 3.016 28.4566 3.912C28.9579 4.808 29.2086 5.848 29.2086 7.032C29.2086 8.20533 28.9579 9.24533 28.4566 10.152C27.9552 11.048 27.2459 11.7467 26.3286 12.248C25.4219 12.7493 24.3499 13 23.1126 13H19.2086ZM21.0966 11.32H23.1446C23.9872 11.32 24.7179 11.144 25.3366 10.792C25.9659 10.44 26.4512 9.944 26.7926 9.304C27.1339 8.664 27.3046 7.90667 27.3046 7.032C27.3046 6.15733 27.1286 5.40533 26.7766 4.776C26.4352 4.136 25.9552 3.64 25.3366 3.288C24.7179 2.936 23.9872 2.76 23.1446 2.76H21.0966V11.32ZM30.8919 13V4.344H35.5319V5.976H32.6999V13H30.8919ZM40.8309 13.192C39.9669 13.192 39.1989 12.9947 38.5269 12.6C37.8656 12.1947 37.3483 11.6507 36.9749 10.968C36.6016 10.2747 36.4149 9.50133 36.4149 8.648C36.4149 7.77333 36.6016 7 36.9749 6.328C37.3589 5.656 37.8709 5.128 38.5109 4.744C39.1509 4.34933 39.8763 4.152 40.6869 4.152C41.3376 4.152 41.9189 4.264 42.4309 4.488C42.9429 4.712 43.3749 5.02133 43.7269 5.416C44.0789 5.8 44.3456 6.24267 44.5269 6.744C44.7189 7.24533 44.8149 7.77867 44.8149 8.344C44.8149 8.48267 44.8096 8.62667 44.7989 8.776C44.7883 8.92533 44.7669 9.064 44.7349 9.192H37.8389V7.752H43.7109L42.8469 8.408C42.9536 7.88533 42.9163 7.42133 42.7349 7.016C42.5643 6.6 42.2976 6.27467 41.9349 6.04C41.5829 5.79467 41.1669 5.672 40.6869 5.672C40.2069 5.672 39.7803 5.79467 39.4069 6.04C39.0336 6.27467 38.7456 6.616 38.5429 7.064C38.3403 7.50133 38.2603 8.03467 38.3029 8.664C38.2496 9.25067 38.3296 9.76267 38.5429 10.2C38.7669 10.6373 39.0763 10.9787 39.4709 11.224C39.8763 11.4693 40.3349 11.592 40.8469 11.592C41.3696 11.592 41.8123 11.4747 42.1749 11.24C42.5483 11.0053 42.8416 10.7013 43.0549 10.328L44.5269 11.048C44.3563 11.4533 44.0896 11.8213 43.7269 12.152C43.3749 12.472 42.9483 12.728 42.4469 12.92C41.9563 13.1013 41.4176 13.192 40.8309 13.192ZM49.0933 13.192C48.5066 13.192 47.9893 13.0907 47.5413 12.888C47.104 12.6747 46.7626 12.3867 46.5173 12.024C46.272 11.6507 46.1493 11.2133 46.1493 10.712C46.1493 10.2427 46.2506 9.82133 46.4533 9.448C46.6666 9.07467 46.992 8.76 47.4293 8.504C47.8666 8.248 48.416 8.06667 49.0773 7.96L52.0853 7.464V8.888L49.4293 9.352C48.9493 9.43733 48.5973 9.592 48.3733 9.816C48.1493 10.0293 48.0373 10.3067 48.0373 10.648C48.0373 10.9787 48.16 11.2507 48.4053 11.464C48.6613 11.6667 48.9866 11.768 49.3813 11.768C49.872 11.768 50.2986 11.6613 50.6613 11.448C51.0346 11.2347 51.3226 10.952 51.5253 10.6C51.728 10.2373 51.8293 9.83733 51.8293 9.4V5.976H47.0293V4.344H53.6373V13H51.9093V11.432L52.2773 11.48C52.0746 11.832 51.8133 12.136 51.4933 12.392C51.184 12.648 50.8266 12.8453 50.4213 12.984C50.0266 13.1227 49.584 13.192 49.0933 13.192ZM55.7513 13V4.344H68.5193V13H66.7113V5.976H63.0313V13H61.2393V5.976H57.5593V13H55.7513ZM70.4544 13V0.888H72.2624V11.4H73.4144V13H70.4544ZM79.1929 13.192C78.3609 13.192 77.5983 12.9947 76.9049 12.6C76.2223 12.2053 75.6783 11.6667 75.2729 10.984C74.8676 10.3013 74.6649 9.528 74.6649 8.664C74.6649 7.78933 74.8676 7.016 75.2729 6.344C75.6783 5.66133 76.2223 5.128 76.9049 4.744C77.5876 4.34933 78.3503 4.152 79.1929 4.152C80.0463 4.152 80.8089 4.34933 81.4809 4.744C82.1636 5.128 82.7023 5.66133 83.0969 6.344C83.5023 7.016 83.7049 7.78933 83.7049 8.664C83.7049 9.53867 83.5023 10.3173 83.0969 11C82.6916 11.6827 82.1476 12.2213 81.4649 12.616C80.7823 13 80.0249 13.192 79.1929 13.192ZM79.1929 11.512C79.7049 11.512 80.1583 11.3893 80.5529 11.144C80.9476 10.8987 81.2569 10.5627 81.4809 10.136C81.7156 9.69867 81.8329 9.208 81.8329 8.664C81.8329 8.12 81.7156 7.63467 81.4809 7.208C81.2569 6.78133 80.9476 6.44533 80.5529 6.2C80.1583 5.95467 79.7049 5.832 79.1929 5.832C78.6916 5.832 78.2383 5.95467 77.8329 6.2C77.4383 6.44533 77.1236 6.78133 76.8889 7.208C76.6649 7.63467 76.5529 8.12 76.5529 8.664C76.5529 9.208 76.6649 9.69867 76.8889 10.136C77.1236 10.5627 77.4383 10.8987 77.8329 11.144C78.2383 11.3893 78.6916 11.512 79.1929 11.512ZM86.1938 13V5.976H84.6738V4.344H86.1938V2.36H88.0018V4.344H89.9698V5.976H88.0018V11.352H90.0338V13H86.1938ZM92.6782 13V5.976H91.1582V4.344H92.6782V2.36H94.4862V4.344H96.4542V5.976H94.4862V11.352H96.5182V13H92.6782ZM102.19 13.192C101.326 13.192 100.558 12.9947 99.8863 12.6C99.225 12.1947 98.7076 11.6507 98.3343 10.968C97.961 10.2747 97.7743 9.50133 97.7743 8.648C97.7743 7.77333 97.961 7 98.3343 6.328C98.7183 5.656 99.2303 5.128 99.8703 4.744C100.51 4.34933 101.236 4.152 102.046 4.152C102.697 4.152 103.278 4.264 103.79 4.488C104.302 4.712 104.734 5.02133 105.086 5.416C105.438 5.8 105.705 6.24267 105.886 6.744C106.078 7.24533 106.174 7.77867 106.174 8.344C106.174 8.48267 106.169 8.62667 106.158 8.776C106.148 8.92533 106.126 9.064 106.094 9.192H99.1983V7.752H105.07L104.206 8.408C104.313 7.88533 104.276 7.42133 104.094 7.016C103.924 6.6 103.657 6.27467 103.294 6.04C102.942 5.79467 102.526 5.672 102.046 5.672C101.566 5.672 101.14 5.79467 100.766 6.04C100.393 6.27467 100.105 6.616 99.9023 7.064C99.6996 7.50133 99.6196 8.03467 99.6623 8.664C99.609 9.25067 99.689 9.76267 99.9023 10.2C100.126 10.6373 100.436 10.9787 100.83 11.224C101.236 11.4693 101.694 11.592 102.206 11.592C102.729 11.592 103.172 11.4747 103.534 11.24C103.908 11.0053 104.201 10.7013 104.414 10.328L105.886 11.048C105.716 11.4533 105.449 11.8213 105.086 12.152C104.734 12.472 104.308 12.728 103.806 12.92C103.316 13.1013 102.777 13.192 102.19 13.192ZM107.939 13V4.344H112.579V5.976H109.747V13H107.939ZM113.158 16.2V14.6H115.686L116.662 12.232L116.678 13.752L112.934 4.328H114.87L117.638 11.56H116.982L119.734 4.328H121.686L116.966 16.2H113.158Z" fill="#321C1C"/>
</svg>
