<svg width="36" height="36" viewBox="0 0 36 36" fill="none" xmlns="http://www.w3.org/2000/svg">
<path d="M34.3019 9.16707V18.4551C34.302 18.9527 34.204 19.4454 34.0137 19.9052C33.8233 20.365 33.5442 20.7827 33.1924 21.1346C32.8406 21.4865 32.4229 21.7657 31.9631 21.9561C31.5034 22.1466 31.0107 22.2446 30.5131 22.2446H5.48695C4.98934 22.2446 4.4966 22.1466 4.03687 21.9561C3.57714 21.7657 3.15944 21.4865 2.8076 21.1346C2.45577 20.7827 2.1767 20.365 1.98633 19.9052C1.79597 19.4454 1.69803 18.9527 1.69812 18.4551V9.16707C1.69803 8.66946 1.79597 8.1767 1.98633 7.71694C2.1767 7.25718 2.45577 6.83942 2.8076 6.48753C3.15944 6.13563 3.57714 5.85649 4.03687 5.66604C4.4966 5.47559 4.98934 5.37756 5.48695 5.37756H30.5131C31.0107 5.37756 31.5034 5.47559 31.9631 5.66604C32.4229 5.85649 32.8406 6.13563 33.1924 6.48753C33.5442 6.83942 33.8233 7.25718 34.0137 7.71694C34.204 8.1767 34.302 8.66946 34.3019 9.16707Z" fill="#B75F25"/>
<path d="M34.3019 9.16779V18.4551C34.302 18.9529 34.204 19.4458 34.0136 19.9057C33.8232 20.3656 33.544 20.7834 33.192 21.1354C32.84 21.4874 32.4222 21.7665 31.9623 21.957C31.5024 22.1474 31.0095 22.2454 30.5117 22.2453H5.48835C4.83192 22.2466 4.18658 22.0761 3.61642 21.7508C3.04626 21.4255 2.57111 20.9567 2.23816 20.391C2.90967 20.939 3.75012 21.2378 4.61688 21.2366H29.6403C30.6448 21.2372 31.6085 20.8387 32.3193 20.1288C33.03 19.4189 33.4297 18.4558 33.4305 17.4512V8.15912C33.4325 7.47711 33.2476 6.80758 32.8959 6.22327C33.3354 6.57779 33.6899 7.02634 33.9332 7.53591C34.1765 8.04548 34.3025 8.60311 34.3019 9.16779Z" fill="#994F1D"/>
<path d="M5.4869 19.6981C5.15747 19.6977 4.84165 19.5666 4.60883 19.3336C4.37601 19.1005 4.24524 18.7845 4.24524 18.4551V9.16708C4.24542 8.83777 4.37627 8.52198 4.60907 8.28906C4.84187 8.05613 5.15758 7.9251 5.4869 7.92474H30.5123C30.8419 7.92474 31.1579 8.05561 31.391 8.28858C31.6241 8.52154 31.7552 8.83753 31.7554 9.16708V18.4551C31.7554 18.6184 31.7232 18.7801 31.6607 18.9309C31.5982 19.0818 31.5065 19.2188 31.391 19.3343C31.2755 19.4497 31.1384 19.5413 30.9875 19.6037C30.8367 19.6661 30.6749 19.6982 30.5117 19.6981H5.4869Z" fill="#F7E839"/>
<path d="M31.7547 13.6053V18.4551C31.7547 19.1425 31.1997 19.6981 30.5117 19.6981H5.48826C5.32497 19.6983 5.16326 19.6663 5.01236 19.6039C4.86147 19.5415 4.72437 19.4499 4.60891 19.3344C4.49345 19.219 4.4019 19.0819 4.3395 18.931C4.27709 18.7801 4.24506 18.6184 4.24524 18.4551V18.0679C7.99943 18.9795 12.9464 19.1275 18.2445 18.2921C23.6805 17.4362 28.4481 15.7089 31.7547 13.6053Z" fill="#EDD318"/>
<path opacity="0.3" d="M3.1361 16.7766C3.00748 16.7766 2.88412 16.7256 2.79317 16.6346C2.70222 16.5437 2.65112 16.4203 2.65112 16.2917V11.5111C2.65582 11.3857 2.70893 11.2671 2.79931 11.18C2.88968 11.0929 3.01028 11.0443 3.13576 11.0443C3.26125 11.0443 3.38185 11.0929 3.47222 11.18C3.5626 11.2671 3.61571 11.3857 3.62041 11.5111V16.2917C3.62041 16.5593 3.40305 16.7766 3.1361 16.7766ZM3.1361 10.1187C3.0076 10.1187 2.88434 10.0677 2.79341 9.97688C2.70248 9.88608 2.6513 9.76289 2.65112 9.63439V9.03393C2.65582 8.90854 2.70893 8.78984 2.79931 8.70279C2.88968 8.61573 3.01028 8.5671 3.13576 8.5671C3.26125 8.5671 3.38185 8.61573 3.47222 8.70279C3.5626 8.78984 3.61571 8.90854 3.62041 9.03393V9.63507C3.62041 9.90269 3.40305 10.1187 3.1361 10.1187ZM28.8999 6.5642C28.8999 6.83182 28.6825 7.04918 28.4149 7.04918H23.6344C23.509 7.04448 23.3903 6.99137 23.3032 6.90099C23.2162 6.81062 23.1675 6.69002 23.1675 6.56454C23.1675 6.43905 23.2162 6.31845 23.3032 6.22808C23.3903 6.13771 23.509 6.08459 23.6344 6.0799H28.4149C28.6825 6.0799 28.8999 6.29725 28.8999 6.5642ZM22.2419 6.5642C22.2419 6.83182 22.0246 7.04918 21.7576 7.04918H21.1565C21.0311 7.04448 20.9124 6.99137 20.8253 6.90099C20.7383 6.81062 20.6896 6.69002 20.6896 6.56454C20.6896 6.43905 20.7383 6.31845 20.8253 6.22808C20.9124 6.13771 21.0311 6.08459 21.1565 6.0799H21.7576C22.0252 6.0799 22.2419 6.29725 22.2419 6.5642ZM15.732 9.81778C15.732 10.0861 15.5147 10.3028 15.247 10.3028H10.4672C10.3418 10.2981 10.2231 10.245 10.1361 10.1546C10.049 10.0642 10.0004 9.9436 10.0004 9.81812C10.0004 9.69264 10.049 9.57204 10.1361 9.48167C10.2231 9.39129 10.3418 9.33818 10.4672 9.33348H15.2477C15.5153 9.33348 15.7327 9.55084 15.7327 9.81846L15.732 9.81778ZM9.07407 9.81778C9.07407 10.0861 8.85671 10.3028 8.58976 10.3028H7.98863C7.86324 10.2981 7.74454 10.245 7.65749 10.1546C7.57043 10.0642 7.5218 9.9436 7.5218 9.81812C7.5218 9.69264 7.57043 9.57204 7.65749 9.48167C7.74454 9.39129 7.86324 9.33818 7.98863 9.33348H8.58976C8.85739 9.33348 9.07407 9.55016 9.07407 9.81778Z" fill="white"/>
<path d="M9.9863 15.2294C10.0128 15.2579 10.0323 15.2922 10.0434 15.3296C10.0545 15.367 10.0569 15.4064 10.0503 15.4448C10.0438 15.4832 10.0284 15.5196 10.0056 15.5511C9.98268 15.5827 9.95285 15.6085 9.91838 15.6267C9.41845 15.9106 9.00479 16.0064 8.52524 16.0064C7.2863 16.0064 6.38562 15.1574 6.38562 13.8111C6.38562 12.4947 7.25777 11.6171 8.52524 11.6171C9.00071 11.6171 9.41505 11.7109 9.91838 11.9955C9.9528 12.0133 9.98263 12.0389 10.0055 12.0702C10.0284 12.1015 10.0437 12.1377 10.0503 12.1759C10.0569 12.2141 10.0545 12.2534 10.0434 12.2905C10.0323 12.3277 10.0128 12.3618 9.9863 12.3901C9.94855 12.4259 9.90085 12.4495 9.84945 12.4578C9.79805 12.466 9.74536 12.4585 9.6983 12.4363C9.27717 12.2155 8.96132 12.1483 8.57958 12.1483C7.53151 12.1483 6.94124 12.8391 6.94124 13.8111C6.94124 14.8041 7.54713 15.4746 8.57958 15.4746C8.95996 15.4746 9.27513 15.4087 9.6983 15.1866C9.74516 15.1644 9.79753 15.1567 9.84879 15.1643C9.90004 15.1719 9.9479 15.1946 9.9863 15.2294Z" fill="#2D2C2C"/>
<path d="M8.52447 16.1083C7.22439 16.1083 6.28296 15.2056 6.28296 13.8111C6.28296 12.42 7.22168 11.5153 8.52447 11.5153C9.02779 11.5153 9.45368 11.6165 9.96786 11.9065C10.0158 11.9319 10.0573 11.9681 10.089 12.0121C10.1208 12.0561 10.1419 12.1069 10.1509 12.1605C10.1598 12.214 10.1563 12.2689 10.1406 12.3209C10.1248 12.3728 10.0974 12.4205 10.0602 12.4601C10.0073 12.5118 9.93969 12.5459 9.86664 12.5579C9.79359 12.5698 9.71865 12.5589 9.65202 12.5267C9.2499 12.3154 8.949 12.2502 8.57949 12.2502C7.58439 12.2502 7.04371 12.8955 7.04371 13.8111C7.04371 14.7525 7.60817 15.372 8.57949 15.372C8.94628 15.372 9.24515 15.3088 9.65134 15.0969C9.71713 15.0644 9.7913 15.0527 9.8639 15.0635C9.93649 15.0744 10.0041 15.1071 10.0575 15.1574C10.0953 15.1971 10.1241 15.2451 10.1403 15.2976C10.1564 15.35 10.1602 15.4055 10.1513 15.4597C10.1424 15.5138 10.1211 15.5652 10.0891 15.6097C10.057 15.6543 10.0151 15.6908 9.96651 15.7164C9.45571 16.0071 9.01692 16.1083 8.52447 16.1083ZM8.52447 11.719C7.33239 11.719 6.48673 12.5328 6.48673 13.8111C6.48673 15.1017 7.34462 15.9039 8.52447 15.9039C8.99247 15.9039 9.38711 15.8108 9.86802 15.5377C9.88877 15.5272 9.90684 15.512 9.92084 15.4934C9.93483 15.4748 9.94439 15.4532 9.94878 15.4304C9.95318 15.4075 9.95228 15.3839 9.94617 15.3614C9.94006 15.339 9.92889 15.3182 9.91353 15.3007C9.86802 15.2572 9.78786 15.2559 9.74371 15.2783C9.31103 15.5038 8.98024 15.5765 8.57949 15.5765C7.47979 15.5765 6.83926 14.8476 6.83926 13.8111C6.83926 12.7719 7.48454 12.0457 8.57949 12.0457C8.98703 12.0457 9.31851 12.1211 9.74575 12.346C9.77324 12.3582 9.80367 12.3621 9.83334 12.3572C9.86301 12.3524 9.89064 12.3391 9.91285 12.3188C9.92828 12.3018 9.93956 12.2814 9.94582 12.2592C9.95209 12.2371 9.95316 12.2138 9.94895 12.1912C9.94474 12.1686 9.93537 12.1473 9.92157 12.1289C9.90777 12.1105 9.88991 12.0955 9.86937 12.0851C9.38711 11.8128 9.0013 11.719 8.52447 11.719ZM14.3415 15.8964C14.3081 15.9284 14.2675 15.9518 14.2231 15.9647C14.1787 15.9776 14.1318 15.9796 14.0865 15.9706C14.0412 15.9615 13.9987 15.9416 13.9627 15.9126C13.9267 15.8836 13.8982 15.8464 13.8796 15.804L13.4823 14.8504H11.4038L11.0071 15.804C10.9885 15.8463 10.9599 15.8834 10.9239 15.9123C10.8879 15.9412 10.8454 15.961 10.8001 15.9701C10.7549 15.9791 10.7081 15.9772 10.6637 15.9643C10.6193 15.9515 10.5787 15.9282 10.5452 15.8964C10.4671 15.8149 10.4454 15.7076 10.4997 15.5785L12.0579 11.8977C12.1258 11.7462 12.2461 11.6477 12.4125 11.6477H12.4736C12.6421 11.6477 12.7616 11.7476 12.8282 11.8977L14.387 15.5785C14.4414 15.7069 14.4176 15.8162 14.3415 15.8964ZM12.443 12.3562L11.6178 14.3436H13.2683L12.4437 12.3555L12.443 12.3562Z" fill="#2D2C2C"/>
<path d="M13.7866 15.8468L13.415 14.9529H11.471L11.1009 15.8427C11.0755 15.9003 11.0366 15.951 10.9875 15.9903C10.9383 16.0297 10.8804 16.0566 10.8186 16.0687C10.7569 16.0809 10.6931 16.0779 10.6327 16.0601C10.5723 16.0422 10.5171 16.0101 10.4719 15.9663C10.3686 15.859 10.3326 15.7102 10.406 15.5384L11.9649 11.8576C12.0464 11.6728 12.2005 11.5451 12.4125 11.5451H12.4736C12.6842 11.5451 12.8397 11.6714 12.9212 11.8555L14.4808 15.5384C14.5528 15.7062 14.5181 15.859 14.4149 15.9663C14.3699 16.0102 14.315 16.0425 14.2549 16.0606C14.1947 16.0787 14.1311 16.082 14.0694 16.0702C14.0077 16.0584 13.9497 16.0318 13.9005 15.9928C13.8513 15.9538 13.8122 15.9041 13.7866 15.8468ZM11.3359 14.7484H13.5502L13.9741 15.7646C14.0277 15.8841 14.188 15.9086 14.2675 15.825C14.3252 15.7653 14.3259 15.6953 14.294 15.6179L12.7351 11.937C12.6849 11.825 12.5993 11.7496 12.4743 11.7496H12.4125C12.2868 11.7496 12.2019 11.8243 12.151 11.9384L10.5928 15.6179C10.5602 15.696 10.5602 15.7653 10.6186 15.825C10.6913 15.9038 10.8522 15.893 10.9147 15.7605L11.3359 14.7484ZM13.4212 14.4455H11.4649L12.443 12.0912L13.4212 14.4455ZM11.7706 14.241H13.1155L12.443 12.6217L11.7706 14.241ZM15.986 13.3988C16.4092 13.5482 16.8316 13.5876 17.3547 13.7927C17.7812 13.9591 18.0733 14.2893 18.0733 14.8143C18.0733 15.5954 17.3234 16.0064 16.5083 16.0064C16.0083 16.0097 15.5129 15.9096 15.0534 15.7123C15.0039 15.6912 14.9615 15.6564 14.9312 15.612C14.9009 15.5675 14.8839 15.5154 14.8822 15.4616C14.8822 15.2776 15.0595 15.1478 15.249 15.2293C15.6239 15.3964 16.0254 15.4807 16.4533 15.4807C17.1665 15.4807 17.5231 15.2456 17.5231 14.777C17.5231 14.5182 17.2901 14.364 17.0463 14.2791C16.6102 14.1256 16.1789 14.0617 15.6708 13.8634C15.2313 13.6922 14.925 13.3743 14.925 12.8696C14.925 12.2067 15.4528 11.6164 16.5083 11.6164C16.9566 11.6164 17.3621 11.6844 17.7249 11.8188C17.777 11.8339 17.8225 11.8664 17.8536 11.9109C17.8847 11.9554 17.8997 12.0092 17.896 12.0634C17.896 12.2203 17.7554 12.3758 17.5537 12.295C17.2369 12.1852 16.904 12.1294 16.5688 12.1299C16.0539 12.1299 15.4813 12.3113 15.4813 12.8268C15.4813 13.1257 15.7041 13.3003 15.986 13.3988Z" fill="#2D2C2C"/>
<path d="M16.5083 16.1083C15.9943 16.1112 15.4852 16.0083 15.0126 15.8061C14.945 15.7768 14.8872 15.7289 14.8459 15.6679C14.8046 15.6069 14.7816 15.5353 14.7797 15.4617C14.7797 15.2049 15.0357 15.0236 15.2891 15.1356C15.6557 15.2978 16.0525 15.3805 16.4533 15.3781C17.4206 15.3781 17.4206 14.9258 17.4206 14.777C17.4206 14.5678 17.2107 14.4442 17.013 14.3762C16.581 14.2221 16.1708 14.1677 15.6342 13.9585C15.1634 13.7744 14.8231 13.4233 14.8231 12.8697C14.8231 12.6184 14.8911 12.3874 15.0235 12.1823C15.3319 11.6993 15.9303 11.5146 16.5083 11.5146C16.9675 11.5146 17.3886 11.5852 17.7602 11.7231C17.9137 11.7775 17.9979 11.899 17.9979 12.0627C17.9979 12.2835 17.7955 12.4981 17.517 12.3901C17.2121 12.2853 16.8919 12.2321 16.5695 12.2326C16.1212 12.2326 15.5832 12.3766 15.5832 12.8269C15.5832 13.0796 15.7802 13.2195 16.02 13.3024C16.4078 13.4396 16.8799 13.4973 17.392 13.6984C17.8499 13.8763 18.1752 14.2431 18.1752 14.8144C18.1752 15.4753 17.6162 16.1083 16.5083 16.1083ZM14.9841 15.4617C14.9841 15.5303 15.0364 15.5955 15.0914 15.6179C15.5316 15.8081 16.0077 15.9039 16.5083 15.9039C17.2779 15.9039 17.9714 15.5255 17.9714 14.8144C17.9714 14.3436 17.7181 14.0441 17.318 13.8879C16.7909 13.6814 16.3854 13.6481 15.952 13.4946C15.6274 13.3812 15.3788 13.1706 15.3788 12.8269C15.3788 12.2482 15.9908 12.0281 16.5695 12.0281C16.9158 12.0279 17.2598 12.0857 17.587 12.1993C17.7242 12.2529 17.7942 12.1497 17.7942 12.0627C17.7942 11.9839 17.7643 11.9412 17.6902 11.914C17.3109 11.7797 16.9107 11.7137 16.5083 11.719C15.5071 11.719 15.0276 12.2652 15.0276 12.8697C15.0276 13.3255 15.3 13.6087 15.7082 13.769C16.2061 13.9639 16.6455 14.0292 17.0803 14.1833C17.3696 14.2832 17.625 14.4707 17.625 14.777C17.625 15.1445 17.4212 15.5826 16.4533 15.5826C16.0244 15.5848 15.5998 15.4961 15.2076 15.3224C15.088 15.2735 14.9841 15.3469 14.9841 15.4617Z" fill="#2D2C2C"/>
<path d="M19.4034 11.7299C19.4299 11.7557 19.4509 11.7866 19.4651 11.8209C19.4792 11.8551 19.4862 11.8919 19.4856 11.9289V15.7001C19.4853 15.7366 19.4778 15.7728 19.4635 15.8064C19.4492 15.8401 19.4284 15.8706 19.4022 15.8962C19.3761 15.9217 19.3452 15.9419 19.3112 15.9554C19.2772 15.969 19.2409 15.9757 19.2044 15.9752C19.1681 15.976 19.1321 15.9694 19.0985 15.9558C19.0648 15.9423 19.0343 15.9221 19.0087 15.8964C18.9828 15.8708 18.9624 15.8402 18.9488 15.8064C18.9351 15.7727 18.9285 15.7365 18.9293 15.7001V11.9289C18.9293 11.8508 18.9564 11.7849 19.0087 11.7299C19.0338 11.7033 19.0642 11.6823 19.0979 11.6682C19.1316 11.654 19.1678 11.647 19.2044 11.6477C19.2413 11.647 19.2781 11.6539 19.3123 11.6679C19.3465 11.6819 19.3775 11.7035 19.4034 11.7299Z" fill="#2D2C2C"/>
<path d="M19.2043 16.0771C19.1546 16.078 19.1052 16.0689 19.059 16.0502C19.0129 16.0315 18.9711 16.0037 18.936 15.9684C18.9007 15.9333 18.8729 15.8915 18.8542 15.8454C18.8355 15.7992 18.8264 15.7498 18.8273 15.7001V11.9289C18.8273 11.8236 18.864 11.7333 18.9353 11.6586C18.9706 11.6229 19.0125 11.5946 19.0588 11.5753C19.105 11.5559 19.1546 11.5459 19.2047 11.5458C19.2548 11.5457 19.3045 11.5554 19.3508 11.5746C19.3971 11.5937 19.4392 11.6218 19.4747 11.6572H19.4753C19.5501 11.7319 19.5874 11.8229 19.5874 11.9289V15.7001C19.5874 15.8067 19.5494 15.8971 19.474 15.9697C19.4018 16.0397 19.3048 16.0783 19.2043 16.0771ZM19.2043 11.7496C19.1815 11.7487 19.1587 11.7528 19.1376 11.7616C19.1165 11.7704 19.0975 11.7837 19.0821 11.8005C19.0653 11.8173 19.0522 11.8374 19.0435 11.8595C19.0349 11.8816 19.0309 11.9052 19.0318 11.9289V15.7001C19.0318 15.7517 19.0474 15.7904 19.0807 15.8237C19.1473 15.8916 19.2607 15.8916 19.3327 15.8223C19.3495 15.8068 19.3627 15.7879 19.3715 15.7668C19.3803 15.7457 19.3844 15.7229 19.3836 15.7001V11.9289C19.3843 11.9053 19.38 11.8819 19.3711 11.86C19.3622 11.8381 19.3489 11.8184 19.332 11.8019C19.3155 11.7848 19.2956 11.7714 19.2736 11.7624C19.2517 11.7534 19.2281 11.749 19.2043 11.7496Z" fill="#2D2C2C"/>
<path d="M24.3123 11.7299C24.3389 11.7557 24.3599 11.7867 24.374 11.8209C24.3882 11.8551 24.3951 11.8919 24.3945 11.9289V15.5785C24.3945 15.6878 24.3544 15.7823 24.275 15.859C24.2379 15.8965 24.1937 15.9261 24.1449 15.9461C24.0961 15.966 24.0438 15.9759 23.991 15.9752H23.9177C23.8537 15.9757 23.7906 15.9601 23.7343 15.9297C23.6792 15.9009 23.6312 15.8603 23.5937 15.8108L21.2279 12.3935V15.7001C21.2276 15.7366 21.2201 15.7728 21.2058 15.8065C21.1915 15.8401 21.1707 15.8706 21.1445 15.8962C21.1184 15.9217 21.0875 15.9419 21.0535 15.9554C21.0195 15.969 20.9832 15.9757 20.9467 15.9752C20.9104 15.976 20.8744 15.9694 20.8408 15.9559C20.8071 15.9423 20.7766 15.9221 20.751 15.8964C20.7251 15.8708 20.7047 15.8402 20.6911 15.8064C20.6774 15.7727 20.6708 15.7365 20.6716 15.7001V12.0512C20.6716 11.9405 20.7103 11.846 20.7877 11.7659C20.8652 11.6857 20.9589 11.6477 21.0689 11.6477H21.1484C21.2788 11.6477 21.3909 11.7088 21.4846 11.8311L23.8382 15.2294V11.9282C23.8368 11.8727 23.8523 11.8181 23.8825 11.7714C23.9127 11.7248 23.9562 11.6884 24.0075 11.667C24.0587 11.6456 24.1152 11.6401 24.1696 11.6513C24.224 11.6625 24.2738 11.6899 24.3123 11.7299Z" fill="#2D2C2C"/>
<path d="M23.991 16.0771H23.9176C23.8387 16.0761 23.761 16.0571 23.6906 16.0214C23.6202 15.9857 23.5589 15.9343 23.5115 15.8713L21.3304 12.7196V15.7001C21.3304 15.8061 21.2917 15.8971 21.2163 15.9698C21.1437 16.0386 21.0474 16.0769 20.9474 16.0767C20.8473 16.0764 20.7512 16.0376 20.679 15.9684C20.6435 15.9334 20.6155 15.8916 20.5967 15.8455C20.5779 15.7994 20.5687 15.7499 20.5696 15.7001V12.0505C20.5696 11.9133 20.6186 11.7938 20.715 11.6953C20.7604 11.6472 20.8153 11.6091 20.8763 11.5834C20.9372 11.5577 21.0028 11.5449 21.0689 11.5458H21.1484C21.3114 11.5458 21.452 11.6205 21.5661 11.7679L23.7363 14.9033V11.9282C23.7363 11.8236 23.773 11.734 23.845 11.6586C23.9168 11.5878 24.0135 11.548 24.1143 11.5477C24.2152 11.5475 24.3121 11.5868 24.3843 11.6572C24.459 11.7319 24.4964 11.823 24.4964 11.9289V15.5785C24.4971 15.6447 24.484 15.7103 24.4581 15.7713C24.4321 15.8322 24.3938 15.887 24.3456 15.9324C24.2992 15.9791 24.2439 16.0159 24.183 16.0408C24.1221 16.0656 24.0568 16.078 23.991 16.0771ZM21.1259 12.0668L23.6772 15.7524C23.7055 15.7894 23.7419 15.8195 23.7835 15.8403C23.8252 15.8611 23.8711 15.8722 23.9176 15.8726H23.991C24.0304 15.8735 24.0695 15.8663 24.1059 15.8515C24.1424 15.8367 24.1754 15.8145 24.2029 15.7864C24.2316 15.76 24.2544 15.7278 24.2697 15.692C24.285 15.6561 24.2926 15.6175 24.2919 15.5785V11.9289C24.2926 11.9053 24.2883 11.8817 24.2793 11.8598C24.2703 11.838 24.2568 11.8182 24.2396 11.8019C24.2237 11.7852 24.2045 11.7718 24.1833 11.7626C24.1621 11.7534 24.1392 11.7485 24.1161 11.7484C24.0929 11.7482 24.07 11.7526 24.0486 11.7615C24.0273 11.7703 24.0079 11.7834 23.9917 11.7999C23.9749 11.8168 23.9617 11.8369 23.9529 11.8591C23.9441 11.8813 23.94 11.9051 23.9407 11.9289V15.5561L21.401 11.8882C21.3297 11.7958 21.2462 11.7496 21.1484 11.7496H21.0689C21.0299 11.7485 20.9911 11.7558 20.9552 11.7709C20.9192 11.786 20.8869 11.8086 20.8604 11.8372C20.8324 11.8652 20.8103 11.8984 20.7955 11.9351C20.7807 11.9717 20.7734 12.011 20.7741 12.0505V15.7001C20.7741 15.751 20.789 15.7898 20.823 15.8244C20.8909 15.891 21.0037 15.8916 21.0743 15.8224C21.0914 15.807 21.1048 15.7881 21.1138 15.767C21.1227 15.7458 21.1268 15.723 21.1259 15.7001V12.0668Z" fill="#2D2C2C"/>
<path d="M28.5915 11.8977C28.9107 12.0851 29.1593 12.3453 29.3373 12.6774C29.5139 13.0103 29.6069 13.3879 29.6158 13.8118C29.6069 14.2356 29.5139 14.6133 29.3373 14.9454C29.1593 15.2783 28.9114 15.5377 28.5915 15.7252C28.2709 15.9127 27.8973 16.0064 27.4693 16.0064C27.0414 16.0064 26.6665 15.9127 26.3445 15.7252C26.0269 15.5426 25.7682 15.273 25.5987 14.9482C25.4235 14.6187 25.3318 14.2397 25.3236 13.8111C25.3318 13.3832 25.4235 13.0042 25.5987 12.674C25.7683 12.3495 26.027 12.0801 26.3445 11.8977C26.6665 11.7109 27.0414 11.6165 27.4693 11.6165C27.8973 11.6165 28.2709 11.7109 28.5915 11.8977ZM28.3198 15.2667C28.5567 15.1237 28.7476 14.9158 28.8699 14.6676C28.9989 14.401 29.0636 14.1079 29.0588 13.8118C29.0634 13.5156 28.9985 13.2225 28.8693 12.9559C28.747 12.7075 28.5561 12.4993 28.3191 12.3562C28.0786 12.2094 27.7954 12.1368 27.47 12.1368C27.1392 12.1368 26.8553 12.2094 26.6169 12.3562C26.3778 12.5035 26.1958 12.7026 26.0694 12.9552C25.9431 13.2079 25.8799 13.4939 25.8799 13.8111C25.8799 14.129 25.9431 14.4143 26.0701 14.6669C26.1971 14.9196 26.3778 15.1193 26.6169 15.266C26.8546 15.4128 27.1392 15.4861 27.4693 15.4861C27.7954 15.4861 28.0786 15.4128 28.3191 15.266L28.3198 15.2667Z" fill="#2D2C2C"/>
<path d="M27.4694 16.1083C27.0251 16.1083 26.6298 16.0085 26.2936 15.8129C25.96 15.6201 25.6877 15.3368 25.5084 14.9957C25.327 14.6541 25.2299 14.256 25.2211 13.8132C25.2299 13.3662 25.327 12.9682 25.5084 12.6265C25.6918 12.2808 25.9567 12.0057 26.2936 11.8094C26.6298 11.6144 27.0258 11.5146 27.4694 11.5146C27.9129 11.5146 28.3076 11.6144 28.6424 11.8094C28.9773 12.0057 29.2408 12.2815 29.427 12.6299C29.6104 12.9743 29.7082 13.3703 29.7177 13.8091C29.7082 14.2526 29.6104 14.6486 29.4276 14.993C29.2476 15.334 28.9759 15.618 28.6431 15.8129C28.3082 16.0085 27.9136 16.1083 27.4694 16.1083ZM27.4694 11.719C27.0618 11.719 26.7005 11.8087 26.3955 11.986C26.0919 12.1626 25.8541 12.4105 25.6891 12.7223C25.522 13.0354 25.433 13.4029 25.4255 13.8132C25.4323 14.22 25.522 14.5868 25.6891 14.8999C25.8541 15.2124 26.0919 15.4603 26.3955 15.6369C26.7011 15.8142 27.0611 15.9039 27.4694 15.9039C27.8769 15.9039 28.2369 15.8142 28.5392 15.6369C28.8414 15.4603 29.0792 15.2117 29.2476 14.8979C29.4154 14.5821 29.5057 14.2159 29.5125 13.8091C29.5112 13.4319 29.4205 13.0603 29.2476 12.725C29.0856 12.4172 28.8404 12.1612 28.5399 11.986C28.2369 11.8087 27.8769 11.719 27.4694 11.719ZM27.4694 15.588C27.1209 15.588 26.8166 15.5092 26.5633 15.3537C26.312 15.1995 26.1095 14.9775 25.9791 14.7132C25.8453 14.4482 25.7781 14.1439 25.7781 13.8111C25.7781 13.4783 25.846 13.1753 25.9791 12.9098C26.1092 12.6452 26.3121 12.4232 26.5639 12.2699C26.8173 12.1137 27.1216 12.0342 27.4694 12.0342C27.8124 12.0342 28.116 12.1137 28.3728 12.2699C28.6295 12.4261 28.8258 12.6408 28.9603 12.9098C29.0934 13.1774 29.1607 13.4803 29.1607 13.8111C29.1607 14.1419 29.0928 14.4462 28.961 14.7125C28.8265 14.9808 28.6288 15.1961 28.3721 15.3537C28.1167 15.5099 27.8131 15.588 27.4694 15.588ZM27.4694 12.2387C27.1603 12.2387 26.892 12.3073 26.6706 12.4431C26.4491 12.579 26.278 12.7664 26.1611 13.0015C26.0416 13.2378 25.9825 13.5109 25.9825 13.8111C25.9825 14.112 26.0416 14.3851 26.1605 14.6215C26.2787 14.8592 26.4457 15.0412 26.6706 15.1798C26.8907 15.3156 27.1596 15.3836 27.4694 15.3836C27.775 15.3836 28.0433 15.3156 28.2661 15.1798C28.4889 15.0426 28.6621 14.8551 28.779 14.6215C28.8971 14.3837 28.9562 14.1113 28.9562 13.8111C28.9562 13.5122 28.8971 13.2392 28.7783 13.0008C28.6641 12.7701 28.4864 12.5769 28.2661 12.4438C28.042 12.3079 27.7744 12.2387 27.4694 12.2387Z" fill="#2D2C2C"/>
<path d="M26.8798 22.2473V29.5628C26.8798 29.9703 26.6502 30.3269 26.314 30.5001C26.1659 30.5817 25.9981 30.6224 25.8249 30.6224C25.5294 30.6224 25.2645 30.5049 25.0764 30.3113C24.977 30.2138 24.8982 30.0973 24.8447 29.9687C24.7913 29.8401 24.7643 29.702 24.7653 29.5628V22.2473H26.8798Z" fill="#B75F25"/>
<path d="M26.8798 22.2473V29.5628C26.8798 29.9703 26.6502 30.3269 26.3139 30.5001V23.7349C26.3139 23.3321 25.9879 23.006 25.5858 23.006H24.7653V22.2473H26.8798Z" fill="#994F1D"/>
<path d="M11.2293 22.2473V29.5628C11.2293 29.8583 11.1125 30.1232 10.9189 30.3113C10.822 30.4103 10.7063 30.4889 10.5785 30.5423C10.4508 30.5957 10.3136 30.623 10.1751 30.6224C9.99647 30.6224 9.82869 30.5817 9.68605 30.5049C9.5151 30.414 9.37212 30.2783 9.27244 30.1123C9.17276 29.9464 9.12015 29.7564 9.12024 29.5628V22.2473H11.2293Z" fill="#B75F25"/>
<path d="M11.2347 22.2473V23.006H10.4142C10.0121 23.006 9.68605 23.3321 9.68605 23.7349V30.5049C9.5151 30.414 9.37212 30.2783 9.27244 30.1123C9.17276 29.9464 9.12015 29.7564 9.12024 29.5628V22.2473H11.2347Z" fill="#994F1D"/>
<path opacity="0.3" d="M10.5819 28.3673C10.5309 28.3673 10.4819 28.3471 10.4458 28.3111C10.4096 28.275 10.3892 28.2261 10.389 28.1751V26.2752C10.392 26.2262 10.4135 26.18 10.4493 26.1463C10.4851 26.1126 10.5324 26.0938 10.5816 26.0938C10.6308 26.0938 10.6781 26.1126 10.7139 26.1463C10.7497 26.18 10.7713 26.2262 10.7742 26.2752V28.1751C10.774 28.226 10.7537 28.2748 10.7177 28.3108C10.6817 28.3468 10.6329 28.3671 10.5819 28.3673ZM10.5819 25.7223C10.5308 25.7223 10.4817 25.702 10.4455 25.6658C10.4094 25.6297 10.389 25.5806 10.389 25.5294V25.291C10.392 25.2419 10.4135 25.1958 10.4493 25.1621C10.4851 25.1283 10.5324 25.1096 10.5816 25.1096C10.6308 25.1096 10.6781 25.1283 10.7139 25.1621C10.7497 25.1958 10.7713 25.2419 10.7742 25.291V25.5294C10.7742 25.5805 10.7539 25.6294 10.7179 25.6656C10.6819 25.7018 10.633 25.7222 10.5819 25.7223ZM25.3141 28.3673C25.2632 28.3671 25.2144 28.3468 25.1784 28.3108C25.1424 28.2748 25.122 28.226 25.1219 28.1751V26.2752C25.1248 26.2262 25.1463 26.18 25.1821 26.1463C25.2179 26.1126 25.2653 26.0938 25.3144 26.0938C25.3636 26.0938 25.4109 26.1126 25.4467 26.1463C25.4825 26.18 25.5041 26.2262 25.507 26.2752V28.1751C25.5068 28.2261 25.4864 28.275 25.4503 28.3111C25.4141 28.3471 25.3651 28.3673 25.3141 28.3673ZM25.3141 25.7223C25.2631 25.7222 25.2142 25.7018 25.1781 25.6656C25.1421 25.6294 25.1219 25.5805 25.1219 25.5294V25.291C25.1248 25.2419 25.1463 25.1958 25.1821 25.1621C25.2179 25.1283 25.2653 25.1096 25.3144 25.1096C25.3636 25.1096 25.4109 25.1283 25.4467 25.1621C25.4825 25.1958 25.5041 25.2419 25.507 25.291V25.5294C25.507 25.5806 25.4867 25.6297 25.4505 25.6658C25.4143 25.702 25.3653 25.7223 25.3141 25.7223Z" fill="white"/>
</svg>
