<svg width="36" height="36" viewBox="0 0 36 36" fill="none" xmlns="http://www.w3.org/2000/svg">
<path d="M19 29C18.7 28.9 18.4 28.8 18.1 28.6C18 28.5 17.8 28.6 17.8 28.7L16.3 31.7L5.80001 29.5C4.80001 29.3 4.20001 28.3 4.40001 27.4L7.30001 17.9L11.6 18.8C11.3 19.1 11.1 19.5 11 19.9C10.7 21.2 11.7 22.6 13.2 22.6C13.9 22.6 14.5 22.3 14.9 21.8C15.4 21.1 15.5 20.3 15.2 19.6L19.5 20.5L18.7 24.5C18.7 24.6 18.8 24.8 18.9 24.8C19.5 24.7 20.2 24.8 20.7 25.2C21.2 25.6 21.6 26.3 21.5 26.9C21.7 28.3 20.4 29.3 19 29Z" fill="#497BFE"/>
<path d="M2.80005 25.8L4.70005 28.7L9.20005 27.1L6.10005 25.4L2.80005 25.8Z" fill="#497BFE"/>
<path d="M13.9 31.2L10.9 30.6L6.20005 23.3L5.80005 22.7L6.40005 22.3L7.60005 21.5L13.9 31.2Z" fill="#5094FF"/>
<path d="M9.29995 30.2L7.29995 29.8L5.19995 26.5L5.59995 24.5L9.29995 30.2Z" fill="#5094FF"/>
<path d="M33.4 11.6L31.2 22.1L27.5 22.2C27.8 21.9 28 21.5 28.1 21.1C28.4 19.8 27.4 18.4 25.9 18.4C25.2 18.4 24.6 18.7 24.2 19.2C23.7 19.9 23.6 20.7 23.9 21.4L19.6 20.5L20.4 16.5C20.4 16.4 20.3 16.2 20.2 16.2C19.6 16.3 18.9 16.2 18.4 15.8C17.9 15.4 17.5 14.7 17.5 14.1C17.5 12.6 18.8 11.6 20.2 11.9C20.5 12 20.8 12.1 21.1 12.3C21.2 12.4 21.4 12.3 21.4 12.2L21.6 7.20001L32.1 9.40001C33 9.60001 33.7 10.6 33.4 11.6Z" fill="#DD8536"/>
<path d="M31.4 7.40002L33.3 10.3C33.3 10.3 29.9 14.7 29.5 14.2C29.1 13.6 26.9 10.3 26.9 10.3L31.4 7.40002Z" fill="#DD8536"/>
<path d="M32.1 17.8L31.6 20L26.5 12.1L27.8 11.2L32.1 17.8Z" fill="#F3A250"/>
<path d="M33.2 12.9L32.4 16.2L26.9 7.70002L28.9 6.40002L33.2 12.9Z" fill="#F3A250"/>
<path d="M28.2 33.7C27.8 34 27.3 34.1 26.9 33.9L16.4 31.7L14.5 28.8L18 28.1L17.9 28.4C18.2 28.7 18.5 28.9 18.9 29H19C19.6 29.1 20.2 29 20.7 28.6C21.1 28.3 21.4 27.9 21.6 27.4C21.6 27.2 21.7 27 21.7 26.8C21.7 26.1 21.4 25.5 20.8 25.1C20.5 24.9 20.1 24.7 19.8 24.7C19.6 24.7 19.3 24.7 19.1 24.7C19 24.7 18.8 24.8 18.7 24.8L19.6 20.5L28.2 33.7Z" fill="#CC104A"/>
<path d="M25.7 33.7L23.7 33.3L20.7 28.7C21.1 28.4 21.4 28 21.6 27.5L25.7 33.7ZM21.4 32.8L18.6 32.2L15.2 26.9L18 28.4C18.3 28.7 18.6 28.9 19 29L21.4 32.8ZM29.8 28.7L29 32.6C28.9 33.1 28.6 33.5 28.2 33.7L19.6 20.5L23.6 21.3C23.7 21.3 23.9 21.2 23.9 21.1C23.8 20.5 23.9 19.8 24.3 19.3C24.6 18.9 25.1 18.6 25.6 18.5C25.8 18.5 25.9 18.4 26.1 18.5C26.4 18.5 26.8 18.6 27 18.7C27.8 19.1 28.3 19.8 28.3 20.7C28.3 20.9 28.3 21 28.3 21.2C28.2 21.5 28.1 21.8 27.9 22.1C27.8 22.2 27.9 22.3 27.9 22.3L29.5 19.3L31.4 22.2L30.4 26.8L29.8 28.7Z" fill="#DF3260"/>
<path d="M30.7 24.4L30.2 26.7L25.1 18.7L26.4 17.8L26.9 18.6L29.5 22.6L30.7 24.4Z" fill="#CC104A"/>
<path d="M29.8 28.7L29.1 32L23.6 23.4L25.6 22.1L29.8 28.7Z" fill="#CC104A"/>
<path d="M28.9 21L27.1 29.7C26.9 30.7 25.9 31.3 25 31.1L14.5 28.9L15.4 24.6C15.7 24.9 16.1 25.1 16.5 25.2C17.9 25.5 19.2 24.5 19.2 23C19.2 22.3 18.9 21.7 18.3 21.3C17.6 20.8 16.8 20.7 16.1 21L16.6 18.5L28.9 21Z" fill="#FA5F7F"/>
<path d="M12.4 17.8C12.9 17.1 13 16.3 12.7 15.6L17 16.5L16.2 20.5C16.2 20.6 16.3 20.8 16.4 20.8C17 20.7 17.7 20.8 18.2 21.2C18.7 21.6 19.1 22.3 19.1 22.9C19.1 24.4 17.8 25.4 16.4 25.1C16.1 25 15.8 24.9 15.5 24.7C15.4 24.6 15.2 24.7 15.2 24.8L14.4 28.8L3.89999 26.6C2.89999 26.4 2.29999 25.4 2.49999 24.5L4.69999 14L8.99999 14.9C8.69999 15.2 8.49999 15.6 8.39999 16C7.99999 18.3 11 19.6 12.4 17.8Z" fill="#95DBF9"/>
<path d="M4.10001 26C3.50001 25.9 3.10001 25.2 3.20001 24.6L5.30001 14.7L8.10001 15.3C8.00001 15.5 8.00001 15.7 7.90001 15.9C7.60001 17.4 8.60001 18.9 10.1 19.3C11.2 19.5 12.3 19.1 12.9 18.3C13.3 17.8 13.5 17.2 13.5 16.6L16.3 17.2L15.6 20.6C15.5 21.1 15.8 21.5 16.2 21.6H16.3C16.5 21.6 17.1 21.3 17.8 21.9C19.1 22.9 18.1 25.1 16.5 24.7C16.1 24.6 15.9 24.4 15.8 24.3L15.6 24.2C15.2 24.1 14.7 24.4 14.6 24.8L14 28.1L4.10001 26Z" fill="#57B3FE"/>
<path d="M17.9 21.7C14.9 23.2 11.5 23.7 8.20004 23C6.60004 22.7 5.10004 22.1 3.80005 21.3L3.10005 24.6C3.00005 25.2 3.40005 25.8 4.10004 26L14 28.1L14.7 24.7C14.8 24.2 15.2 24 15.7 24.1L15.9 24.2L16 24.3C16.2 24.4 16.4 24.5 16.6 24.6C17.1 24.7 17.6 24.6 17.9 24.3C18.3 24 18.5 23.5 18.5 23C18.5 22.4 18.3 22 17.9 21.7Z" fill="#5094FF"/>
<path d="M15 10.2C15 11.7 16.6 12.8 18 12.2L17.1 16.5L13.1 15.7C13 15.7 12.8 15.8 12.8 15.9C12.9 16.5 12.8 17.2 12.4 17.7C11 19.6 8.00005 18.3 8.50005 16C8.60005 15.7 8.70005 15.4 8.90005 15.1C9.00005 15 8.90005 14.8 8.80005 14.8L4.80005 14L7.00005 3.39999C7.20005 2.39999 8.20005 1.79999 9.10005 1.99999L19.6 4.19999L18.7 8.49999C18.4 8.19999 18 7.99999 17.6 7.89999C16.3 7.69999 15 8.69999 15 10.2Z" fill="#88CE67"/>
<path d="M10.3 18C9.4 17.8 8.9 17 9.1 16.1C9.1 15.9 9.2 15.7 9.4 15.5C9.6 15.3 9.6 15 9.5 14.7C9.4 14.4 9.2 14.2 8.9 14.2L5.5 13.5L7.6 3.60001C7.7 3.00001 8.4 2.60001 9 2.70001L18.9 4.80001L18.3 7.60001C18.1 7.50001 17.9 7.50001 17.7 7.40001C16.9 7.20001 16 7.40001 15.3 8.00001C14.6 8.50001 14.2 9.40001 14.2 10.2C14.2 11.6 15.2 12.7 16.4 13C16.6 13 16.8 13.1 17 13.1L16.4 15.9L13 15.2C12.7 15.1 12.4 15.2 12.2 15.4C12 15.6 11.9 15.9 12 16.2C12.1 16.5 12.1 17 11.7 17.5C11.6 17.9 11 18.1 10.3 18Z" fill="#6EB954"/>
<path d="M23.4 14.4C22.7 14.4 22.1 14.7 21.7 15.3C21.2 16 21.1 16.8 21.4 17.5L17.1 16.6L17.9 12.6C17.9 12.5 17.8 12.3 17.7 12.3C16.4 12.6 15 11.6 15 10.2C15 8.69999 16.3 7.69999 17.7 7.99999C18 8.09999 18.3 8.19999 18.6 8.39999C18.7 8.49999 18.9 8.39999 18.9 8.29999L19.7 4.29999L30.2 6.49999C31.2 6.69999 31.8 7.69999 31.6 8.59999L29.4 19.1L25 18.2C25.3 17.9 25.5 17.5 25.6 17.1C25.9 15.8 24.9 14.4 23.4 14.4Z" fill="#FFD475"/>
<path d="M26 17.8C26.1 17.6 26.1 17.4 26.2 17.2C26.5 15.7 25.5 14.2 24 13.8C22.1 13.4 20.6 14.9 20.6 16.6L17.8 16L18.5 12.6C18.6 12.1 18.3 11.7 17.9 11.6H17.8C17.5 11.6 17.3 11.7 16.9 11.6C16.2 11.4 15.6 10.8 15.6 10.1C15.6 9 16.6 8.3 17.5 8.5C17.9 8.6 18.1 8.8 18.2 8.9L18.4 9C18.8 9.1 19.3 8.8 19.4 8.4L20.2 5L30 7.1C30.6 7.2 31 7.9 30.9 8.5L28.8 18.4L26 17.8Z" fill="#FFB961"/>
<path d="M30 7.09998L25.5 6.09998C25.8 7.89998 25.9 9.79998 25.6 11.7C25.5 12.6 25.2 13.4 24.9 14.2C25.9 14.8 26.5 16 26.2 17.2C26.2 17.4 26.1 17.6 26 17.8L28.8 18.4L31 8.49998C31.1 7.89998 30.7 7.19998 30 7.09998Z" fill="#F3A250"/>
<path d="M29.3 19.1L28.9 21L16.6 18.4L17 16.6L21 17.4C21.1 17.4 21.3 17.3 21.3 17.2C21.2 16.6 21.3 15.9 21.7 15.4C22.1 14.9 22.8 14.5 23.4 14.5C24.9 14.5 25.9 15.8 25.6 17.2C25.5 17.5 25.4 17.8 25.2 18.1C25.1 18.2 25.2 18.4 25.3 18.4L29.3 19.1Z" fill="#FA5F7F"/>
<path d="M28.6 19.6L26.5 29.5C26.4 30.1 25.7 30.5 25.1 30.4L15.2 28.3L15.8 25.5C17.6 26.3 19.8 25 19.8 22.9C19.8 21.5 18.8 20.4 17.5 20.1C17.3 20.1 17.1 20 16.9 20L17.5 17.2L20.9 17.9C21.5 18 22 17.5 21.9 16.9C21.7 15.8 22.6 14.7 23.8 15C24.9 15.2 25.4 16.5 24.7 17.5C24.3 17.9 24.6 18.7 25.2 18.8L28.6 19.6Z" fill="#F45170"/>
<path d="M25.2 18.9C24.9 18.8 24.7 18.6 24.6 18.4C24.5 18.1 24.6 17.8 24.7 17.7C24.8 17.5 24.9 17.3 25 17.1C25.1 16.5 24.9 15.8 24.4 15.5C23.2 17.8 21.3 19.8 19.1 21.2C19.6 21.7 19.9 22.4 19.9 23.1C19.9 24 19.5 24.8 18.8 25.3C18.1 25.8 17.3 26 16.4 25.9C16.2 25.9 16 25.8 15.8 25.7L15.2 28.5L25.1 30.6C25.7 30.7 26.4 30.3 26.5 29.7L28.6 19.8L25.2 18.9Z" fill="#E93565"/>
<g opacity="0.7">
<path d="M20.7 28.7C22 28.8 23.4 29 24.7 29.2C25.4 29.2 25.6 28.6 25.7 28.1C25.9 27.4 26.1 26.8 26.4 26.2C26.4 26.1 26.6 26.1 26.6 26.2C26.5 27 26.3 27.9 26.1 28.7C25.9 29.6 24.9 30 24.1 29.7C22.9 29.5 21.8 29.2 20.6 28.9C20.5 29 20.6 28.7 20.7 28.7Z" fill="white"/>
</g>
<path opacity="0.7" d="M29.5 13C29.1 15.1 28.6 16.8 28.4 16.8C28.3 16.8 28.5 15 29 12.9C29.4 10.8 29.9 9.09998 30.1 9.09998C30.2 9.19998 30 10.9 29.5 13Z" fill="white"/>
<path opacity="0.6" d="M10.4 6.49999C9.29999 6.99999 8.39999 7.19999 7.99999 6.39999C7.59999 5.59999 7.99999 4.29999 9.09999 3.79999C10.2 3.29999 11.5 3.69999 11.8 4.49999C12.2 5.29999 11.4 5.99999 10.4 6.49999Z" fill="white"/>
<path d="M23.5 22.7C23.4 22.6 23.3 22.7 23.3 22.8C23.3 23.3 23.3 23.7 23.2 23.7C23.2 23.7 23.1 23.3 23.1 22.8C23.1 22.7 23 22.7 22.9 22.7C22.2 23.4 21.5 24 21.5 24C21.5 24 22 23.3 22.7 22.5C22.8 22.4 22.7 22.3 22.6 22.3C22.1 22.3 21.7 22.3 21.7 22.2C21.7 22.2 22.1 22.1 22.6 22.1C22.7 22.1 22.7 22 22.7 21.9C22 21.2 21.4 20.5 21.4 20.5C21.4 20.5 22.1 21 22.9 21.7C23 21.8 23.1 21.7 23.1 21.6C23.1 21.1 23.1 20.7 23.2 20.7C23.2 20.7 23.3 21.1 23.3 21.6C23.3 21.7 23.4 21.7 23.5 21.7C24.2 21 24.9 20.4 24.9 20.4C24.9 20.4 24.4 21.1 23.7 21.9C23.6 22 23.7 22.1 23.8 22.1C24.3 22.1 24.7 22.1 24.7 22.2C24.7 22.2 24.3 22.3 23.8 22.3C23.7 22.3 23.7 22.4 23.7 22.5C24.4 23.2 25 23.9 25 23.9C25 24 24.3 23.4 23.5 22.7Z" fill="white"/>
</svg>
