<svg width="36" height="36" viewBox="0 0 36 36" fill="none" xmlns="http://www.w3.org/2000/svg">
<path d="M33.4 33.4C32.6 34.2 31.2 34.2 30.5 33.4L28.4 31.3L31.3 28.4L31.8 28.9L33.4 30.5C34.2 31.3 34.2 32.6 33.4 33.4Z" fill="#FFD475"/>
<path d="M33.3 30.3C32.6 31.5 31.6 32.6 30.4 33.2L29 31.8C30.2 31.1 31.3 30.1 31.9 28.9L33.3 30.3Z" fill="#F3A250"/>
<path d="M25.1 30.7L23.1 28.7C16.3 21.9 6.40002 21.9 6.40002 21.9L21.9 6.40002C21.9 6.40002 22.4 16.8 28.7 23.1L30.7 25.1C33.9 28.2 28.2 33.9 25.1 30.7Z" fill="#8FABFE"/>
<path opacity="0.5" d="M31.6 27.8C31.2 30.5 27.4 33.1 25.1 30.8L23.1 28.8C16.3 22 6.40002 22 6.40002 22L8.80002 19.6C11.5 19.8 19 21 24.4 26.4L26.4 28.4C28 29.9 30.2 29.2 31.6 27.8Z" fill="#748BFD"/>
<path opacity="0.5" d="M21.2999 7.90002C21.2999 7.90002 21.8 18.3 28.1 24.6L30.7999 27.3C32.4 28.9 31.7 31.2 30.2 32.6C30.1 32.6 30 32.7 29.9 32.7C30.7999 31.3 31 29.6 29.7 28.3L27 25.6C20.7 19.3 20.2 8.90002 20.2 8.90002L21.2999 7.90002Z" fill="white"/>
<path d="M16.3999 16.4C11.4999 21.3 5.49994 23.3 2.99994 20.8C0.599941 18.4 2.59994 12.4 7.49994 7.5C12.3999 2.6 18.3999 0.600002 20.7999 3C23.2999 5.5 21.2999 11.5 16.3999 16.4Z" fill="#748BFD"/>
<path d="M4.10003 19.8C2.40003 18.1 3.80003 13.1 8.50003 8.39998C13.1 3.79998 18.2 2.39998 19.9 4.09998C21.6 5.79998 20.2 10.8 15.6 15.5C10.8 20.1 5.70003 21.5 4.10003 19.8Z" fill="#5564D7"/>
<path d="M11.9 11.9C8.90003 14.9 7.30003 18 7.00003 20.4C5.70003 20.6 4.70003 20.4 4.10003 19.8C2.40003 18.1 3.80003 13.1 8.50003 8.4C13.2 3.7 18.2 2.4 19.9 4.1C20.5 4.7 20.7 5.7 20.5 7C18.1 7.3 14.9 9 11.9 11.9Z" fill="#656FEA"/>
<path d="M28.7 23.1L32.1 26.5C35.3 29.7 29.6 35.3 26.4 32.2L23 28.8C26.2 31.9 31.9 26.2 28.7 23.1Z" fill="#4C5C75"/>
<path d="M26.5 32.1L25.5 31.1C28.6 34.2 34.3 28.6 31.2 25.4L32.2 26.4C35.3 29.6 29.6 35.2 26.5 32.1Z" fill="#31445B"/>
<path d="M18.8 20.1C18.9 20.2 19 20.3 19.1 20.1C19.5 19.4 19.8 18.9 19.9 18.9C19.9 18.9 19.7 19.5 19.3 20.2C19.2 20.3 19.4 20.5 19.5 20.5C21 20.1 22.4 19.8 22.4 19.9C22.4 20 21.1 20.5 19.6 21C19.5 21 19.4 21.2 19.6 21.3C20.3 21.7 20.8 22 20.8 22.1C20.8 22.1 20.2 21.9 19.5 21.5C19.4 21.4 19.2 21.6 19.2 21.7C19.6 23.2 20 24.6 19.9 24.6C19.8 24.6 19.3 23.3 18.8 21.8C18.7 21.7 18.6 21.6 18.5 21.8C18.1 22.5 17.8 23 17.7 23C17.7 23 17.9 22.4 18.3 21.7C18.4 21.6 18.2 21.4 18.1 21.4C16.6 21.8 15.2 22.1 15.2 22C15.2 21.9 16.5 21.4 18 20.9C18.1 20.9 18.2 20.7 18 20.6C17.3 20.2 16.8 19.9 16.8 19.8C16.8 19.8 17.4 20 18.1 20.4C18.2 20.5 18.4 20.3 18.4 20.2C18 18.7 17.6 17.3 17.7 17.3C17.8 17.3 18.3 18.7 18.8 20.1Z" fill="white"/>
</svg>
