<svg width="55" height="55" viewBox="0 0 55 55" fill="none" xmlns="http://www.w3.org/2000/svg">
<path d="M51.3332 33.1528C48.2777 46.2917 35.1388 54.3889 21.9999 51.3333C8.861 48.2778 0.611001 35.1389 3.66656 22C6.72211 8.86111 19.861 0.611108 33.1527 3.66666C46.1388 6.72222 54.3888 19.8611 51.3332 33.1528Z" fill="#FA5C5B"/>
<path opacity="0.1" d="M51.3333 33.1528C48.2777 46.2917 35.1388 54.3889 21.9999 51.3333C15.7361 49.8055 10.6944 46.1389 7.33328 41.25C21.6944 52.8611 43.2361 45.2222 47.5138 27.3472C48.8888 21.8472 48.1249 16.1944 45.9861 11.3056C50.8749 17.1111 53.1666 25.0556 51.3333 33.1528Z" fill="#321C1C"/>
<path opacity="0.45" d="M12.2222 14.6667C13.1389 16.1944 15.5833 13.75 18.9445 11.6111C22.3056 9.47223 25.5139 8.55556 24.4445 7.02778C23.375 5.5 20.0139 5.95834 16.6528 8.09723C13.1389 10.2361 11.3056 13.1389 12.2222 14.6667Z" fill="white"/>
<path opacity="0.45" d="M29.1497 7.72604C29.9354 7.2319 30.1717 6.19441 29.6776 5.40874C29.1834 4.62306 28.1459 4.38672 27.3603 4.88086C26.5746 5.37499 26.3383 6.41248 26.8324 7.19816C27.3265 7.98383 28.364 8.22017 29.1497 7.72604Z" fill="white"/>
<path opacity="0.2" d="M41.7083 30.8611C39.8749 38.6528 31.9305 43.6944 24.1388 41.7083C16.1944 39.875 11.3055 31.9306 13.1388 24.1389C14.9722 16.3472 22.9166 11.3056 30.7083 13.2917C38.6527 15.125 43.5416 22.9167 41.7083 30.8611Z" fill="#321C1C"/>
<path d="M39.8749 30.4028C38.1944 37.2778 31.3194 41.5556 24.5972 39.875C17.7222 38.1944 13.4444 31.3194 15.1249 24.4444C16.8055 17.5694 23.6805 13.2917 30.5555 14.9722C37.2777 16.6528 41.5555 23.5278 39.8749 30.4028Z" fill="#F3F1FC"/>
<path d="M39.875 30.4028C37.4305 41.0972 23.5278 43.6944 17.1111 34.9861C24.4444 40.3333 34.9861 36.5139 37.125 27.6528C38.0416 23.8333 37.125 20.0139 34.9861 17.1111C39.1111 20.0139 41.0972 25.2083 39.875 30.4028Z" fill="#E6E6E6"/>
<path d="M19.0971 21.5417C19.7083 22.6111 21.236 21.0833 23.5277 19.8611C25.8194 18.6389 27.9583 18.1806 27.3471 17.1111C26.736 16.0417 24.4444 16.0417 22.1527 17.2639C19.861 18.6389 18.486 20.4722 19.0971 21.5417ZM39.2638 12.2222C41.5555 13.4444 41.5555 13.5972 39.111 12.5278C38.9583 12.375 38.6527 12.6806 38.8055 12.8333C40.486 17.875 40.3333 18.1806 38.1944 12.9861C38.0416 12.8333 37.8888 12.8333 37.736 12.9861C37.2777 13.9028 36.8194 14.6667 36.8194 14.6667C36.8194 14.6667 37.1249 13.75 37.4305 12.8333C37.5833 12.6806 37.2777 12.375 37.1249 12.5278C35.1388 13.1389 33.3055 13.75 33.1527 13.5972C33.1527 13.4444 34.986 12.6806 36.8194 11.9167C36.9721 11.7639 36.9721 11.6111 36.8194 11.4583C34.3749 10.2361 34.6805 10.2361 36.9721 11.1528C37.1249 11.3056 37.4305 11 37.2777 10.8472C36.6666 8.86111 36.0555 7.02778 36.2083 6.875C36.361 6.875 37.1249 8.70833 37.8888 10.5417C38.0416 10.6944 38.1944 10.6944 38.3471 10.5417C39.5694 8.25 39.7221 8.09722 38.6527 10.6944C38.4999 10.8472 38.8055 11.1528 38.9583 11C43.9999 9.31944 44.3055 9.47222 39.111 11.6111C39.111 11.7639 39.111 12.0694 39.2638 12.2222Z" fill="white"/>
<g filter="url(#filter0_d_161_443)">
<path d="M30.6009 26.556C31.7169 27.186 32.4369 28.248 32.4369 29.526C32.4369 31.596 30.5289 33.216 27.9909 33.216C25.4709 33.216 23.5629 31.614 23.5629 29.526C23.5629 28.248 24.2649 27.186 25.3809 26.556C24.4269 25.926 23.8149 24.972 23.8149 23.82C23.8149 21.894 25.5969 20.364 27.9909 20.364C30.3849 20.364 32.1849 21.894 32.1849 23.82C32.1849 24.972 31.5729 25.944 30.6009 26.556ZM27.9909 22.758C27.0729 22.758 26.3709 23.334 26.3709 24.09C26.3709 24.846 27.0729 25.44 27.9909 25.44C28.9089 25.44 29.6289 24.846 29.6289 24.09C29.6289 23.334 28.9089 22.758 27.9909 22.758ZM27.9909 30.822C29.0709 30.822 29.8809 30.156 29.8809 29.274C29.8809 28.41 29.0709 27.726 27.9909 27.726C26.9289 27.726 26.1189 28.41 26.1189 29.274C26.1189 30.156 26.9289 30.822 27.9909 30.822Z" fill="#321C1C"/>
</g>
<defs>
<filter id="filter0_d_161_443" x="23.5629" y="20.364" width="9.87402" height="13.852" filterUnits="userSpaceOnUse" color-interpolation-filters="sRGB">
<feFlood flood-opacity="0" result="BackgroundImageFix"/>
<feColorMatrix in="SourceAlpha" type="matrix" values="0 0 0 0 0 0 0 0 0 0 0 0 0 0 0 0 0 0 127 0" result="hardAlpha"/>
<feOffset dx="1" dy="1"/>
<feComposite in2="hardAlpha" operator="out"/>
<feColorMatrix type="matrix" values="0 0 0 0 0.196078 0 0 0 0 0.109804 0 0 0 0 0.109804 0 0 0 0.2 0"/>
<feBlend mode="normal" in2="BackgroundImageFix" result="effect1_dropShadow_161_443"/>
<feBlend mode="normal" in="SourceGraphic" in2="effect1_dropShadow_161_443" result="shape"/>
</filter>
</defs>
</svg>
