<svg width="36" height="36" viewBox="0 0 36 36" fill="none" xmlns="http://www.w3.org/2000/svg">
<path d="M24.3 18.4H11.7L11.3 20.8H11V22.9C11 23.9 12.1 24.6 13.1 24.1L17.4 21.8C17.8 21.6 18.3 21.6 18.7 21.8L23 24.1C23.9 24.6 25 23.9 25.1 22.9V20.8H24.8L24.3 18.4Z" fill="#DD8536"/>
<path d="M11.8 18.4V24C12.2 24.2 12.6 24.2 13.1 24V18.4H11.8ZM16 18.4V22.5L17.3 21.8C17.5 21.7 17.8 21.6 18 21.6V18.4H16ZM23.4 18.4H22.2V23.7L22.9 24.1C23 24.2 23.2 24.2 23.3 24.2V18.4H23.4ZM26 9.90001V10.5L22.5 10C22 9.90001 21.6 9.60001 21.4 9.20001L19.3 4.90001C18.8 3.80001 17.3 3.80001 16.7 4.90001L14.6 9.20001C14.4 9.60001 14 9.90001 13.5 10L10 10.5V9.90001L7.5 10V12C7.5 12.4 7.6 12.8 7.9 13.1L11.4 16.5C11.7 16.8 11.9 17.3 11.8 17.8H24.2C24.1 17.3 24.3 16.9 24.6 16.5L28.1 13.1C28.4 12.8 28.5 12.4 28.5 12V10L26 9.90001Z" fill="#F3A250"/>
<path d="M21.4 26.2C20.6 26.4 19.4 26.5 18 26.5C16.6 26.5 15.5 26.4 14.6 26.2L14.7 25.4L15.1 21.8L17.4 20.6C17.8 20.4 18.3 20.4 18.7 20.6L21 21.8L21.4 25.4V26.2Z" fill="#AA6256"/>
<path d="M21 22.3L18.7 21.1C18.3 20.9 17.8 20.9 17.4 21.1L15 22.3V21.9L17.3 20.7C17.7 20.5 18.2 20.5 18.6 20.7L20.9 21.9L21 22.3Z" fill="#8A4852"/>
<path d="M24.2 15.7L25 20.5C25.2 21.7 24 22.6 22.9 22L18.6 19.7C18.2 19.5 17.7 19.5 17.3 19.7L13.1 22C12.1 22.6 10.8 21.7 11 20.5L11.8 15.7C11.9 15.2 11.7 14.8 11.4 14.4L7.89997 11C7.09997 10.2 7.49997 8.69997 8.69997 8.59997L13.5 7.89997C14 7.79997 14.4 7.49997 14.6 7.09997L16.7 2.79998C17.2 1.69998 18.7 1.69998 19.3 2.79998L21.4 7.09997C21.6 7.49997 22 7.79997 22.5 7.89997L27.3 8.59997C28.5 8.79997 28.9 10.2 28.1 11L24.6 14.4C24.3 14.8 24.1 15.2 24.2 15.7Z" fill="#FFD475"/>
<path d="M12.4 21.2C12.2 21.2 12.1 21.1 12 21C11.9 20.9 11.9 20.8 11.9 20.6L12.7 15.8C12.8 15 12.6 14.3 12 13.7L8.5 10.3C8.3 10.2 8.4 10 8.4 9.90003C8.4 9.80003 8.5 9.60003 8.8 9.50003L13.6 8.80003C14.4 8.70003 15 8.20003 15.4 7.50003L17.5 3.20002C17.6 2.90002 17.9 2.90002 18 2.90002C18.1 2.90002 18.3 2.90002 18.5 3.20002L20.6 7.50003C20.9 8.20003 21.6 8.70003 22.4 8.80003L27.2 9.50003C27.5 9.50003 27.6 9.80003 27.6 9.90003C27.6 10 27.7 10.2 27.5 10.4L24 13.8C23.5 14.3 23.2 15.1 23.3 15.9L24.1 20.7C24.1 20.9 24.1 21 24 21.1C23.9 21.2 23.7 21.3 23.6 21.3C23.5 21.3 23.4 21.3 23.4 21.2L19.1 18.9C18.8 18.7 18.4 18.6 18 18.6C17.6 18.6 17.2 18.7 16.9 18.9L12.6 21.2H12.4Z" fill="#FFB961"/>
<path d="M24.1 20.6C24.1 20.8 24.1 20.9 24 21L23.9 21.1L18 13L23.4 14.8C23.3 15.1 23.3 15.5 23.3 15.9L24.1 20.6Z" fill="#FFB961"/>
<path opacity="0.7" d="M27.4 10.4L24 13.8C23.7 14.1 23.5 14.4 23.4 14.8L18 13L27.6 9.90002C27.6 10 27.7 10.2 27.4 10.4Z" fill="#F3A250"/>
<path d="M27.6 9.90002L18 13L21.3 8.40002C21.6 8.60002 22 8.80003 22.3 8.80003L27.1 9.50003C27.4 9.50003 27.5 9.80002 27.6 9.90002Z" fill="#FFB961"/>
<path opacity="0.7" d="M21.3 8.40002L18 13V2.90002C18.1 2.90002 18.3 2.90002 18.5 3.20002L20.6 7.50002C20.8 7.90002 21 8.20002 21.3 8.40002Z" fill="#F3A250"/>
<path d="M18 2.90002V13L14.7 8.40002C15 8.20002 15.2 7.90002 15.4 7.60002L17.5 3.30002C17.7 2.90002 17.9 2.90002 18 2.90002Z" fill="#FFB961"/>
<path opacity="0.7" d="M18 13L8.40002 9.90002C8.40002 9.80002 8.50002 9.60002 8.80003 9.50002L13.6 8.80003C14 8.70003 14.3 8.60002 14.6 8.40002L18 13ZM18 13L12.1 21.2L12 21.1C11.9 21 11.8 20.9 11.9 20.7L12.7 15.9C12.8 15.5 12.7 15.2 12.6 14.8L18 13Z" fill="#F3A250"/>
<path d="M18 13L12.6 14.8C12.5 14.4 12.3 14.1 12 13.8L8.5 10.4C8.3 10.2 8.4 10 8.4 9.90002L18 13Z" fill="#FFB961"/>
<path opacity="0.7" d="M23.9 21.1C23.8 21.2 23.7 21.2 23.6 21.2C23.5 21.2 23.4 21.2 23.4 21.1L19.1 18.8C18.8 18.6 18.4 18.5 18 18.5V13L23.9 21.1Z" fill="#F3A250"/>
<path d="M18 13V18.7C17.6 18.7 17.2 18.8 16.9 19L12.6 21.3C12.5 21.3 12.4 21.4 12.4 21.4C12.3 21.4 12.2 21.4 12.1 21.3L18 13Z" fill="#FFB961"/>
<path d="M25.2001 30.5V32.7C25.2001 33.5 22 34.1 18 34.1C14.1 34.1 10.9 33.5 10.8 32.8V30.6H25.2001V30.5Z" fill="#8A4852"/>
<path d="M25.2001 30.5C25.2001 31.3 22 31.9 18 31.9C14 31.9 10.8 31.3 10.8 30.5C10.8 29.8 14 29.2 18 29.2C22 29.1 25.2001 29.7 25.2001 30.5Z" fill="#AA6256"/>
<path opacity="0.2" d="M13.8 31.6C14.8 31.7 15.9 31.8 17.1 31.8V34C15.9 34 14.8 33.9 13.8 33.8V31.6ZM20.4 31.7V33.9C19.9 33.9 19.4 34 18.9 34V31.8C19.4 31.8 19.9 31.8 20.4 31.7Z" fill="white"/>
<path d="M23.3 25.8C23.3 26.4 20.9 26.9 18 26.9C15.1 26.9 12.7 26.4 12.7 25.8C12.7 25.2 15.1 24.7 18 24.7C20.9 24.7 23.3 25.2 23.3 25.8Z" fill="#8A4852"/>
<path d="M23.9 30.2C23.9 30.4 23.8 30.6 23.6 30.6C21.8 31.1 18.7 31.2 17.4 31.1C14 31.1 12.7 30.6 12.3 30.6C12.1 30.6 12.1 30.4 12.1 30.3C12.1 30.2 12.8 25.5 12.7 25.8H23.2C23.3 25.9 23.9 30.5 23.9 30.2Z" fill="#8A4852"/>
<path opacity="0.7" d="M23.9 30.2C23.9 30.4 23.8 30.6 23.6 30.6C21.8 31.1 18.7 31.2 17.4 31.1C14.2 31.1 12.7 30.6 12.3 30.6C12.1 30.6 12.1 30.4 12.1 30.3L12.2 29.5C13.3 29.9 14.5 30.2 15.9 30.2C19.4 30.2 21.9 28.6 23.4 26.4L23.9 30.2Z" fill="#51383C"/>
<path d="M18.5 13.3C19.5 13.6 20.5 13.9 21.6 14.1C20.6 13.6 19.6 13.3 18.6 12.9C19.6 12.5 20.6 12.2 21.6 11.7C20.6 11.9 19.5 12.2 18.5 12.5C19.3 11.4 20.0999 10.3 20.7999 9.10002C19.8999 10.1 19.1 11.2 18.2 12.3C18.2 10.7 18.2 9.00002 18 7.40002C17.8 9.00002 17.7999 10.7 17.7999 12.3C17 11.2 16.2 10.2 15.3 9.20002C16 10.3 16.7 11.4 17.5 12.5C16.4 12.2 15.4 11.8 14.2 11.6C15.2 12.1 16.3 12.5 17.4 12.9C16.3 13.3 15.3 13.7 14.2 14.2C15.3 14 16.4 13.6 17.5 13.3C16.7 14.4 16 15.5 15.3 16.6C16.2 15.6 17 14.6 17.7999 13.5C17.7999 14.8 17.9 16.1 18 17.5C18.1 16.2 18.2 14.9 18.2 13.6C19 14.7 19.8 15.7 20.7 16.7C20 15.5 19.2 14.4 18.5 13.3Z" fill="#FFDE9B"/>
<path opacity="0.5" d="M14.3 26.6C13.8 27.1 13.5 27.6 13.3 27.4C13.1 27.2 13 26.4 13.5 25.9C14 25.4 14.8 25.4 15 25.6C15.2 25.8 14.8 26.1 14.3 26.6Z" fill="white"/>
</svg>
