<svg width="25" height="24" viewBox="0 0 25 24" fill="none" xmlns="http://www.w3.org/2000/svg">
<path d="M22.0333 16.2667C21.8333 18.6 19.9667 20.4 17.7 20.6667C14.1667 21.0667 10.7667 21.0667 7.23334 20.6667C4.96667 20.4 3.1 18.6 2.9 16.2667C2.63334 12.8667 2.63334 9.39999 2.96667 5.99999C3.16667 3.73332 4.96667 1.86665 7.3 1.59999C10.8333 1.19999 14.2333 1.19999 17.7667 1.59999C20.0333 1.86665 21.8333 3.73332 22.0333 5.99999C22.3667 9.39999 22.3667 12.8667 22.0333 16.2667Z" fill="#57B3FE"/>
<path d="M22.0335 18.0001C21.8335 20.3334 19.9668 22.1334 17.7001 22.4001C14.1668 22.8001 10.7668 22.8001 7.23346 22.4001C4.9668 22.1334 3.1668 20.2667 2.9668 18.0001C2.63346 15.1334 2.63346 11.4667 2.9668 7.73339C3.1668 5.40005 4.9668 3.60005 7.30013 3.33339C10.8335 2.93339 14.2335 2.93339 17.7668 3.33339C20.0335 3.60005 21.9001 5.40005 22.1001 7.73339C22.3668 10.8667 22.4335 14.4001 22.0335 18.0001Z" fill="#678AEE"/>
<path d="M7.70013 3.33332C7.5668 3.33332 7.43346 3.33332 7.30013 3.33332C4.9668 3.59998 3.1668 5.39998 2.9668 7.73332C2.63346 11.4 2.63346 15.0667 2.9668 18C3.1668 20.3333 5.03346 22.1333 7.30013 22.4C7.43346 22.4 7.5668 22.4 7.70013 22.4V3.33332ZM12.6335 3.06665C11.5668 3.06665 10.5001 3.06665 9.43346 3.13332V22.5333C10.5001 22.6 11.5668 22.6 12.6335 22.6V3.06665ZM22.0335 7.73332C21.8335 5.46665 20.1001 3.73332 17.9001 3.39998V22.3333C20.1001 22 21.8335 20.2 22.0335 18C22.4335 14.4 22.3668 10.8667 22.0335 7.73332Z" fill="#566DF9"/>
<path d="M22.0335 16.2667C21.8335 18.6 19.9668 20.4 17.7001 20.6667C14.1668 21.0667 10.7668 21.0667 7.23348 20.6667C4.96681 20.4 3.10015 18.6 2.90015 16.2667C2.56681 13.4 2.56681 9.73332 2.90015 5.99999C3.16681 3.73332 4.96681 1.86665 7.30015 1.59999C10.8335 1.19999 14.2335 1.19999 17.7668 1.59999C20.0335 1.86665 21.8335 3.73332 22.0335 5.99999C22.3668 9.13332 22.4335 12.6667 22.0335 16.2667Z" fill="#8FABFE"/>
<path opacity="0.6" d="M17.3666 2.9333C17.4333 2.9333 17.4333 3.06663 17.3666 3.06663C15.6333 3.1333 9.49993 3.1333 7.5666 3.06663C7.49993 3.06663 7.49993 2.9333 7.5666 2.9333C10.4333 2.19997 14.3666 2.19997 17.3666 2.9333Z" fill="white"/>
<path d="M7.76684 17.8666C6.70018 17.7332 5.83351 16.8666 5.70018 15.7999C5.43351 13.1999 5.36684 9.7999 5.70018 6.53324C5.83351 5.3999 6.70018 4.53324 7.76684 4.3999C10.9002 4.06657 13.9668 4.06657 17.1668 4.3999C18.2335 4.53324 19.1002 5.3999 19.2335 6.46657C19.5002 9.1999 19.5668 12.4666 19.2335 15.7332C19.1002 16.7999 18.2335 17.7332 17.1668 17.7999C14.0335 18.1999 10.9668 18.1999 7.76684 17.8666Z" fill="#F3F1FC"/>
<path d="M19.3001 7.26657C19.1667 6.26657 18.2334 5.46657 17.2334 5.33324C14.1001 4.9999 10.9667 4.9999 7.83341 5.33324C6.76674 5.46657 5.83341 6.26657 5.70007 7.26657C5.70007 6.9999 5.76674 6.73324 5.76674 6.46657C5.83341 5.3999 6.70007 4.53324 7.76674 4.3999C10.9001 4.06657 13.9667 4.06657 17.1667 4.3999C18.2334 4.53324 19.1001 5.3999 19.2334 6.46657C19.3001 6.7999 19.3001 6.9999 19.3001 7.26657Z" fill="#566DF9"/>
<path d="M14.3 9.93333C14.3 9.99999 14.3 10.2667 14.5667 10.5333C16.0333 11.9333 15.3 14.3333 13.3667 14.7333C10.9 15.2667 9.36668 12.2 11.1 10.5333C11.3667 10.2667 11.3667 9.86666 11.3667 9.93333C11.3667 9.19999 10.5 8.79999 9.96668 9.33333C7.30001 11.9333 9.10002 16.4 12.7667 16.4667C16.5 16.6 18.4333 12 15.7 9.33333C15.1667 8.86666 14.3 9.19999 14.3 9.93333Z" fill="#D0CEF2"/>
<path d="M12.8333 13.4C12.3667 13.4 11.9667 13 11.9667 12.5333V8.19998C11.9667 7.73331 12.3667 7.33331 12.8333 7.33331C13.3 7.33331 13.7 7.73331 13.7 8.19998V12.5333C13.6333 13 13.3 13.4 12.8333 13.4Z" fill="#D0CEF2"/>
<path d="M13.9668 9.33341C13.9668 9.40008 13.9668 9.66674 14.2334 9.93341C15.7001 11.3334 14.9668 13.7334 13.0334 14.1334C10.5668 14.6667 9.03343 11.6001 10.7668 9.93341C11.0334 9.66674 11.0334 9.26674 11.0334 9.33341C11.0334 8.60008 10.1668 8.20008 9.63343 8.73341C6.96676 11.3334 8.76676 15.8001 12.4334 15.8667C16.2334 16.0001 18.1668 11.3334 15.4334 8.73341C14.8334 8.26675 13.9668 8.60008 13.9668 9.33341Z" fill="#E93565"/>
<path d="M12.5 12.8C12.0333 12.8 11.6333 12.4 11.6333 11.9333V7.6C11.6333 7.13334 12.0333 6.73334 12.5 6.73334C12.9666 6.73334 13.3666 7.13334 13.3666 7.6V11.9333C13.3666 12.4 12.9666 12.8 12.5 12.8Z" fill="#E93565"/>
<path d="M16.6333 11.4666C16.4333 13.6666 14.5666 15.3333 12.3666 15.2666C10.2333 15.2 8.49998 13.4666 8.36665 11.4C8.09998 13.4666 9.89998 15.8 12.3666 15.8666C14.7 15.9333 16.6333 14.0666 16.6333 11.7333C16.6333 11.6666 16.6333 11.6 16.6333 11.4666Z" fill="#CC104A"/>
<path d="M13.3666 11.4V12C13.3666 12.4666 12.9666 12.8666 12.5 12.8666C12.0333 12.8666 11.6333 12.4666 11.6333 12V11.4C11.6333 11.8666 12.0333 12.2666 12.5 12.2666C12.9666 12.2 13.3666 11.8 13.3666 11.4Z" fill="#CC104A"/>
<g opacity="0.6">
<path d="M7.6335 19.3332C7.56683 19.3332 7.56683 19.1999 7.6335 19.1999C9.36683 19.1332 15.5002 19.1332 17.4335 19.1999C17.5002 19.1999 17.5002 19.3332 17.4335 19.3332C14.5668 20.0666 10.6335 20.0666 7.6335 19.3332Z" fill="white"/>
</g>
<path d="M6.63346 4.99993C6.43346 5.06659 6.30013 5.19993 6.16679 5.33326C6.23346 5.39993 6.96679 5.79993 6.90013 5.93326C6.90013 5.99993 6.10013 5.53326 6.03346 5.53326C5.96679 5.73326 5.96679 5.86659 6.03346 6.06659C6.43346 7.73326 6.23346 7.86659 5.63346 6.19993C5.56679 5.99993 5.50013 5.86659 5.36679 5.73326C5.30013 5.79993 4.83346 6.53326 4.76679 6.46659C4.70013 6.46659 5.10013 5.66659 5.10013 5.59993C4.96679 5.53326 4.76679 5.53326 4.56679 5.59993C2.90013 5.99993 2.83346 5.73326 4.50013 5.19993C4.70013 5.13326 4.83346 5.06659 4.90013 4.93326C4.83346 4.86659 4.10013 4.39993 4.16679 4.33326C4.23346 4.26659 4.96679 4.66659 5.03346 4.66659C5.10013 4.53326 5.10013 4.33326 5.10013 4.13326C4.70013 2.46659 4.90013 2.39993 5.43346 4.06659C5.50013 4.26659 5.56679 4.39993 5.70013 4.46659C5.83346 4.39993 6.23346 3.66659 6.30013 3.73326C6.36679 3.79993 5.96679 4.53326 5.96679 4.59993C6.16679 4.66659 6.30013 4.66659 6.50013 4.66659C7.23346 4.46659 7.76679 4.39993 7.83346 4.46659C7.83346 4.53326 7.36679 4.79993 6.63346 4.99993Z" fill="white"/>
</svg>
