<svg width="351" height="216" viewBox="0 0 351 216" fill="none" xmlns="http://www.w3.org/2000/svg">
<path fill-rule="evenodd" clip-rule="evenodd" d="M3.73821e-06 144.786V3.49385C-0.000811284 3.03541 0.131653 2.58134 0.389828 2.15761C0.648004 1.73388 1.02683 1.34876 1.50466 1.0243C1.98249 0.69984 2.54996 0.442378 3.17465 0.266622C3.79934 0.0908654 4.469 0.000275836 5.14536 0H345.855C346.531 -8.32336e-08 347.2 0.090302 347.824 0.265697C348.449 0.441093 349.016 0.698126 349.494 1.02219C349.972 1.34626 350.351 1.73101 350.609 2.15438C350.868 2.57774 351 3.03147 351 3.48964V144.781H345.728C345.549 144.79 345.382 144.843 345.26 144.932C345.138 145.02 345.07 145.137 345.07 145.258C345.07 145.379 345.138 145.495 345.26 145.584C345.382 145.672 345.549 145.726 345.728 145.734H351V212.517C351.001 213.407 350.499 214.263 349.599 214.911C348.698 215.558 347.466 215.948 346.156 216C346.117 214.755 345.36 213.569 344.047 212.698C342.734 211.827 340.97 211.339 339.132 211.339C337.295 211.339 335.53 211.827 334.217 212.698C332.904 213.569 332.147 214.755 332.109 216H325.614C325.614 214.738 324.875 213.527 323.558 212.635C322.241 211.742 320.455 211.241 318.593 211.241C316.73 211.241 314.944 211.742 313.628 212.635C312.311 213.527 311.571 214.738 311.571 216H305.092C305.092 214.738 304.352 213.527 303.035 212.635C301.718 211.742 299.932 211.241 298.07 211.241C296.208 211.241 294.422 211.742 293.105 212.635C291.788 213.527 291.048 214.738 291.048 216H284.554C284.515 214.755 283.758 213.569 282.445 212.698C281.132 211.827 279.368 211.339 277.531 211.339C275.693 211.339 273.929 211.827 272.616 212.698C271.303 213.569 270.546 214.755 270.507 216H264.013C264.013 214.738 263.273 213.527 261.956 212.635C260.639 211.742 258.853 211.241 256.991 211.241C255.129 211.241 253.343 211.742 252.026 212.635C250.709 213.527 249.969 214.738 249.969 216H243.456L243.456 215.981C243.353 215.99 243.248 215.996 243.144 216C243.105 214.755 242.348 213.569 241.035 212.698C239.722 211.827 237.958 211.339 236.12 211.339C235.158 211.339 234.215 211.473 233.347 211.725C232.658 211.954 232.022 212.26 231.469 212.635C230.152 213.527 229.413 214.738 229.413 216C229.307 215.995 229.202 215.989 229.098 215.98L229.097 216H222.603C222.603 214.738 221.863 213.527 220.546 212.635C219.586 211.984 218.378 211.541 217.072 211.349C215.404 211.424 213.825 211.901 212.624 212.698C211.311 213.569 210.554 214.755 210.515 216H202.08C202.08 214.738 201.34 213.527 200.023 212.635C198.938 211.899 197.532 211.429 196.029 211.286C194.525 211.429 193.12 211.899 192.034 212.635C190.717 213.527 189.977 214.738 189.977 216H181.542C181.503 214.755 180.747 213.569 179.434 212.698C178.232 211.901 176.653 211.424 174.986 211.349C173.68 211.541 172.471 211.984 171.511 212.635C170.195 213.527 169.455 214.738 169.455 216H161.001C161.001 214.738 160.261 213.527 158.944 212.635C157.985 211.984 156.776 211.541 155.47 211.349C153.803 211.424 152.223 211.901 151.022 212.698C149.709 213.569 148.952 214.755 148.914 216H140.444C140.444 214.738 139.705 213.527 138.388 212.635C137.306 211.901 135.907 211.432 134.41 211.288C132.913 211.432 131.514 211.901 130.432 212.635C129.115 213.527 128.376 214.738 128.376 216H121.863C121.863 215.994 121.863 215.987 121.862 215.981C121.759 215.99 121.655 215.996 121.55 216C121.512 214.755 120.755 213.569 119.442 212.698C118.129 211.827 116.364 211.339 114.527 211.339C113.564 211.339 112.621 211.473 111.753 211.726C111.064 211.954 110.428 212.26 109.876 212.635C108.559 213.527 107.819 214.738 107.819 216C107.714 215.995 107.609 215.989 107.504 215.98C107.504 215.986 107.504 215.993 107.504 216H101.009C101.009 214.738 100.269 213.527 98.9525 212.635C97.6356 211.742 95.8496 211.241 93.9873 211.241C92.1251 211.241 90.339 211.742 89.0222 212.635C87.7054 213.527 86.9656 214.738 86.9656 216H80.4866C80.4866 214.738 79.7468 213.527 78.43 212.635C77.1131 211.742 75.3271 211.241 73.4648 211.241C71.6025 211.241 69.8165 211.742 68.4997 212.635C67.1829 213.527 66.4431 214.738 66.4431 216H59.9486C59.91 214.755 59.153 213.569 57.8401 212.698C56.5272 211.827 54.7628 211.339 52.9253 211.339C51.0877 211.339 49.3233 211.827 48.0104 212.698C46.6975 213.569 45.9406 214.755 45.902 216H39.4074C39.4074 214.738 38.6677 213.527 37.3508 212.635C36.034 211.742 34.248 211.241 32.3857 211.241C30.5234 211.241 28.7374 211.742 27.4206 212.635C26.1037 213.527 25.3639 214.738 25.3639 216H18.8508C18.8508 214.738 18.111 213.527 16.7942 212.635C15.4774 211.742 13.6913 211.241 11.8291 211.241C9.96677 211.241 8.18076 211.742 6.86393 212.635C5.54709 213.527 4.8073 214.738 4.8073 216C3.50371 215.943 2.28115 215.551 1.38818 214.905C0.495215 214.259 -0.00114594 213.406 3.73821e-06 212.521V145.738H4.54367C4.72192 145.73 4.88899 145.676 5.01105 145.588C5.1331 145.499 5.20101 145.383 5.20101 145.262C5.20101 145.141 5.1331 145.024 5.01105 144.936C4.88899 144.847 4.72192 144.794 4.54367 144.786H3.73821e-06ZM107.555 145.738C107.734 145.73 107.901 145.676 108.023 145.588C108.145 145.499 108.213 145.383 108.213 145.262C108.213 145.141 108.145 145.024 108.023 144.936C107.901 144.847 107.734 144.794 107.555 144.786H102.163C102.067 144.781 101.97 144.79 101.879 144.812C101.789 144.834 101.705 144.869 101.635 144.913C101.565 144.958 101.509 145.012 101.47 145.072C101.432 145.132 101.412 145.197 101.412 145.262C101.412 145.327 101.432 145.392 101.47 145.452C101.509 145.512 101.565 145.566 101.635 145.61C101.705 145.655 101.789 145.689 101.879 145.711C101.97 145.733 102.067 145.742 102.163 145.738H107.555ZM126.194 145.734C126.351 145.718 126.496 145.667 126.605 145.588C126.727 145.499 126.795 145.383 126.795 145.262C126.795 145.141 126.727 145.024 126.605 144.936C126.483 144.847 126.315 144.794 126.137 144.786H121.065C120.908 144.802 120.764 144.853 120.655 144.932C120.533 145.02 120.465 145.137 120.465 145.258C120.465 145.379 120.533 145.495 120.655 145.584C120.777 145.672 120.944 145.726 121.122 145.734H126.194ZM117.024 144.786H111.632C111.453 144.794 111.286 144.847 111.164 144.936C111.042 145.024 110.974 145.141 110.974 145.262C110.974 145.383 111.042 145.499 111.164 145.588C111.286 145.676 111.453 145.73 111.632 145.738H117.024C117.202 145.73 117.37 145.676 117.492 145.588C117.614 145.499 117.682 145.383 117.682 145.262C117.682 145.141 117.614 145.024 117.492 144.936C117.37 144.847 117.202 144.794 117.024 144.786ZM99.6146 144.812C99.5238 144.79 99.4274 144.781 99.3312 144.786H92.6723C92.4941 144.794 92.327 144.847 92.2049 144.936C92.0829 145.024 92.015 145.141 92.015 145.262C92.015 145.383 92.0829 145.499 92.2049 145.588C92.327 145.676 92.4941 145.73 92.6723 145.738H99.3312C99.4274 145.742 99.5238 145.733 99.6146 145.711C99.7054 145.689 99.7886 145.655 99.8589 145.61C99.9293 145.566 99.9854 145.512 100.024 145.452C100.062 145.392 100.082 145.327 100.082 145.262C100.082 145.197 100.062 145.132 100.024 145.072C99.9854 145.012 99.9293 144.958 99.8589 144.913C99.7886 144.869 99.7054 144.834 99.6146 144.812ZM90.3204 144.936C90.1984 144.847 90.0313 144.794 89.8531 144.786H83.1942C83.098 144.781 83.0015 144.79 82.9108 144.812C82.82 144.834 82.7368 144.869 82.6664 144.913C82.5961 144.958 82.5399 145.012 82.5016 145.072C82.4632 145.132 82.4434 145.197 82.4434 145.262C82.4434 145.327 82.4632 145.392 82.5016 145.452C82.5399 145.512 82.5961 145.566 82.6664 145.61C82.7368 145.655 82.82 145.689 82.9108 145.711C83.0015 145.733 83.098 145.742 83.1942 145.738H89.8531C90.0313 145.73 90.1984 145.676 90.3204 145.588C90.4425 145.499 90.5104 145.383 90.5104 145.262C90.5104 145.141 90.4425 145.024 90.3204 144.936ZM80.8392 144.936C80.7171 144.847 80.5501 144.794 80.3718 144.786H73.7129C73.5347 144.794 73.3676 144.847 73.2456 144.936C73.1235 145.024 73.0556 145.141 73.0556 145.262C73.0556 145.383 73.1235 145.499 73.2456 145.588C73.3676 145.676 73.5347 145.73 73.7129 145.738H80.3718C80.5501 145.73 80.7171 145.676 80.8392 145.588C80.9613 145.499 81.0292 145.383 81.0292 145.262C81.0292 145.141 80.9613 145.024 80.8392 144.936ZM71.174 144.812C71.0832 144.79 70.9868 144.781 70.8906 144.786H64.2317C64.0535 144.794 63.8864 144.847 63.7643 144.936C63.6423 145.024 63.5744 145.141 63.5744 145.262C63.5744 145.383 63.6423 145.499 63.7643 145.588C63.8864 145.676 64.0535 145.73 64.2317 145.738H70.8906C70.9868 145.742 71.0832 145.733 71.174 145.711C71.2648 145.689 71.348 145.655 71.4183 145.61C71.4887 145.566 71.5448 145.512 71.5832 145.452C71.6215 145.392 71.6413 145.327 71.6413 145.262C71.6413 145.197 71.6215 145.132 71.5832 145.072C71.5448 145.012 71.4887 144.958 71.4183 144.913C71.348 144.869 71.2648 144.834 71.174 144.812ZM61.8798 144.936C61.7578 144.847 61.5907 144.794 61.4125 144.786H54.7536C54.6574 144.781 54.5609 144.79 54.4702 144.812C54.3794 144.834 54.2962 144.869 54.2258 144.913C54.1555 144.958 54.0994 145.012 54.061 145.072C54.0226 145.132 54.0028 145.197 54.0028 145.262C54.0028 145.327 54.0226 145.392 54.061 145.452C54.0994 145.512 54.1555 145.566 54.2258 145.61C54.2962 145.655 54.3794 145.689 54.4702 145.711C54.5609 145.733 54.6574 145.742 54.7536 145.738H61.4125C61.5907 145.73 61.7578 145.676 61.8798 145.588C62.0019 145.499 62.0698 145.383 62.0698 145.262C62.0698 145.141 62.0019 145.024 61.8798 144.936ZM52.2147 144.812C52.1239 144.79 52.0274 144.781 51.9312 144.786H45.2724C45.0941 144.794 44.927 144.847 44.805 144.936C44.6829 145.024 44.615 145.141 44.615 145.262C44.615 145.383 44.6829 145.499 44.805 145.588C44.927 145.676 45.0941 145.73 45.2724 145.738H51.9312C52.0274 145.742 52.1239 145.733 52.2147 145.711C52.3054 145.689 52.3886 145.655 52.459 145.61C52.5294 145.566 52.5855 145.512 52.6238 145.452C52.6622 145.392 52.682 145.327 52.682 145.262C52.682 145.197 52.6622 145.132 52.6238 145.072C52.5855 145.012 52.5294 144.958 52.459 144.913C52.3886 144.869 52.3054 144.834 52.2147 144.812ZM42.9205 144.936C42.7984 144.847 42.6313 144.794 42.4531 144.786H35.7911C35.6949 144.781 35.5985 144.79 35.5077 144.812C35.4169 144.834 35.3338 144.869 35.2634 144.913C35.193 144.958 35.1369 145.012 35.0985 145.072C35.0602 145.132 35.0404 145.197 35.0404 145.262C35.0404 145.327 35.0602 145.392 35.0985 145.452C35.1369 145.512 35.193 145.566 35.2634 145.61C35.3338 145.655 35.4169 145.689 35.5077 145.711C35.5985 145.733 35.6949 145.742 35.7911 145.738H42.4531C42.6313 145.73 42.7984 145.676 42.9205 145.588C43.0425 145.499 43.1104 145.383 43.1104 145.262C43.1104 145.141 43.0425 145.024 42.9205 144.936ZM33.4392 144.936C33.3172 144.847 33.1501 144.794 32.9719 144.786H26.313C26.1347 144.794 25.9677 144.847 25.8456 144.936C25.7236 145.024 25.6557 145.141 25.6557 145.262C25.6557 145.383 25.7236 145.499 25.8456 145.588C25.9677 145.676 26.1347 145.73 26.313 145.738H32.9719C33.1501 145.73 33.3172 145.676 33.4392 145.588C33.5613 145.499 33.6292 145.383 33.6292 145.262C33.6292 145.141 33.5613 145.024 33.4392 144.936ZM23.7741 144.812C23.6833 144.79 23.5868 144.781 23.4906 144.786H16.8317C16.6535 144.794 16.4864 144.847 16.3644 144.936C16.2423 145.024 16.1744 145.141 16.1744 145.262C16.1744 145.383 16.2423 145.499 16.3644 145.588C16.4864 145.676 16.6535 145.73 16.8317 145.738H23.4906C23.5868 145.742 23.6833 145.733 23.7741 145.711C23.8648 145.689 23.948 145.655 24.0184 145.61C24.0888 145.566 24.1449 145.512 24.1832 145.452C24.2216 145.392 24.2414 145.327 24.2414 145.262C24.2414 145.197 24.2216 145.132 24.1832 145.072C24.1449 145.012 24.0888 144.958 24.0184 144.913C23.948 144.869 23.8648 144.834 23.7741 144.812ZM14.4799 144.936C14.3578 144.847 14.1907 144.794 14.0125 144.786H7.35362C7.25744 144.781 7.16098 144.79 7.0702 144.812C6.97942 144.834 6.89627 144.869 6.82588 144.913C6.7555 144.958 6.69939 145.012 6.66103 145.072C6.62267 145.132 6.60288 145.197 6.60288 145.262C6.60288 145.327 6.62267 145.392 6.66103 145.452C6.69939 145.512 6.7555 145.566 6.82588 145.61C6.89627 145.655 6.97942 145.689 7.0702 145.711C7.16098 145.733 7.25744 145.742 7.35362 145.738H14.0125C14.1907 145.73 14.3578 145.676 14.4799 145.588C14.6019 145.499 14.6698 145.383 14.6698 145.262C14.6698 145.141 14.6019 145.024 14.4799 144.936ZM229.616 145.588C229.507 145.667 229.363 145.718 229.206 145.734H224.134C223.956 145.726 223.789 145.672 223.667 145.584C223.544 145.495 223.477 145.379 223.477 145.258C223.477 145.137 223.544 145.02 223.667 144.932C223.775 144.853 223.92 144.802 224.076 144.786H229.149C229.327 144.794 229.494 144.847 229.616 144.936C229.738 145.024 229.806 145.141 229.806 145.262C229.806 145.383 229.738 145.499 229.616 145.588ZM214.643 144.786H221.018C221.083 144.789 221.147 144.798 221.208 144.812C221.299 144.834 221.382 144.869 221.452 144.913C221.523 144.958 221.579 145.012 221.617 145.072C221.656 145.132 221.675 145.197 221.675 145.262C221.675 145.327 221.656 145.392 221.617 145.452C221.579 145.512 221.523 145.566 221.452 145.61C221.382 145.655 221.299 145.689 221.208 145.711C221.147 145.726 221.083 145.735 221.018 145.738H214.643C214.465 145.73 214.298 145.676 214.176 145.588C214.054 145.499 213.986 145.383 213.986 145.262C213.986 145.141 214.054 145.024 214.176 144.936C214.298 144.847 214.465 144.794 214.643 144.786ZM211.447 144.786C211.625 144.794 211.792 144.847 211.914 144.936C212.036 145.024 212.104 145.141 212.104 145.262C212.104 145.383 212.036 145.499 211.914 145.588C211.792 145.676 211.625 145.73 211.447 145.738H205.081C205.016 145.735 204.952 145.726 204.891 145.711C204.8 145.689 204.717 145.655 204.647 145.61C204.576 145.566 204.52 145.512 204.482 145.452C204.444 145.392 204.424 145.327 204.424 145.262C204.424 145.197 204.444 145.132 204.482 145.072C204.52 145.012 204.576 144.958 204.647 144.913C204.717 144.869 204.8 144.834 204.891 144.812C204.952 144.798 205.016 144.789 205.081 144.786H211.447ZM195.684 144.786H201.965C202.144 144.794 202.311 144.847 202.433 144.936C202.555 145.024 202.623 145.141 202.623 145.262C202.623 145.383 202.555 145.499 202.433 145.588C202.311 145.676 202.144 145.73 201.965 145.738H195.684C195.506 145.73 195.339 145.676 195.217 145.588C195.095 145.499 195.027 145.383 195.027 145.262C195.027 145.141 195.095 145.024 195.217 144.936C195.339 144.847 195.506 144.794 195.684 144.786ZM192.578 144.786C192.642 144.789 192.706 144.798 192.768 144.812C192.858 144.834 192.941 144.869 193.012 144.913C193.082 144.958 193.138 145.012 193.177 145.072C193.215 145.132 193.235 145.197 193.235 145.262C193.235 145.327 193.215 145.392 193.177 145.452C193.138 145.512 193.082 145.566 193.012 145.61C192.941 145.655 192.858 145.689 192.768 145.711C192.706 145.726 192.642 145.735 192.578 145.738H186.112C186.048 145.735 185.984 145.726 185.922 145.711C185.832 145.689 185.749 145.655 185.678 145.61C185.608 145.566 185.552 145.512 185.513 145.452C185.475 145.392 185.455 145.327 185.455 145.262C185.455 145.197 185.475 145.132 185.513 145.072C185.552 145.012 185.608 144.958 185.678 144.913C185.749 144.869 185.832 144.834 185.922 144.812C185.984 144.798 186.048 144.789 186.112 144.786H192.578ZM176.725 144.786H183.006C183.184 144.794 183.351 144.847 183.473 144.936C183.595 145.024 183.663 145.141 183.663 145.262C183.663 145.383 183.595 145.499 183.473 145.588C183.351 145.676 183.184 145.73 183.006 145.738H176.725C176.546 145.73 176.379 145.676 176.257 145.588C176.135 145.499 176.067 145.383 176.067 145.262C176.067 145.141 176.135 145.024 176.257 144.936C176.379 144.847 176.546 144.794 176.725 144.786ZM167.243 144.786H173.618C173.683 144.789 173.747 144.798 173.808 144.812C173.899 144.834 173.982 144.869 174.053 144.913C174.123 144.958 174.179 145.012 174.217 145.072C174.256 145.132 174.276 145.197 174.276 145.262C174.276 145.327 174.256 145.392 174.217 145.452C174.179 145.512 174.123 145.566 174.053 145.61C173.982 145.655 173.899 145.689 173.808 145.711C173.747 145.726 173.683 145.735 173.618 145.738H167.243C167.065 145.73 166.898 145.676 166.776 145.588C166.654 145.499 166.586 145.383 166.586 145.262C166.586 145.141 166.654 145.024 166.776 144.936C166.898 144.847 167.065 144.794 167.243 144.786ZM164.047 144.786C164.225 144.794 164.392 144.847 164.514 144.936C164.636 145.024 164.704 145.141 164.704 145.262C164.704 145.383 164.636 145.499 164.514 145.588C164.392 145.676 164.225 145.73 164.047 145.738H157.672C157.607 145.735 157.543 145.726 157.482 145.711C157.391 145.689 157.308 145.655 157.238 145.61C157.167 145.566 157.111 145.512 157.073 145.452C157.034 145.392 157.015 145.327 157.015 145.262C157.015 145.197 157.034 145.132 157.073 145.072C157.111 145.012 157.167 144.958 157.238 144.913C157.308 144.869 157.391 144.834 157.482 144.812C157.543 144.798 157.607 144.789 157.672 144.786H164.047ZM148.284 144.786H154.565C154.744 144.794 154.911 144.847 155.033 144.936C155.155 145.024 155.223 145.141 155.223 145.262C155.223 145.383 155.155 145.499 155.033 145.588C154.911 145.676 154.744 145.73 154.565 145.738H148.284C148.106 145.73 147.939 145.676 147.817 145.588C147.695 145.499 147.627 145.383 147.627 145.262C147.627 145.141 147.695 145.024 147.817 144.936C147.939 144.847 148.106 144.794 148.284 144.786ZM145.178 144.786C145.242 144.789 145.306 144.798 145.368 144.812C145.458 144.834 145.542 144.869 145.612 144.913C145.682 144.958 145.738 145.012 145.777 145.072C145.815 145.132 145.835 145.197 145.835 145.262C145.835 145.327 145.815 145.392 145.777 145.452C145.738 145.512 145.682 145.566 145.612 145.61C145.542 145.655 145.458 145.689 145.368 145.711C145.306 145.726 145.242 145.735 145.178 145.738H138.709C138.645 145.735 138.581 145.726 138.519 145.711C138.429 145.689 138.345 145.655 138.275 145.61C138.205 145.566 138.149 145.512 138.11 145.452C138.072 145.392 138.052 145.327 138.052 145.262C138.052 145.197 138.072 145.132 138.11 145.072C138.149 145.012 138.205 144.958 138.275 144.913C138.345 144.869 138.429 144.834 138.519 144.812C138.581 144.798 138.645 144.789 138.709 144.786H145.178ZM129.325 144.786H135.606C135.784 144.794 135.951 144.847 136.073 144.936C136.195 145.024 136.263 145.141 136.263 145.262C136.263 145.383 136.195 145.499 136.073 145.588C135.951 145.676 135.784 145.73 135.606 145.738H129.325C129.146 145.73 128.979 145.676 128.857 145.588C128.735 145.499 128.667 145.383 128.667 145.262C128.667 145.141 128.735 145.024 128.857 144.936C128.979 144.847 129.146 144.794 129.325 144.786ZM247.988 145.738H248.096C248.192 145.742 248.289 145.733 248.379 145.711C248.47 145.689 248.553 145.655 248.624 145.61C248.694 145.566 248.75 145.512 248.789 145.452C248.827 145.392 248.847 145.327 248.847 145.262C248.847 145.197 248.827 145.132 248.789 145.072C248.75 145.012 248.694 144.958 248.624 144.913C248.553 144.869 248.47 144.834 248.379 144.812C248.289 144.79 248.192 144.781 248.096 144.786H242.658C242.502 144.802 242.357 144.853 242.248 144.932C242.126 145.02 242.058 145.137 242.058 145.258C242.058 145.379 242.126 145.495 242.248 145.584C242.37 145.672 242.538 145.726 242.716 145.734H247.988V145.738ZM238.618 144.786H233.225C233.047 144.794 232.88 144.847 232.758 144.936C232.636 145.024 232.568 145.141 232.568 145.262C232.568 145.383 232.636 145.499 232.758 145.588C232.88 145.676 233.047 145.73 233.225 145.738H238.618C238.796 145.73 238.963 145.676 239.085 145.588C239.207 145.499 239.275 145.383 239.275 145.262C239.275 145.141 239.207 145.024 239.085 144.936C238.963 144.847 238.796 144.794 238.618 144.786ZM343.179 144.812C343.089 144.79 342.992 144.781 342.896 144.786H336.237C336.059 144.794 335.892 144.847 335.77 144.936C335.648 145.024 335.58 145.141 335.58 145.262C335.58 145.383 335.648 145.499 335.77 145.588C335.892 145.676 336.059 145.73 336.237 145.738H342.896C342.992 145.742 343.089 145.733 343.179 145.711C343.27 145.689 343.353 145.655 343.424 145.61C343.494 145.566 343.55 145.512 343.588 145.452C343.627 145.392 343.647 145.327 343.647 145.262C343.647 145.197 343.627 145.132 343.588 145.072C343.55 145.012 343.494 144.958 343.424 144.913C343.353 144.869 343.27 144.834 343.179 144.812ZM333.885 144.936C333.763 144.847 333.596 144.794 333.418 144.786H326.768C326.672 144.781 326.576 144.79 326.485 144.812C326.394 144.834 326.311 144.869 326.24 144.913C326.17 144.958 326.114 145.012 326.076 145.072C326.037 145.132 326.017 145.197 326.017 145.262C326.017 145.327 326.037 145.392 326.076 145.452C326.114 145.512 326.17 145.566 326.24 145.61C326.311 145.655 326.394 145.689 326.485 145.711C326.576 145.733 326.672 145.742 326.768 145.738H333.418C333.596 145.73 333.763 145.676 333.885 145.588C334.007 145.499 334.075 145.383 334.075 145.262C334.075 145.141 334.007 145.024 333.885 144.936ZM324.22 144.812C324.129 144.79 324.033 144.781 323.936 144.786H317.278C317.099 144.794 316.932 144.847 316.81 144.936C316.688 145.024 316.62 145.141 316.62 145.262C316.62 145.383 316.688 145.499 316.81 145.588C316.932 145.676 317.099 145.73 317.278 145.738H323.936C324.033 145.742 324.129 145.733 324.22 145.711C324.311 145.689 324.394 145.655 324.464 145.61C324.535 145.566 324.591 145.512 324.629 145.452C324.64 145.435 324.649 145.418 324.657 145.4C324.665 145.383 324.671 145.365 324.676 145.347C324.683 145.319 324.687 145.29 324.687 145.262C324.687 145.197 324.667 145.132 324.629 145.072C324.591 145.012 324.535 144.958 324.464 144.913C324.394 144.869 324.311 144.834 324.22 144.812ZM314.926 144.936C314.804 144.847 314.637 144.794 314.458 144.786H307.799C307.703 144.781 307.607 144.79 307.516 144.812C307.425 144.834 307.342 144.869 307.272 144.913C307.201 144.958 307.145 145.012 307.107 145.072C307.069 145.132 307.049 145.197 307.049 145.262C307.049 145.327 307.069 145.392 307.107 145.452C307.145 145.512 307.201 145.566 307.272 145.61C307.342 145.655 307.425 145.689 307.516 145.711C307.607 145.733 307.703 145.742 307.799 145.738H314.458C314.637 145.73 314.804 145.676 314.926 145.588C315.048 145.499 315.116 145.383 315.116 145.262C315.116 145.141 315.048 145.024 314.926 144.936ZM305.444 144.936C305.322 144.847 305.155 144.794 304.977 144.786H298.318C298.14 144.794 297.973 144.847 297.851 144.936C297.729 145.024 297.661 145.141 297.661 145.262C297.661 145.383 297.729 145.499 297.851 145.588C297.973 145.676 298.14 145.73 298.318 145.738H304.977C305.155 145.73 305.322 145.676 305.444 145.588C305.567 145.499 305.634 145.383 305.634 145.262C305.634 145.141 305.567 145.024 305.444 144.936ZM295.779 144.812C295.689 144.79 295.592 144.781 295.496 144.786H288.837C288.659 144.794 288.492 144.847 288.37 144.936C288.248 145.024 288.18 145.141 288.18 145.262C288.18 145.383 288.248 145.499 288.37 145.588C288.492 145.676 288.659 145.73 288.837 145.738H295.496C295.592 145.742 295.689 145.733 295.779 145.711C295.87 145.689 295.953 145.655 296.024 145.61C296.094 145.566 296.15 145.512 296.188 145.452C296.227 145.392 296.247 145.327 296.247 145.262C296.247 145.197 296.227 145.132 296.188 145.072C296.15 145.012 296.094 144.958 296.024 144.913C295.953 144.869 295.87 144.834 295.779 144.812ZM286.485 144.936C286.363 144.847 286.196 144.794 286.018 144.786H279.359C279.263 144.781 279.166 144.79 279.075 144.812C278.985 144.834 278.902 144.869 278.831 144.913C278.761 144.958 278.705 145.012 278.666 145.072C278.628 145.132 278.608 145.197 278.608 145.262C278.608 145.327 278.628 145.392 278.666 145.452C278.705 145.512 278.761 145.566 278.831 145.61C278.902 145.655 278.985 145.689 279.075 145.711C279.11 145.72 279.146 145.726 279.183 145.731C279.241 145.738 279.3 145.741 279.359 145.738H286.018C286.196 145.73 286.363 145.676 286.485 145.588C286.607 145.499 286.675 145.383 286.675 145.262C286.675 145.141 286.607 145.024 286.485 144.936ZM276.82 144.812C276.729 144.79 276.633 144.781 276.537 144.786H269.878C269.699 144.794 269.532 144.847 269.41 144.936C269.288 145.024 269.22 145.141 269.22 145.262C269.22 145.383 269.288 145.499 269.41 145.588C269.532 145.676 269.699 145.73 269.878 145.738H276.537C276.633 145.742 276.729 145.733 276.82 145.711C276.911 145.689 276.994 145.655 277.064 145.61C277.135 145.566 277.191 145.512 277.229 145.452C277.267 145.392 277.287 145.327 277.287 145.262C277.287 145.197 277.267 145.132 277.229 145.072C277.191 145.012 277.135 144.958 277.064 144.913C276.994 144.869 276.911 144.834 276.82 144.812ZM267.526 144.936C267.404 144.847 267.237 144.794 267.058 144.786H260.396C260.3 144.781 260.204 144.79 260.113 144.812C260.022 144.834 259.939 144.869 259.869 144.913C259.798 144.958 259.742 145.012 259.704 145.072C259.665 145.132 259.646 145.197 259.646 145.262C259.646 145.327 259.665 145.392 259.704 145.452C259.742 145.512 259.798 145.566 259.869 145.61C259.939 145.655 260.022 145.689 260.113 145.711C260.204 145.733 260.3 145.742 260.396 145.738H267.058C267.237 145.73 267.404 145.676 267.526 145.588C267.648 145.499 267.716 145.383 267.716 145.262C267.716 145.141 267.648 145.024 267.526 144.936ZM258.045 144.936C257.922 144.847 257.755 144.794 257.577 144.786H250.918C250.74 144.794 250.573 144.847 250.451 144.936C250.329 145.024 250.261 145.141 250.261 145.262C250.261 145.383 250.329 145.499 250.451 145.588C250.573 145.676 250.74 145.73 250.918 145.738H257.577C257.755 145.73 257.922 145.676 258.045 145.588C258.167 145.499 258.234 145.383 258.234 145.262C258.234 145.141 258.167 145.024 258.045 144.936Z" fill="#EDDFF8"/>
</svg>
