<svg width="12" height="12" viewBox="0 0 12 12" fill="none" xmlns="http://www.w3.org/2000/svg">
<path fill-rule="evenodd" clip-rule="evenodd" d="M9.94772 3.25949C10.1594 2.83608 10.6743 2.66447 11.0977 2.87617C11.5211 3.08788 11.6927 3.60274 11.481 4.02615C10.3704 6.24745 9.21427 7.54715 7.1803 8.7005C6.44869 9.11527 5.55148 9.11527 4.81986 8.7005C2.78586 7.54715 1.6298 6.24745 0.519145 4.02615C0.307441 3.60274 0.479061 3.08788 0.902475 2.87617C1.32588 2.66447 1.84075 2.83608 2.05245 3.25949C3.0319 5.21841 3.96595 6.24559 5.66542 7.20922C5.87256 7.32667 6.12761 7.32667 6.33475 7.20922C8.03422 6.24559 8.96827 5.21841 9.94772 3.25949Z" fill="#321C1C"/>
</svg>
