<svg width="36" height="36" viewBox="0 0 36 36" fill="none" xmlns="http://www.w3.org/2000/svg">
<path d="M33.5999 16.6L31.7 15.5L31.2 15.8C30.3 15.5 30.7 14.8 29.6 12.7C29.4 12.4 29.4 12 29.6 11.7L30.6 9.79998C30.8 9.39998 30.6999 8.89998 30.4 8.59998C28.7999 6.99998 28.9 6.99998 28.6 6.89998L26.6 5.79998L25.2999 7.19998L26.4 7.59998C26 7.79998 25.5 8.39998 24.7 7.99998C22.5 6.79998 21.8 7.19998 21.6 6.29998C21 4.49998 21.1 3.99998 20.6 3.69998L18.7 2.59998L17.7 3.49998C17.3 3.49998 16.9 3.79998 16.8 4.19998L16.2 6.29998C16 7.19998 15.3 6.79998 13.2 7.99998C12.9 8.19998 12.5 8.19998 12.2 7.99998L10.3 6.99998C9.89995 6.69998 9.39995 6.79998 9.09995 7.09998L7.49995 8.69998C7.19995 8.99998 7.09995 9.49998 7.39995 9.89998L8.39995 11.8C8.89995 12.6 8.09995 12.8 7.39995 15.2C7.29995 15.5 6.99995 15.8 6.69995 15.9L4.69995 16.5C4.29995 16.6 3.99995 17 3.99995 17.5V18.9L3.39995 18.4L2.69995 19.5L4.49995 20.5C4.69995 20.7 4.79995 20.6 6.79995 21.2C7.69995 21.5 7.29995 22.2 8.49995 24.3C8.69995 24.6 8.69995 25 8.49995 25.3L7.49995 27.2C7.29995 27.6 7.39995 28.1 7.69995 28.4L7.99995 28.7L7.59995 29L9.49995 30.1C9.79995 30.2 10.2 30.2 10.5 30.1L12.4 29.1C13.2 28.6 13.4 29.4 15.8 30.1C16.5 30.3 16.6 31 16.6 31.2L15.7 32.3L17.7 33.4C18.1 33.6 18.0999 33.5 20.2999 33.5C20.7999 33.5 21.1999 33.2 21.2999 32.8L21.9 30.8C22.1999 29.9 22.9 30.3 25 29.1C25.2999 28.9 25.7 28.9 26 29L27.7999 30.1C28.1999 30.3 28.7 30.3 29 29.9L30.5 28.4C30.7999 28.1 30.9 27.6 30.7 27.2L29.7 25.3C29.2 24.5 30 24.3 30.7 21.9C30.8 21.6 31.1 21.3 31.4 21.2L33.4 20.6C33.8 20.5 34.2 20.1 34.2 19.6V17.4C34 17.1 33.7999 16.8 33.5999 16.6ZM18.6 22.4C16.4 22.4 14.6 20.6 14.6 18.4C14.6 16.2 16.4 14.4 18.6 14.4C20.8 14.4 22.6 16.2 22.6 18.4C22.7 20.6 20.9 22.4 18.6 22.4Z" fill="#DD8536"/>
<path d="M31.4 15.4L29.4 14.8C28.5 14.5 28.9 13.8 27.7 11.7C27.5 11.4 27.5 11 27.7 10.7L28.7 8.80002C28.9 8.40002 28.8 7.90002 28.5 7.60002L27 6.10002C26.7 5.80002 26.2 5.70002 25.8 5.90002L23.9 6.90002C23.6 7.10002 23.2 7.10002 22.9 6.90002C20.7 5.70002 20 6.10002 19.8 5.20002L19.2 3.10002C19.1 2.70002 18.7 2.40002 18.2 2.40002H16C15.5 2.40002 15.1 2.70002 15 3.10002L14.4 5.20002C14.1 6.10002 13.5 5.70002 11.3 6.90002C11 7.10002 10.6 7.10002 10.3 6.90002L8.39998 5.90002C7.99998 5.70002 7.49998 5.70002 7.19998 6.00002L5.59998 7.60002C5.29998 7.90002 5.19998 8.40002 5.49998 8.80002L6.49998 10.7C6.89998 11.5 6.19998 11.8 5.49998 14.1C5.39998 14.4 5.09998 14.7 4.79998 14.8L2.79998 15.4C2.39998 15.5 2.09998 15.9 2.09998 16.4V18.6C2.09998 19.1 2.39998 19.5 2.89998 19.6L4.89998 20.2C5.79998 20.5 5.39998 21.2 6.59998 23.3C6.79998 23.6 6.79998 24 6.59998 24.3L5.59998 26.2C5.39998 26.6 5.49998 27.1 5.79998 27.4L7.29998 28.9C7.49998 29.2 7.99998 29.3 8.39998 29L10.3 28C11.1 27.5 11.3 28.3 13.7 29C14 29.1 14.3 29.4 14.4 29.7L15 31.7C15.1 32.1 15.5 32.4 16 32.4H18.2C18.7 32.4 19.1 32.1 19.2 31.7L19.8 29.7C19.9 29.4 20.2 29.1 20.5 29C22.9 28.3 23.1 27.5 23.9 28L25.8 29C26.2 29.2 26.7 29.2 27 28.8L28.5 27.3C28.8 27 28.9 26.5 28.7 26.1L27.7 24.2C27.5 23.9 27.5 23.5 27.7 23.2C28.9 21.1 28.5 20.3 29.4 20.1L31.4 19.5C31.8 19.4 32.2 19 32.2 18.5V16.3C32.1 15.9 31.8 15.5 31.4 15.4ZM17.1 21.8C14.7 21.8 12.8 19.9 12.8 17.5C12.8 15.1 14.7 13.2 17.1 13.2C19.5 13.2 21.4 15.1 21.4 17.5C21.4 19.9 19.4 21.8 17.1 21.8Z" fill="#FFD475"/>
<path d="M31.2 16.1L29.2 15.5C28.6 15.3 28.2 14.9 28 14.3C27.7999 13.5 27.5 12.7 27.1 12C26.8 11.5 26.8 10.8 27.1 10.3L28.1 8.39998C28.2 8.29998 28.1 8.09998 28.1 7.99998C26.6 6.59998 26.5 6.19998 26.2 6.39998C24.6 7.19998 23.9 7.99998 22.7 7.39998C22.1 7.09998 21.2999 6.69998 20.4 6.49998C19.7999 6.29998 19.4 5.89998 19.2 5.29998L18.6 3.29998C18.6 3.19998 18.4 3.09998 18.3 3.09998H16C15.9 3.09998 15.7 3.19998 15.7 3.29998L15.1 5.29998C14.9 5.89998 14.5 6.29998 13.9 6.49998C11.8 7.09998 11.7 7.69998 10.8 7.69998C9.99995 7.69998 9.69995 7.29998 7.99995 6.49998C7.99995 6.39998 7.79995 6.39998 7.69995 6.49998L6.09995 8.09998C5.99995 8.19998 5.99995 8.29998 6.09995 8.49998L7.09995 10.4C7.79995 11.6 6.79995 12 6.09995 14.4C5.89995 15 5.49995 15.4 4.89995 15.6L2.89995 16.2C2.79995 16.2 2.69995 16.4 2.69995 16.5V18.7C2.69995 18.8 2.79995 19 2.99995 19L4.99995 19.6C5.59995 19.8 5.99995 20.2 6.19995 20.8C6.39995 21.6 6.69995 22.3 7.09995 23.1C7.39995 23.6 7.39995 24.3 7.09995 24.8L6.09995 26.7C5.99995 26.8 6.09995 27 6.09995 27.1C7.69995 28.7 7.69995 28.8 7.89995 28.8C7.99995 28.8 7.89995 28.8 9.89995 27.7C10.4 27.4 11.1 27.4 11.6 27.7C12.3 28.1 13.1 28.4 13.9 28.6C14.5 28.8 14.9 29.2 15.1 29.8L15.7 31.8C15.7 31.9 15.9 32 16 32H18.2C18.4 32 18.5 31.9 18.5 31.8L19.1 29.8C19.3 29.2 19.6999 28.8 20.2999 28.6C21.0999 28.4 21.8 28.1 22.6 27.7C23.2 27.4 23.7999 27.4 24.2999 27.7C26.2999 28.8 26.1999 28.8 26.2999 28.8C26.5 28.8 26.5 28.7 28.1 27.1C28.2 27 28.2 26.8 28.2 26.7L27.2 24.8C26.9 24.3 26.9 23.6 27.2 23.1C27.6 22.4 27.9 21.6 28.1 20.8C28.3 20.2 28.6999 19.8 29.2999 19.6L31.4 19C31.5 19 31.6 18.8 31.6 18.7V16.5C31.4 16.2 31.3 16.1 31.2 16.1ZM17 22.5C14.3 22.5 12 20.3 12 17.5C12 14.8 14.2 12.5 17 12.5C19.7 12.5 22 14.7 22 17.5C22 20.2 19.8 22.5 17 22.5Z" fill="#FFB961"/>
<path d="M22 7.19999C19.9 12.1 12.7 14.4 6.70002 12.7C6.90002 12.1 7.70002 11.3 7.10002 10.2L6.10002 8.29999C6.00002 8.29999 6.00002 8.19999 6.10002 8.09999C7.60002 6.59999 7.60002 6.49999 7.90002 6.49999C8.00002 6.49999 7.90002 6.49999 9.90002 7.59999C10.5 7.89999 11 7.89999 11.6 7.59999C12.3 7.19999 13.1 6.89999 13.9 6.69999C14.5 6.49999 14.9 6.09999 15.1 5.49999L15.7 3.49999C15.7 3.39999 15.9 3.29999 16 3.29999H18.2C18.4 3.29999 18.5 3.39999 18.5 3.49999L19.1 5.49999C19.4 6.59999 20.4 6.39999 22 7.19999Z" fill="#FFDD95"/>
<path d="M17.7 11.4C14.1 11.4 11.2 14.3 11.2 17.9C11.2 21.5 14.1 24.5 17.7 24.5C21.3 24.5 24.2 21.6 24.2 17.9C24.3 14.3 21.4 11.4 17.7 11.4ZM17.3 22.2C14.7 22.2 12.6 20.1 12.6 17.4C12.6 14.7 14.7 12.7 17.3 12.7C19.9 12.7 22 14.8 22 17.4C22 20 19.9 22.2 17.3 22.2Z" fill="#DD8536"/>
<path d="M17 10.9C13.4 10.9 10.5 13.8 10.5 17.4C10.5 21 13.4 24 17 24C20.6 24 23.5 21.1 23.5 17.4C23.6 13.8 20.7 10.9 17 10.9ZM17 21.8C14.6 21.8 12.7 19.9 12.7 17.5C12.7 15.1 14.6 13.2 17 13.2C19.4 13.2 21.3 15.1 21.3 17.5C21.3 19.9 19.4 21.8 17 21.8Z" fill="#F3A250"/>
<path opacity="0.7" d="M10.4 12.6C10.9 13.1 11.6 11.8 13.2 10.8C14.7 9.89999 16.5 9.99999 16 9.19999C15.5 8.49999 13.4 8.29999 11.8 9.39999C10.3 10.5 9.90003 12.1 10.4 12.6ZM18.8 9.49999C18.7 10.3 16.9 9.79999 16.8 8.99999C16.8 8.69999 17.2 8.49999 17.8 8.59999C18.4 8.79999 18.8 9.19999 18.8 9.49999ZM21.9 19.4C21.6 19.2 21.4 20.1 20.6 20.8C19.9 21.6 19 21.9 19.3 22.1C19.6 22.4 20.8 22 21.5 21.2C22.2 20.5 22.3 19.6 21.9 19.4Z" fill="white"/>
<path d="M24.3 13.9C24 13.9 23.8 14 23.6 14.2C23.6 14.2 23.6 14.2 23.6 14.3C24.8 15.5 24.8 15.7 23.3 14.6C23.3 14.6 23.3 14.6 23.2 14.6C23.1 14.8 23 15.1 23 15.3C23 17.9 22.7 18 22.4 15.3C22.4 15 22.3 14.8 22.1 14.6C22 14.7 21.1 15.6 21 15.5C20.9 15.4 21.7 14.4 21.8 14.3C21.6 14.2 21.3 14.1 21.1 14.1C19.9 14.1 19.1 14.1 19.1 13.9C19.1 13.8 19.9 13.6 21 13.5C21.3 13.5 21.5 13.4 21.7 13.2C21.6 13.1 20.7 12.2 20.8 12.1C20.9 12 21.9 12.8 22 12.9C22.1 12.7 22.2 12.4 22.2 12.2C22.2 9.6 22.5 9.6 22.8 12.2C22.8 12.5 22.9 12.7 23.1 12.9C23.2 12.8 24.1 11.9 24.2 12C24.3 12.1 23.5 13.1 23.4 13.2C23.6 13.3 23.9 13.4 24.1 13.4C26.9 13.3 26.9 13.7 24.3 13.9Z" fill="white"/>
</svg>
