<svg width="36" height="36" viewBox="0 0 36 36" fill="none" xmlns="http://www.w3.org/2000/svg">
<path d="M32.3 22.2L32.2 8.90002L30.6 9.10003L30.8 22L32.3 22.2Z" fill="#4C5C75"/>
<path d="M33.9001 8.60001C33.6001 10 32.2001 11 30.7001 10.7C30.0001 10.5 29.4001 10 29.0001 9.30001C27.9001 7.30001 29.6001 4.90001 31.9001 5.40001C33.3001 5.70001 34.2001 7.10001 33.9001 8.60001Z" fill="#FFD475"/>
<path d="M30.8 10.6C30 10.5 29.4 10 29 9.30001C29.9 9.60001 30.8 9.70001 31.7 9.30001C32.9 8.80001 33.7 7.50001 33.3 6.20001C35 8.10001 33.4 11.2 30.8 10.6Z" fill="#FFB961"/>
<path opacity="0.3" d="M30.8999 7.20001C30.3999 7.60001 29.9999 7.80001 29.5999 7.60001C29.1999 7.30001 29.1999 6.70001 29.7999 6.20001C30.2999 5.70001 31.1999 5.70001 31.3999 6.10001C31.7999 6.40001 31.3999 6.80001 30.8999 7.20001Z" fill="white"/>
<path opacity="0.7" d="M30.3999 6.70003C30.1999 6.80003 29.9999 6.90003 29.8999 6.80003C29.7999 6.70003 29.8999 6.50003 30.0999 6.40003C30.2999 6.30003 30.4999 6.20003 30.5999 6.30003C30.5999 6.30003 30.5999 6.50003 30.3999 6.70003Z" fill="white"/>
<path d="M32.4 22.2C32.4 23.6 31.2999 24.8 29.7999 24.8C28.3999 24.8 27.2 23.7 27.2 22.2C27.2 20.8 28.3999 19.6 29.7999 19.6C31.2999 19.7 32.4 20.8 32.4 22.2Z" fill="#57B3FE"/>
<path d="M32.4001 22.2C32.4001 23.6 31.3 24.8 29.8 24.8C28.6 24.8 27.5 23.9 27.3 22.8C27.8 23.4 28.5 23.8 29.3 23.8C30.7 23.8 31.9 22.7 31.9 21.2C31.9 21 31.9 20.8 31.8 20.7C32.2 21.1 32.4001 21.6 32.4001 22.2Z" fill="#5094FF"/>
<path d="M28.5 27.7H26.5C27.9 24.2 27.9 20.3 26.5 16.8H28.5C29.1 16.8 29.7 17.2 29.9 17.8C30.7 20.7 30.7 23.8 29.9 26.7C29.7 27.3 29.1 27.7 28.5 27.7Z" fill="#497BFE"/>
<path d="M7.10002 22.2C7.10002 23.6 5.90002 24.8 4.50002 24.8C3.10002 24.8 2.00002 23.7 1.90002 22.3C1.90002 20.8 3.10002 19.7 4.50002 19.7C6.00002 19.7 7.10002 20.8 7.10002 22.2Z" fill="#57B3FE"/>
<path d="M7.10002 22.2C7.10002 23.6 5.90002 24.8 4.50002 24.8C3.10002 24.8 2.00002 23.7 1.90002 22.3C2.10002 22.7 2.30002 23 2.60002 23.2C2.90002 23.4 3.30002 23.2 3.30002 22.8C3.20002 22.3 3.20002 21.8 3.20002 21.3C3.20002 20.8 3.30002 20.3 3.50002 19.8C3.80002 19.7 4.10002 19.6 4.40002 19.6C5.60002 19.6 6.60002 20.4 6.90002 21.4C7.10002 21.7 7.10002 22 7.10002 22.2Z" fill="#5094FF"/>
<path d="M6 27.7H8C6.6 24.2 6.6 20.3 8 16.8H6C5.4 16.8 4.8 17.2 4.6 17.8C3.8 20.7 3.8 23.8 4.6 26.7C4.8 27.3 5.3 27.7 6 27.7Z" fill="#497BFE"/>
<path d="M27.1 29.5C26.7 30.2 26 30.7 25.2 30.7H9.3C8.5 30.7 7.7 30.2 7.4 29.5C5.2 24.9 5.2 19.6 7.4 15C7.8 14.3 8.5 13.8 9.3 13.8H25.2C26 13.8 26.8 14.3 27.1 15C29.3 19.5 29.3 24.9 27.1 29.5Z" fill="#57B3FE"/>
<path opacity="0.5" d="M27.1 15C26.7 14.3 26 13.8 25.2 13.8H23C23.3 20 19.5 26.6 11.5 26.6C9.39998 26.6 7.59998 26.1 6.09998 25.4C6.39998 26.8 6.79998 28.2 7.49998 29.5C7.89998 30.2 8.59998 30.7 9.39998 30.7H25.3C26.1 30.7 26.9 30.2 27.2 29.5C29.3 24.9 29.3 19.5 27.1 15Z" fill="#5094FF"/>
<path d="M23.8 16.3H10.6C10.1 16.3 9.59998 16.6 9.39998 17.1C7.99998 20.4 7.99998 24.1 9.39998 27.4C9.59998 27.9 10.1 28.2 10.6 28.2H23.8C24.3 28.2 24.8 27.9 25 27.4C26.4 24.1 26.4 20.4 25 17.1C24.9 16.6 24.4 16.3 23.8 16.3Z" fill="#497BFE"/>
<path d="M25.1 27.4C25 27.6 24.9 27.8 24.7 27.9L21 22.2L24.7 16.5C24.9 16.6 25 16.8 25.1 17C26.4 20.4 26.4 24 25.1 27.4Z" fill="#57B3FE"/>
<path d="M13.5 22.2L9.80001 27.9C9.60001 27.8 9.50001 27.6 9.40001 27.4C8.00001 24 8.00001 20.4 9.30001 17.1C9.40001 16.9 9.50001 16.7 9.70001 16.6L13.5 22.2Z" fill="#5094FF"/>
<path d="M11.8 26.7H22.6C23 26.7 23.5 26.5 23.6 26.1C24.7 23.6 24.7 20.9 23.6 18.4C23.4 18 23 17.8 22.6 17.8H11.8C11.4 17.8 10.9 18 10.8 18.4C9.69998 20.9 9.69998 23.6 10.8 26.1C10.9 26.4 11.4 26.7 11.8 26.7Z" fill="#F8F9FE"/>
<path d="M23.6 18.3C23.4 17.9 23 17.7 22.6 17.7H21.8C21.1 21.9 18 25.7 12.5 25.7C11.8 25.7 11.2 25.6 10.6 25.5C10.7 25.7 10.7 25.8 10.8 26C11 26.4 11.4 26.6 11.8 26.6H22.6C23 26.6 23.5 26.4 23.6 26C24.8 23.6 24.8 20.8 23.6 18.3Z" fill="#E9E7FC"/>
<path d="M17.8 17.7H17.1V26.6H17.8V17.7Z" fill="#DEDFFB"/>
<path d="M22.8 20.1C21.7 21.8 20.8 23.5 20.7 25.2C20.7 25.8 19.9 25.5 19.7 25.1C19.1 24.2 20.8 21.6 21.9 20.3C22 20.2 21.9 20 21.8 20C21.4 20 20.5 20 19.9 20C19.5 20 19.4 20.3 19.3 20.4C19.2 20.5 19.2 21 19.2 21.1C19.2 21.4 18.9 21.3 18.8 21C18.8 20.5 18.8 20.1 18.8 19.6C18.8 19.3 19.1 19 19.4 19C20.3 18.9 22.1 18.7 22.8 19.1C23.2 19.3 23 19.8 22.8 20.1ZM15.7 20.1C14.6 21.8 13.7 23.5 13.6 25.2C13.6 25.8 12.8 25.5 12.6 25.1C12 24.2 13.7 21.6 14.8 20.3C14.9 20.2 14.8 20 14.7 20C14.1 20 13.5 20 12.8 20C12.4 20 12.3 20.3 12.2 20.4C12.1 20.6 12.1 20.9 12.1 21.1C12.1 21.4 11.8 21.3 11.8 21C11.8 20.6 11.8 20.1 11.8 19.6C11.8 19.3 12.1 19 12.4 19C13.6 18.8 15.1 18.7 15.8 19.1C16.1 19.3 15.9 19.8 15.7 20.1Z" fill="#F45170"/>
<path opacity="0.7" d="M18.6 14.4C18.6 14.5 16.8 14.7 14.6 14.7C12.4 14.7 10.6 14.6 10.6 14.4C10.6 14.3 12.4 14.1 14.6 14.1C16.8 14.1 18.6 14.3 18.6 14.4ZM31.7 12.1C31.8 12.1 31.9 13.5 31.9 15.2C31.9 16.9 31.8 18.3 31.7 18.3C31.6 18.3 31.5 16.9 31.5 15.2C31.5 13.5 31.6 12.1 31.7 12.1Z" fill="white"/>
<path d="M22.8 20.1C21.7 21.8 20.8 23.5 20.7 25.2C20.7 25.8 19.9 25.5 19.7 25.1C19.1 24.2 20.8 21.6 21.9 20.3C22 20.2 21.9 20 21.8 20C21.6 20 21.4 20 21.3 20C21.4 19.6 21.6 19.3 21.7 18.9C22.2 18.9 22.7 19 23 19.2C23.2 19.3 23 19.8 22.8 20.1Z" fill="#DF3260"/>
</svg>
