<svg width="36" height="36" viewBox="0 0 36 36" fill="none" xmlns="http://www.w3.org/2000/svg">
<path d="M29.2001 19.9L21.3 18.8C23.2 17.4 24.5 15.5 25.3 13.7C23.4 12.6 24.5001 9.79999 26.6 10.1C27.7 10.2 28.4 11.2 28.3 12.3C28.2 13.1 27.6 13.7 26.8 13.9C27.1 15.8 27.8001 18 29.2001 19.9Z" fill="#F3A250"/>
<path opacity="0.6" d="M23.2999 16.8C22.6999 17.5 22 18.2 21.2 18.8L29.1 19.9C28.8 19.6 28.5999 19.2 28.4 18.8C26.3 18.8 24.5999 18 23.2999 16.8ZM25.2999 13.7C24.5999 13.3 24.1999 12.6 24.4 11.7C24.6 10.6 25.5 9.90001 26.6 10C27.7 10.1 28.3999 11.1 28.2999 12.2C28.1999 13 27.5999 13.6 26.7999 13.8C26.1999 14 25.6999 13.9 25.2999 13.7Z" fill="#EF7B56"/>
<path d="M6.80005 19.9L14.7 18.8C12.8 17.4 11.5 15.5 10.7 13.7C11.4 13.3 11.8 12.6 11.6 11.7C11.4 10.6 10.5 9.90001 9.40005 10C8.30005 10.1 7.60005 11.1 7.70005 12.2C7.80005 13 8.40005 13.6 9.20005 13.8C8.90005 15.8 8.20005 18 6.80005 19.9Z" fill="#F3A250"/>
<path opacity="0.6" d="M12.7 16.8C13.3 17.5 14 18.2 14.8 18.8L6.90002 19.9C7.20002 19.6 7.40002 19.2 7.60002 18.8C9.70002 18.8 11.4 18 12.7 16.8ZM10.7 13.7C11.4 13.3 11.8 12.6 11.6 11.7C11.4 10.6 10.5 9.90001 9.40002 10C8.30002 10.1 7.60002 11.1 7.70002 12.2C7.80002 13 8.40002 13.6 9.20002 13.8C9.80002 14 10.3 13.9 10.7 13.7Z" fill="#EF7B56"/>
<path d="M1.99996 13.2C2.49996 16 4.79996 21 4.79996 24.4V27.9H31.3V24.4C31.3 21 33.6 16 34.1 13.2C34.2 12.7 33.6 12.5 33.4 12.5C32.6 12.5 31.9 13.2 31.9 14C31.9 14.4 32.1 15.2 32.7 15.6C30.6 21.4 19.7 20.9 18.7 6.79999H17.6C17.6 6.89999 17.6 6.89999 17.6 6.99999C16.5 21 5.59996 21.4 3.59996 15.6C4.19996 15.2 4.39996 14.5 4.39996 14C4.39996 13.2 3.69996 12.5 2.89996 12.5C2.49996 12.4 1.89996 12.7 1.99996 13.2Z" fill="#FFB961"/>
<path d="M32.6 15.5C30.8 22.8 19.4 22.4 18.3 6.70001L18.6 6.90001C19.6 20.9 30.5 21.3 32.6 15.5ZM3.40004 15.5C5.20004 22.8 16.6 22.4 17.7 6.70001L17.4 6.90001C16.4 20.9 5.50004 21.3 3.40004 15.5ZM2.10004 13.5C2.10004 13.4 2.10004 13.3 2.00004 13.2C1.90004 12.7 2.50004 12.5 2.70004 12.5C3.70004 12.5 4.40004 13.4 4.20004 14.4C4.10004 13.6 2.50004 12.8 2.10004 13.5ZM34 13.2C34 13.3 34 13.4 33.9 13.5C33.5 12.8 32 13.1 31.7 14.3C31.5 13.3 32.2 12.4 33.2 12.4C33.5 12.4 34.1 12.7 34 13.2Z" fill="#FFDE9B"/>
<path d="M20.6 7.00002C20.9 8.50002 19.9 9.90002 18.5 10.2C17 10.5 15.6 9.50002 15.4 8.00002C15.1 6.50002 16.1 5.10002 17.5 4.80002C18.9 4.60002 20.4 5.60002 20.6 7.00002Z" fill="#FFB961"/>
<path d="M20.6999 7.59998C20.6999 8.79998 19.7999 9.89998 18.4999 10.2C16.0999 10.7 14.4999 7.99998 15.6999 6.09998C15.5999 8.89998 19.2999 9.89998 20.6999 7.59998Z" fill="#F3A250"/>
<path d="M31.2001 27.9C31.2001 29.7 25.3 31.1 18 31.1C10.7 31.1 4.80005 29.7 4.80005 27.9C4.80005 26.1 10.7 24.7 18 24.7C25.3 24.7 31.2001 26.1 31.2001 27.9Z" fill="#FFB961"/>
<path d="M8 27.2V30C9.1 30.3 10.4 30.6 11.8 30.7V28L8 27.2ZM24.4 28.1V30.7C26.2 30.5 27.7 30.1 28.8 29.7V27.1L24.4 28.1ZM14.5 28.6V31C16.2 31.1 17.7 31.1 19.3 31.1V28.6H14.5Z" fill="#FFDE9B"/>
<path d="M31.2001 24.9V25.8C31.2001 27.6 25.3 29 18 29C10.7 29 4.80005 27.6 4.80005 25.8V24.9C4.80005 26.7 10.7 28.1 18 28.1C25.3 28.1 31.2001 26.7 31.2001 24.9Z" fill="#F9A83D"/>
<path d="M19.7 7.1C19.5 7.3 19 6.8 18.4 6.5C17.8 6.2 17.1 6.2 17.1 5.9C17 5.6 17.9 5.1 18.8 5.5C19.8 6 20 7 19.7 7.1Z" fill="#FFDE9B"/>
<path opacity="0.6" d="M27.5 11.6C27.3 11.7 27 11.4 26.6 11.2C26.2 11 25.8 11 25.7 10.8C25.7 10.6 26.3 10.2 26.9 10.5C27.5 10.8 27.7 11.5 27.5 11.6ZM10.8 11.6C10.6 11.7 10.3 11.4 9.9 11.2C9.5 11 9.1 11 9 10.8C9 10.6 9.6 10.2 10.2 10.5C10.8 10.8 11 11.5 10.8 11.6Z" fill="white"/>
<path d="M22.4 20V24.5C22.4 24.7 22.3 24.9 22.1 25L18.2 27.2C18 27.3 17.8 27.3 17.7 27.2L13.8 25C13.6 24.9 13.5 24.7 13.5 24.5V20C13.5 19.8 13.6 19.6 13.8 19.5L17.7 17.3C17.9 17.2 18.1 17.2 18.2 17.3L22.1 19.5C22.3 19.6 22.4 19.8 22.4 20Z" fill="#F3A250"/>
<path d="M18 26.5L14.3 24.4V20.1L18 17.9L21.7 20.1V24.4L18 26.5Z" fill="#6EB954"/>
<path d="M18 24.3L19.9 23.3L21.7 24.4L18 26.5V24.3Z" fill="#4B9534"/>
<path d="M16.1 21.2V23.3L14.3 24.4V20.1L16.1 21.2Z" fill="#4B9534"/>
<path d="M18 20.2L19.9 21.2L21.7 20.1L18 17.9V20.2Z" fill="#4B9534"/>
<path d="M16 23.2C16 21.1 15.9 21.1 16.2 20.9C18.1 19.8 18 19.8 18.2 19.9C20 21 20 21 20 21.2C20 23.4 20.1 23.3 19.8 23.5C17.9 24.6 18 24.6 17.8 24.5C16 23.4 16 23.5 16 23.2Z" fill="#36712D"/>
<path d="M20.3 21.1C20.2 21.2 20.3 21.2 20.3 21.3C20.6 21.4 20.9 21.5 21 21.5C21 21.5 20.7 21.5 20.3 21.4C20.2 21.4 20.2001 21.5 20.2001 21.5C20.6001 22.2 20.9 22.8 20.8 22.8C20.7 22.8 20.4 22.2 20 21.6C20 21.5 19.9 21.6 19.8 21.6C19.7 22 19.6 22.2 19.6 22.3C19.6 22.3 19.6001 22 19.7001 21.6C19.7001 21.5 19.6 21.5 19.6 21.5C18.9 21.9 18.3 22.2 18.3 22.1C18.3 22 18.9 21.7 19.5 21.3C19.6 21.2 19.5 21.2 19.5 21.1C19.2 21 18.9 20.9 18.9 20.9C19 20.9 19.2 21 19.6 21C19.7 21 19.7001 20.9 19.7001 20.9C19.3001 20.2 19 19.6 19.1 19.6C19.1 19.6 19.5 20.2 19.9 20.8C19.9 20.9 20 20.9 20.1 20.8C20.2 20.4 20.3 20.2 20.3 20.1C20.3 20.1 20.3001 20.4 20.2001 20.8C20.2001 20.9 20.3 20.9 20.3 20.9C21 20.5 21.6 20.2 21.6 20.3C21.5001 20.3 21 20.7 20.3 21.1Z" fill="white"/>
</svg>
