<svg width="49" height="46" viewBox="0 0 49 46" fill="none" xmlns="http://www.w3.org/2000/svg">
<rect width="49" height="46" rx="8" fill="#3BAFFF"/>
<path d="M12.178 28.168C11.282 28.168 10.386 27.916 9.588 27.426V25.228C10.33 25.788 11.366 26.194 12.108 26.194C12.766 26.194 13.144 25.872 13.144 25.382C13.144 23.968 9.518 24.01 9.518 20.972C9.518 19.194 10.904 18.172 12.584 18.172C13.382 18.172 14.166 18.396 14.768 18.732V20.86C14.25 20.482 13.368 20.146 12.682 20.146C12.052 20.146 11.66 20.44 11.66 20.846C11.66 22.092 15.286 22.232 15.286 25.326C15.286 27.188 13.928 28.168 12.178 28.168ZM23.3192 20.692C24.4672 20.692 25.2372 21.49 25.2372 22.694V28H23.1932V23.366C23.1932 22.946 22.9412 22.68 22.5492 22.68C22.0872 22.68 21.7932 22.96 21.7932 23.394V28H19.7492V23.366C19.7492 22.946 19.4972 22.68 19.1052 22.68C18.6432 22.68 18.3352 22.96 18.3352 23.394V28H16.2912V20.86H18.3352V21.336C18.7272 20.916 19.2452 20.692 19.8612 20.692C20.6312 20.692 21.2332 21.042 21.5412 21.644C21.9752 21.014 22.5632 20.692 23.3192 20.692ZM29.1598 20.692C30.8538 20.692 32.0158 21.7 32.0158 23.24V28H30.1398V27.566C29.7338 27.944 29.1738 28.168 28.5718 28.168C27.2698 28.168 26.2338 27.16 26.2338 25.788C26.2338 24.444 27.2698 23.436 28.5718 23.436C29.1038 23.436 29.5938 23.604 29.9718 23.884V23.436C29.9718 22.834 29.4818 22.428 28.7398 22.428C28.0678 22.428 27.2558 22.736 26.7378 23.114V21.406C27.2558 21.014 28.1938 20.692 29.1598 20.692ZM29.1458 26.628C29.6078 26.628 29.9718 26.264 29.9718 25.788C29.9718 25.326 29.6078 24.976 29.1458 24.976C28.6838 24.976 28.3198 25.326 28.3198 25.788C28.3198 26.264 28.6838 26.628 29.1458 26.628ZM33.4083 28V17.92H35.4523V28H33.4083ZM36.963 28V17.92H39.007V28H36.963Z" fill="#EBF6FF"/>
</svg>
