<svg width="49" height="46" viewBox="0 0 49 46" fill="none" xmlns="http://www.w3.org/2000/svg">
<rect width="49" height="46" rx="8" fill="#3BAFFF"/>
<path d="M13.4929 20.7827C13.4588 20.4389 13.3125 20.1719 13.054 19.9815C12.7955 19.7912 12.4446 19.696 12.0014 19.696C11.7003 19.696 11.446 19.7386 11.2386 19.8239C11.0313 19.9062 10.8722 20.0213 10.7614 20.169C10.6534 20.3168 10.5994 20.4844 10.5994 20.6719C10.5938 20.8281 10.6264 20.9645 10.6974 21.081C10.7713 21.1974 10.8722 21.2983 11 21.3835C11.1278 21.4659 11.2756 21.5384 11.4432 21.6009C11.6108 21.6605 11.7898 21.7116 11.9801 21.7543L12.7642 21.9418C13.1449 22.027 13.4943 22.1406 13.8125 22.2827C14.1307 22.4247 14.4063 22.5994 14.6392 22.8068C14.8722 23.0142 15.0526 23.2585 15.1804 23.5398C15.3111 23.821 15.3778 24.1435 15.3807 24.5071C15.3778 25.0412 15.2415 25.5043 14.9716 25.8963C14.7045 26.2855 14.3182 26.5881 13.8125 26.804C13.3097 27.017 12.7031 27.1236 11.9929 27.1236C11.2884 27.1236 10.6747 27.0156 10.152 26.7997C9.6321 26.5838 9.22585 26.2642 8.93324 25.8409C8.64347 25.4148 8.49148 24.8878 8.47727 24.2599H10.2628C10.2827 24.5526 10.3665 24.7969 10.5142 24.9929C10.6648 25.1861 10.8651 25.3324 11.1151 25.4318C11.3679 25.5284 11.6534 25.5767 11.9716 25.5767C12.2841 25.5767 12.5554 25.5312 12.7855 25.4403C13.0185 25.3494 13.1989 25.223 13.3267 25.0611C13.4545 24.8991 13.5185 24.7131 13.5185 24.5028C13.5185 24.3068 13.4602 24.142 13.3438 24.0085C13.2301 23.875 13.0625 23.7614 12.8409 23.6676C12.6222 23.5739 12.3537 23.4886 12.0355 23.4119L11.0852 23.1733C10.3494 22.9943 9.76847 22.7145 9.34233 22.3338C8.91619 21.9531 8.70455 21.4403 8.70739 20.7955C8.70455 20.267 8.84517 19.8054 9.12926 19.4105C9.41619 19.0156 9.80966 18.7074 10.3097 18.4858C10.8097 18.2642 11.3778 18.1534 12.0142 18.1534C12.6619 18.1534 13.2273 18.2642 13.7102 18.4858C14.196 18.7074 14.5739 19.0156 14.8438 19.4105C15.1136 19.8054 15.2528 20.2628 15.2614 20.7827H13.4929ZM16.5877 27V20.4545H18.3178V21.6094H18.3945C18.5309 21.2259 18.7582 20.9233 19.0763 20.7017C19.3945 20.4801 19.7752 20.3693 20.2184 20.3693C20.6673 20.3693 21.0494 20.4815 21.3647 20.706C21.68 20.9276 21.8903 21.2287 21.9954 21.6094H22.0636C22.1971 21.2344 22.4386 20.9347 22.788 20.7102C23.1403 20.483 23.5565 20.3693 24.0366 20.3693C24.6474 20.3693 25.1431 20.5639 25.5238 20.9531C25.9073 21.3395 26.0991 21.8878 26.0991 22.598V27H24.288V22.956C24.288 22.5923 24.1914 22.3196 23.9982 22.1378C23.805 21.956 23.5636 21.8651 23.2738 21.8651C22.9442 21.8651 22.6871 21.9702 22.5025 22.1804C22.3178 22.3878 22.2255 22.6619 22.2255 23.0028V27H20.4656V22.9176C20.4656 22.5966 20.3732 22.3409 20.1886 22.1506C20.0067 21.9602 19.7667 21.8651 19.4684 21.8651C19.2667 21.8651 19.0849 21.9162 18.9229 22.0185C18.7638 22.1179 18.6374 22.2585 18.5437 22.4403C18.4499 22.6193 18.4031 22.8295 18.4031 23.071V27H16.5877ZM29.3995 27.1236C28.9819 27.1236 28.6097 27.0511 28.283 26.9062C27.9563 26.7585 27.6978 26.5412 27.5075 26.2543C27.32 25.9645 27.2262 25.6037 27.2262 25.1719C27.2262 24.8082 27.293 24.5028 27.4265 24.2557C27.56 24.0085 27.7418 23.8097 27.9719 23.6591C28.2021 23.5085 28.4634 23.3949 28.756 23.3182C29.0515 23.2415 29.3612 23.1875 29.685 23.1562C30.0657 23.1165 30.3725 23.0795 30.6055 23.0455C30.8384 23.0085 31.0075 22.9545 31.1126 22.8835C31.2177 22.8125 31.2702 22.7074 31.2702 22.5682V22.5426C31.2702 22.2727 31.185 22.0639 31.0146 21.9162C30.8469 21.7685 30.6083 21.6946 30.2987 21.6946C29.9719 21.6946 29.712 21.767 29.5188 21.9119C29.3256 22.054 29.1978 22.233 29.1353 22.4489L27.4563 22.3125C27.5415 21.9148 27.7092 21.571 27.9592 21.2812C28.2092 20.9886 28.5316 20.7642 28.9265 20.608C29.3242 20.4489 29.7844 20.3693 30.3072 20.3693C30.6708 20.3693 31.0188 20.4119 31.3512 20.4972C31.6864 20.5824 31.9833 20.7145 32.2418 20.8935C32.5032 21.0724 32.7092 21.3026 32.8597 21.5838C33.0103 21.8622 33.0856 22.196 33.0856 22.5852V27H31.364V26.0923H31.3129C31.2077 26.2969 31.0671 26.4773 30.891 26.6335C30.7148 26.7869 30.5032 26.9077 30.256 26.9957C30.0089 27.081 29.7234 27.1236 29.3995 27.1236ZM29.9194 25.8707C30.1864 25.8707 30.4222 25.8182 30.6268 25.7131C30.8313 25.6051 30.9918 25.4602 31.1083 25.2784C31.2248 25.0966 31.283 24.8906 31.283 24.6605V23.9659C31.2262 24.0028 31.1481 24.0369 31.0487 24.0682C30.9521 24.0966 30.8427 24.1236 30.7205 24.1491C30.5984 24.1719 30.4762 24.1932 30.354 24.2131C30.2319 24.2301 30.1211 24.2457 30.0217 24.2599C29.8086 24.2912 29.6225 24.3409 29.4634 24.4091C29.3043 24.4773 29.1808 24.5696 29.0927 24.6861C29.0046 24.7997 28.9606 24.9418 28.9606 25.1122C28.9606 25.3594 29.0501 25.5483 29.229 25.679C29.4109 25.8068 29.641 25.8707 29.9194 25.8707ZM36.3093 18.2727V27H34.494V18.2727H36.3093ZM39.5788 18.2727V27H37.7635V18.2727H39.5788Z" fill="#EBF6FF"/>
</svg>
