<svg width="36" height="36" viewBox="0 0 36 36" fill="none" xmlns="http://www.w3.org/2000/svg">
<path d="M24.8 19.4C24.3 20.7 24.6 22.1 25.8 22.9C29 25 32.5 27.9 33.2 28.6C34.4 29.8 34.4 31.9 33.2 33.1C31.9 34.4 29.9 34.3 28.7 33.1C28 32.4 25.1 28.9 23 25.7C22.2 24.6 20.8 24.2 19.5 24.7C7.89999 29.7 -3.80001 13.9 5.09999 5.00002C9.49999 0.600019 16.9 1.00002 21.8 5.90002C25.5 9.70002 26.6 15.1 24.8 19.4Z" fill="#FFD475"/>
<path d="M33.9 29.9C34.2 31 34 32.2 33.1 33C31.8 34.3 29.8 34.2 28.6 33C27.9 32.3 25 28.8 22.9 25.6C22.1 24.5 20.7 24.1 19.4 24.7C10.3 28.6 -0.199954 19.2 2.50005 9.59998C2.20005 18.6 11.8 25.6 19.9 22.1C21.2 21.6 22.6 21.9 23.4 23.1C25.5 26.3 28.4 29.8 29.1 30.5C30.3 31.7 32.4 31.7 33.6 30.5L33.9 29.9Z" fill="#FFB961"/>
<path d="M16.6 2.70002C13.7 3.80002 10.8 5.60002 8.19998 8.20002C6.19998 10.2 4.59998 12.5 3.49998 14.8C3.39998 15 3.29998 15.3 3.19998 15.5C2.99998 15.9 2.89998 16.2 2.79998 16.5C2.59998 16.1 2.49998 15.6 2.39998 15.2C2.29998 14.9 2.29998 14.5 2.19998 14.2C2.19998 13.9 2.09998 13.6 2.09998 13.3V12C2.09998 11.7 2.09998 11.5 2.19998 11.2V11.1C2.19998 10.9 2.29998 10.6 2.29998 10.4C2.39998 10.1 2.39998 9.90002 2.49998 9.60002C2.89998 7.90002 3.79998 6.30002 5.09998 5.00002C7.79998 2.30002 11.6 1.40002 15.3 2.30002C15.7 2.40002 16.1 2.50002 16.6 2.70002Z" fill="#F45170"/>
<path d="M21.7 5.89999C22.7 6.89999 23.5 7.99999 24.1 9.19999C24.3 9.49999 24.4 9.79999 24.5 10.1C21.4 11.2 18.4 13.1 15.7 15.7C13.7 17.7 12.2 19.8 11.1 22.1C11 22.3 10.9 22.6 10.8 22.8C10.5 23.4 10.3 23.9 10.1 24.5C8.20002 23.8 5.20002 21.5 3.90002 19.2C4.00002 18.7 4.10002 18.3 4.30002 17.8C4.40002 17.5 4.50002 17.3 4.60002 17C5.60002 14.4 7.30002 11.8 9.60002 9.49999C12.5 6.59999 16 4.59999 19.2 3.79999C20.2 4.49999 21 5.19999 21.7 5.89999Z" fill="#6EB954"/>
<path d="M15.9 15.8C13.2 18.5 11.3 21.5 10.3 24.6C10.9 24.9 11.6 25.1 12.3 25.3C13.3 22.6 15 19.8 17.5 17.4C19.9 15 22.7 13.2 25.4 12.3C25.3 11.6 25 11 24.7 10.3C21.5 11.2 18.5 13.1 15.9 15.8Z" fill="#F45170"/>
<path d="M13.3 22.7C13.2 22.9 13.1 23.2 12.9 23.4C12.6 24 12.4 24.6 12.2 25.2H12.1C12 25.2 11.9 25.2 11.8 25.1H11.7C11.2 25 10.5 24.7 10.1 24.5C10.3 23.9 10.5 23.4 10.8 22.8C10.9 22.6 11 22.3 11.1 22.1C11.9 22.4 12.6 22.6 13.3 22.7Z" fill="#497BFE"/>
<path d="M11.2 22.2C11.1 22.4 11 22.7 10.9 22.9C10.6 23.5 10.4 24 10.2 24.6C8.3 23.9 5.3 21.6 4 19.3C4.1 18.8 4.2 18.4 4.4 17.9C4.5 17.6 4.6 17.4 4.7 17.1C6.3 19.3 8.5 21.2 11.2 22.2Z" fill="#4B9534"/>
<path d="M2.49998 9.59998C2.39998 11.4 2.79998 13.1 3.49998 14.9C3.39998 15.1 3.29998 15.4 3.19998 15.6C2.99998 16 2.89998 16.3 2.79998 16.6C2.59998 16.2 2.49998 15.7 2.39998 15.3C2.29998 15 2.29998 14.6 2.19998 14.3C2.19998 14 2.09998 13.7 2.09998 13.4V12.1C2.09998 11.8 2.09998 11.6 2.19998 11.3C2.19998 11 2.29998 10.8 2.29998 10.5C2.29998 10.1 2.39998 9.79998 2.49998 9.59998Z" fill="#CC104A"/>
<path opacity="0.3" d="M11.3 7.00001C13.1 7.00001 14.4 6.70001 14.7 5.40001C15 4.10001 13.7 2.70001 11.6 2.70001C9.5 2.70001 7.7 4.10001 7.8 5.50001C7.9 6.80001 9.6 7.00001 11.3 7.00001Z" fill="white"/>
<path opacity="0.7" d="M11.4 4.49999C12 4.49999 12.5 4.09999 12.5 3.79999C12.5 3.49999 12 3.09999 11.3 3.19999C10.7 3.19999 10.2 3.59999 10.2 3.89999C10.2 4.19999 10.8 4.49999 11.4 4.49999Z" fill="white"/>
<path d="M21.1 11.3C21.1 11.5 21.3 11.6 21.4 11.6C22.3 11.1 23 10.8 23.1 10.8C23.1 10.9 22.4 11.3 21.6 11.9C21.4 12 21.5 12.3 21.7 12.3C23.6 12.9 25.3 13.4 25.3 13.6C25.3 13.7 23.5 13.3 21.5 12.9C21.3 12.9 21.2 13.1 21.2 13.2C21.7 14.1 22 14.8 22 14.9C21.9 14.9 21.5 14.2 20.9 13.4C20.8 13.2 20.5 13.3 20.5 13.5C20 15.3 19.4 17 19.3 17C19.2 17 19.6 15.2 20 13.2C20 13 19.8 12.9 19.7 12.9C18.8 13.4 18.1 13.7 18 13.7C18 13.6 18.7 13.2 19.5 12.6C19.7 12.5 19.6 12.2 19.4 12.2C17.5 11.6 15.8 11.1 15.8 10.9C15.8 10.8 17.6 11.2 19.6 11.6C19.8 11.6 19.9 11.4 19.9 11.3C19.4 10.4 19.1 9.70002 19.1 9.60002C19.2 9.60002 19.6 10.3 20.2 11.1C20.3 11.3 20.6 11.2 20.6 11C21.2 9.10002 21.7 7.40002 21.9 7.40002C21.9 7.60002 21.6 9.40002 21.1 11.3Z" fill="white"/>
<path d="M24.8 19.4C24.3 20.7 24.6 22.1 25.8 22.9C29 25 32.5 27.9 33.2 28.6C34.4 29.8 34.4 31.9 33.2 33.1C31.9 34.4 29.9 34.3 28.7 33.1C28 32.4 25.1 28.9 23 25.7C22.2 24.6 20.8 24.2 19.5 24.7C7.89999 29.7 -3.80001 13.9 5.09999 5.00002C9.49999 0.600019 16.9 1.00002 21.8 5.90002C25.5 9.70002 26.6 15.1 24.8 19.4Z" fill="#FFD475"/>
<path d="M33.9 29.9C34.2 31 34 32.2 33.1 33C31.8 34.3 29.8 34.2 28.6 33C27.9 32.3 25 28.8 22.9 25.6C22.1 24.5 20.7 24.1 19.4 24.7C10.3 28.6 -0.199954 19.2 2.50005 9.59998C2.20005 18.6 11.8 25.6 19.9 22.1C21.2 21.6 22.6 21.9 23.4 23.1C25.5 26.3 28.4 29.8 29.1 30.5C30.3 31.7 32.4 31.7 33.6 30.5L33.9 29.9Z" fill="#FFB961"/>
<path d="M16.6 2.70003C13.7 3.80003 10.8 5.60003 8.19999 8.20003C5.59999 10.8 3.79999 13.7 2.69999 16.6C1.39999 12.9 1.89999 8.20003 5.09999 5.00003C8.09999 2.00003 12.5 1.30003 16.6 2.70003Z" fill="#F45170"/>
<path d="M24.6 10.2C21.5 11.3 18.5 13.2 15.8 15.8C13 18.6 11.1 21.8 10.2 24.6C8.3 23.9 5.3 21.6 4 19.3C4.9 15.7 7 12.3 9.7 9.7C12.6 6.8 16.1 4.8 19.3 4C21.7 5.5 23.6 7.8 24.6 10.2Z" fill="#6EB954"/>
<path d="M15.9 15.8C13.2 18.5 11.3 21.5 10.3 24.6C10.9 24.9 11.6 25.1 12.3 25.3C13.3 22.6 15 19.8 17.5 17.4C19.9 15 22.7 13.2 25.4 12.3C25.3 11.6 25 11 24.7 10.3C21.5 11.2 18.5 13.1 15.9 15.8Z" fill="#F45170"/>
<path d="M15.9 15.8C13.2 18.5 11.2 21.7 10.3 24.6C10.7 24.8 12.2 25.3 12.3 25.3C13.4 22.4 15.1 19.7 17.5 17.4C19.9 15 22.7 13.2 25.4 12.3C25.3 11.8 25 11 24.7 10.3C21.5 11.2 18.5 13.1 15.9 15.8Z" fill="#F45170"/>
<path d="M13.3 22.7C12.8 23.7 12.6 24.1 12.2 25.2C12.1 25.2 10.6 24.7 10.2 24.5C10.5 23.7 10.9 22.8 11.2 22.1C11.9 22.4 12.6 22.6 13.3 22.7Z" fill="#CC104A"/>
<path d="M11.2 22.2C10.9 22.8 10.5 23.8 10.2 24.6C8.3 23.9 5.3 21.6 4 19.3C4.2 18.4 4.5 17.6 4.7 17.1C6.3 19.3 8.5 21.2 11.2 22.2Z" fill="#4B9534"/>
<path d="M2.49998 9.59998C2.39998 11.4 2.79998 13.1 3.49998 14.9C3.39998 15.1 3.29998 15.4 3.19998 15.6C2.99998 16 2.89998 16.3 2.79998 16.6C2.59998 16.2 2.49998 15.7 2.39998 15.3C2.29998 15 2.29998 14.6 2.19998 14.3C2.19998 14 2.09998 13.7 2.09998 13.4V12.1C2.09998 11.8 2.09998 11.6 2.19998 11.3C2.19998 11 2.29998 10.8 2.29998 10.5C2.29998 10.1 2.39998 9.79998 2.49998 9.59998Z" fill="#CC104A"/>
<path opacity="0.3" d="M11.3 7.00001C13.1 7.00001 14.4 6.70001 14.7 5.40001C15 4.10001 13.7 2.70001 11.6 2.70001C9.5 2.70001 7.7 4.10001 7.8 5.50001C7.9 6.80001 9.6 7.00001 11.3 7.00001Z" fill="white"/>
<path opacity="0.7" d="M11.4 4.49999C12 4.49999 12.5 4.09999 12.5 3.79999C12.5 3.49999 12 3.09999 11.3 3.19999C10.7 3.19999 10.2 3.59999 10.2 3.89999C10.2 4.19999 10.8 4.49999 11.4 4.49999Z" fill="white"/>
<path d="M21.3 11.3C21.2 11.5 21.4 11.7 21.6 11.6C22.6 11.2 23.4 10.9 23.5 10.9C23.5 11 22.7 11.4 21.8 11.9C21.6 12 21.6 12.3 21.8 12.3C23.8 13.1 25.6 13.9 25.5 14C25.5 14.1 23.6 13.5 21.5 12.9C21.3 12.8 21.1 13 21.2 13.2C21.6 14.2 21.9 15 21.9 15.1C21.8 15.1 21.4 14.3 20.9 13.4C20.8 13.2 20.5 13.2 20.5 13.4C19.7 15.4 18.9 17.2 18.8 17.1C18.7 17.1 19.3 15.2 19.9 13.1C20 12.9 19.8 12.7 19.6 12.8C18.6 13.2 17.8 13.5 17.7 13.5C17.7 13.4 18.5 13 19.4 12.5C19.6 12.4 19.6 12.1 19.4 12.1C17.4 11.3 15.6 10.5 15.7 10.4C15.7 10.3 17.6 10.9 19.7 11.6C19.9 11.7 20.1 11.5 20 11.3C19.6 10.3 19.3 9.49997 19.3 9.39997C19.4 9.39997 19.8 10.2 20.3 11.1C20.4 11.3 20.7 11.3 20.7 11.1C21.5 9.09998 22.3 7.29998 22.4 7.39998C22.5 7.39998 21.9 9.29998 21.3 11.3Z" fill="white"/>
</svg>
