<svg width="22" height="22" viewBox="0 0 22 22" fill="none" xmlns="http://www.w3.org/2000/svg">
<path d="M12.8334 10.1444C12.65 10.2056 12.5278 10.2667 12.4667 10.3889C12.5278 10.45 13.2 10.8167 13.1389 10.9389C13.0778 11 12.4056 10.6333 12.3445 10.6333C12.2834 10.7556 12.2834 10.9389 12.2834 11.1222C12.65 12.65 12.4667 12.7722 11.9167 11.2444C11.8556 11.0611 11.7945 10.9389 11.6723 10.8778C11.6723 10.8778 11.6723 10.8778 11.6723 10.9389C11.1223 11.7944 10.9389 11.7944 11.4889 10.8167C11.4889 10.8167 11.4889 10.8167 11.4889 10.7556C11.3667 10.6944 11.1834 10.6944 11 10.6944C9.47226 11.0611 9.35004 10.8778 10.8778 10.3278C11.0611 10.2667 11.1834 10.2056 11.2445 10.0833C11.2445 10.0833 11.2445 10.0833 11.1834 10.0833C10.2667 9.47222 10.3889 9.41111 11.3056 9.9C11.3056 9.9 11.3056 9.9 11.3667 9.9C11.4278 9.77778 11.4278 9.59444 11.4278 9.41111C11.0611 7.82222 11.2445 7.82222 11.7945 9.28889C11.8556 9.47222 11.9167 9.59444 12.0389 9.65555C12.1 9.59444 12.4667 8.92222 12.5889 8.98333C12.65 9.04444 12.2834 9.71666 12.2834 9.77777C12.4056 9.83889 12.5889 9.83889 12.7723 9.83889C13.4445 9.65555 13.9334 9.59444 13.9945 9.65555C13.9334 9.71666 13.5056 9.9 12.8334 10.1444Z" fill="white"/>
<path d="M19.2502 7.57776L17.6613 15.0944C17.5391 15.6444 17.1113 16.1333 16.6225 16.3167C8.92246 19.3111 9.22801 19.4333 8.49468 19.3111C7.76135 19.25 8.00579 19.1278 2.0169 14.4222C1.58913 14.0555 1.40579 13.5667 1.52802 12.9555L3.17802 5.49999C3.23913 4.94999 3.6669 4.4611 4.2169 4.27776C4.95024 3.97221 10.7558 1.64998 11.5502 1.34443C12.1002 1.09998 12.7113 1.22221 13.078 1.58887C14.4225 2.68887 17.6002 5.19443 18.8225 6.17221C19.1891 6.47776 19.3725 7.02776 19.2502 7.57776Z" fill="#F9CF6B"/>
<path d="M16.9893 4.76666C15.706 5.74444 13.7504 6.35555 11.6115 6.35555C8.80043 6.35555 6.41709 5.31666 5.25598 3.84999L11.4893 1.34444C12.7115 0.916659 13.0171 1.64999 16.9893 4.76666Z" fill="#FFDD95"/>
<path d="M4.09469 12.5889L5.37803 6.66111C5.43914 6.47777 5.56136 6.29444 5.74469 6.23333L11.6114 3.85C11.7947 3.78888 12.0391 3.78888 12.2225 3.97222L16.5003 7.39444C16.6836 7.51666 16.7447 7.76111 16.7447 8.00555L15.4614 13.9333C15.4002 14.1167 15.278 14.3 15.0947 14.3611L9.16692 16.7444C8.98358 16.8056 8.73914 16.8056 8.55581 16.6222L4.27803 13.2C4.09469 13.0778 4.03358 12.8333 4.09469 12.5889Z" fill="#F3A250"/>
<path d="M16.6832 8.31112C16.6221 8.12778 16.6832 8.25001 12.5887 4.95001C12.5276 4.8889 12.4054 4.82778 12.2832 4.82778L11.9165 3.85001C12.0387 3.85001 12.0998 3.91112 12.1609 3.97223L16.4387 7.39445C16.9276 7.76112 16.6832 8.1889 16.6832 8.31112Z" fill="#EF7B56"/>
<path d="M12.2832 4.82777C12.1609 4.82777 12.0998 4.82777 11.9776 4.88888L6.53872 7.08888C6.4165 7.14999 6.35539 7.2111 6.29428 7.27221L5.43872 6.47777C5.62205 6.23333 5.56094 6.35555 11.6109 3.97221C11.7332 3.9111 11.8554 3.9111 11.9776 3.9111L12.2832 4.82777Z" fill="#E86A49"/>
<path d="M6.35587 7.21109C6.29476 7.2722 6.23365 7.33331 6.23365 7.45553C5.01143 13.2611 5.01143 12.9555 5.07254 13.1389L4.09476 12.8333C4.03365 12.5889 4.09476 12.7722 5.37809 6.59997C5.37809 6.47775 5.43921 6.41664 5.50032 6.35553L6.35587 7.21109Z" fill="#EF7B56"/>
<path d="M9.28905 16.6833C9.22794 16.6833 8.92238 16.8666 8.61683 16.6222C4.15572 12.9555 4.21683 13.2 4.0946 12.8333L5.07238 13.1389C5.07238 13.2611 5.1946 13.3833 5.25572 13.4444C7.88349 15.5833 9.22794 16.6833 9.28905 16.6833Z" fill="#E86A49"/>
<path d="M20.4725 8.67777C20.4725 8.98332 18.8836 16.5 18.8225 16.5611C18.7614 16.8667 18.7003 17.05 18.4558 17.2944C18.2725 17.4778 17.8447 17.5389 17.3558 17.9667C17.1114 18.0889 16.8058 18.2111 16.5003 18.3333C16.1336 18.5167 15.7058 18.6389 15.1558 18.8833C15.0947 18.8833 15.0336 18.9444 15.0336 18.9444C13.9336 19.3722 12.4058 19.9222 10.5114 20.7167H10.4503C10.1447 20.7778 9.90029 20.7778 9.65584 20.7778C9.47251 20.7167 9.22806 20.6555 9.10584 20.5333C9.04473 20.4722 7.08917 18.9444 3.30028 15.8278C3.05584 15.7055 3.05584 15.7055 1.83362 14.2389C1.95584 14.3611 2.13917 14.4833 7.7614 19.0055C8.00584 19.1889 8.25029 19.3111 8.55584 19.3111C8.61695 19.3111 8.61695 19.3111 8.67806 19.3111C8.67806 19.3111 8.67806 19.3111 8.73917 19.3111C8.92251 19.3111 9.10584 19.3111 9.35029 19.1889C10.6336 18.6389 11.7336 18.2111 12.6503 17.8444C15.0947 16.8667 16.0725 16.5 16.5003 16.3167C16.7447 16.1944 16.8058 16.1944 16.867 16.1333L16.9281 16.0722C17.1725 15.8889 17.3558 15.6444 17.4781 15.4C17.6614 15.0333 17.5392 15.3389 19.1892 7.51666C19.2503 7.14999 19.1892 6.84443 19.067 6.53888C19.0058 6.41666 18.9447 6.35554 18.8836 6.29443C20.1058 7.7611 20.1058 7.69999 20.2281 7.94443C20.4114 8.18888 20.4725 8.43332 20.4725 8.67777Z" fill="#F3A250"/>
<path d="M18.5166 17.2333C18.5166 17.2333 18.4555 17.2944 18.2721 17.4778C18.211 17.5389 17.9055 17.6611 17.4166 17.9055C17.1721 18.0278 16.8666 18.15 16.561 18.2722C16.1332 18.4555 15.7055 18.6389 15.2166 18.8222C15.1555 18.8222 15.1555 18.8833 15.0944 18.8833C13.9944 19.3111 12.4666 19.8611 10.5721 20.6555C10.5721 20.6555 10.511 20.6555 10.511 20.7167C10.1444 20.7778 9.89991 20.7778 9.65547 20.7778L8.55547 19.3722C8.55547 19.3722 8.61658 19.3722 8.67769 19.3722C8.67769 19.3722 8.67769 19.3722 8.7388 19.3722C8.92213 19.3722 9.10547 19.3722 9.34991 19.25C10.6332 18.7 11.7332 18.2722 12.6499 17.9055C14.7888 17.05 15.8888 16.5611 16.4999 16.3778C16.6832 16.3167 16.8055 16.2555 16.8666 16.1944C17.0499 16.0722 17.2332 15.95 17.3555 15.7055L18.5166 17.2333ZM14.6666 11.6111C14.1777 12.1611 12.711 12.3444 11.9777 12.3444C11.7944 12.8333 11.3666 13.6278 11.1221 13.8722C11.1221 13.8722 10.7555 14.3611 10.5721 14.4833C10.5721 14.4833 10.5721 14.4833 10.511 14.4833C10.4499 14.6667 10.3888 14.6667 10.3277 14.7278C10.2055 14.7889 10.0832 14.7889 10.0221 14.7278C9.96102 14.6667 10.0221 14.7889 9.41102 14.1778C9.04435 13.8111 8.98324 12.7722 9.04435 11.8555C8.49435 11.6111 7.6388 11.0611 7.27213 10.5111C7.0888 10.2667 6.90547 10.0833 6.96658 9.83887C7.14991 9.22776 8.7388 8.98332 9.77769 8.98332C10.1444 8.00554 11.1221 6.47776 11.6721 6.59998C11.7332 6.59998 11.8555 6.6611 11.9166 6.72221L12.4666 7.2111C12.8332 7.57776 12.8944 8.61665 12.7721 9.47221C13.261 9.65554 13.7499 9.89999 13.9944 10.2055C14.2388 10.5722 15.2166 11.1222 14.6666 11.6111Z" fill="#EF7B56"/>
<path d="M9.41109 11.6722L8.86109 11.1833C8.31109 11.0611 7.45553 10.6944 7.08887 10.2666C7.63887 10.8166 7.63887 10.7555 7.69998 10.8166C8.06664 11.1833 8.86109 11.55 9.41109 11.6722ZM11.9166 9.04442L12.4666 9.53331C12.65 8.67775 12.5889 7.33331 12.1611 6.96664L11.6111 6.47775C12.0389 6.84442 12.1 8.18886 11.9166 9.04442ZM13.6889 9.96109C13.9333 10.1444 13.9944 10.3889 13.9333 10.6333C13.75 11.3055 11.9166 11.55 11.1833 11.55C10.8778 12.3444 9.71664 14.4222 9.10553 13.8111C9.59442 14.3 9.71665 14.4222 9.83887 14.4222C10.5111 14.4833 11.4278 12.7722 11.7333 12.1C12.4666 12.1 14.3 11.8555 14.4833 11.1833C14.6055 10.8778 14.0555 10.3278 13.6889 9.96109Z" fill="#D0CEF2"/>
<path d="M9.34973 13.8111C8.73862 13.75 8.67751 12.1611 8.86084 11.1222C7.94417 10.8778 6.59973 10.2056 6.78306 9.59445C6.9664 8.98334 8.55528 8.67778 9.53306 8.67778C9.89973 7.70001 10.8164 6.23334 11.4275 6.35556C12.0386 6.41667 12.0997 8.00556 11.9164 9.04445C12.8331 9.2889 14.1775 9.96112 13.9942 10.5722C13.8108 11.1833 12.222 11.4889 11.2442 11.4889C10.8775 12.4667 9.96084 13.9333 9.34973 13.8111Z" fill="#F8F9FE"/>
<path d="M9.53347 9.96111C9.41124 10.3889 9.65569 10.8167 10.1446 10.8778C10.6335 10.9389 11.1224 10.6944 11.2446 10.2667C11.3668 9.83889 11.1224 9.41111 10.6335 9.35C10.1446 9.22778 9.65569 9.53334 9.53347 9.96111Z" fill="#E9E7FC"/>
<path d="M11.3055 10.0222C10.8778 9.47221 9.71664 9.77776 9.65553 10.5722C9.16664 9.9611 9.83886 9.16665 10.6333 9.28888C11.0611 9.4111 11.3055 9.71665 11.3055 10.0222Z" fill="#D0CEF2"/>
<path d="M17.1111 8.00555C17.0499 8.00555 16.9277 8.06666 16.9888 8.18889C17.5999 9.10555 17.5999 9.22777 16.8666 8.25C16.8055 8.18889 16.6833 8.18889 16.6833 8.31111C16.1944 10.5722 16.0722 10.6333 16.4388 8.25C16.4388 8.18889 16.3777 8.06666 16.2555 8.12777C15.2777 8.73889 15.2777 8.67777 16.1944 8.00555C16.2555 7.94444 16.2555 7.82222 16.1333 7.82222C13.811 7.33333 13.811 7.21111 16.1944 7.57777C16.2555 7.57777 16.3777 7.51666 16.3166 7.39444C15.7055 6.41666 15.7666 6.41666 16.4388 7.33333C16.4999 7.39444 16.6222 7.39444 16.6222 7.27222C17.1111 5.01111 17.2333 4.88889 16.8666 7.33333C16.8666 7.39444 16.9277 7.51666 17.0499 7.45555C18.0277 6.84444 18.0277 6.90555 17.1111 7.57777C17.0499 7.63889 17.0499 7.76111 17.1722 7.76111C19.4944 8.25 19.4944 8.37222 17.1111 8.00555Z" fill="white"/>
</svg>
