<svg width="36" height="36" viewBox="0 0 36 36" fill="none" xmlns="http://www.w3.org/2000/svg">
<path d="M28.9 27.1C29 28.2 24.8 29.7 19.5 30.3C14.2 31 9.69999 30.6 9.59999 29.5C9.29999 26.8 28.6 24.4 28.9 27.1Z" fill="#BF7D5A"/>
<path d="M19.5 29.9C13.5 30.6 9.99999 29.9 9.99999 29.4C9.89999 28.8 13 27.3 19.1 26.6C25.2 25.8 28.6 26.5 28.6 27.1C28.7 27.6 25.5 29.1 19.5 29.9Z" fill="#AA6256"/>
<path d="M10 32.8C10.1 33.9 14.6 34.3 19.9 33.6C25.2 32.9 29.4 31.5 29.3 30.4L28.9 27C29 28.1 24.8 29.6 19.5 30.2C14.2 30.9 9.70001 30.5 9.60001 29.4L10 32.8Z" fill="#AA6256"/>
<path d="M21.6 33.4C21.1 33.5 20.5 33.6 20 33.6C17.5 33.9 15.2 34 13.4 33.9L13.3 32.9L13 30.5C15.6 30.7 18.7 30.4 21.2 30L21.5 32.3L21.6 33.4ZM29.4 30.5C29.4 31.1 28.2 31.8 26.3 32.4L26 30.7L25.8 29C27.8 28.4 29 27.7 28.9 27.1L29.1 28.6L29.4 30.5Z" fill="#A04D42"/>
<path d="M28 27C28.2 28.9 10.7 31.1 10.5 29.2C10 25.3 12.1 21.6 15.3 20C16.5 19.4 16.3 17.7 15 17.4C11.4 16.6 8.60001 13.6 8.10001 9.59999L25.6 7.39999C26.1 11.3 24 15 20.8 16.6C19.6 17.2 19.9 18.9 21.1 19.2C24.6 20 27.5 23 28 27Z" fill="#E9E7FC"/>
<path d="M26.1 24.6C24.1 27.8 18.3 27.3 12.6 27.3C12.6 25.7 17.2 24.8 18.4 22.9C18.5 22.7 18.7 22.7 18.8 22.8C20.4 24.4 24.4 23.1 26.1 24.6ZM19.1 21.4C19.1 21.8 18.9 22.2 18.5 22.2C18.1 22.2 17.7 22 17.7 21.6C17.7 21.2 18 20.9 18.2 20.5C18.2 20.4 18.3 20.4 18.3 20.5C18.7 20.8 19.1 21 19.1 21.4Z" fill="#F3A250"/>
<path d="M11.7 26.3C11.5 27 11.5 27.8 11.5 28.5C14.1 29.2 24.4 27.9 26.8 26.6C26.7 25.8 26.4 25.1 26.1 24.5C19 27.8 14.8 23.2 11.7 26.3Z" fill="#F9CF6B"/>
<path d="M11.2 13.8C14.1 17.1 16.8 15.6 17.1 17.9C17.4 20.5 19.1 20.2 18.8 17.7C18.7 16.7 19.3 16.1 20.2 15.6C21.7 14.9 22.8 13.7 23.5 12.2C16.6 15.5 16.2 10.8 11.2 13.8Z" fill="#F3A250"/>
<path d="M23.6 12.3C21.6 16.2 18.6 15.4 18.9 17.7C19.2 20.3 17.5 20.5 17.2 17.9C17.1 16.9 16.4 16.5 15.3 16.2C13.7 15.8 12.3 15 11.2 13.8C18.7 15.3 18 10.6 23.6 12.3Z" fill="#F9CF6B"/>
<path opacity="0.13" d="M28 27C28.1 28 23 29.2 18.3 29.6C22.1 29 25.6 28.1 25.5 27.3C25 23.4 22.1 20.3 18.6 19.5C17.3 19.2 17.1 17.5 18.3 16.9C21.6 15.2 23.6 11.6 23.1 7.69999L25.6 7.39999C26.1 11.3 24 15 20.8 16.6C19.6 17.2 19.8 18.9 21.1 19.2C24.6 20 27.5 23 28 27Z" fill="#55697C"/>
<path d="M26 3.2L26.4 6.6C26.5 7.7 22.3 9.2 17 9.8C11.7 10.5 7.20001 10.1 7.10001 9L6.60001 5.6C6.70001 6.7 11.2 7.1 16.5 6.4C21.9 5.7 26.1 4.3 26 3.2Z" fill="#AA6256"/>
<path d="M22.9 5.1L23.3 8.5C25.3 7.9 26.5 7.2 26.4 6.6L26 3.2C26 3.8 24.8 4.5 22.9 5.1ZM18.2 6.2C15.6 6.6 12.5 6.9 10 6.7L10.4 10.1C12.2 10.2 14.5 10.1 17 9.8C17.5 9.7 18.1 9.7 18.6 9.6L18.2 6.2Z" fill="#A04D42"/>
<path d="M16.9 20.7C17.2 21 16.5 21.6 15.8 22.2C15 22.8 14.4 23.4 14.1 23.2C13.8 23 13.9 22.1 14.7 21.4C15.4 20.6 16.6 20.3 16.9 20.7ZM13.5 23.6C13.7 23.7 13.4 24.1 13.1 24.4C12.8 24.8 12.6 25.1 12.4 25C12.2 24.9 12.1 24.4 12.4 24C12.7 23.5 13.3 23.5 13.5 23.6Z" fill="#F8F9FE"/>
<path opacity="0.25" d="M29.4 30.5C29.4 31.1 28.2 31.8 26.3 32.4C25 32.8 23.4 33.2 21.6 33.5C21.1 33.6 20.5 33.7 20 33.7C17.5 34 15.2 34.1 13.4 34C11.4 33.9 10.2 33.5 10.1 32.9L10 32.1C11 32.6 12.1 32.9 13.3 33C14.6 33.1 15.8 33.1 17.1 33C18.6 32.9 20 32.7 21.5 32.4C23.1 32 24.7 31.5 26.1 30.7C27.2 30.1 28.2 29.4 29.2 28.6L29.4 30.5ZM26.2 4.7L26.4 6.6C26.5 7.7 22.3 9.2 17 9.8C11.7 10.5 7.2 10.1 7.1 9L7 8.1C9.2 9.2 11.7 9.3 14.1 9.1C18.4 8.8 22.9 7.6 26.2 4.7Z" fill="#84231C"/>
<path d="M26 3.2C26.1 4.3 21.9 6 16.6 6.6C11.3 7.3 6.8 6.7 6.7 5.6C6.5 4.4 10.7 3 16.1 2.3C21.4 1.7 25.8 2 26 3.2Z" fill="#BF7D5A"/>
<path d="M16.5 6.09999C10.5 6.79999 6.99999 6.09999 6.99999 5.59999C6.89999 4.99999 9.99999 3.49999 16.1 2.79999C22.2 1.99999 25.6 2.69999 25.6 3.29999C25.7 3.79999 22.6 5.29999 16.5 6.09999Z" fill="#AA6256"/>
<path d="M20.1 3.7C20.2 4.1 18.5 4.7 16.4 5C14.3 5.3 12.5 5.1 12.5 4.7C12.4 4.3 14.1 3.7 16.2 3.4C18.3 3.2 20.1 3.3 20.1 3.7Z" fill="#BF7D5A"/>
<path d="M22.2 11.3C22.1 11.3 22.1 11.5 22.1 11.5C23.2 12.3 23.3 12.5 22 11.7C21.9 11.6 21.8 11.7 21.8 11.8C22.2 14.7 22.1 14.8 21.5 11.9C21.5 11.8 21.3 11.8 21.3 11.8C20.4 12.9 20.4 12.9 21.1 11.7C21.2 11.6 21.1 11.5 21 11.5C19.8 11.7 18.8 11.8 18.8 11.7C18.8 11.6 19.8 11.4 21 11.1C21.1 11.1 21.1 10.9 21.1 10.9C20.6 10.5 20.2 10.2 20.3 10.2C20.3 10.2 20.7 10.4 21.2 10.7C21.3 10.8 21.4 10.7 21.4 10.6C21 7.70001 21.1 7.60001 21.7 10.5C21.7 10.6 21.9 10.6 21.9 10.6C22.8 9.40001 22.8 9.50001 22.1 10.7C22 10.8 22.1 10.9 22.2 10.9C23.4 10.7 24.4 10.6 24.4 10.7C24.4 10.8 23.4 11.1 22.2 11.3Z" fill="white"/>
</svg>
