<svg width="36" height="36" viewBox="0 0 36 36" fill="none" xmlns="http://www.w3.org/2000/svg">
<g clip-path="url(#clip0_175_734)">
<path d="M18 18.75C21.7279 18.75 24.75 15.7279 24.75 12C24.75 8.27208 21.7279 5.25 18 5.25C14.2721 5.25 11.25 8.27208 11.25 12C11.25 15.7279 14.2721 18.75 18 18.75Z" fill="#3BAFFF"/>
<path d="M10.5 28.5L25.5 28.5C26.3284 28.5 27 27.8284 27 27V18C27 17.1716 26.3284 16.5 25.5 16.5H10.5C9.67157 16.5 9 17.1716 9 18V27C9 27.8284 9.67157 28.5 10.5 28.5Z" fill="#FAF7F5"/>
<path d="M18 11.25C17.8516 11.25 17.7066 11.206 17.5833 11.1236C17.4599 11.0412 17.3638 10.9241 17.307 10.787C17.2503 10.65 17.2354 10.4992 17.2644 10.3537C17.2933 10.2082 17.3647 10.0746 17.4696 9.96967C17.5745 9.86478 17.7082 9.79335 17.8536 9.76441C17.9991 9.73547 18.1499 9.75032 18.287 9.80709C18.424 9.86386 18.5412 9.95999 18.6236 10.0833C18.706 10.2067 18.75 10.3517 18.75 10.5C18.75 10.6989 18.829 10.8897 18.9696 11.0303C19.1103 11.171 19.301 11.25 19.5 11.25C20.745 11.25 20.4075 9 18.75 8.385V8.25C18.75 8.05109 18.6709 7.86032 18.5303 7.71967C18.3896 7.57902 18.1989 7.5 18 7.5C17.801 7.5 17.6103 7.57902 17.4696 7.71967C17.329 7.86032 17.25 8.05109 17.25 8.25V8.385C16.7539 8.56498 16.3369 8.91358 16.0719 9.36985C15.8068 9.82612 15.7106 10.361 15.7999 10.8811C15.8893 11.4011 16.1586 11.8732 16.5607 12.2149C16.9629 12.5565 17.4723 12.7459 18 12.75C18.1483 12.75 18.2933 12.794 18.4166 12.8764C18.54 12.9588 18.6361 13.0759 18.6929 13.213C18.7496 13.35 18.7645 13.5008 18.7355 13.6463C18.7066 13.7918 18.6352 13.9254 18.5303 14.0303C18.4254 14.1352 18.2918 14.2067 18.1463 14.2356C18.0008 14.2645 17.85 14.2497 17.7129 14.1929C17.5759 14.1361 17.4588 14.04 17.3764 13.9167C17.2939 13.7933 17.25 13.6483 17.25 13.5C17.25 13.3011 17.1709 13.1103 17.0303 12.9697C16.8896 12.829 16.6989 12.75 16.5 12.75C15.255 12.75 15.5925 15 17.25 15.615V15.75C17.25 15.9489 17.329 16.1397 17.4696 16.2803C17.6103 16.421 17.801 16.5 18 16.5C18.1989 16.5 18.3896 16.421 18.5303 16.2803C18.6709 16.1397 18.75 15.9489 18.75 15.75V15.615C19.246 15.435 19.663 15.0864 19.928 14.6302C20.1931 14.1739 20.2894 13.639 20.2 13.1189C20.1107 12.5989 19.8414 12.1268 19.4392 11.7851C19.037 11.4435 18.5276 11.2541 18 11.25Z" fill="#FAF7F5"/>
<path d="M13.5 12.75C13.9142 12.75 14.25 12.4142 14.25 12C14.25 11.5858 13.9142 11.25 13.5 11.25C13.0858 11.25 12.75 11.5858 12.75 12C12.75 12.4142 13.0858 12.75 13.5 12.75Z" fill="#FAF7F5"/>
<path d="M22.5 12.75C22.9142 12.75 23.25 12.4142 23.25 12C23.25 11.5858 22.9142 11.25 22.5 11.25C22.0858 11.25 21.75 11.5858 21.75 12C21.75 12.4142 22.0858 12.75 22.5 12.75Z" fill="#FAF7F5"/>
<path d="M28.02 30.15C25.1539 32.5102 21.5462 33.782 17.8337 33.7409C14.1212 33.6999 10.5425 32.3486 7.72937 29.9257C4.91621 27.5028 3.04944 24.1639 2.45856 20.4985C1.86768 16.833 2.59069 13.0767 4.49996 9.8925V11.25C4.49996 11.4489 4.57897 11.6397 4.71963 11.7803C4.86028 11.921 5.05104 12 5.24996 12C5.44887 12 5.63963 11.921 5.78029 11.7803C5.92094 11.6397 5.99996 11.4489 5.99996 11.25V8.25C5.99996 8.05109 5.92094 7.86032 5.78029 7.71967C5.63963 7.57902 5.44887 7.5 5.24996 7.5H2.24996C2.05104 7.5 1.86028 7.57902 1.71963 7.71967C1.57897 7.86032 1.49996 8.05109 1.49996 8.25C1.49996 8.44891 1.57897 8.63968 1.71963 8.78033C1.86028 8.92098 2.05104 9 2.24996 9H3.28496C-3.69754 20.37 4.49996 35.25 18 35.25C22.0064 35.2465 25.8874 33.8521 28.98 31.305C29.1331 31.1777 29.2294 30.9948 29.2477 30.7964C29.266 30.5981 29.2048 30.4007 29.0775 30.2475C28.9502 30.0943 28.7672 29.998 28.5689 29.9797C28.3706 29.9615 28.1731 30.0227 28.02 30.15ZM33.75 27H32.715C39.6975 15.63 31.5 0.75 18 0.75C13.9935 0.753524 10.1125 2.14791 7.01996 4.695C6.94412 4.75803 6.88144 4.83539 6.83549 4.92265C6.78955 5.00991 6.76124 5.10536 6.75219 5.20356C6.74314 5.30175 6.75351 5.40077 6.78273 5.49496C6.81194 5.58915 6.85942 5.67666 6.92246 5.7525C6.98549 5.82834 7.06285 5.89102 7.1501 5.93696C7.23736 5.98291 7.33282 6.01121 7.43101 6.02027C7.52921 6.02932 7.62823 6.01894 7.72242 5.98973C7.81661 5.96051 7.90412 5.91303 7.97996 5.85C10.846 3.48984 14.4537 2.21803 18.1662 2.25907C21.8787 2.30011 25.4574 3.65135 28.2705 6.0743C31.0837 8.49724 32.9505 11.8361 33.5414 15.5015C34.1322 19.167 33.4092 22.9233 31.5 26.1075V24.75C31.5 24.5511 31.4209 24.3603 31.2803 24.2197C31.1396 24.079 30.9489 24 30.75 24C30.551 24 30.3603 24.079 30.2196 24.2197C30.079 24.3603 30 24.5511 30 24.75V27.75C30 27.9489 30.079 28.1397 30.2196 28.2803C30.3603 28.421 30.551 28.5 30.75 28.5H33.75C33.9489 28.5 34.1396 28.421 34.2803 28.2803C34.4209 28.1397 34.5 27.9489 34.5 27.75C34.5 27.5511 34.4209 27.3603 34.2803 27.2197C34.1396 27.079 33.9489 27 33.75 27Z" fill="#321C1C"/>
<path d="M25.5 29.25H10.5C9.90326 29.25 9.33097 29.0129 8.90901 28.591C8.48705 28.169 8.25 27.5967 8.25 27V18C8.25 17.4033 8.48705 16.831 8.90901 16.409C9.33097 15.9871 9.90326 15.75 10.5 15.75H25.5C26.0967 15.75 26.669 15.9871 27.091 16.409C27.5129 16.831 27.75 17.4033 27.75 18V27C27.75 27.5967 27.5129 28.169 27.091 28.591C26.669 29.0129 26.0967 29.25 25.5 29.25ZM10.5 17.25C10.3011 17.25 10.1103 17.329 9.96967 17.4697C9.82902 17.6103 9.75 17.8011 9.75 18V27C9.75 27.1989 9.82902 27.3897 9.96967 27.5303C10.1103 27.671 10.3011 27.75 10.5 27.75H25.5C25.6989 27.75 25.8897 27.671 26.0303 27.5303C26.171 27.3897 26.25 27.1989 26.25 27V18C26.25 17.8011 26.171 17.6103 26.0303 17.4697C25.8897 17.329 25.6989 17.25 25.5 17.25H10.5Z" fill="#321C1C"/>
<path d="M22.5 24.75H26.25V20.25H22.5C21.9033 20.25 21.331 20.4871 20.909 20.909C20.4871 21.331 20.25 21.9033 20.25 22.5C20.25 23.0967 20.4871 23.669 20.909 24.091C21.331 24.5129 21.9033 24.75 22.5 24.75Z" fill="#828282"/>
<path d="M22.5 23.25C22.9142 23.25 23.25 22.9142 23.25 22.5C23.25 22.0858 22.9142 21.75 22.5 21.75C22.0858 21.75 21.75 22.0858 21.75 22.5C21.75 22.9142 22.0858 23.25 22.5 23.25Z" fill="#FAF7F5"/>
</g>
<defs>
<clipPath id="clip0_175_734">
<rect width="36" height="36" fill="white"/>
</clipPath>
</defs>
</svg>
