<svg width="25" height="24" viewBox="0 0 25 24" fill="none" xmlns="http://www.w3.org/2000/svg">
<path opacity="0.2" d="M21.5 7.5V18C21.5 18.1989 21.421 18.3897 21.2803 18.5303C21.1397 18.671 20.9489 18.75 20.75 18.75H5.75C5.35218 18.75 4.97064 18.592 4.68934 18.3107C4.40804 18.0294 4.25 17.6478 4.25 17.25V5.25C4.25 5.64782 4.40804 6.02936 4.68934 6.31066C4.97064 6.59196 5.35218 6.75 5.75 6.75H20.75C20.9489 6.75 21.1397 6.82902 21.2803 6.96967C21.421 7.11032 21.5 7.30109 21.5 7.5Z" fill="#828282"/>
<path d="M20.75 6H5.75C5.55109 6 5.36032 5.92098 5.21967 5.78033C5.07902 5.63968 5 5.44891 5 5.25C5 5.05109 5.07902 4.86032 5.21967 4.71967C5.36032 4.57902 5.55109 4.5 5.75 4.5H18.5C18.6989 4.5 18.8897 4.42098 19.0303 4.28033C19.171 4.13968 19.25 3.94891 19.25 3.75C19.25 3.55109 19.171 3.36032 19.0303 3.21967C18.8897 3.07902 18.6989 3 18.5 3H5.75C5.15326 3 4.58097 3.23705 4.15901 3.65901C3.73705 4.08097 3.5 4.65326 3.5 5.25V17.25C3.5 17.8467 3.73705 18.419 4.15901 18.841C4.58097 19.2629 5.15326 19.5 5.75 19.5H20.75C21.1478 19.5 21.5294 19.342 21.8107 19.0607C22.092 18.7794 22.25 18.3978 22.25 18V7.5C22.25 7.10218 22.092 6.72064 21.8107 6.43934C21.5294 6.15804 21.1478 6 20.75 6ZM20.75 18H5.75C5.55109 18 5.36032 17.921 5.21967 17.7803C5.07902 17.6397 5 17.4489 5 17.25V7.37156C5.24082 7.45693 5.4945 7.50037 5.75 7.5H20.75V18ZM16.25 12.375C16.25 12.1525 16.316 11.935 16.4396 11.75C16.5632 11.565 16.7389 11.4208 16.9445 11.3356C17.15 11.2505 17.3762 11.2282 17.5945 11.2716C17.8127 11.315 18.0132 11.4222 18.1705 11.5795C18.3278 11.7368 18.435 11.9373 18.4784 12.1555C18.5218 12.3738 18.4995 12.6 18.4144 12.8055C18.3292 13.0111 18.185 13.1868 18 13.3104C17.815 13.434 17.5975 13.5 17.375 13.5C17.0766 13.5 16.7905 13.3815 16.5795 13.1705C16.3685 12.9595 16.25 12.6734 16.25 12.375Z" fill="#828282"/>
</svg>
