<svg width="36" height="36" viewBox="0 0 36 36" fill="none" xmlns="http://www.w3.org/2000/svg">
<path d="M12.7499 6.405V16.5H9.78744L6.23993 15.21C6.05394 15.143 5.88303 15.0399 5.73702 14.9066C5.59101 14.7733 5.47279 14.6125 5.38915 14.4334C5.30551 14.2543 5.25811 14.0604 5.24966 13.8629C5.24121 13.6653 5.27189 13.4681 5.33993 13.2825C5.96243 11.5725 5.46744 12.9225 7.90493 6.24C8.04033 5.86614 8.31862 5.56134 8.67864 5.39258C9.03867 5.22381 9.45097 5.2049 9.82494 5.34L12.7499 6.405Z" fill="#828282"/>
<path d="M11.49 14.6775C11.31 14.6775 11.49 14.715 8.415 13.605C8.32242 13.571 8.23744 13.5191 8.1649 13.4523C8.09237 13.3855 8.03371 13.305 7.99228 13.2156C7.95084 13.1261 7.92743 13.0293 7.9234 12.9307C7.91936 12.8322 7.93477 12.7338 7.96875 12.6413C8.00273 12.5487 8.05461 12.4637 8.12143 12.3912C8.18826 12.3186 8.26871 12.26 8.3582 12.2185C8.4477 12.1771 8.54447 12.1537 8.64301 12.1497C8.74155 12.1456 8.83992 12.161 8.9325 12.195L11.745 13.2225C11.9107 13.2827 12.05 13.3993 12.1383 13.5519C12.2266 13.7045 12.2583 13.8833 12.2279 14.057C12.1974 14.2306 12.1068 14.388 11.9718 14.5015C11.8369 14.615 11.6663 14.6773 11.49 14.6775ZM12.75 8.79751V11.1975L6.8775 9.06001L7.65 6.94501L12.75 8.79751ZM25.6275 23.3775C25.2075 23.7971 24.9214 24.3318 24.8054 24.9141C24.6895 25.4963 24.7489 26.0999 24.9761 26.6484C25.2034 27.1968 25.5883 27.6656 26.0821 27.9952C26.5758 28.3248 27.1563 28.5005 27.75 28.5H32.25V32.25C32.25 32.8467 32.0129 33.419 31.591 33.841C31.169 34.263 30.5967 34.5 30 34.5H4.5C3.90326 34.5 3.33097 34.263 2.90901 33.841C2.48705 33.419 2.25 32.8467 2.25 32.25V14.25C2.25 14.8467 2.48705 15.419 2.90901 15.841C3.33097 16.263 3.90326 16.5 4.5 16.5H30.75C31.1478 16.5 31.5294 16.658 31.8107 16.9393C32.092 17.2207 32.25 17.6022 32.25 18V22.5H27.75C27.3559 22.4997 26.9656 22.577 26.6015 22.7276C26.2373 22.8782 25.9063 23.099 25.6275 23.3775Z" fill="#FAF7F5"/>
<path d="M33.75 23.25V27.75C33.75 27.9489 33.671 28.1397 33.5303 28.2803C33.3897 28.421 33.1989 28.5 33 28.5H27.75C26.9544 28.5 26.1913 28.1839 25.6287 27.6213C25.0661 27.0587 24.75 26.2956 24.75 25.5C24.75 24.7044 25.0661 23.9413 25.6287 23.3787C26.1913 22.8161 26.9544 22.5 27.75 22.5H33C33.1989 22.5 33.3897 22.579 33.5303 22.7197C33.671 22.8603 33.75 23.0511 33.75 23.25ZM9.7875 16.5H4.5C3.90326 16.5 3.33097 16.2629 2.90901 15.841C2.48705 15.419 2.25 14.8467 2.25 14.25C2.25 13.6533 2.48705 13.081 2.90901 12.659C3.33097 12.2371 3.90326 12 4.5 12H5.805L5.34 13.2825C5.27196 13.4681 5.24128 13.6653 5.24973 13.8629C5.25817 14.0604 5.30558 14.2543 5.38922 14.4334C5.47286 14.6125 5.59108 14.7733 5.73709 14.9066C5.88309 15.0399 6.05401 15.143 6.24 15.21L9.7875 16.5ZM29.25 13.5V16.5H26.25V12H27.75C28.1478 12 28.5294 12.158 28.8107 12.4393C29.092 12.7206 29.25 13.1022 29.25 13.5Z" fill="#828282"/>
<path d="M12.75 1.5H26.25V16.5H12.75V1.5Z" fill="#FAF7F5"/>
<path d="M22.845 16.5H16.155C15.5731 15.8534 15.1911 15.052 15.0553 14.1929C14.9194 13.3337 15.0354 12.4536 15.3893 11.659C15.7432 10.8644 16.3198 10.1894 17.0494 9.71566C17.7789 9.24196 18.6302 8.98985 19.5 8.98985C20.3699 8.98985 21.2211 9.24196 21.9506 9.71566C22.6802 10.1894 23.2568 10.8644 23.6107 11.659C23.9646 12.4536 24.0806 13.3337 23.9447 14.1929C23.8089 15.052 23.4269 15.8534 22.845 16.5Z" fill="#3BAFFF"/>
<path d="M27.75 26.25C28.1642 26.25 28.5 25.9142 28.5 25.5C28.5 25.0858 28.1642 24.75 27.75 24.75C27.3358 24.75 27 25.0858 27 25.5C27 25.9142 27.3358 26.25 27.75 26.25Z" fill="#FAF7F5"/>
<path d="M33 21.75V18C33 17.4033 32.7629 16.831 32.341 16.409C31.919 15.9871 31.3467 15.75 30.75 15.75H30V13.5C30 12.9033 29.7629 12.331 29.341 11.909C28.919 11.4871 28.3467 11.25 27.75 11.25H27V1.5C27 1.30109 26.921 1.11032 26.7803 0.96967C26.6397 0.829018 26.4489 0.75 26.25 0.75H12.75C12.5511 0.75 12.3603 0.829018 12.2197 0.96967C12.079 1.11032 12 1.30109 12 1.5V5.3325L10.0875 4.635C9.80836 4.53388 9.51196 4.489 9.2154 4.50296C8.91883 4.51691 8.62796 4.58942 8.35955 4.71631C8.09114 4.84319 7.85049 5.02195 7.65148 5.24226C7.45247 5.46258 7.29903 5.72011 7.2 6L5.25 11.25H4.5C3.70435 11.25 2.94129 11.5661 2.37868 12.1287C1.81607 12.6913 1.5 13.4544 1.5 14.25V32.25C1.5 33.0457 1.81607 33.8087 2.37868 34.3713C2.94129 34.9339 3.70435 35.25 4.5 35.25H30C30.7956 35.25 31.5587 34.9339 32.1213 34.3713C32.6839 33.8087 33 33.0457 33 32.25V29.25C33.3978 29.25 33.7794 29.092 34.0607 28.8107C34.342 28.5294 34.5 28.1478 34.5 27.75V23.25C34.5 22.8522 34.342 22.4706 34.0607 22.1893C33.7794 21.908 33.3978 21.75 33 21.75ZM27.75 12.75C27.9489 12.75 28.1397 12.829 28.2803 12.9697C28.421 13.1103 28.5 13.3011 28.5 13.5V15.75H27V12.75H27.75ZM13.5 2.25H25.5V15.75H13.5V2.25ZM8.61 6.495C8.6777 6.30807 8.81684 6.15567 8.99685 6.07129C9.17687 5.98691 9.38302 5.97745 9.57 6.045L12 6.93V15.75H9.9225L6.495 14.505C6.40156 14.4715 6.3157 14.4198 6.24239 14.3529C6.16908 14.286 6.10977 14.2052 6.06791 14.1152C6.02606 14.0252 6.00248 13.9278 5.99854 13.8287C5.99461 13.7295 6.0104 13.6305 6.045 13.5375L8.61 6.495ZM3.4425 13.1925C3.72251 12.9108 4.10282 12.7517 4.5 12.75H4.7325L4.635 13.0275C4.5333 13.3058 4.48758 13.6015 4.50045 13.8975C4.51332 14.1935 4.58453 14.4841 4.71 14.7525C5.25 15.8625 6.165 15.75 5.25 15.75H4.5C4.20425 15.7488 3.91546 15.6601 3.66994 15.4952C3.42442 15.3303 3.23314 15.0965 3.12012 14.8232C3.00711 14.5499 2.97742 14.2492 3.03478 13.9591C3.09214 13.669 3.23399 13.4023 3.4425 13.1925ZM31.5 32.25C31.5 32.6478 31.342 33.0294 31.0607 33.3107C30.7794 33.592 30.3978 33.75 30 33.75H4.5C4.10218 33.75 3.72064 33.592 3.43934 33.3107C3.15804 33.0294 3 32.6478 3 32.25V16.83C3.6879 17.2011 4.47456 17.3479 5.25 17.25H30.75C30.9489 17.25 31.1397 17.329 31.2803 17.4697C31.421 17.6103 31.5 17.8011 31.5 18V21.75H27.75C26.7554 21.75 25.8016 22.1451 25.0984 22.8484C24.3951 23.5516 24 24.5054 24 25.5C24 26.4946 24.3951 27.4484 25.0984 28.1516C25.8016 28.8549 26.7554 29.25 27.75 29.25H31.5V32.25ZM27.75 27.75C27.1533 27.75 26.581 27.5129 26.159 27.091C25.7371 26.669 25.5 26.0967 25.5 25.5C25.5 24.9033 25.7371 24.331 26.159 23.909C26.581 23.4871 27.1533 23.25 27.75 23.25H33V27.75H27.75Z" fill="#321C1C"/>
<path d="M13.5 5.25V2.25H16.5C16.5 3.04565 16.1839 3.80871 15.6213 4.37132C15.0587 4.93393 14.2956 5.25 13.5 5.25ZM25.5 5.25V2.25H22.5C22.5 3.04565 22.8161 3.80871 23.3787 4.37132C23.9413 4.93393 24.7044 5.25 25.5 5.25Z" fill="#828282"/>
<path d="M19.5 6.75C19.9142 6.75 20.25 6.41421 20.25 6C20.25 5.58579 19.9142 5.25 19.5 5.25C19.0858 5.25 18.75 5.58579 18.75 6C18.75 6.41421 19.0858 6.75 19.5 6.75Z" fill="#828282"/>
</svg>
