<svg width="36" height="36" viewBox="0 0 36 36" fill="none" xmlns="http://www.w3.org/2000/svg">
<path d="M19.4849 24.21L18.9974 24L19.4849 24.21Z" fill="#FAF7F5"/>
<path d="M20.61 24.69L19.5 24.21C19.9875 23.9175 19.5525 24 29.25 24C29.5092 24.0042 29.7629 24.0755 29.9864 24.2069C30.2098 24.3384 30.3954 24.5255 30.525 24.75L21.24 28.1325C21.4895 27.8921 21.6757 27.5937 21.7819 27.2639C21.888 26.934 21.911 26.5831 21.8486 26.2422C21.7862 25.9014 21.6405 25.5813 21.4244 25.3105C21.2083 25.0396 20.9285 24.8265 20.61 24.69Z" fill="#828282"/>
<path d="M32.2501 21V22.5C32.2501 22.8978 32.0921 23.2794 31.8108 23.5607C31.5295 23.842 31.1479 24 30.7501 24H24.9751C25.3729 24 25.7545 23.842 26.0358 23.5607C26.3171 23.2794 26.4751 22.8978 26.4751 22.5V21C26.4751 20.6022 26.3171 20.2206 26.0358 19.9393C25.7545 19.658 25.3729 19.5 24.9751 19.5H30.7501C31.1479 19.5 31.5295 19.658 31.8108 19.9393C32.0921 20.2206 32.2501 20.6022 32.2501 21Z" fill="#FAF7F5"/>
<path d="M27 15H18C17.1716 15 16.5 15.6716 16.5 16.5V18C16.5 18.8284 17.1716 19.5 18 19.5H27C27.8284 19.5 28.5 18.8284 28.5 18V16.5C28.5 15.6716 27.8284 15 27 15Z" fill="#FAF7F5"/>
<path d="M19.5001 17.25C19.3012 17.25 19.1104 17.171 18.9698 17.0303C18.8291 16.8897 18.7501 16.6989 18.7501 16.5V15C18.7501 14.8011 18.8291 14.6103 18.9698 14.4697C19.1104 14.329 19.3012 14.25 19.5001 14.25C19.699 14.25 19.8898 14.329 20.0304 14.4697C20.1711 14.6103 20.2501 14.8011 20.2501 15V16.5C20.2501 16.6989 20.1711 16.8897 20.0304 17.0303C19.8898 17.171 19.699 17.25 19.5001 17.25ZM22.5001 17.25C22.3012 17.25 22.1104 17.171 21.9698 17.0303C21.8291 16.8897 21.7501 16.6989 21.7501 16.5V15C21.7501 14.8011 21.8291 14.6103 21.9698 14.4697C22.1104 14.329 22.3012 14.25 22.5001 14.25C22.699 14.25 22.8898 14.329 23.0304 14.4697C23.1711 14.6103 23.2501 14.8011 23.2501 15V16.5C23.2501 16.6989 23.1711 16.8897 23.0304 17.0303C22.8898 17.171 22.699 17.25 22.5001 17.25ZM25.5001 17.25C25.3012 17.25 25.1104 17.171 24.9698 17.0303C24.8291 16.8897 24.7501 16.6989 24.7501 16.5V15C24.7501 14.8011 24.8291 14.6103 24.9698 14.4697C25.1104 14.329 25.3012 14.25 25.5001 14.25C25.699 14.25 25.8898 14.329 26.0304 14.4697C26.1711 14.6103 26.2501 14.8011 26.2501 15V16.5C26.2501 16.6989 26.1711 16.8897 26.0304 17.0303C25.8898 17.171 25.699 17.25 25.5001 17.25ZM29.2501 21.75C29.0512 21.75 28.8604 21.671 28.7198 21.5303C28.5791 21.3897 28.5001 21.1989 28.5001 21V19.5C28.5001 19.3011 28.5791 19.1103 28.7198 18.9697C28.8604 18.829 29.0512 18.75 29.2501 18.75C29.449 18.75 29.6398 18.829 29.7804 18.9697C29.9211 19.1103 30.0001 19.3011 30.0001 19.5V21C30.0001 21.1989 29.9211 21.3897 29.7804 21.5303C29.6398 21.671 29.449 21.75 29.2501 21.75ZM26.4751 21V22.5C26.4751 22.8978 26.3171 23.2794 26.0358 23.5607C25.7545 23.842 25.3729 24 24.9751 24H18.9751L14.4751 22.0575V21C14.4751 20.6022 14.6331 20.2206 14.9144 19.9393C15.1957 19.658 15.5773 19.5 15.9751 19.5H24.9751C25.3729 19.5 25.7545 19.658 26.0358 19.9393C26.3171 20.2206 26.4751 20.6022 26.4751 21Z" fill="#828282"/>
<path d="M17.25 21.75C17.0511 21.75 16.8603 21.671 16.7197 21.5303C16.579 21.3897 16.5 21.1989 16.5 21V19.5C16.5 19.3011 16.579 19.1103 16.7197 18.9697C16.8603 18.829 17.0511 18.75 17.25 18.75C17.4489 18.75 17.6397 18.829 17.7803 18.9697C17.921 19.1103 18 19.3011 18 19.5V21C18 21.1989 17.921 21.3897 17.7803 21.5303C17.6397 21.671 17.4489 21.75 17.25 21.75ZM20.25 21.75C20.0511 21.75 19.8603 21.671 19.7197 21.5303C19.579 21.3897 19.5 21.1989 19.5 21V19.5C19.5 19.3011 19.579 19.1103 19.7197 18.9697C19.8603 18.829 20.0511 18.75 20.25 18.75C20.4489 18.75 20.6397 18.829 20.7803 18.9697C20.921 19.1103 21 19.3011 21 19.5V21C21 21.1989 20.921 21.3897 20.7803 21.5303C20.6397 21.671 20.4489 21.75 20.25 21.75ZM23.25 21.75C23.0511 21.75 22.8603 21.671 22.7197 21.5303C22.579 21.3897 22.5 21.1989 22.5 21V19.5C22.5 19.3011 22.579 19.1103 22.7197 18.9697C22.8603 18.829 23.0511 18.75 23.25 18.75C23.4489 18.75 23.6397 18.829 23.7803 18.9697C23.921 19.1103 24 19.3011 24 19.5V21C24 21.1989 23.921 21.3897 23.7803 21.5303C23.6397 21.671 23.4489 21.75 23.25 21.75ZM24 26.25C23.8011 26.25 23.6103 26.171 23.4697 26.0303C23.329 25.8897 23.25 25.6989 23.25 25.5V24C23.25 23.8011 23.329 23.6103 23.4697 23.4697C23.6103 23.329 23.8011 23.25 24 23.25C24.1989 23.25 24.3897 23.329 24.5303 23.4697C24.671 23.6103 24.75 23.8011 24.75 24V25.5C24.75 25.6989 24.671 25.8897 24.5303 26.0303C24.3897 26.171 24.1989 26.25 24 26.25Z" fill="#FAF7F5"/>
<path d="M6 21.75V31.5C6 31.8978 5.84196 32.2794 5.56066 32.5607C5.27936 32.842 4.89782 33 4.5 33H1.5V20.25H4.5C4.89782 20.25 5.27936 20.408 5.56066 20.6893C5.84196 20.9706 6 21.3522 6 21.75Z" fill="#828282"/>
<path d="M34.5 26.3925C34.4991 26.8004 34.385 27.2 34.1705 27.5469C33.956 27.8938 33.6495 28.1744 33.285 28.3575L23.4525 33.2775C22.23 33.87 21.7275 33.75 17.8575 33.75C17.04 33.75 17.4075 33.75 9.60753 31.6575C8.85753 31.4475 8.39253 31.5 6.03003 31.5V21.75L10.4175 21.2025C11.4728 21.0627 12.5463 21.213 13.5225 21.6375L20.64 24.69C20.9585 24.8265 21.2383 25.0396 21.4544 25.3105C21.6705 25.5813 21.8163 25.9014 21.8786 26.2422C21.941 26.5831 21.9181 26.934 21.8119 27.2638C21.7057 27.5937 21.5195 27.8921 21.27 28.1325L31.5825 24.3375C31.9119 24.2215 32.2643 24.1859 32.6102 24.2338C32.9562 24.2817 33.2857 24.4116 33.5712 24.6127C33.8567 24.8138 34.09 25.0803 34.2516 25.3899C34.4131 25.6995 34.4983 26.0433 34.5 26.3925Z" fill="#FAF7F5"/>
<path d="M22.5 15C26.2279 15 29.25 11.9779 29.25 8.25C29.25 4.52208 26.2279 1.5 22.5 1.5C18.7721 1.5 15.75 4.52208 15.75 8.25C15.75 11.9779 18.7721 15 22.5 15Z" fill="#3BAFFF"/>
<path d="M22.5 7.5C22.3516 7.5 22.2066 7.45601 22.0833 7.3736C21.9599 7.29119 21.8638 7.17406 21.807 7.03701C21.7503 6.89997 21.7354 6.74917 21.7644 6.60368C21.7933 6.4582 21.8647 6.32456 21.9696 6.21967C22.0745 6.11478 22.2082 6.04335 22.3536 6.01441C22.4991 5.98547 22.6499 6.00032 22.787 6.05709C22.924 6.11386 23.0412 6.20999 23.1236 6.33332C23.206 6.45666 23.25 6.60166 23.25 6.75C23.25 6.94891 23.329 7.13968 23.4696 7.28033C23.6103 7.42098 23.801 7.5 24 7.5C25.245 7.5 24.9075 5.25 23.25 4.635V4.5C23.25 4.30109 23.1709 4.11032 23.0303 3.96967C22.8896 3.82902 22.6989 3.75 22.5 3.75C22.301 3.75 22.1103 3.82902 21.9696 3.96967C21.829 4.11032 21.75 4.30109 21.75 4.5V4.635C21.2539 4.81498 20.8369 5.16358 20.5719 5.61985C20.3068 6.07612 20.2106 6.61103 20.2999 7.13108C20.3893 7.65113 20.6586 8.12324 21.0607 8.46486C21.4629 8.80649 21.9723 8.99591 22.5 9C22.6483 9 22.7933 9.04399 22.9166 9.1264C23.04 9.20881 23.1361 9.32594 23.1929 9.46299C23.2496 9.60003 23.2645 9.75083 23.2355 9.89632C23.2066 10.0418 23.1352 10.1754 23.0303 10.2803C22.9254 10.3852 22.7918 10.4567 22.6463 10.4856C22.5008 10.5145 22.35 10.4997 22.2129 10.4429C22.0759 10.3861 21.9588 10.29 21.8764 10.1667C21.7939 10.0433 21.75 9.89834 21.75 9.75C21.75 9.55109 21.6709 9.36032 21.5303 9.21967C21.3896 9.07902 21.1989 9 21 9C19.755 9 20.0925 11.25 21.75 11.865V12C21.75 12.1989 21.829 12.3897 21.9696 12.5303C22.1103 12.671 22.301 12.75 22.5 12.75C22.6989 12.75 22.8896 12.671 23.0303 12.5303C23.1709 12.3897 23.25 12.1989 23.25 12V11.865C23.746 11.685 24.163 11.3364 24.428 10.8802C24.6931 10.4239 24.7894 9.88897 24.7 9.36892C24.6107 8.84887 24.3414 8.37676 23.9392 8.03514C23.537 7.69351 23.0276 7.50409 22.5 7.5Z" fill="#FAF7F5"/>
<path d="M18 9C18.4142 9 18.75 8.66421 18.75 8.25C18.75 7.83579 18.4142 7.5 18 7.5C17.5858 7.5 17.25 7.83579 17.25 8.25C17.25 8.66421 17.5858 9 18 9Z" fill="#FAF7F5"/>
<path d="M27 9C27.4142 9 27.75 8.66421 27.75 8.25C27.75 7.83579 27.4142 7.5 27 7.5C26.5858 7.5 26.25 7.83579 26.25 8.25C26.25 8.66421 26.5858 9 27 9Z" fill="#FAF7F5"/>
<path d="M32.76 23.49C33.0525 22.8975 33 22.6575 33 21C33 20.4033 32.7629 19.831 32.341 19.409C31.919 18.9871 31.3467 18.75 30.75 18.75H29.115C29.31 18.195 29.25 17.895 29.25 16.5C29.25 15.9033 29.0129 15.331 28.591 14.909C28.169 14.4871 27.5967 14.25 27 14.25H18C17.4033 14.25 16.831 14.4871 16.409 14.909C15.9871 15.331 15.75 15.9033 15.75 16.5C15.75 18 15.705 18.24 15.8925 18.75C15.3255 18.7723 14.7879 19.0081 14.3873 19.41C13.9868 19.812 13.7529 20.3504 13.7325 20.9175C12.6475 20.4661 11.4635 20.3058 10.2975 20.4525L6.5475 20.91C6.3825 20.4998 6.10031 20.1473 5.73617 19.8965C5.37202 19.6458 4.94207 19.5079 4.5 19.5H1.5C1.30109 19.5 1.11032 19.579 0.96967 19.7197C0.829018 19.8603 0.75 20.0511 0.75 20.25V33C0.75 33.1989 0.829018 33.3897 0.96967 33.5303C1.11032 33.671 1.30109 33.75 1.5 33.75H4.5C4.96421 33.7487 5.41665 33.6038 5.7953 33.3353C6.17395 33.0668 6.46027 32.6877 6.615 32.25C7.53913 32.1727 8.46939 32.2155 9.3825 32.3775C17.1975 34.5 16.92 34.5 17.8575 34.5C21.51 34.5 22.3575 34.65 23.79 33.945L33.6225 29.025C34.1803 28.7463 34.635 28.2974 34.9209 27.7433C35.2069 27.1892 35.3092 26.5585 35.2132 25.9424C35.1172 25.3263 34.8278 24.7567 34.3868 24.3159C33.9459 23.875 33.3761 23.5858 32.76 23.49ZM28.26 24.75L22.6275 26.82C22.6754 26.0639 22.4219 25.3196 21.9225 24.75H28.26ZM31.5 21V22.5C31.5 22.6989 31.421 22.8897 31.2803 23.0303C31.1397 23.171 30.9489 23.25 30.75 23.25H27.09C27.285 22.695 27.225 22.395 27.225 21C27.223 20.7441 27.1773 20.4905 27.09 20.25H30.75C30.9489 20.25 31.1397 20.329 31.2803 20.4697C31.421 20.6103 31.5 20.8011 31.5 21ZM17.25 16.5C17.25 16.3011 17.329 16.1103 17.4697 15.9697C17.6103 15.829 17.8011 15.75 18 15.75H27C27.1989 15.75 27.3897 15.829 27.5303 15.9697C27.671 16.1103 27.75 16.3011 27.75 16.5V18C27.75 18.1989 27.671 18.3897 27.5303 18.5303C27.3897 18.671 27.1989 18.75 27 18.75H18C17.8011 18.75 17.6103 18.671 17.4697 18.5303C17.329 18.3897 17.25 18.1989 17.25 18V16.5ZM15.975 20.25H24.975C25.1739 20.25 25.3647 20.329 25.5053 20.4697C25.646 20.6103 25.725 20.8011 25.725 21V22.5C25.725 22.6989 25.646 22.8897 25.5053 23.0303C25.3647 23.171 25.1739 23.25 24.975 23.25H19.155L15.225 21.5625V21C15.225 20.8011 15.304 20.6103 15.4447 20.4697C15.5853 20.329 15.7761 20.25 15.975 20.25ZM4.5 32.25H2.25V21H4.5C4.69891 21 4.88968 21.079 5.03033 21.2197C5.17098 21.3603 5.25 21.5511 5.25 21.75V31.5C5.25 31.6989 5.17098 31.8897 5.03033 32.0303C4.88968 32.171 4.69891 32.25 4.5 32.25ZM32.9475 27.69L23.1225 32.6025C22.5977 32.8619 22.0204 32.9979 21.435 33C17.565 33 17.505 33.045 16.875 32.8725C8.205 30.51 9.75 30.75 6.75 30.75V22.41L10.5 21.945C11.4229 21.8298 12.3599 21.9618 13.215 22.3275L20.3325 25.38C20.6615 25.515 20.9244 25.7737 21.0646 26.1005C21.2049 26.4273 21.2113 26.796 21.0825 27.1275C21.0119 27.3032 20.9045 27.4617 20.7675 27.5925C20.5864 27.7581 20.3655 27.8741 20.1264 27.9293C19.8872 27.9845 19.6379 27.977 19.4025 27.9075L14.535 26.2875C14.4414 26.256 14.3426 26.2432 14.2441 26.2499C14.1456 26.2566 14.0493 26.2826 13.9609 26.3265C13.8724 26.3704 13.7935 26.4312 13.7286 26.5056C13.6637 26.58 13.614 26.6664 13.5825 26.76C13.551 26.8536 13.5382 26.9524 13.5449 27.0509C13.5516 27.1494 13.5776 27.2457 13.6215 27.3341C13.6654 27.4226 13.7262 27.5015 13.8006 27.5664C13.875 27.6313 13.9614 27.681 14.055 27.7125L18.9225 29.3325C19.3922 29.4739 19.8895 29.4979 20.3707 29.4024C20.8518 29.3069 21.3023 29.095 21.6825 28.785L31.86 25.035C32.0755 24.9641 32.3046 24.9451 32.5288 24.9796C32.753 25.014 32.9659 25.101 33.1501 25.2333C33.3343 25.3656 33.4847 25.5396 33.5889 25.741C33.6932 25.9425 33.7484 26.1657 33.75 26.3925C33.7494 26.6619 33.6741 26.9258 33.5324 27.1549C33.3908 27.3839 33.1883 27.5692 32.9475 27.69Z" fill="#321C1C"/>
</svg>
